<svg width="30" height="30" viewBox="0 0 30 30" fill="none" xmlns="http://www.w3.org/2000/svg">
<path d="M12.0708 2.05005L22.0417 2.04169C24.8333 2.20835 28.125 3.87502 28.4167 7.54169L28.5 13.2084L28.6667 16.5834" stroke="white" stroke-width="2" stroke-linecap="round" stroke-linejoin="round"/>
<path d="M25 17.625V12.5V10.6876C25 7.93756 22.75 5.68756 20 5.68756H7.5C4.7375 5.68756 2.5 7.92506 2.5 10.6876V19.4376C2.5 22.2001 4.7375 24.4376 7.5 24.4376H20C22.7625 24.4376 25 22.2001 25 19.4376V17.625Z" stroke="white" stroke-width="2" stroke-linecap="round" stroke-linejoin="round"/>
<path d="M10.5 15.3012V13.6612C10.5 11.6251 11.9419 10.7913 13.7062 11.8093L15.1297 12.6293L16.5531 13.4493C18.3175 14.4674 18.3175 16.135 16.5531 17.1531L15.1297 17.973L13.7062 18.793C11.9419 19.8111 10.5 18.9773 10.5 16.9411V15.3012Z" stroke="white" stroke-width="1.5" stroke-miterlimit="10" stroke-linecap="round" stroke-linejoin="round"/>
</svg>
