<svg width="30" height="30" viewBox="0 0 30 30" fill="none" xmlns="http://www.w3.org/2000/svg">
<path d="M21.2002 7.71252C23.7002 9.45002 25.4252 12.2125 25.7752 15.4" stroke="white" stroke-width="2" stroke-linecap="round" stroke-linejoin="round"/>
<path d="M4.3623 15.4625C4.6873 12.2875 6.3873 9.52502 8.8623 7.77502" stroke="white" stroke-width="2" stroke-linecap="round" stroke-linejoin="round"/>
<path d="M10.2373 26.175C11.6873 26.9125 13.3373 27.325 15.0748 27.325C16.7498 27.325 18.3248 26.95 19.7373 26.2625" stroke="white" stroke-width="2" stroke-linecap="round" stroke-linejoin="round"/>
<path d="M15.0751 9.62505C16.9943 9.62505 18.5501 8.06924 18.5501 6.15005C18.5501 4.23086 16.9943 2.67505 15.0751 2.67505C13.1559 2.67505 11.6001 4.23086 11.6001 6.15005C11.6001 8.06924 13.1559 9.62505 15.0751 9.62505Z" stroke="white" stroke-width="2" stroke-linecap="round" stroke-linejoin="round"/>
<path d="M6.0375 24.9C7.95669 24.9 9.5125 23.3441 9.5125 21.425C9.5125 19.5058 7.95669 17.95 6.0375 17.95C4.11831 17.95 2.5625 19.5058 2.5625 21.425C2.5625 23.3441 4.11831 24.9 6.0375 24.9Z" stroke="white" stroke-width="2" stroke-linecap="round" stroke-linejoin="round"/>
<path d="M23.9623 24.9C25.8815 24.9 27.4373 23.3441 27.4373 21.425C27.4373 19.5058 25.8815 17.95 23.9623 17.95C22.0431 17.95 20.4873 19.5058 20.4873 21.425C20.4873 23.3441 22.0431 24.9 23.9623 24.9Z" stroke="white" stroke-width="2" stroke-linecap="round" stroke-linejoin="round"/>
</svg>
