<svg width="24" height="24" viewBox="0 0 24 24" fill="none" xmlns="http://www.w3.org/2000/svg">
<path d="M8.53001 11.47C8.38783 11.3375 8.19978 11.2654 8.00548 11.2688C7.81118 11.2723 7.6258 11.351 7.48838 11.4884C7.35097 11.6258 7.27226 11.8112 7.26883 12.0055C7.2654 12.1998 7.33753 12.3878 7.47001 12.53L8.53001 11.47ZM12 16L11.47 16.53C11.6106 16.6705 11.8013 16.7493 12 16.7493C12.1988 16.7493 12.3894 16.6705 12.53 16.53L12 16ZM16.53 12.53C16.6037 12.4613 16.6628 12.3785 16.7038 12.2865C16.7448 12.1945 16.7668 12.0952 16.7686 11.9945C16.7704 11.8938 16.7518 11.7938 16.7141 11.7004C16.6764 11.607 16.6203 11.5222 16.549 11.451C16.4778 11.3797 16.393 11.3236 16.2996 11.2859C16.2062 11.2482 16.1062 11.2296 16.0055 11.2314C15.9048 11.2332 15.8055 11.2552 15.7135 11.2962C15.6215 11.3372 15.5387 11.3963 15.47 11.47L16.53 12.53ZM12.75 4C12.75 3.80109 12.671 3.61032 12.5303 3.46967C12.3897 3.32902 12.1989 3.25 12 3.25C11.8011 3.25 11.6103 3.32902 11.4697 3.46967C11.329 3.61032 11.25 3.80109 11.25 4H12.75ZM19.75 17C19.75 16.8011 19.671 16.6103 19.5303 16.4697C19.3897 16.329 19.1989 16.25 19 16.25C18.8011 16.25 18.6103 16.329 18.4697 16.4697C18.329 16.6103 18.25 16.8011 18.25 17H19.75ZM5.75001 17C5.75001 16.8011 5.67099 16.6103 5.53034 16.4697C5.38968 16.329 5.19892 16.25 5.00001 16.25C4.80109 16.25 4.61033 16.329 4.46968 16.4697C4.32902 16.6103 4.25001 16.8011 4.25001 17H5.75001ZM7.47001 12.53L11.47 16.53L12.53 15.47L8.53001 11.47L7.47001 12.53ZM12.53 16.53L16.53 12.53L15.47 11.47L11.47 15.47L12.53 16.53ZM12.75 16V4H11.25V16H12.75ZM18.25 17V17.6H19.75V17H18.25ZM18.25 17.6C18.25 18.516 17.516 19.25 16.6 19.25V20.75C17.0139 20.7508 17.4239 20.6699 17.8064 20.5118C18.1889 20.3538 18.5365 20.1218 18.8292 19.8291C19.1218 19.5365 19.3538 19.1889 19.5118 18.8064C19.6699 18.4239 19.7508 18.0139 19.75 17.6H18.25ZM16.6 19.25H7.40001V20.75H16.6V19.25ZM7.40001 19.25C6.48401 19.25 5.75001 18.516 5.75001 17.6H4.25001C4.24922 18.0139 4.33015 18.4239 4.48817 18.8064C4.6462 19.1889 4.87819 19.5365 5.17086 19.8291C5.46352 20.1218 5.81109 20.3538 6.19362 20.5118C6.57615 20.6699 6.98612 20.7508 7.40001 20.75V19.25ZM5.75001 17.6V17H4.25001V17.6H5.75001Z" fill="#9A9A9A"/>
</svg>
