<svg width="30" height="30" viewBox="0 0 30 30" fill="none" xmlns="http://www.w3.org/2000/svg">
<path d="M11.25 21.5625C11.0014 21.5625 10.7629 21.6613 10.5871 21.8371C10.4113 22.0129 10.3125 22.2514 10.3125 22.5C10.3125 22.7486 10.4113 22.9871 10.5871 23.1629C10.7629 23.3387 11.0014 23.4375 11.25 23.4375H18.75C18.9986 23.4375 19.2371 23.3387 19.4129 23.1629C19.5887 22.9871 19.6875 22.7486 19.6875 22.5C19.6875 22.2514 19.5887 22.0129 19.4129 21.8371C19.2371 21.6613 18.9986 21.5625 18.75 21.5625H11.25Z" fill="white"/>
<path fill-rule="evenodd" clip-rule="evenodd" d="M15.0002 1.5625C14.1177 1.5625 13.5565 2.1875 13.179 2.74625C12.7965 3.315 12.3977 4.13375 11.924 5.10375L9.0952 10.9C8.82145 11.46 8.6452 11.8188 8.4927 12.0675C8.44333 12.1543 8.38374 12.2349 8.3152 12.3075C8.281 12.3226 8.24383 12.3299 8.20645 12.3287C8.13657 12.2845 8.07124 12.2334 8.01145 12.1763C7.80895 11.9888 7.55645 11.7025 7.15645 11.2475L7.1202 11.2063C6.4052 10.3913 5.8202 9.725 5.3377 9.275C5.10275 9.04599 4.84132 8.84582 4.55895 8.67875C4.25093 8.49395 3.89351 8.40842 3.5352 8.43375C3.24737 8.46119 2.96791 8.54574 2.71314 8.68246C2.45838 8.81918 2.23343 9.00532 2.05145 9.23C1.6077 9.76625 1.5577 10.5162 1.56395 11.1637C1.56895 11.8637 1.65645 12.7925 1.76395 13.9475L2.06145 17.1C2.2927 19.5575 2.47395 21.4813 2.78645 22.9763C3.10645 24.4988 3.58645 25.705 4.5052 26.6425C5.43645 27.5962 6.5802 28.0312 7.9952 28.2387C9.3552 28.4375 11.074 28.4375 13.2265 28.4375H16.774C18.9265 28.4375 20.6452 28.4375 22.0052 28.2375C23.4202 28.0313 24.564 27.5962 25.4952 26.6425C26.4127 25.705 26.894 24.4988 27.2127 22.9763C27.5265 21.4813 27.7077 19.5575 27.939 17.1L28.2365 13.9475C28.3452 12.7925 28.4327 11.8637 28.4365 11.1637C28.4427 10.5162 28.3927 9.76625 27.949 9.23C27.767 9.00532 27.542 8.81918 27.2873 8.68246C27.0325 8.54574 26.753 8.46119 26.4652 8.43375C26.1069 8.40842 25.7495 8.49395 25.4415 8.67875C25.1591 8.84582 24.8976 9.04599 24.6627 9.275C24.1802 9.725 23.5952 10.3913 22.8802 11.2063L22.8427 11.2475C22.4427 11.7025 22.1915 11.9888 21.989 12.1763C21.9296 12.2333 21.8647 12.2844 21.7952 12.3287C21.7574 12.3301 21.7198 12.3228 21.6852 12.3075C21.6167 12.2349 21.5571 12.1543 21.5077 12.0675C21.3552 11.8188 21.179 11.46 20.9052 10.9L18.0765 5.10375C17.6027 4.1325 17.204 3.315 16.8215 2.74625C16.444 2.18625 15.884 1.5625 15.0002 1.5625ZM13.5765 5.9925C14.0915 4.9375 14.434 4.24 14.734 3.79375C14.81 3.67447 14.8993 3.56419 15.0002 3.465C15.0502 3.51125 15.1377 3.605 15.2665 3.79375C15.5665 4.24 15.909 4.9375 16.424 5.9925L19.2402 11.7625C19.4877 12.2712 19.704 12.7125 19.9102 13.05C20.1227 13.3937 20.4002 13.76 20.8352 13.9787C21.2265 14.1762 21.6677 14.2488 22.1052 14.1788C22.5965 14.1013 22.969 13.8225 23.2615 13.5525C23.5452 13.29 23.8615 12.93 24.2215 12.52L24.2527 12.485C25.0127 11.6187 25.5365 11.0237 25.9427 10.645C26.1427 10.4575 26.2752 10.3613 26.3565 10.3163C26.4107 10.3381 26.4591 10.3724 26.4977 10.4163L26.499 10.425C26.5115 10.4625 26.5665 10.64 26.5615 11.15C26.5577 11.7588 26.479 12.6062 26.3652 13.82L26.0777 16.8638C25.8402 19.3938 25.6677 21.2125 25.3777 22.5912C25.0915 23.9537 24.7152 24.7588 24.1552 25.3325C23.6077 25.8925 22.9052 26.2125 21.734 26.3825C20.5252 26.56 18.944 26.5625 16.7002 26.5625H13.3002C11.0565 26.5625 9.4752 26.56 8.26645 26.3838C7.0952 26.2125 6.3927 25.8925 5.8452 25.3325C5.2852 24.7588 4.9077 23.9537 4.6227 22.5912C4.3327 21.2125 4.1602 19.3938 3.9227 16.8638L3.6352 13.82C3.5227 12.6062 3.4427 11.7575 3.4377 11.1487C3.43395 10.64 3.4902 10.4612 3.5002 10.4237L3.50395 10.4175C3.54161 10.373 3.58911 10.3379 3.6427 10.315C3.72395 10.3612 3.85645 10.4575 4.0577 10.645C4.46395 11.0237 4.9877 11.6187 5.7477 12.485L5.77895 12.52C6.13895 12.93 6.4552 13.2913 6.73895 13.5525C7.03145 13.8225 7.40395 14.1025 7.8952 14.18C8.3327 14.2487 8.77395 14.1762 9.1652 13.9787C9.6002 13.76 9.8777 13.3937 10.0902 13.05C10.2965 12.7125 10.5127 12.2712 10.7602 11.7625L13.5765 5.9925ZM15.0552 3.425L15.0427 3.43C15.051 3.425 15.0552 3.42333 15.0552 3.425Z" fill="white"/>
</svg>
