<svg width="40" height="40" viewBox="0 0 40 40" fill="none" xmlns="http://www.w3.org/2000/svg">
<path d="M3.33337 16.6666V23.3333C3.33337 26.6666 5.00004 28.3333 8.33337 28.3333H10.7167C11.3334 28.3333 11.95 28.5166 12.4834 28.8333L17.35 31.8833C21.55 34.5166 25 32.6 25 27.65V12.35C25 7.38331 21.55 5.48331 17.35 8.11664L12.4834 11.1666C11.95 11.4833 11.3334 11.6666 10.7167 11.6666H8.33337C5.00004 11.6666 3.33337 13.3333 3.33337 16.6666Z" stroke="white" stroke-width="2"/>
<path d="M30 13.3333C32.9667 17.2833 32.9667 22.7166 30 26.6666" stroke="white" stroke-width="2" stroke-linecap="round" stroke-linejoin="round"/>
<path d="M33.05 9.16669C37.8667 15.5834 37.8667 24.4167 33.05 30.8334" stroke="white" stroke-width="2" stroke-linecap="round" stroke-linejoin="round"/>
</svg>
