<svg width="862" height="358" viewBox="0 0 862 358" fill="none" xmlns="http://www.w3.org/2000/svg">
<g opacity="0.2" filter="url(#filter0_f_2764_12089)">
<path d="M157.58 162.551C157.918 162.887 158.425 162.887 158.087 162.383C157.749 161.879 153.527 157.009 153.865 150.796C153.865 147.774 155.216 145.087 157.074 143.408C158.594 142.232 161.972 139.377 168.052 140.721C171.092 141.392 174.47 143.072 178.186 145.926C182.915 149.621 190.009 151.132 194.907 155.666C196.934 157.513 199.298 159.528 199.805 160.2C200.311 160.872 203.521 163.558 203.858 164.23V165.238C204.534 165.406 207.236 163.055 207.743 161.543C208.25 159.864 207.574 158.185 206.898 157.009C206.223 155.666 204.027 152.979 203.521 152.14C203.014 151.3 202.507 149.957 202.507 149.621C202.676 149.453 210.952 147.27 199.129 136.019C195.582 132.66 188.826 127.119 181.226 124.6C174.132 122.249 168.896 122.249 167.039 122.417C166.194 122.417 166.363 123.425 166.701 123.425C166.87 123.425 179.875 124.6 189.84 132.325C199.467 139.713 199.805 142.736 199.298 143.743C198.96 144.415 197.44 144.415 196.089 143.743C194.569 143.072 193.218 142.4 193.387 141.896C193.556 141.728 194.4 140.385 193.724 139.209C193.218 138.034 192.035 137.53 190.853 137.698C189.333 138.034 188.826 139.209 188.826 140.049C188.826 142.064 190.853 142.064 190.853 142.568C190.853 142.904 190.178 146.934 187.982 146.934C183.928 146.934 177.679 141.56 176.328 140.385C169.572 134.843 159.1 134.172 153.696 139.209C147.784 144.583 148.629 152.308 151.838 156.506C154.709 160.2 156.567 162.047 157.58 162.551ZM194.738 149.453C195.92 149.117 197.102 149.117 197.102 149.117C197.102 149.117 198.454 151.468 199.129 152.643C200.311 154.155 201.832 156.17 202.507 157.177C203.183 158.185 202 159.192 201.832 159.025C201.663 158.857 198.454 155.666 197.271 154.491C196.089 153.315 192.204 150.292 192.204 150.292C192.204 150.292 193.556 149.789 194.738 149.453Z" fill="white"/>
<path d="M123.802 163.894C150.488 183.374 156.737 197.479 157.581 196.975C158.426 196.64 151.163 180.687 126.673 160.032C102.014 139.545 77.8617 139.881 77.8617 139.881C77.8617 139.881 77.0172 141.392 76.3416 144.415C75.666 147.27 75.666 149.621 75.666 149.621C75.666 149.621 97.116 144.583 123.802 163.894Z" fill="white"/>
<path d="M75.8342 168.764C75.8342 168.764 82.5901 168.092 92.3862 169.1C102.013 170.108 118.059 175.313 118.059 175.313L120.592 172.962C120.592 172.962 106.236 163.558 93.3996 161.375C84.448 159.864 75.3275 160.536 75.3275 160.536C75.3275 160.536 74.9897 161.879 75.1586 164.566C75.3275 167.085 75.8342 168.764 75.8342 168.764Z" fill="white"/>
<path d="M78.1992 180.351C78.1992 180.351 78.3681 182.03 79.3815 185.053C80.3949 188.243 81.0705 190.091 81.0705 190.091C81.0705 190.091 87.9953 187.908 93.2311 186.9C98.6358 186.06 107.587 185.389 107.587 185.389L109.952 182.702C109.952 182.702 99.8181 180.687 93.0622 180.183C86.3063 179.679 78.1992 180.351 78.1992 180.351Z" fill="white"/>
<path d="M150.657 173.802C165.858 184.717 171.601 188.579 181.059 194.457C192.206 201.342 188.49 206.715 188.49 206.715C188.321 206.883 185.112 205.036 179.708 203.357C174.472 202.013 168.054 201.677 167.716 201.677C167.209 201.677 166.871 202.013 167.885 202.349C168.223 202.349 175.992 205.54 181.903 209.234C187.477 212.592 191.193 216.455 191.362 216.119C191.699 215.447 194.064 211.585 194.74 207.387C195.246 202.685 195.246 196.975 185.619 191.098C179.032 187.236 174.978 184.717 154.204 171.451C133.43 158.353 137.652 141.56 138.834 138.37C139.003 137.698 138.159 137.194 137.821 137.698C136.47 141.057 130.39 159.36 150.657 173.802Z" fill="white"/>
<path d="M665.118 164.902V163.894C665.456 163.223 668.665 160.368 669.172 159.864C669.847 159.192 672.043 157.177 674.07 155.33C678.968 150.796 686.062 149.285 690.791 145.591C694.337 142.568 697.715 140.889 700.924 140.217C707.005 139.042 710.383 141.728 711.903 142.904C713.761 144.583 714.943 147.438 715.112 150.292C715.281 156.506 711.227 161.375 710.889 161.879C710.721 162.551 711.058 162.383 711.396 162.215C712.41 161.543 714.267 159.864 716.801 156.338C720.01 151.972 720.854 144.415 714.943 139.042C709.538 134.004 699.067 134.675 692.311 140.217C690.96 141.225 684.71 146.766 680.657 146.766C678.461 146.766 677.785 142.736 677.785 142.4C677.785 141.896 679.643 141.896 679.812 139.881C679.812 139.209 679.306 137.866 677.785 137.53C676.603 137.362 675.59 137.698 674.914 139.042C674.408 140.217 675.252 141.56 675.421 141.728C675.59 142.064 674.239 142.904 672.55 143.575C671.367 144.079 669.847 144.079 669.341 143.575C668.834 142.568 669.341 139.545 678.968 132.157C688.933 124.432 702.107 123.257 702.107 123.257C702.445 123.257 702.613 122.249 701.769 122.249C699.911 122.081 694.506 122.081 687.582 124.432C679.981 126.951 673.225 132.492 669.847 135.683C657.856 146.934 666.3 149.117 666.3 149.285C666.469 149.453 665.794 150.796 665.456 151.636C664.949 152.475 662.923 155.162 662.078 156.506C661.402 157.681 660.727 159.36 661.234 161.04C661.571 162.719 664.274 165.07 665.118 164.902ZM666.132 156.842C666.976 155.666 668.327 153.819 669.341 152.308C670.185 151.3 671.536 148.781 671.536 148.781C671.536 148.781 672.55 148.781 673.901 149.117C675.083 149.453 676.265 149.957 676.265 149.957C676.265 149.957 672.55 152.979 671.367 154.155C670.185 155.33 666.976 158.521 666.807 158.689C666.807 158.857 665.456 157.849 666.132 156.842Z" fill="white"/>
<path d="M711.227 196.808C711.902 197.311 718.152 183.038 745.006 163.726C771.692 144.247 793.142 149.453 793.142 149.453C793.142 149.453 793.142 147.102 792.467 144.247C791.791 141.225 790.778 139.713 790.778 139.713C790.778 139.713 766.794 139.377 742.304 159.864C717.645 180.519 710.551 196.64 711.227 196.808Z" fill="white"/>
<path d="M775.409 161.04C762.742 163.223 748.217 172.626 748.217 172.626L750.75 174.977C750.75 174.977 766.796 169.604 776.423 168.764C786.219 167.757 792.806 168.428 792.806 168.428C792.806 168.428 793.312 166.917 793.481 164.23C793.819 161.543 793.481 160.2 793.481 160.2C793.481 160.2 784.361 159.528 775.409 161.04Z" fill="white"/>
<path d="M775.577 180.015C768.821 180.351 758.688 182.534 758.688 182.534L760.883 185.221C760.883 185.221 770.004 185.725 775.408 186.732C780.813 187.572 787.569 189.755 787.569 189.755C787.569 189.755 788.245 188.075 789.427 184.717C790.44 181.694 790.609 180.015 790.609 180.015C790.609 180.015 782.502 179.343 775.577 180.015Z" fill="white"/>
<path d="M714.267 171.451C693.493 184.717 689.271 187.068 682.852 191.098C673.225 196.808 673.225 202.685 673.732 207.219C674.408 211.585 676.772 215.279 677.11 215.951C677.279 216.455 680.995 212.592 686.568 209.234C692.649 205.54 700.418 202.349 700.587 202.181C701.6 201.677 701.262 201.509 700.756 201.509C700.249 201.509 694 201.677 688.764 203.189C683.359 204.7 680.15 206.715 679.981 206.547C679.981 206.547 676.434 201.342 687.582 194.289C697.04 188.243 702.782 184.381 717.983 173.634C738.42 159.192 732.171 140.889 730.819 137.698C730.482 137.194 729.468 137.698 729.637 138.37C730.819 141.56 735.211 158.353 714.267 171.451Z" fill="white"/>
<path d="M87.8256 243.155C86.4744 240.636 83.772 235.262 81.7453 229.553C78.874 221.996 78.0295 218.638 77.185 214.272C76.3405 210.074 75.1582 199.662 75.6649 199.662C76.3405 199.662 77.6917 199.998 80.3941 201.677C83.0964 203.357 83.6031 204.196 83.9409 204.028C84.2787 204.028 90.5279 201.677 92.8925 201.342C95.0882 201.006 95.5949 200.67 96.6082 200.502C97.6216 200.334 97.6216 200.502 97.7905 199.998C97.9594 199.494 98.635 198.487 99.1417 197.647C99.8173 196.64 100.831 195.128 100.662 195.128C100.662 194.96 92.3858 196.472 90.1901 196.808C88.5012 197.311 83.4342 198.823 83.2653 198.655C83.0964 198.487 78.0295 193.617 76.1716 192.274C73.6382 190.426 69.5846 187.908 69.5846 187.908C67.8957 187.068 66.0378 186.228 65.8689 186.396C65.8689 186.396 65.5311 187.404 65.8689 190.594C66.0378 193.785 66.7134 199.83 67.5579 204.196C68.5712 208.73 70.598 216.119 71.7803 219.309C73.1315 222.668 75.6649 229.049 77.3539 232.743C78.874 236.102 81.2386 240.468 82.252 242.651M203.858 243.155C208.081 237.109 215.681 224.683 216.863 212.425C217.539 197.143 196.089 187.908 196.089 187.908C195.582 187.572 195.244 187.908 195.92 188.411C198.285 189.923 214.161 200.838 212.134 211.417C210.107 221.828 198.454 238.285 195.076 243.155M564.792 243.155C565.13 241.14 565.468 239.125 565.806 237.109L594.35 240.3L595.194 233.415L566.65 230.225C566.819 227.538 566.988 225.019 566.988 222.332H623.231V215.447H566.819C566.65 212.76 566.481 210.242 566.313 207.723L595.025 204.532L594.181 197.647L565.637 200.838C565.299 198.319 564.793 195.632 564.455 193.113L619.346 180.687L617.826 173.802L562.935 186.228C562.259 183.709 561.583 181.191 560.908 178.672L587.931 169.268L585.567 162.719L558.543 172.123C557.699 169.604 556.685 167.253 555.503 164.734L606.003 140.553L602.963 134.34L552.463 158.521C551.281 156.17 549.93 153.819 548.747 151.636L572.731 136.523L569.015 130.645L545.031 145.591C543.511 143.408 542.16 141.225 540.471 139.209L584.047 104.617L579.656 99.2434L536.08 133.836C534.391 131.821 532.702 129.806 530.844 127.958L550.605 108.143L545.707 103.274L526.115 122.585C524.257 120.738 522.23 118.891 520.204 117.211L554.828 74.0547L549.254 69.6887L514.799 112.677C512.603 110.998 510.576 109.487 508.381 107.975L523.075 84.8019L517.163 81.1075L502.469 104.281C500.105 102.938 497.909 101.594 495.544 100.419L519.359 51.217L513.11 48.1943L489.295 97.3962C486.762 96.3887 484.397 95.2132 481.864 94.2057L490.815 68.5132L484.228 66.1623L475.277 91.6868C472.743 90.8472 470.21 90.1755 467.676 89.5038L479.837 36.4396L473.081 34.9283L460.92 87.9925C458.387 87.4887 455.685 86.9849 452.982 86.6491L455.853 59.7811L448.929 59.1094L445.889 85.8094C443.186 85.4736 440.484 85.3057 437.95 85.3057V31.066H430.857V85.4736C428.154 85.4736 425.452 85.6415 422.918 85.9774L419.878 59.2774L412.953 60.117L415.994 86.817C413.291 87.1528 410.589 87.6566 408.055 88.1604L395.895 35.0962L389.139 36.6075L401.3 89.6717C398.766 90.3434 396.064 91.183 393.53 92.0226L384.579 66.3302L377.992 68.6811L386.943 94.3736C384.41 95.3811 382.045 96.3887 379.512 97.5641L355.697 48.3623L349.448 51.3849L373.263 100.755C370.898 101.93 368.533 103.274 366.338 104.617L351.644 81.4434L345.732 85.1377L360.426 108.479C358.231 109.991 356.035 111.502 354.008 113.181L319.553 70.1925L314.148 74.5585L348.772 117.715C346.746 119.394 344.719 121.242 342.861 123.089L323.1 103.442L318.202 108.311L337.625 127.623C335.936 129.638 334.078 131.485 332.389 133.668L288.814 99.0755L284.422 104.449L328.167 139.042C326.647 141.057 325.127 143.408 323.607 145.591L299.623 130.645L295.907 136.523L319.891 151.636C318.54 153.987 317.357 156.17 316.175 158.521L265.675 134.34L262.635 140.553L313.304 164.734C312.291 167.253 311.277 169.604 310.264 172.123L283.24 162.719L280.876 169.268L307.899 178.672C307.055 181.191 306.379 183.709 305.704 186.228L250.812 173.802L249.292 180.687L304.183 193.281C303.677 195.8 303.339 198.319 303.001 200.838L274.289 197.647L273.613 204.532L302.326 207.723C302.157 210.242 301.988 212.76 301.988 215.447H245.576V222.332H301.988C302.157 225.019 302.157 227.538 302.326 230.225L273.613 233.415L274.289 240.3L303.001 237.109C303.339 239.125 303.677 241.14 304.015 243.155M674.069 243.155C670.86 238.789 658.7 221.828 656.842 211.249C654.646 200.67 670.691 189.755 673.056 188.243C673.731 187.908 673.394 187.404 673.056 187.74C672.887 187.74 651.437 196.975 652.113 212.257C653.126 224.683 661.064 237.277 665.287 243.323M786.555 243.155C787.568 241.14 790.102 236.438 791.622 233.079C793.311 229.217 795.844 223.004 797.027 219.645C798.209 216.455 800.405 208.898 801.249 204.532C802.263 200.166 802.769 193.953 803.107 190.762C803.445 187.404 803.107 186.564 803.107 186.564C802.938 186.396 801.08 187.068 799.391 188.075C799.391 188.075 795.338 190.594 792.804 192.274C790.778 193.785 785.711 198.487 785.711 198.823C785.542 198.991 780.644 197.311 778.786 196.975C776.59 196.64 768.483 195.128 768.314 195.296C768.145 195.296 769.328 196.808 769.834 197.647C770.51 198.487 771.016 199.662 771.185 200.166C771.354 200.67 771.354 200.502 772.368 200.67C773.381 200.838 773.888 201.006 776.083 201.509C778.279 202.013 784.697 204.196 785.035 204.196C785.373 204.196 785.711 203.525 788.413 201.845C791.115 200.166 792.635 199.83 793.142 199.662C793.649 199.494 792.635 210.074 791.791 214.272C790.946 218.47 790.102 221.996 787.231 229.553C785.035 235.262 782.164 240.972 780.981 243.323" fill="white"/>
<path d="M558.038 242.987C559.389 236.27 559.896 226.53 559.896 218.638C559.896 148.949 503.484 92.1906 434.405 92.1906C365.157 92.1906 308.914 148.949 308.914 218.638C308.914 226.194 309.927 235.934 311.448 242.987H558.038Z" fill="url(#paint0_radial_2764_12089)"/>
<path d="M288.14 317.545C283.41 316.874 283.241 316.538 279.695 308.142L265.845 274.892C265.001 272.709 264.156 270.526 263.312 268.175C261.96 264.313 261.623 263.809 260.609 263.809C259.765 263.809 259.596 264.145 258.414 267.672C258.414 268.008 257.907 268.847 257.569 270.191C257.231 270.862 257.062 271.534 256.725 272.374L254.867 276.908L253.347 281.442C250.138 290.174 249.8 290.845 247.266 297.226C243.888 305.791 242.368 309.317 240.848 312.675C238.99 316.706 238.315 317.209 234.768 317.545C232.741 317.713 232.234 318.049 232.234 319.057C232.234 319.896 232.741 320.232 233.586 320.232C234.43 320.232 234.599 320.232 235.275 320.232C237.301 320.232 239.328 320.064 241.186 320.064C242.537 320.064 244.395 320.232 246.084 320.232H247.266L249.8 320.4H250.644C252.164 320.4 252.84 319.896 252.84 319.225C252.84 318.217 251.995 317.713 249.462 317.713C246.422 317.713 245.239 317.042 245.239 315.362C245.239 314.691 245.577 313.179 246.084 311.5L249.124 302.096C249.8 299.913 249.8 299.913 252.502 299.913H263.143C265.676 299.913 265.845 299.913 266.858 302.6L270.574 313.179C271.081 314.355 271.25 315.194 271.25 315.866C271.25 317.042 270.405 317.545 268.21 317.713C265.845 318.049 265.001 318.553 265.001 319.392C265.001 320.232 265.676 320.568 266.858 320.568C267.196 320.568 267.872 320.568 268.21 320.568C274.121 320.064 274.459 320.064 277.499 320.064C280.539 320.064 284.255 320.232 286.113 320.4C286.788 320.4 287.633 320.568 287.971 320.568C289.153 320.568 289.828 320.064 289.828 319.392C289.322 318.049 288.815 317.545 288.14 317.545ZM263.649 295.715C263.649 296.051 263.143 296.387 261.623 296.387H253.178C251.489 296.387 250.982 296.051 250.982 295.547C250.982 295.211 251.151 294.54 251.32 293.868L256.725 279.091L257.231 280.098L262.974 294.204C263.818 295.715 263.649 295.547 263.649 295.715Z" fill="white"/>
<path d="M346.071 317.545C341.342 317.042 341.173 317.042 338.133 311.668L329.688 296.555C327.999 293.868 327.155 292.692 325.466 291.685C333.573 289.838 337.457 285.64 337.457 278.419C337.457 270.023 331.039 264.649 320.399 264.649C320.23 264.649 319.892 264.649 319.385 264.649C318.034 264.649 316.007 264.817 313.981 264.817C311.109 264.817 308.576 264.985 306.042 264.985C303.678 264.985 302.158 264.985 299.793 264.817C296.584 264.649 297.091 264.649 296.415 264.649H295.909C294.557 264.649 294.051 264.817 294.051 265.825C294.051 266.832 294.726 267 297.091 267.336C300.638 267.504 301.482 268.511 301.482 273.549V310.996C301.482 315.866 300.807 317.042 297.091 317.209C294.726 317.377 294.051 317.713 294.051 318.721C294.051 319.728 294.389 319.896 295.909 319.896H296.415C296.753 319.896 297.091 319.896 297.429 319.896C302.833 319.728 304.185 319.728 306.211 319.728C308.069 319.728 310.434 319.728 313.136 319.896C316.345 320.064 315.839 320.064 316.345 320.064H316.852C318.203 320.064 318.71 319.728 318.71 318.889C318.71 317.881 318.034 317.545 315.67 317.377C311.954 317.209 311.109 316.034 311.109 311.164V295.211C311.109 293.532 311.447 293.364 312.967 293.364C316.683 293.364 317.19 293.7 319.217 297.394L319.385 297.562L329.857 317.377C331.039 319.56 331.546 319.896 332.897 319.896L338.64 319.728C338.809 319.728 339.315 319.728 340.16 319.728C342.862 319.728 344.72 319.896 344.889 319.896C345.396 319.896 345.733 319.896 346.24 319.896C346.916 319.896 347.422 319.56 347.422 318.721C347.254 318.385 346.578 317.713 346.071 317.545ZM319.385 290.677C318.203 290.845 317.021 291.013 315.67 291.013C311.278 291.013 311.109 291.013 311.109 287.823V273.045C311.109 268.343 311.954 267.336 315.332 267.336C316.683 267.336 318.034 267.504 319.385 268.008C324.452 269.351 327.492 273.717 327.492 279.93C327.492 286.143 324.79 289.67 319.385 290.677Z" fill="white"/>
<path d="M444.537 264.145H444.368C427.31 264.313 414.305 276.572 414.305 292.357C414.305 307.806 427.817 320.4 444.368 320.568H444.537C460.752 320.568 474.432 307.302 474.432 291.685C474.432 276.404 461.089 264.145 444.537 264.145ZM445.044 318.385C444.875 318.385 444.537 318.385 444.368 318.385C433.559 317.881 424.945 305.623 424.945 290.509C424.945 276.236 432.546 266.496 443.524 266.496C443.862 266.496 444.031 266.496 444.368 266.496C455.685 267 463.792 277.915 463.792 292.357C463.792 307.134 455.685 318.385 445.044 318.385Z" fill="white"/>
<path d="M151.501 267.504C154.034 267.336 154.71 267 154.71 265.992C154.71 264.985 154.203 264.817 152.852 264.817C152.345 264.817 151.163 264.817 149.136 264.985C146.603 264.985 144.745 265.153 142.887 265.153C139.678 265.153 138.665 265.153 135.624 264.985C133.598 264.817 132.246 264.817 131.909 264.817C130.558 264.817 130.051 264.985 130.051 265.992C130.051 267 130.726 267.168 133.091 267.504C136.807 267.672 137.482 268.679 137.482 273.717V286.143C137.482 288.662 137.313 288.998 134.273 288.998H115.526C112.654 288.998 112.654 288.998 112.654 286.143V273.717C112.654 268.679 113.499 267.672 117.046 267.504C119.579 267.336 120.255 267 120.255 265.992C120.255 264.985 119.748 264.817 118.397 264.817H117.89C117.552 264.817 117.215 264.817 117.046 264.817C111.134 264.985 110.796 264.985 107.756 264.985C106.236 264.985 103.534 264.985 101.338 264.817C98.1292 264.649 98.6359 264.649 97.9603 264.649H97.4536C96.1024 264.649 95.5957 264.817 95.5957 265.825C95.5957 266.832 96.2713 267 98.8048 267.336C102.352 267.504 103.196 268.511 103.196 273.549V310.996C103.196 315.866 102.521 317.042 98.8048 317.209C96.2713 317.377 95.5957 317.713 95.5957 318.721C95.5957 319.728 96.1024 319.896 97.4536 319.896C97.9603 319.896 99.1426 319.896 101.169 319.728C103.703 319.728 105.392 319.56 107.419 319.56C110.459 319.56 111.641 319.56 114.512 319.728C116.539 319.896 117.721 319.896 118.228 319.896C119.579 319.896 120.086 319.56 120.086 318.721C120.086 317.713 119.41 317.377 116.877 317.209C113.33 317.042 112.485 315.866 112.485 310.996V293.868C112.485 291.853 112.485 291.853 115.863 291.853H134.611C137.145 291.853 137.482 292.021 137.482 294.036V310.996C137.482 315.866 136.807 317.042 133.091 317.209C130.726 317.377 130.051 317.713 130.051 318.721C130.051 319.728 130.558 319.896 131.909 319.896H132.415C132.753 319.896 133.091 319.896 133.429 319.896C139.171 319.728 139.678 319.728 142.38 319.728C144.576 319.728 146.265 319.728 149.136 319.896C152.345 320.064 151.839 320.064 152.514 320.064H153.021C154.372 320.064 154.879 319.728 154.879 318.889C154.879 317.881 154.203 317.545 151.67 317.377C147.954 317.209 147.278 316.034 147.278 311.164V273.717C147.109 268.679 147.785 267.84 151.501 267.504Z" fill="white"/>
<path d="M202.509 306.126C202.002 306.126 201.495 306.462 201.157 307.302C196.766 315.866 194.402 317.209 186.463 317.209C179.201 317.209 177.681 316.034 177.681 310.157V294.708C177.681 292.189 177.85 292.021 183.085 292.021C190.855 292.021 192.375 293.196 194.064 299.074C194.402 300.585 195.077 301.257 195.753 301.257C196.428 301.257 196.935 300.585 196.766 299.745L196.428 293.028C196.428 293.028 196.428 292.021 196.597 290.677L196.766 288.83L196.935 286.983V285.136C197.104 283.96 197.273 282.953 197.273 282.953C197.273 281.945 196.935 281.609 196.259 281.609C195.584 281.609 195.246 281.945 195.077 282.953C193.05 288.662 191.361 289.502 182.41 289.502C178.187 289.502 177.85 289.166 177.85 285.975V272.877C177.85 268.008 178.187 267.336 182.748 267.336C186.97 267.336 191.024 267.84 193.219 268.679C196.259 269.855 197.104 270.862 199.3 275.396C199.806 276.572 200.313 277.075 200.82 277.075C201.495 277.075 201.833 276.572 201.833 275.396V267.336C201.833 265.153 201.664 264.817 200.651 264.817C200.313 264.817 199.468 264.817 198.793 264.817C197.104 264.985 195.415 264.985 193.388 264.985H167.885C167.547 264.985 166.871 264.985 166.027 264.985C165.351 264.817 164.507 264.817 163.662 264.817C163.155 264.817 162.48 264.817 162.311 264.817C160.96 264.817 160.453 264.985 160.453 265.992C160.453 267 161.129 267.168 163.493 267.504C167.209 267.672 167.885 268.679 167.885 273.717V311.164C167.885 316.034 167.209 317.209 163.493 317.377C160.96 317.545 160.453 317.881 160.453 318.889C160.453 319.896 160.791 320.064 162.311 320.064C162.48 320.064 163.155 320.064 163.662 320.064C164.507 320.064 165.351 320.064 166.027 319.896C166.871 319.896 167.547 319.896 167.885 319.896H197.948C202.171 319.896 201.833 320.064 202.34 315.53C202.509 313.515 202.678 312.004 202.846 310.66C203.184 309.317 203.184 307.974 203.184 307.302C203.353 306.798 203.015 306.126 202.509 306.126Z" fill="white"/>
<path d="M393.193 260.955C392.686 260.955 392.348 261.291 392.011 262.298C391.504 263.474 390.828 264.145 390.153 264.313C388.802 264.649 385.255 264.985 381.877 264.985H353.333C350.631 264.985 349.786 264.481 349.448 262.466C349.28 261.459 349.111 261.291 348.435 261.291C347.759 261.291 347.422 261.626 347.084 262.802L343.368 275.228C343.199 275.9 343.199 276.236 343.199 276.74C343.199 277.243 343.706 277.747 344.381 277.747C345.057 277.579 345.564 277.411 346.239 275.9C347.422 273.549 350.462 270.191 352.489 269.183C354.346 267.84 356.88 267.504 362.285 267.504C363.974 267.504 364.48 268.008 364.48 269.855V310.996C364.48 315.866 363.805 317.042 360.089 317.209C357.556 317.377 356.88 317.713 356.88 318.721C356.88 319.728 357.387 319.896 358.738 319.896C359.244 319.896 360.089 319.896 362.454 319.728C364.818 319.56 367.352 319.56 368.703 319.56C370.73 319.56 373.094 319.728 375.965 319.728C378.33 319.896 379.174 319.896 379.681 319.896C381.032 319.896 381.539 319.56 381.539 318.721C381.539 317.713 380.863 317.377 378.33 317.209C374.614 317.042 373.77 315.866 373.77 310.996V270.694C373.77 267.504 373.601 267.672 380.019 267.672C387.282 267.672 389.646 269.519 390.828 276.068C390.997 277.579 391.504 278.083 392.18 278.083C393.193 278.083 393.531 277.411 393.7 275.396L394.206 264.481L394.375 263.474C394.544 261.962 394.037 260.955 393.193 260.955Z" fill="white"/>
<path d="M583.033 306.63C582.358 306.63 582.02 306.798 581.682 307.638C578.135 314.187 573.406 317.209 566.481 317.209C561.077 317.209 559.219 315.026 559.219 308.645V273.717C559.219 268.679 559.894 267.672 563.779 267.504C566.144 267.336 566.819 267 566.819 265.992C566.819 264.985 566.313 264.817 564.961 264.817C564.455 264.817 563.441 264.817 561.246 264.985C558.543 265.153 556.01 265.153 554.996 265.153C552.97 265.153 550.943 265.153 547.903 264.985C545.707 264.817 544.694 264.817 544.018 264.817C542.836 264.817 542.16 264.985 542.16 265.992C542.16 267 542.836 267.168 545.369 267.504C548.916 267.672 549.761 268.679 549.761 273.717V311.164C549.761 316.034 549.085 317.209 545.369 317.377C542.836 317.545 542.16 317.881 542.16 318.889C542.16 319.896 542.836 320.064 544.018 320.064C544.356 320.064 545.031 320.064 545.538 320.064C546.383 320.064 547.227 320.064 547.903 319.896C548.916 319.896 549.423 319.896 549.761 319.896H577.291C577.966 319.896 578.642 319.896 579.149 319.896C579.655 320.064 580.331 320.064 580.5 320.064C582.02 320.064 582.527 319.56 582.864 318.049C583.033 314.355 583.202 313.011 583.709 310.157C583.878 309.317 583.878 308.477 583.878 307.974C583.878 307.134 583.54 306.63 583.033 306.63Z" fill="white"/>
<path d="M609.213 267.504C611.577 267.336 612.422 267 612.422 265.992C612.422 264.985 611.915 264.817 610.564 264.817H610.226C609.888 264.817 609.551 264.817 609.213 264.817C603.639 264.985 602.795 264.985 600.599 264.985C598.065 264.985 596.377 264.985 593.505 264.817C590.296 264.649 590.803 264.649 590.296 264.649H589.79C588.438 264.649 587.932 264.817 587.932 265.825C587.932 266.832 588.607 267 591.141 267.336C594.688 267.504 595.532 268.511 595.532 273.549V310.996C595.532 315.866 594.688 317.042 591.141 317.209C588.607 317.377 587.932 317.713 587.932 318.721C587.932 319.728 588.438 319.896 589.79 319.896H590.296C590.634 319.896 590.803 319.896 591.31 319.896C596.377 319.728 597.897 319.728 600.092 319.728C601.95 319.728 604.652 319.728 607.017 319.896C610.226 320.064 609.719 320.064 610.395 320.064H610.733C612.084 320.064 612.591 319.728 612.591 318.889C612.591 317.881 611.915 317.545 609.382 317.377C605.666 317.209 604.821 316.034 604.821 311.164V273.717C604.653 268.679 605.497 267.84 609.213 267.504Z" fill="white"/>
<path d="M670.862 264.649C670.017 264.649 669.004 264.817 667.653 264.817C666.133 264.985 664.613 264.985 662.924 264.985C661.404 264.985 659.546 264.985 657.688 264.817C656.674 264.649 655.323 264.649 654.985 264.649C653.634 264.649 652.959 264.985 652.959 265.825C652.959 266.832 653.634 267 656.674 267.168C659.039 267.336 660.39 268.175 660.39 270.023C660.39 271.03 659.883 272.877 659.208 274.725L647.216 305.287L633.198 272.542C632.353 270.862 632.015 269.687 632.015 269.183C631.847 268.008 633.198 267.336 635.224 267C638.771 266.664 638.771 266.664 638.771 265.657C638.771 264.817 638.265 264.481 636.913 264.481C636.407 264.481 634.718 264.481 633.367 264.649C631.509 264.817 629.989 264.817 629.989 264.817C615.295 264.481 619.686 264.481 616.139 264.481H615.295C614.45 264.481 613.943 264.817 613.943 265.657C613.943 266.496 614.45 266.832 616.815 267C619.686 267.336 620.699 268.175 622.557 272.877L641.98 318.889C642.487 320.232 642.994 320.736 643.5 320.736C644.176 320.736 644.683 320.064 645.021 319.057L662.755 275.06C665.119 269.015 666.302 267.504 668.497 267.168C672.213 266.664 672.213 266.664 672.213 265.489C672.213 264.985 671.706 264.649 670.862 264.649Z" fill="white"/>
<path d="M695.182 267.504C697.716 267.336 698.391 267 698.391 265.992C698.391 264.985 697.885 264.817 696.534 264.817H696.027C695.52 264.817 695.351 264.817 695.014 264.817C689.44 264.985 688.595 264.985 686.4 264.985C683.866 264.985 682.346 264.985 679.306 264.817C676.097 264.649 676.773 264.649 676.097 264.649H675.59C674.239 264.649 673.732 264.817 673.732 265.825C673.732 266.832 674.577 267 676.941 267.336C680.488 267.504 681.333 268.511 681.333 273.549V310.996C681.333 315.866 680.488 317.042 676.941 317.209C674.577 317.377 673.732 317.713 673.732 318.721C673.732 319.728 674.408 319.896 675.59 319.896H676.097C676.435 319.896 676.773 319.896 677.11 319.896C682.177 319.728 683.529 319.728 685.893 319.728C687.751 319.728 690.284 319.728 692.649 319.896C695.858 320.064 695.351 320.064 696.027 320.064H696.534C697.885 320.064 698.391 319.728 698.391 318.889C698.391 317.881 697.716 317.545 695.182 317.377C691.467 317.209 690.791 316.034 690.791 311.164V273.717C690.791 268.679 691.636 267.84 695.182 267.504Z" fill="white"/>
<path d="M762.572 264.985C762.234 264.985 761.221 264.985 760.208 265.153C758.688 265.153 756.492 265.321 754.296 265.321C751.932 265.321 749.736 265.153 748.047 265.153C747.202 265.153 746.358 265.153 746.02 265.153C744.669 265.153 743.993 265.489 743.993 266.328C743.993 267.336 744.838 267.672 748.047 267.84C751.932 268.008 752.438 269.183 752.607 278.587L752.945 305.791L722.881 267.336C721.192 264.985 721.192 264.985 719.672 264.985L713.93 265.153L706.16 264.985C704.302 264.985 703.627 265.153 703.627 266.16C703.627 267.168 704.471 267.504 707.005 267.504C711.058 267.672 711.565 268.511 711.565 275.228V304.447C711.565 316.538 711.396 317.042 707.343 317.713C703.627 318.217 703.289 318.385 703.289 319.392C703.289 320.064 703.796 320.568 704.809 320.568C705.316 320.568 706.836 320.4 708.187 320.232C710.214 320.064 712.41 319.896 714.436 319.896C716.125 319.896 717.814 320.064 719.672 320.064C720.686 320.064 721.868 320.232 722.375 320.232C723.726 320.232 724.232 319.728 724.232 319.057C724.232 318.217 723.726 317.881 722.712 317.881C715.45 317.209 715.281 317.042 715.281 303.608L714.943 273.213L752.438 320.064C753.621 321.575 754.465 322.247 755.141 322.247C756.323 322.247 756.661 321.408 756.661 319.56L756.492 273.717C756.492 269.351 757.167 268.511 761.052 268.343C763.754 268.175 764.43 267.84 764.43 266.664C764.261 265.321 763.754 264.985 762.572 264.985Z" fill="white"/>
<path d="M827.599 293.868C827.599 293.364 827.092 293.028 826.247 293.028C825.91 293.028 824.221 293.028 822.87 293.196C821.349 293.364 818.985 293.532 816.789 293.532C813.073 293.532 809.695 293.364 805.304 293.196C804.46 293.196 803.277 293.028 803.108 293.028C801.757 293.028 801.251 293.364 801.251 294.036C801.251 295.211 801.926 295.379 804.797 295.547C809.02 295.715 810.371 296.891 810.371 300.753V308.309C810.371 312.004 809.864 314.859 808.851 316.202C807.838 317.545 804.797 318.385 801.251 318.385C789.09 318.385 779.801 307.638 779.801 293.028C779.801 278.587 789.597 266.496 801.082 266.496C807.838 266.496 812.398 269.351 815.776 275.396C816.62 276.908 817.127 277.579 817.971 277.411C818.647 277.411 819.154 276.74 819.154 275.9C819.154 275.06 818.816 273.717 818.478 270.862C817.971 267.504 817.971 267.504 817.296 267C815.945 265.657 808.851 264.313 803.446 264.313C794.495 264.313 786.894 266.496 780.983 270.694C773.382 275.9 768.822 284.464 768.822 292.86C768.822 299.913 772.031 307.638 777.098 312.675C782.672 318.049 790.103 320.736 799.224 320.736C806.655 320.736 814.762 318.721 819.323 315.53C820.674 314.691 820.674 314.691 820.674 309.989C820.674 308.645 820.505 306.63 820.505 305.119C820.505 302.432 820.336 299.913 820.336 299.409C820.336 296.555 821.349 295.547 824.727 295.379C826.923 295.211 827.768 294.875 827.599 293.868Z" fill="white"/>
<path d="M515.306 264.817C514.969 264.817 513.448 264.817 512.097 264.985C510.746 264.985 509.395 264.985 508.213 264.985H483.554C483.216 264.985 482.54 264.985 481.696 264.985C481.02 264.817 480.176 264.817 479.331 264.817C478.824 264.817 478.149 264.817 477.811 264.817C476.46 264.817 475.953 264.985 475.953 265.992C475.953 267 476.629 267.168 479.162 267.504C482.709 267.672 483.554 268.679 483.554 273.717V311.164C483.554 316.034 482.709 317.209 479.162 317.377C476.629 317.545 475.953 317.881 475.953 318.889C475.953 319.896 476.46 320.064 477.811 320.064H478.318C478.656 320.064 478.993 320.064 479.331 320.064C484.398 319.896 485.918 319.896 488.283 319.896C490.141 319.896 492.843 319.896 495.039 320.064C498.417 320.232 497.741 320.232 498.417 320.232H498.754C500.105 320.232 500.781 319.896 500.781 319.057C500.781 318.049 500.106 317.713 497.403 317.545C493.856 317.377 493.012 316.202 493.012 311.332V296.219C493.012 292.189 493.012 292.189 499.261 292.189C505.004 292.189 507.706 293.532 508.719 296.891L509.057 298.066L509.226 299.074C509.902 300.753 509.564 300.249 509.733 300.585C510.07 301.257 510.577 301.76 511.084 301.76C511.759 301.76 512.266 301.257 512.266 300.249C512.266 299.745 512.097 297.898 511.928 296.051C511.759 294.372 511.759 293.868 511.759 292.525L512.097 283.121C512.097 282.113 511.759 281.609 511.084 281.609C510.408 281.609 510.07 282.113 509.733 283.121C508.213 287.991 506.186 289.502 500.781 289.502C492.843 289.502 493.35 289.838 493.35 284.296V272.374C493.35 268.511 494.194 267.84 497.741 267.84C506.861 267.84 511.591 269.519 513.111 273.381C514.968 277.411 514.969 277.579 515.982 277.579C516.657 277.579 516.995 276.908 516.995 275.732V266.496C516.826 264.985 516.489 264.817 515.306 264.817Z" fill="white"/>
<path d="M90.8667 261.123C90.1911 261.123 89.8533 261.458 89.5155 262.298C89.0088 263.474 88.5021 264.145 87.6576 264.481C86.3064 264.817 82.7596 265.153 79.3816 265.153H50.669C47.9667 265.153 47.1222 264.649 46.7844 262.634C46.6155 261.626 46.2777 261.458 45.771 261.458C45.0954 261.458 44.7576 261.794 44.4198 262.97L40.873 275.396C40.7041 276.068 40.5352 276.404 40.5352 276.908C40.5352 277.411 41.0419 278.083 41.7174 277.915C42.5619 277.915 42.8997 277.411 43.5753 276.068C44.9265 273.885 47.7978 270.526 49.6556 269.351C51.5135 268.175 54.047 267.672 59.6206 267.672C61.1407 267.672 61.8163 268.175 61.8163 270.023V311.164C61.8163 316.034 60.9718 317.042 57.4249 317.377C54.8915 317.545 54.3848 317.881 54.3848 318.889C54.3848 319.728 54.8915 320.064 56.2426 320.064C56.7493 320.064 57.5938 320.064 59.9584 319.896C62.323 319.728 65.0253 319.56 66.2076 319.56C68.2344 319.56 70.5989 319.56 73.3013 319.896C75.6659 320.064 76.5103 320.064 77.017 320.064C78.3682 320.064 78.8749 319.728 78.8749 318.889C78.8749 317.881 78.1993 317.545 75.6659 317.377C71.9501 317.042 71.2745 316.034 71.2745 311.164V270.862C71.2745 267.504 70.9367 267.672 77.5237 267.672C84.7863 267.672 87.1509 269.519 88.5021 276.236C88.671 277.579 89.0088 278.083 89.8533 278.083C90.6978 278.083 91.2044 277.411 91.2044 275.396L91.7111 264.649V263.642C92.0489 262.13 91.7111 261.123 90.8667 261.123Z" fill="white"/>
<path d="M841.617 243.155H26.6855V248.528H841.617V243.155Z" fill="white"/>
<path d="M841.617 332.491H26.6855V337.864H841.617V332.491Z" fill="white"/>
<path d="M802.264 128.966C813.644 128.966 822.869 119.794 822.869 108.479C822.869 97.1647 813.644 87.9925 802.264 87.9925C790.884 87.9925 781.658 97.1647 781.658 108.479C781.658 119.794 790.884 128.966 802.264 128.966Z" stroke="white" stroke-miterlimit="2.6131"/>
<path d="M797.027 106.8H800.236C802.263 106.8 803.614 106.632 804.121 106.464C804.628 106.296 804.965 105.96 805.303 105.625C805.641 105.289 805.81 104.617 805.81 104.113C805.81 103.442 805.641 102.77 805.303 102.434C804.965 101.93 804.459 101.762 803.783 101.594C803.445 101.594 802.432 101.594 800.743 101.594H797.365V106.8H797.027ZM792.805 118.891V98.0679H801.756C803.952 98.0679 805.641 98.2359 806.654 98.5717C807.668 98.9076 808.512 99.5793 809.019 100.587C809.694 101.594 809.863 102.602 809.863 103.945C809.863 105.457 809.357 106.8 808.512 107.808C807.668 108.815 806.148 109.487 804.29 109.823C805.134 110.326 805.979 110.998 806.485 111.502C807.161 112.174 807.837 113.349 808.85 114.86L811.383 118.891H806.316L803.276 114.357C802.263 112.677 801.418 111.67 801.081 111.334C800.743 110.83 800.236 110.662 799.73 110.494C799.223 110.326 798.547 110.326 797.534 110.326H796.689V119.058H792.805V118.891Z" fill="white"/>
</g>
<defs>
<filter id="filter0_f_2764_12089" x="-20" y="-20" width="898" height="396" filterUnits="userSpaceOnUse" color-interpolation-filters="sRGB">
<feFlood flood-opacity="0" result="BackgroundImageFix"/>
<feBlend mode="normal" in="SourceGraphic" in2="BackgroundImageFix" result="shape"/>
<feGaussianBlur stdDeviation="10" result="effect1_foregroundBlur_2764_12089"/>
</filter>
<radialGradient id="paint0_radial_2764_12089" cx="0" cy="0" r="1" gradientUnits="userSpaceOnUse" gradientTransform="translate(382.725 110.571) scale(169.693 168.715)">
<stop stop-color="#FFF100"/>
<stop offset="1" stop-color="#F26F21"/>
</radialGradient>
</defs>
</svg>
