<svg width="26" height="26" viewBox="0 0 26 26" fill="none" xmlns="http://www.w3.org/2000/svg">
<g clip-path="url(#clip0_10484_6312)">
<path d="M8.9375 0C9.15299 0 9.35965 0.0856024 9.51202 0.237976C9.6644 0.390349 9.75 0.597012 9.75 0.8125V7.3125C9.75 7.95897 9.49319 8.57895 9.03607 9.03607C8.57895 9.49319 7.95897 9.75 7.3125 9.75H0.8125C0.597012 9.75 0.390349 9.6644 0.237976 9.51202C0.0856024 9.35965 0 9.15299 0 8.9375C0 8.72201 0.0856024 8.51535 0.237976 8.36298C0.390349 8.2106 0.597012 8.125 0.8125 8.125H7.3125C7.52799 8.125 7.73465 8.0394 7.88702 7.88702C8.0394 7.73465 8.125 7.52799 8.125 7.3125V0.8125C8.125 0.597012 8.2106 0.390349 8.36298 0.237976C8.51535 0.0856024 8.72201 0 8.9375 0ZM17.0625 0C17.278 0 17.4847 0.0856024 17.637 0.237976C17.7894 0.390349 17.875 0.597012 17.875 0.8125V7.3125C17.875 7.52799 17.9606 7.73465 18.113 7.88702C18.2653 8.0394 18.472 8.125 18.6875 8.125H25.1875C25.403 8.125 25.6097 8.2106 25.762 8.36298C25.9144 8.51535 26 8.72201 26 8.9375C26 9.15299 25.9144 9.35965 25.762 9.51202C25.6097 9.6644 25.403 9.75 25.1875 9.75H18.6875C18.041 9.75 17.421 9.49319 16.9639 9.03607C16.5068 8.57895 16.25 7.95897 16.25 7.3125V0.8125C16.25 0.597012 16.3356 0.390349 16.488 0.237976C16.6403 0.0856024 16.847 0 17.0625 0ZM0 17.0625C0 16.847 0.0856024 16.6403 0.237976 16.488C0.390349 16.3356 0.597012 16.25 0.8125 16.25H7.3125C7.95897 16.25 8.57895 16.5068 9.03607 16.9639C9.49319 17.421 9.75 18.041 9.75 18.6875V25.1875C9.75 25.403 9.6644 25.6097 9.51202 25.762C9.35965 25.9144 9.15299 26 8.9375 26C8.72201 26 8.51535 25.9144 8.36298 25.762C8.2106 25.6097 8.125 25.403 8.125 25.1875V18.6875C8.125 18.472 8.0394 18.2653 7.88702 18.113C7.73465 17.9606 7.52799 17.875 7.3125 17.875H0.8125C0.597012 17.875 0.390349 17.7894 0.237976 17.637C0.0856024 17.4847 0 17.278 0 17.0625ZM16.25 18.6875C16.25 18.041 16.5068 17.421 16.9639 16.9639C17.421 16.5068 18.041 16.25 18.6875 16.25H25.1875C25.403 16.25 25.6097 16.3356 25.762 16.488C25.9144 16.6403 26 16.847 26 17.0625C26 17.278 25.9144 17.4847 25.762 17.637C25.6097 17.7894 25.403 17.875 25.1875 17.875H18.6875C18.472 17.875 18.2653 17.9606 18.113 18.113C17.9606 18.2653 17.875 18.472 17.875 18.6875V25.1875C17.875 25.403 17.7894 25.6097 17.637 25.762C17.4847 25.9144 17.278 26 17.0625 26C16.847 26 16.6403 25.9144 16.488 25.762C16.3356 25.6097 16.25 25.403 16.25 25.1875V18.6875Z" fill="white"/>
</g>
<defs>
<clipPath id="clip0_10484_6312">
<rect width="26" height="26" fill="white"/>
</clipPath>
</defs>
</svg>
