<?xml version="1.0" encoding="utf-8"?>
<!-- Generator: Adobe Illustrator 28.2.0, SVG Export Plug-In . SVG Version: 6.00 Build 0)  -->
<svg version="1.1" id="Layer_1" xmlns="http://www.w3.org/2000/svg" xmlns:xlink="http://www.w3.org/1999/xlink" x="0px" y="0px"
	 viewBox="0 0 24 24" style="enable-background:new 0 0 24 24;" xml:space="preserve">
<style type="text/css">
	.st0{fill:#FF8731;}
</style>
<path class="st0" d="M8.7,12c0,1.8,1.5,3.2,3.2,3.2s3.2-1.5,3.2-3.2S13.8,8.8,12,8.8S8.7,10.2,8.7,12z M13.2,12
	c0,0.7-0.5,1.2-1.2,1.2s-1.2-0.5-1.2-1.2c0-0.7,0.5-1.2,1.2-1.2S13.2,11.4,13.2,12z"/>
<g>
	<path class="st0" d="M21.8,12.1c-1.4-4-5-6.8-9.1-7.1c-0.2,0-0.5,0-0.7,0c-4.4,0-8.4,2.8-9.9,7.2c0,0,0,0,0,0l0,0
		c1.5,4.3,5.6,7.2,9.9,7.2c0.2,0,0.5,0,0.7,0C16.8,19,20.4,16.2,21.8,12.1C21.8,12.2,21.8,12.2,21.8,12.1
		C21.8,12.1,21.8,12.1,21.8,12.1z M17.1,15.6c-1.3,1-2.9,1.7-4.6,1.8c-0.2,0-0.4,0-0.6,0c-1.8,0-3.5-0.6-4.9-1.6
		c-1.3-0.9-2.3-2.2-3-3.7c0.6-1.5,1.7-2.7,3-3.7c1.5-1,3.2-1.6,4.9-1.6c0.2,0,0.4,0,0.6,0c1.6,0.1,3.2,0.7,4.6,1.8
		c1.2,0.9,2.1,2.1,2.7,3.5C19.2,13.5,18.3,14.7,17.1,15.6z"/>
</g>
</svg>
