<svg width="38" height="38" viewBox="0 0 38 38" fill="none" xmlns="http://www.w3.org/2000/svg">
<g clip-path="url(#clip0_1833_1028)">
<path d="M18.9887 37.9758C29.476 37.9758 37.9774 29.4744 37.9774 18.9871C37.9774 8.50218 29.476 0 18.9887 0C8.50139 0 0 8.50139 0 18.9879C0 29.4744 8.50139 37.9758 18.9887 37.9758Z" fill="#0FBEED"/>
<path d="M28.1668 21.75V16.25C28.1668 11.6667 26.3335 9.83337 21.7502 9.83337H16.2502C11.6668 9.83337 9.8335 11.6667 9.8335 16.25V21.75C9.8335 26.3334 11.6668 28.1667 16.2502 28.1667H21.7502C26.3335 28.1667 28.1668 26.3334 28.1668 21.75Z" stroke="#DFF8FF" stroke-width="1.3" stroke-linecap="round" stroke-linejoin="round"/>
<path d="M10.3101 14.5175H27.6901" stroke="#DFF8FF" stroke-width="1.3" stroke-linecap="round" stroke-linejoin="round"/>
<path d="M15.8101 9.9342V14.3892" stroke="#DFF8FF" stroke-width="1.3" stroke-linecap="round" stroke-linejoin="round"/>
<path d="M22.1899 9.9342V13.9767" stroke="#DFF8FF" stroke-width="1.3" stroke-linecap="round" stroke-linejoin="round"/>
<path d="M16.9375 21.2459V20.1459C16.9375 18.7342 17.9367 18.1567 19.1558 18.8625L20.1092 19.4125L21.0625 19.9625C22.2817 20.6684 22.2817 21.8234 21.0625 22.5292L20.1092 23.0792L19.1558 23.6292C17.9367 24.335 16.9375 23.7575 16.9375 22.3459V21.2459V21.2459Z" stroke="#DFF8FF" stroke-width="1.3" stroke-miterlimit="10" stroke-linecap="round" stroke-linejoin="round"/>
</g>
<defs>
<clipPath id="clip0_1833_1028">
<rect width="37.9774" height="37.9774" fill="white"/>
</clipPath>
</defs>
</svg>
