<svg width="45" height="45" viewBox="0 0 45 45" fill="none" xmlns="http://www.w3.org/2000/svg">
<path d="M44.6087 6.80492C44.5144 6.57761 44.3761 6.37116 44.2019 6.19742L38.5769 0.572415C38.4039 0.393334 38.197 0.250492 37.9682 0.152225C37.7395 0.0539585 37.4934 0.0022342 37.2445 7.07938e-05C36.9955 -0.00209261 36.7486 0.0453481 36.5182 0.139625C36.2878 0.233901 36.0784 0.373126 35.9024 0.549175C35.7263 0.725224 35.5871 0.934571 35.4928 1.165C35.3985 1.39543 35.3511 1.64233 35.3533 1.89129C35.3554 2.14025 35.4072 2.38629 35.5054 2.61505C35.6037 2.84381 35.7465 3.0507 35.9256 3.22367L38.35 5.64804H20.3762C17.8898 5.64804 15.5053 6.63576 13.7471 8.39391C11.989 10.1521 11.0012 12.5366 11.0012 15.023V18.773C11.0012 19.2703 11.1988 19.7472 11.5504 20.0989C11.902 20.4505 12.379 20.648 12.8762 20.648C13.3735 20.648 13.8504 20.4505 14.2021 20.0989C14.5537 19.7472 14.7512 19.2703 14.7512 18.773V15.023C14.7512 13.5312 15.3439 12.1005 16.3988 11.0456C17.4536 9.99067 18.8844 9.39804 20.3762 9.39804H38.35L35.9256 11.8224C35.5841 12.176 35.3951 12.6497 35.3993 13.1413C35.4036 13.6329 35.6008 14.1032 35.9484 14.4508C36.2961 14.7985 36.7664 14.9957 37.258 14.9999C37.7496 15.0042 38.2232 14.8152 38.5769 14.4737L44.2019 8.84867C44.3762 8.67478 44.5145 8.46816 44.6088 8.24067C44.7031 8.01317 44.7515 7.76929 44.7512 7.52304M44.6087 6.80492C44.7024 7.0308 44.7508 7.27288 44.7512 7.51742L44.6087 6.80492ZM11.1437 29.3049C11.001 29.6475 10.9635 30.0248 11.036 30.3887C11.1084 30.7527 11.2876 31.0869 11.5506 31.3487L17.1756 36.9737C17.5292 37.3152 18.0029 37.5042 18.4945 37.4999C18.9861 37.4957 19.4564 37.2985 19.804 36.9508C20.1517 36.6032 20.3488 36.1329 20.3531 35.6413C20.3574 35.1497 20.1684 34.676 19.8269 34.3224L17.4025 31.898H35.3762C37.8626 31.898 40.2472 30.9103 42.0054 29.1522C43.7635 27.394 44.7512 25.0094 44.7512 22.523V18.773C44.7512 18.2758 44.5537 17.7988 44.2021 17.4472C43.8504 17.0956 43.3735 16.898 42.8762 16.898C42.379 16.898 41.902 17.0956 41.5504 17.4472C41.1988 17.7988 41.0012 18.2758 41.0012 18.773V22.523C41.0012 24.0149 40.4086 25.4456 39.3537 26.5005C38.2988 27.5554 36.8681 28.148 35.3762 28.148H17.4025L19.8269 25.7237C20.0059 25.5507 20.1488 25.3438 20.247 25.115C20.3453 24.8863 20.397 24.6403 20.3992 24.3913C20.4014 24.1423 20.3539 23.8954 20.2596 23.665C20.1654 23.4346 20.0261 23.2252 19.8501 23.0492C19.674 22.8731 19.4647 22.7339 19.2343 22.6396C19.0038 22.5453 18.7569 22.4979 18.508 22.5001C18.259 22.5022 18.013 22.554 17.7842 22.6522C17.5555 22.7505 17.3486 22.8933 17.1756 23.0724L11.5506 28.6974M11.1437 29.3049C11.2374 29.0793 11.3743 28.8741 11.5469 28.7012L11.1437 29.3049Z" fill="white"/>
</svg>
