<svg width="40" height="40" viewBox="0 0 40 40" fill="none" xmlns="http://www.w3.org/2000/svg">
<path d="M34.8725 9.36168C34.7886 9.15963 34.6657 8.97612 34.5108 8.82168L29.5108 3.82168C29.3571 3.6625 29.1732 3.53553 28.9698 3.44818C28.7665 3.36083 28.5478 3.31485 28.3265 3.31293C28.1052 3.31101 27.8857 3.35318 27.6809 3.43698C27.4761 3.52078 27.29 3.64453 27.1335 3.80102C26.977 3.95751 26.8532 4.1436 26.7694 4.34842C26.6856 4.55325 26.6435 4.77272 26.6454 4.99402C26.6473 5.21531 26.6933 5.43401 26.7806 5.63735C26.868 5.84069 26.995 6.0246 27.1541 6.17835L29.3091 8.33335H13.3325C11.1223 8.33335 9.00272 9.21132 7.43992 10.7741C5.87712 12.3369 4.99914 14.4565 4.99914 16.6667V20C4.99914 20.442 5.17474 20.866 5.4873 21.1785C5.79986 21.4911 6.22378 21.6667 6.66581 21.6667C7.10784 21.6667 7.53176 21.4911 7.84432 21.1785C8.15688 20.866 8.33248 20.442 8.33248 20V16.6667C8.33248 15.3406 8.85926 14.0688 9.79694 13.1311C10.7346 12.1935 12.0064 11.6667 13.3325 11.6667H29.3091L27.1541 13.8217C26.8505 14.136 26.6826 14.557 26.6863 14.994C26.6901 15.431 26.8654 15.849 27.1744 16.158C27.4835 16.4671 27.9015 16.6423 28.3385 16.6461C28.7755 16.6499 29.1965 16.4819 29.5108 16.1783L34.5108 11.1783C34.6658 11.0238 34.7887 10.8401 34.8725 10.6379C34.9563 10.4357 34.9994 10.2189 34.9991 10M34.8725 9.36168C34.9558 9.56246 34.9988 9.77765 34.9991 9.99501L34.8725 9.36168ZM5.12581 29.3617C4.99896 29.6662 4.96562 30.0016 5.03003 30.3251C5.09444 30.6486 5.25368 30.9456 5.48748 31.1783L10.4875 36.1783C10.8018 36.4819 11.2228 36.6499 11.6598 36.6461C12.0968 36.6423 12.5148 36.4671 12.8238 36.158C13.1329 35.849 13.3081 35.431 13.3119 34.994C13.3157 34.557 13.1477 34.136 12.8441 33.8217L10.6891 31.6667H26.6658C28.8759 31.6667 30.9956 30.7887 32.5584 29.2259C34.1212 27.6631 34.9991 25.5435 34.9991 23.3333V20C34.9991 19.558 34.8235 19.1341 34.511 18.8215C34.1984 18.5089 33.7745 18.3333 33.3325 18.3333C32.8904 18.3333 32.4665 18.5089 32.154 18.8215C31.8414 19.1341 31.6658 19.558 31.6658 20V23.3333C31.6658 24.6594 31.139 25.9312 30.2013 26.8689C29.2637 27.8066 27.9919 28.3333 26.6658 28.3333H10.6891L12.8441 26.1783C13.0033 26.0246 13.1303 25.8407 13.2176 25.6374C13.305 25.434 13.351 25.2153 13.3529 24.994C13.3548 24.7727 13.3126 24.5532 13.2288 24.3484C13.145 24.1436 13.0213 23.9575 12.8648 23.801C12.7083 23.6445 12.5222 23.5208 12.3174 23.437C12.1126 23.3532 11.8931 23.311 11.6718 23.3129C11.4505 23.3148 11.2318 23.3608 11.0285 23.4482C10.8251 23.5355 10.6412 23.6625 10.4875 23.8217L5.48748 28.8217M5.12581 29.3617C5.20904 29.1611 5.33078 28.9788 5.48414 28.825L5.12581 29.3617Z" fill="white"/>
</svg>
