<svg width="40" height="40" viewBox="0 0 40 40" fill="none" xmlns="http://www.w3.org/2000/svg">
<path d="M36.5406 11.0283C36.4568 10.8263 36.3339 10.6427 36.179 10.4883L31.179 5.48831C31.0252 5.32912 30.8413 5.20215 30.638 5.1148C30.4347 5.02746 30.216 4.98148 29.9947 4.97956C29.7734 4.97763 29.5539 5.0198 29.3491 5.1036C29.1442 5.1874 28.9581 5.31116 28.8017 5.46765C28.6452 5.62414 28.5214 5.81022 28.4376 6.01505C28.3538 6.21988 28.3116 6.43934 28.3136 6.66064C28.3155 6.88194 28.3615 7.10064 28.4488 7.30398C28.5362 7.50732 28.6631 7.69123 28.8223 7.84497L30.9773 9.99997H25.4423C24.003 9.9999 22.5883 10.3726 21.3359 11.0818C20.0834 11.7909 19.036 12.8124 18.2957 14.0466L12.179 24.2383C11.7351 24.9785 11.1071 25.5911 10.3562 26.0167C9.60533 26.4422 8.75707 26.6661 7.89398 26.6666H5.00065C4.55862 26.6666 4.1347 26.8422 3.82214 27.1548C3.50958 27.4674 3.33398 27.8913 3.33398 28.3333C3.33398 28.7753 3.50958 29.1993 3.82214 29.5118C4.1347 29.8244 4.55862 30 5.00065 30H7.89232C9.33159 30 10.7463 29.6273 11.9988 28.9182C13.2512 28.209 14.2986 27.1876 15.039 25.9533L21.1557 15.7616C21.5996 15.0215 22.2275 14.4088 22.9784 13.9833C23.7293 13.5577 24.5776 13.3338 25.4407 13.3333H30.974L28.8207 15.4883C28.5171 15.8026 28.3491 16.2236 28.3529 16.6606C28.3567 17.0976 28.5319 17.5157 28.841 17.8247C29.15 18.1337 29.568 18.309 30.005 18.3128C30.442 18.3166 30.863 18.1486 31.1773 17.845L36.1773 12.845C36.3326 12.6905 36.4559 12.5069 36.5399 12.3047C36.624 12.1025 36.6673 11.8856 36.6673 11.6666M36.5406 11.0283C36.6239 11.2291 36.667 11.4443 36.6673 11.6616L36.5406 11.0283Z" fill="white"/>
<path d="M36.1773 29.5133L31.179 34.5133C30.8663 34.8258 30.4422 35.0013 30.0001 35.0012C29.5579 35.001 29.134 34.8252 28.8215 34.5125C28.509 34.1998 28.3335 33.7757 28.3336 33.3336C28.3338 32.8915 28.5096 32.4675 28.8223 32.155L30.9773 30H25.4423C24.003 30.0001 22.5883 29.6274 21.3359 28.9182C20.0834 28.209 19.036 27.1876 18.2957 25.9533L12.179 15.7617C11.7351 15.0215 11.1071 14.4088 10.3562 13.9833C9.60533 13.5578 8.75707 13.3338 7.89398 13.3333H5.00065C4.55862 13.3333 4.1347 13.1577 3.82214 12.8452C3.50958 12.5326 3.33398 12.1087 3.33398 11.6667C3.33398 11.2246 3.50958 10.8007 3.82214 10.4882C4.1347 10.1756 4.55862 10 5.00065 10H7.89232C9.33159 9.99993 10.7463 10.3726 11.9988 11.0818C13.2512 11.791 14.2986 12.8124 15.039 14.0467L21.1557 24.2383C21.5996 24.9785 22.2275 25.5912 22.9784 26.0167C23.7293 26.4422 24.5776 26.6662 25.4407 26.6667H30.974L28.8207 24.5117C28.5171 24.1973 28.3491 23.7763 28.3529 23.3393C28.3567 22.9023 28.5319 22.4843 28.841 22.1753C29.15 21.8663 29.568 21.691 30.005 21.6872C30.442 21.6834 30.863 21.8514 31.1773 22.155L36.1773 27.155C36.5023 27.4783 36.664 27.905 36.6657 28.3283V28.3333C36.6659 28.5526 36.6227 28.7698 36.5386 28.9723C36.4545 29.1748 36.3328 29.3587 36.1773 29.5133Z" fill="white"/>
</svg>
