<svg width="45" height="45" viewBox="0 0 45 45" fill="none" xmlns="http://www.w3.org/2000/svg">
<path d="M41.1075 12.4069C41.0132 12.1796 40.8749 11.9731 40.7006 11.7994L35.0756 6.17437C34.9027 5.99529 34.6958 5.85245 34.467 5.75418C34.2383 5.65592 33.9922 5.60419 33.7433 5.60203C33.4943 5.59987 33.2474 5.64731 33.017 5.74158C32.7865 5.83586 32.5772 5.97509 32.4011 6.15113C32.2251 6.32718 32.0859 6.53653 31.9916 6.76696C31.8973 6.99739 31.8499 7.24429 31.852 7.49325C31.8542 7.74221 31.9059 7.98825 32.0042 8.21701C32.1025 8.44577 32.2453 8.65266 32.4244 8.82562L34.8488 11.25H28.6219C27.0027 11.2499 25.4111 11.6692 24.0021 12.467C22.5931 13.2648 21.4148 14.414 20.5819 15.8025L13.7006 27.2681C13.2012 28.1008 12.4948 28.7901 11.65 29.2688C10.8053 29.7475 9.85097 29.9994 8.88 30H5.625C5.12772 30 4.65081 30.1975 4.29917 30.5492C3.94754 30.9008 3.75 31.3777 3.75 31.875C3.75 32.3723 3.94754 32.8492 4.29917 33.2008C4.65081 33.5525 5.12772 33.75 5.625 33.75H8.87813C10.4973 33.7501 12.0889 33.3308 13.4979 32.533C14.9069 31.7352 16.0852 30.586 16.9181 29.1975L23.7994 17.7319C24.2988 16.8992 25.0052 16.2099 25.85 15.7312C26.6947 15.2525 27.649 15.0006 28.62 15H34.845L32.4225 17.4244C32.081 17.778 31.892 18.2516 31.8962 18.7433C31.9005 19.2349 32.0977 19.7051 32.4453 20.0528C32.793 20.4004 33.2633 20.5976 33.7549 20.6019C34.2465 20.6062 34.7201 20.4172 35.0737 20.0756L40.6987 14.4506C40.8735 14.2769 41.0121 14.0703 41.1067 13.8428C41.2013 13.6153 41.25 13.3714 41.25 13.125M41.1075 12.4069C41.2012 12.6328 41.2496 12.8748 41.25 13.1194L41.1075 12.4069Z" fill="white"/>
<path d="M40.6988 33.2025L35.0756 38.8275C34.7238 39.1791 34.2467 39.3765 33.7493 39.3763C33.252 39.3761 32.775 39.1784 32.4234 38.8266C32.0719 38.4747 31.8744 37.9977 31.8746 37.5003C31.8748 37.0029 32.0726 36.526 32.4244 36.1744L34.8488 33.75H28.6219C27.0027 33.7501 25.4111 33.3308 24.0021 32.533C22.5931 31.7352 21.4148 30.586 20.5819 29.1975L13.7006 17.7319C13.2012 16.8992 12.4948 16.2099 11.65 15.7312C10.8053 15.2525 9.85097 15.0006 8.88 15H5.625C5.12772 15 4.65081 14.8025 4.29917 14.4508C3.94754 14.0992 3.75 13.6223 3.75 13.125C3.75 12.6277 3.94754 12.1508 4.29917 11.7992C4.65081 11.4475 5.12772 11.25 5.625 11.25H8.87813C10.4973 11.2499 12.0889 11.6692 13.4979 12.467C14.9069 13.2648 16.0852 14.414 16.9181 15.8025L23.7994 27.2681C24.2988 28.1008 25.0052 28.7901 25.85 29.2688C26.6947 29.7475 27.649 29.9994 28.62 30H34.845L32.4225 27.5756C32.081 27.222 31.892 26.7484 31.8962 26.2567C31.9005 25.7651 32.0977 25.2949 32.4453 24.9472C32.793 24.5996 33.2633 24.4024 33.7549 24.3981C34.2465 24.3938 34.7201 24.5828 35.0738 24.9244L40.6988 30.5494C41.0644 30.9131 41.2463 31.3931 41.2481 31.8694V31.875C41.2484 32.1217 41.1998 32.366 41.1052 32.5938C41.0106 32.8217 40.8737 33.0285 40.6988 33.2025Z" fill="white"/>
</svg>
