<svg width="55" height="55" viewBox="0 0 55 55" fill="none" xmlns="http://www.w3.org/2000/svg">
<path d="M10.0781 25.6143C10.6873 29.8 12.7832 33.6265 15.9823 36.3937C19.1813 39.1609 23.2698 40.6838 27.4996 40.6838M27.4996 40.6838C31.7294 40.6838 35.8179 39.1609 39.017 36.3937C42.2161 33.6265 44.3119 29.8 44.9211 25.6143M27.4996 40.6838V49.5M27.5021 5.5C25.5016 5.5 23.5831 6.29469 22.1685 7.70925C20.754 9.12381 19.9593 11.0424 19.9593 13.0429V23.1C19.9593 25.1005 20.754 27.019 22.1685 28.4336C23.5831 29.8482 25.5016 30.6429 27.5021 30.6429C29.5026 30.6429 31.4212 29.8482 32.8357 28.4336C34.2503 27.019 35.045 25.1005 35.045 23.1V13.0429C35.045 11.0424 34.2503 9.12381 32.8357 7.70925C31.4212 6.29469 29.5026 5.5 27.5021 5.5Z" stroke="#C5C5C5" stroke-width="3" stroke-linecap="round" stroke-linejoin="round"/>
</svg>
