<?xml version="1.0" encoding="utf-8"?>
<!-- Generator: Adobe Illustrator 27.7.0, SVG Export Plug-In . SVG Version: 6.00 Build 0)  -->
<svg version="1.1" id="Layer_1" xmlns="http://www.w3.org/2000/svg" xmlns:xlink="http://www.w3.org/1999/xlink" x="0px" y="0px"
	 viewBox="0 0 55 55" style="enable-background:new 0 0 55 55;" xml:space="preserve">
<style type="text/css">
	.st0{fill:none;stroke:#11CCF5;stroke-width:3;stroke-linecap:round;stroke-linejoin:round;}
</style>
<path class="st0" d="M10.1,25.6c0.6,4.2,2.7,8,5.9,10.8c3.2,2.8,7.3,4.3,11.5,4.3 M27.5,40.7c4.2,0,8.3-1.5,11.5-4.3
	c3.2-2.8,5.3-6.6,5.9-10.8 M27.5,40.7v8.8 M27.5,5.5c-2,0-3.9,0.8-5.3,2.2C20.8,9.1,20,11,20,13v10.1c0,2,0.8,3.9,2.2,5.3
	c1.4,1.4,3.3,2.2,5.3,2.2s3.9-0.8,5.3-2.2c1.4-1.4,2.2-3.3,2.2-5.3V13c0-2-0.8-3.9-2.2-5.3C31.4,6.3,29.5,5.5,27.5,5.5z"/>
</svg>
