<svg width="80" height="80" viewBox="0 0 80 80" fill="none" xmlns="http://www.w3.org/2000/svg">
<path d="M51.9977 42.6981L50.361 40.1839L50.3192 40.2111L50.2783 40.2397L51.9977 42.6981ZM51.9977 38.1108L50.2189 40.5266L50.3527 40.6251L50.4966 40.7083L51.9977 38.1108ZM33.613 24.5732L35.3918 22.1575L35.3072 22.0952L35.2184 22.0389L33.613 24.5732ZM29.7588 26.5952L32.7588 26.5865L32.7587 26.5603L32.7582 26.534L29.7588 26.5952ZM29.8359 53.1876L26.8359 53.1963L26.8361 53.2812L26.8412 53.3659L29.8359 53.1876ZM33.8314 55.4036L35.2841 58.0285L35.4218 57.9522L35.5508 57.862L33.8314 55.4036ZM40 69C23.9837 69 11 56.0163 11 40H5C5 59.33 20.67 75 40 75V69ZM69 40C69 56.0163 56.0163 69 40 69V75C59.33 75 75 59.33 75 40H69ZM40 11C56.0163 11 69 23.9837 69 40H75C75 20.67 59.33 5 40 5V11ZM40 5C20.67 5 5 20.67 5 40H11C11 23.9837 23.9837 11 40 11V5ZM53.6344 45.2123C55.0551 44.2874 56.761 42.6935 56.7578 40.3341C56.7545 37.9074 54.9641 36.3602 53.4988 35.5134L50.4966 40.7083C50.6741 40.8109 50.7948 40.8969 50.8717 40.9596C50.9492 41.0227 50.9686 41.051 50.9566 41.0357C50.9435 41.0189 50.8922 40.9491 50.8441 40.823C50.7942 40.6921 50.7581 40.527 50.7578 40.3423C50.7576 40.1585 50.7928 40.0044 50.8338 39.8932C50.873 39.7867 50.911 39.7368 50.9079 39.7409C50.9042 39.7459 50.8682 39.7927 50.776 39.8746C50.6844 39.956 50.55 40.0609 50.361 40.1839L53.6344 45.2123ZM53.7765 35.6951L35.3918 22.1575L31.8342 26.9889L50.2189 40.5266L53.7765 35.6951ZM35.2184 22.0389C33.7113 21.0842 31.631 20.5594 29.6828 21.4691C27.5688 22.4561 26.7172 24.5895 26.7594 26.6565L32.7582 26.534C32.7533 26.2954 32.8014 26.3005 32.7301 26.4369C32.6472 26.5956 32.4746 26.7873 32.2212 26.9056C31.9865 27.0152 31.8152 27.0013 31.7832 26.9968C31.7552 26.9928 31.8372 26.9996 32.0076 27.1075L35.2184 22.0389ZM26.7588 26.6039L26.8359 53.1963L32.8359 53.1789L32.7588 26.5865L26.7588 26.6039ZM26.8412 53.3659C26.9447 55.1055 27.5448 57.3294 29.6254 58.4406C31.675 59.5352 33.8326 58.8317 35.2841 58.0285L32.3788 52.7788C32.2091 52.8727 32.0776 52.9304 31.984 52.9645C31.8898 52.9988 31.8483 53.004 31.855 53.0031C31.863 53.002 31.9303 52.9936 32.0421 53.01C32.1582 53.027 32.3021 53.0681 32.452 53.1481C32.6023 53.2284 32.72 53.3273 32.8037 53.4206C32.8844 53.5107 32.9179 53.5778 32.9238 53.5904C32.929 53.6015 32.911 53.566 32.8885 53.4656C32.8662 53.3656 32.8429 53.2164 32.8306 53.0093L26.8412 53.3659ZM35.5508 57.862L53.7171 45.1565L50.2783 40.2397L32.112 52.9452L35.5508 57.862Z" fill="#FF8731"/>
</svg>
