<svg width="45" height="45" viewBox="0 0 45 45" fill="none" xmlns="http://www.w3.org/2000/svg">
<path d="M29.2487 24.0177L28.294 22.5511L28.2696 22.5669L28.2457 22.5836L29.2487 24.0177ZM29.2487 21.4373L28.2111 22.8465L28.2891 22.904L28.3731 22.9525L29.2487 21.4373ZM18.9073 13.8224L19.945 12.4133L19.8956 12.3769L19.8438 12.3441L18.9073 13.8224ZM16.7393 14.9598L18.4893 14.9547L18.4893 14.9394L18.4889 14.9241L16.7393 14.9598ZM16.7827 29.918L15.0327 29.9231L15.0328 29.9726L15.0358 30.022L16.7827 29.918ZM19.0302 31.1645L19.8776 32.6957L19.9579 32.6512L20.0332 32.5986L19.0302 31.1645ZM22.5 38.75C13.5254 38.75 6.25 31.4746 6.25 22.5H2.75C2.75 33.4076 11.5924 42.25 22.5 42.25V38.75ZM38.75 22.5C38.75 31.4746 31.4746 38.75 22.5 38.75V42.25C33.4076 42.25 42.25 33.4076 42.25 22.5H38.75ZM22.5 6.25C31.4746 6.25 38.75 13.5254 38.75 22.5H42.25C42.25 11.5924 33.4076 2.75 22.5 2.75V6.25ZM22.5 2.75C11.5924 2.75 2.75 11.5924 2.75 22.5H6.25C6.25 13.5254 13.5254 6.25 22.5 6.25V2.75ZM30.2035 25.4843C31.0077 24.9607 31.9906 24.0478 31.9888 22.6878C31.9869 21.2887 30.9547 20.402 30.1243 19.9222L28.3731 22.9525C28.5782 23.0711 28.6284 23.1396 28.6139 23.1212C28.6032 23.1075 28.571 23.0628 28.5414 22.9852C28.5107 22.9048 28.4889 22.8045 28.4888 22.6926C28.4884 22.456 28.5811 22.3229 28.5855 22.3171C28.5864 22.3158 28.5692 22.339 28.52 22.3828C28.4711 22.4262 28.3981 22.4833 28.294 22.5511L30.2035 25.4843ZM30.2864 20.0282L19.945 12.4133L17.8697 15.2316L28.2111 22.8465L30.2864 20.0282ZM19.8438 12.3441C18.9845 11.7998 17.7913 11.4962 16.6701 12.0197C15.4522 12.5884 14.9656 13.816 14.9897 14.9955L18.4889 14.9241C18.4864 14.798 18.512 14.8118 18.4661 14.8997C18.4133 15.0007 18.3063 15.1185 18.1509 15.1911C18.0064 15.2585 17.8975 15.2515 17.8694 15.2476C17.8436 15.244 17.8814 15.2441 17.9709 15.3008L19.8438 12.3441ZM14.9893 14.9649L15.0327 29.9231L18.5327 29.913L18.4893 14.9547L14.9893 14.9649ZM15.0358 30.022C15.0945 31.0083 15.4356 32.2875 16.6349 32.928C17.816 33.5588 19.0546 33.1511 19.8776 32.6957L18.1828 29.6334C17.9879 29.7412 17.9001 29.7537 17.9099 29.7523C17.9337 29.749 18.0891 29.7368 18.2837 29.8407C18.375 29.8894 18.4469 29.9497 18.4986 30.0074C18.5486 30.0631 18.5706 30.1062 18.5762 30.1181C18.5831 30.1328 18.5437 30.0519 18.5296 29.814L15.0358 30.022ZM20.0332 32.5986L30.2517 25.4517L28.2457 22.5836L18.0272 29.7305L20.0332 32.5986Z" fill="#FF6161"/>
</svg>
