<svg width="30" height="30" viewBox="0 0 30 30" fill="none" xmlns="http://www.w3.org/2000/svg">
<path d="M10.945 5.31933L12.6085 2.92882C12.7954 2.66017 13.102 2.5 13.4293 2.5H15.9463C16.2724 2.5 16.578 2.65898 16.7652 2.926L18.4121 5.2754M10.945 5.31933C10.5115 5.93789 9.79078 6.24098 9.02585 6.18695M10.945 5.31933C10.5094 5.93641 9.79078 6.2435 9.02585 6.18695M9.02585 6.18695L6.08673 6.00243C5.76588 5.98228 5.45492 6.11762 5.251 6.36615L3.65744 8.30832C3.44124 8.57181 3.37413 8.92728 3.4794 9.25146L4.34143 11.9063M4.34143 11.9063C4.45259 12.2667 4.46682 12.6528 4.38727 13.0175M4.34143 11.9063C4.45417 12.2661 4.46787 12.6514 4.38674 13.0212M4.38727 13.0175C4.30666 13.3779 4.13387 13.7181 3.87731 13.9937M4.38727 13.0175L4.38674 13.0212M3.87731 13.9937L1.92825 16.0899C1.69985 16.3356 1.60982 16.6794 1.6885 17.0054L2.25458 19.3513C2.33301 19.6762 2.56865 19.9405 2.88256 20.0556L5.56048 21.0371C5.9166 21.1749 6.22426 21.3989 6.45711 21.6811M3.87731 13.9937C4.13545 13.7204 4.30666 13.3812 4.38674 13.0212M6.45711 21.6811C6.68838 21.9641 6.8459 22.3056 6.90701 22.6754M6.45711 21.6811C6.69049 21.9641 6.84853 22.3047 6.90701 22.6754M6.45711 21.6811L6.45342 21.677C6.43815 21.6585 6.42182 21.6392 6.40601 21.6212M6.90701 22.6754L7.36288 25.4757C7.41615 25.8029 7.6281 26.0824 7.92878 26.222L10.1997 27.2764C10.4908 27.4115 10.829 27.3988 11.1091 27.2421L13.6128 25.8413M13.6128 25.8413C13.9442 25.6552 14.314 25.5619 14.6838 25.5614M13.6128 25.8413C13.744 25.7667 13.8815 25.7071 14.0227 25.6624C14.2371 25.5945 14.4604 25.561 14.6838 25.5614M14.6838 25.5614C14.8761 25.5618 15.0684 25.5873 15.2559 25.6375C15.4303 25.6842 15.5999 25.7523 15.7606 25.8413M14.6838 25.5614C15.0552 25.5609 15.4271 25.6542 15.7606 25.8413M15.7606 25.8413L18.3769 27.2576C18.6582 27.4099 18.9953 27.4185 19.2839 27.2806L21.5437 26.2013C21.8433 26.0582 22.0524 25.7757 22.1017 25.4474L22.5107 22.7225M22.5107 22.7225C22.5691 22.3506 22.7245 22.0065 22.9553 21.721M22.5107 22.7225C22.567 22.3497 22.7235 22.0061 22.9553 21.721M22.9553 21.721C23.1845 21.4385 23.4884 21.2134 23.8424 21.0742M22.9553 21.721C23.1839 21.4374 23.4868 21.2116 23.8424 21.0742M23.8424 21.0742L26.5442 20.0153C26.8522 19.8946 27.0806 19.6294 27.1542 19.3069L27.6951 16.939C27.7686 16.6173 27.6787 16.2802 27.4549 16.0378L25.4966 13.9175M25.4966 13.9175C25.2353 13.641 25.0531 13.3107 24.9646 12.9597M25.4966 13.9175C25.3739 13.7883 25.2685 13.6471 25.1827 13.4975C25.0847 13.3275 25.0114 13.1466 24.9646 12.9597M24.9646 12.9597C24.8776 12.6112 24.8829 12.2419 24.993 11.8844L25.8415 9.16467C25.9419 8.84287 25.8734 8.49215 25.6593 8.23176L24.1008 6.33616C23.8945 6.08527 23.5792 5.95019 23.2553 5.97392L20.347 6.18695M20.347 6.18695C19.9667 6.2138 19.5926 6.14135 19.2597 5.98548M20.347 6.18695C19.9662 6.21535 19.5926 6.14231 19.2597 5.98548M19.2597 5.98548C18.9247 5.82762 18.6307 5.58487 18.4121 5.2754M19.2597 5.98548C18.9241 5.8282 18.6296 5.5861 18.4121 5.2754M4.38674 13.0212L4.38779 13.0158M18.9199 15.0133C18.9199 17.3445 16.9876 19.2342 14.6043 19.2342C12.221 19.2342 10.2886 17.3445 10.2886 15.0133C10.2886 12.6821 12.221 10.7923 14.6043 10.7923C16.9876 10.7923 18.9199 12.6821 18.9199 15.0133Z" stroke="white" stroke-width="2"/>
</svg>
