<svg width="40" height="40" viewBox="0 0 40 40" fill="none" xmlns="http://www.w3.org/2000/svg">
<path d="M20 2.08334C29.895 2.08334 37.9166 10.105 37.9166 20C37.9166 29.895 29.895 37.9167 20 37.9167C18.63 37.9167 17.2966 37.7633 16.0133 37.4717C15.8532 37.4353 15.7018 37.3678 15.5678 37.273C15.4338 37.1782 15.3198 37.0579 15.2323 36.9189C15.1447 36.78 15.0854 36.6253 15.0577 36.4635C15.03 36.3016 15.0345 36.1359 15.0708 35.9758C15.1071 35.8157 15.1747 35.6644 15.2695 35.5303C15.3643 35.3963 15.4846 35.2823 15.6235 35.1948C15.7624 35.1073 15.9172 35.048 16.079 35.0203C16.2409 34.9926 16.4065 34.997 16.5666 35.0333C18.8239 35.5463 21.1678 35.5444 23.4242 35.0277C25.6806 34.5111 27.7918 33.4929 29.6009 32.0488C31.4101 30.6046 32.8708 28.7716 33.8746 26.6858C34.8785 24.6 35.3998 22.3148 35.3998 20C35.3998 17.6852 34.8785 15.4 33.8746 13.3142C32.8708 11.2284 31.4101 9.39538 29.6009 7.95125C27.7918 6.50713 25.6806 5.48895 23.4242 4.97227C21.1678 4.45559 18.8239 4.45367 16.5666 4.96667C16.2433 5.04005 15.9041 4.98197 15.6235 4.80522C15.343 4.62846 15.1442 4.34751 15.0708 4.02417C14.9974 3.70083 15.0555 3.36158 15.2323 3.08105C15.409 2.80053 15.69 2.60171 16.0133 2.52834C17.2966 2.23667 18.63 2.08334 20 2.08334ZM5.21998 27.81C5.50047 27.6335 5.83957 27.5756 6.16273 27.6491C6.48589 27.7225 6.76666 27.9213 6.94331 28.2017C8.17844 30.1625 9.83746 31.8215 11.7983 33.0567C11.9373 33.1442 12.0577 33.2583 12.1526 33.3924C12.2475 33.5264 12.315 33.6779 12.3514 33.8381C12.3878 33.9982 12.3922 34.164 12.3645 34.3259C12.3368 34.4878 12.2775 34.6427 12.19 34.7817C12.1024 34.9206 11.9884 35.041 11.8543 35.1359C11.7202 35.2308 11.5688 35.2984 11.4086 35.3348C11.0851 35.4082 10.7457 35.3501 10.465 35.1733C8.1884 33.7387 6.2623 31.812 4.82831 29.535C4.74066 29.3961 4.68126 29.2412 4.6535 29.0793C4.62575 28.9173 4.63019 28.7515 4.66656 28.5913C4.70294 28.4311 4.77054 28.2796 4.8655 28.1456C4.96046 28.0115 5.08092 27.8975 5.21998 27.81ZM4.96665 16.5667C5.04002 16.2433 4.98195 15.9041 4.80519 15.6236C4.62844 15.343 4.34749 15.1442 4.02415 15.0708C3.7008 14.9975 3.36155 15.0555 3.08103 15.2323C2.80051 15.409 2.60169 15.69 2.52831 16.0133C2.23665 17.2967 2.08331 18.63 2.08331 20C2.08331 21.37 2.23665 22.7033 2.52831 23.9883C2.60191 24.3117 2.80094 24.5925 3.08162 24.7691C3.3623 24.9457 3.70164 25.0036 4.02498 24.93C4.34832 24.8564 4.62919 24.6574 4.80578 24.3767C4.98238 24.096 5.04024 23.7567 4.96665 23.4333C4.7111 22.3068 4.58252 21.1552 4.58331 20C4.58331 18.8183 4.71665 17.67 4.96665 16.5667ZM12.19 5.22C12.3665 5.50049 12.4244 5.83959 12.3509 6.16275C12.2775 6.48591 12.0787 6.76668 11.7983 6.94334C9.83731 8.17899 8.17829 9.83858 6.94331 11.8C6.7665 12.0807 6.48543 12.2796 6.16193 12.3531C5.83843 12.4265 5.499 12.3685 5.21831 12.1917C4.93763 12.0149 4.73867 11.7338 4.66522 11.4103C4.59177 11.0868 4.64984 10.7474 4.82665 10.4667C6.26154 8.18926 8.18882 6.26256 10.4666 4.82834C10.6056 4.74068 10.7605 4.68128 10.9224 4.65353C11.0843 4.62577 11.2501 4.63021 11.4103 4.66658C11.5705 4.70296 11.722 4.77056 11.8561 4.86552C11.9901 4.96048 12.1025 5.08094 12.19 5.22Z" fill="white"/>
<path fill-rule="evenodd" clip-rule="evenodd" d="M13.75 15.355C13.75 12.9833 16.2433 11.205 18.4583 12.5133L26.325 17.1583C28.4467 18.4117 28.4467 21.5883 26.325 22.8417L18.4583 27.485C16.2433 28.7933 13.75 27.015 13.75 24.6433V15.355ZM16.6 14.675C16.4881 14.7486 16.397 14.8499 16.3357 14.969C16.2744 15.0882 16.2449 15.2211 16.25 15.355V24.6433C16.25 24.975 16.41 25.2067 16.6 25.325C16.7833 25.4383 16.9867 25.4517 17.1867 25.3333L25.0533 20.6883C25.1692 20.6158 25.2639 20.514 25.3277 20.3931C25.3915 20.2722 25.4222 20.1366 25.4167 20C25.4225 19.8631 25.3919 19.7272 25.3281 19.606C25.2643 19.4848 25.1695 19.3826 25.0533 19.31L17.1867 14.6667C17.0984 14.6108 16.9957 14.5819 16.8913 14.5833C16.7868 14.5848 16.685 14.6167 16.5983 14.675" fill="white"/>
</svg>
