<svg width="30" height="30" viewBox="0 0 30 30" fill="none" xmlns="http://www.w3.org/2000/svg">
<path d="M15 1.5625C22.4212 1.5625 28.4375 7.57875 28.4375 15C28.4375 22.4212 22.4212 28.4375 15 28.4375C13.9725 28.4375 12.9725 28.3225 12.01 28.1038C11.8899 28.0765 11.7764 28.0259 11.6759 27.9547C11.5754 27.8836 11.4899 27.7934 11.4242 27.6892C11.3586 27.585 11.3141 27.469 11.2933 27.3476C11.2725 27.2262 11.2759 27.102 11.3031 26.9819C11.3304 26.8618 11.381 26.7483 11.4521 26.6478C11.5233 26.5472 11.6135 26.4617 11.7177 26.3961C11.8218 26.3305 11.9379 26.286 12.0593 26.2652C12.1807 26.2444 12.3049 26.2478 12.425 26.275C14.118 26.6597 15.8758 26.6583 17.5682 26.2708C19.2605 25.8833 20.8438 25.1197 22.2007 24.0366C23.5576 22.9535 24.6531 21.5787 25.406 20.0144C26.1589 18.45 26.5499 16.7361 26.5499 15C26.5499 13.2639 26.1589 11.55 25.406 9.98565C24.6531 8.42127 23.5576 7.04653 22.2007 5.96344C20.8438 4.88035 19.2605 4.11671 17.5682 3.7292C15.8758 3.34169 14.118 3.34025 12.425 3.725C12.1825 3.78003 11.9281 3.73648 11.7177 3.60391C11.5073 3.47135 11.3582 3.26063 11.3031 3.01813C11.2481 2.77562 11.2916 2.52118 11.4242 2.31079C11.5568 2.1004 11.7675 1.95128 12.01 1.89625C12.9725 1.6775 13.9725 1.5625 15 1.5625ZM3.915 20.8575C4.12537 20.7251 4.37969 20.6817 4.62206 20.7368C4.86443 20.7919 5.07501 20.941 5.2075 21.1512C6.13385 22.6219 7.37811 23.8662 8.84875 24.7925C8.95299 24.8582 9.04327 24.9437 9.11444 25.0443C9.18562 25.1448 9.23629 25.2584 9.26357 25.3785C9.29085 25.4987 9.29419 25.623 9.27342 25.7444C9.25265 25.8659 9.20816 25.982 9.1425 26.0863C9.07684 26.1905 8.99129 26.2808 8.89074 26.3519C8.79019 26.4231 8.6766 26.4738 8.55646 26.5011C8.31384 26.5562 8.05927 26.5126 7.84875 26.38C6.14131 25.304 4.69674 23.859 3.62125 22.1513C3.55551 22.047 3.51096 21.9309 3.49014 21.8094C3.46933 21.688 3.47265 21.5636 3.49994 21.4435C3.52722 21.3233 3.57792 21.2097 3.64914 21.1092C3.72036 21.0086 3.8107 20.9231 3.915 20.8575ZM3.725 12.425C3.78003 12.1825 3.73648 11.9281 3.60391 11.7177C3.47135 11.5073 3.26063 11.3582 3.01813 11.3031C2.77562 11.2481 2.52118 11.2916 2.31079 11.4242C2.1004 11.5568 1.95128 11.7675 1.89625 12.01C1.6775 12.9725 1.5625 13.9725 1.5625 15C1.5625 16.0275 1.6775 17.0275 1.89625 17.9912C1.95145 18.2338 2.10072 18.4444 2.31123 18.5769C2.52174 18.7093 2.77624 18.7527 3.01875 18.6975C3.26126 18.6423 3.4719 18.493 3.60435 18.2825C3.7368 18.072 3.7802 17.8175 3.725 17.575C3.53334 16.7301 3.4369 15.8664 3.4375 15C3.4375 14.1138 3.5375 13.2525 3.725 12.425ZM9.1425 3.915C9.27487 4.12537 9.31829 4.37969 9.26321 4.62206C9.20812 4.86443 9.05905 5.07501 8.84875 5.2075C7.378 6.13424 6.13373 7.37893 5.2075 8.85C5.07489 9.06052 4.86409 9.20973 4.62146 9.26482C4.37884 9.31991 4.12427 9.27636 3.91375 9.14375C3.70323 9.01114 3.55402 8.80034 3.49893 8.55771C3.44384 8.31509 3.48739 8.06052 3.62 7.85C4.69617 6.14195 6.14163 4.69692 7.85 3.62125C7.95421 3.55551 8.07036 3.51096 8.19181 3.49014C8.31325 3.46933 8.43761 3.47265 8.55777 3.49994C8.67793 3.52722 8.79153 3.57792 8.89207 3.64914C8.99262 3.72036 9.07689 3.8107 9.1425 3.915Z" fill="white"/>
<path fill-rule="evenodd" clip-rule="evenodd" d="M10.3125 11.5163C10.3125 9.7375 12.1825 8.40375 13.8437 9.385L19.7437 12.8687C21.335 13.8087 21.335 16.1912 19.7437 17.1312L13.8437 20.6137C12.1825 21.595 10.3125 20.2613 10.3125 18.4825V11.5163ZM12.45 11.0063C12.3661 11.0615 12.2978 11.1374 12.2518 11.2268C12.2058 11.3161 12.1837 11.4158 12.1875 11.5163V18.4825C12.1875 18.7312 12.3075 18.905 12.45 18.9937C12.5875 19.0787 12.74 19.0887 12.89 19L18.79 15.5162C18.8769 15.4619 18.9479 15.3855 18.9958 15.2948C19.0436 15.2041 19.0666 15.1024 19.0625 15C19.0669 14.8974 19.0439 14.7954 18.9961 14.7045C18.9482 14.6136 18.8771 14.537 18.79 14.4825L12.89 11C12.8238 10.9581 12.7468 10.9364 12.6684 10.9375C12.5901 10.9386 12.5138 10.9625 12.4487 11.0063" fill="white"/>
</svg>
