<?xml version="1.0" encoding="utf-8"?>
<!-- Generator: Adobe Illustrator 27.9.0, SVG Export Plug-In . SVG Version: 6.00 Build 0)  -->
<svg version="1.1" id="Layer_1" xmlns="http://www.w3.org/2000/svg" xmlns:xlink="http://www.w3.org/1999/xlink" x="0px" y="0px"
	 viewBox="0 0 25 20" style="enable-background:new 0 0 25 20;" xml:space="preserve">
<style type="text/css">
	.st0{fill:#FFFFFF;}
</style>
<g>
	<g>
		<path class="st0" d="M11,12.1c-0.6,0.7-1.3,1.4-1.9,2c-1.7,1.8-3.4,3.6-5,5.5c-0.1,0.1-0.2,0.2-0.4,0.2c-0.5,0-1,0-1.6,0
			c2.7-2.9,5.4-5.8,8.1-8.7C7.5,7.5,4.9,4,2.2,0.4c0.1,0,0.1,0,0.2,0c1.9,0,3.9,0,5.8,0c0.1,0,0.2,0,0.3,0.2c1.7,2.2,3.3,4.5,5,6.7
			c0,0.1,0.1,0.1,0.2,0.2c0.4-0.4,0.7-0.8,1.1-1.2c1.8-1.9,3.5-3.8,5.3-5.7c0.1-0.1,0.2-0.1,0.3-0.1c0.5,0,1,0,1.6,0
			c-2.5,2.7-5,5.4-7.5,8.1c2.8,3.8,5.6,7.5,8.5,11.3c-0.1,0-0.2,0-0.2,0c-1.9,0-3.8,0-5.7,0c-0.1,0-0.2,0-0.3-0.2
			C14.8,17.1,12.9,14.7,11,12.1C11.1,12.2,11,12.1,11,12.1z M20.2,18.4c-0.1-0.1-0.1-0.2-0.2-0.3C16,12.7,11.9,7.2,7.8,1.7
			C7.7,1.6,7.6,1.6,7.5,1.6c-0.8,0-1.6,0-2.4,0c-0.1,0-0.1,0-0.2,0C4.9,1.7,5,1.8,5,1.8c2.8,3.8,5.7,7.6,8.5,11.4
			c1.2,1.7,2.5,3.3,3.7,5c0.1,0.1,0.1,0.2,0.2,0.2C18.4,18.4,19.3,18.4,20.2,18.4z"/>
	</g>
</g>
</svg>
