<svg width="70" height="70" viewBox="0 0 70 70" fill="none" xmlns="http://www.w3.org/2000/svg">
<path fill-rule="evenodd" clip-rule="evenodd" d="M35 61.25C38.2356 61.25 41.2689 60.6414 44.1 59.4242C46.9273 58.2069 49.3987 56.5415 51.5142 54.4279C53.6278 52.3124 55.2932 49.841 56.5105 47.0137C57.7257 44.1865 58.3334 41.1542 58.3334 37.9167C58.3334 37.5025 58.1934 37.1564 57.9134 36.8783C57.6334 36.5983 57.2863 36.4583 56.8721 36.4583C56.4599 36.4583 56.1138 36.5983 55.8338 36.8783C55.5557 37.1583 55.4167 37.5044 55.4167 37.9167C55.4167 43.6042 53.4353 48.4293 49.4725 52.3921C45.5098 56.3549 40.6856 58.3353 35 58.3333C29.3125 58.3333 24.4874 56.3529 20.5246 52.3921C16.5618 48.4312 14.5814 43.6061 14.5834 37.9167C14.5834 32.2292 16.5638 27.405 20.5246 23.4442C24.4855 19.4833 29.3106 17.5019 35 17.5H36.1084L32.3984 21.2129C32.1145 21.4968 31.9657 21.8313 31.9521 22.2163C31.9385 22.6013 32.0834 22.9551 32.3867 23.2779C32.7173 23.5988 33.0673 23.7621 33.4367 23.7679C33.81 23.7738 34.1571 23.6163 34.478 23.2954L40.0809 17.6371C40.5534 17.1646 40.7896 16.6143 40.7896 15.9863C40.7896 15.3582 40.5534 14.8079 40.0809 14.3354L34.3642 8.67709C34.0823 8.3932 33.7459 8.24445 33.355 8.23084C32.9642 8.21723 32.6035 8.37181 32.273 8.69459C31.9716 9.01542 31.818 9.35959 31.8121 9.72709C31.8063 10.0926 31.9638 10.4358 32.2846 10.7567L36.1113 14.5833H35C31.7625 14.5833 28.7302 15.1919 25.903 16.4092C23.0757 17.6264 20.6043 19.2918 18.4888 21.4054C16.3752 23.521 14.7098 25.9924 13.4925 28.8196C12.2753 31.6449 11.6667 34.6763 11.6667 37.9137C11.6667 41.1493 12.2753 44.1826 13.4925 47.0137C14.7098 49.841 16.3752 52.3124 18.4888 54.4279C20.6043 56.5415 23.0757 58.2069 25.903 59.4242C28.7282 60.6414 31.7596 61.25 34.9971 61.25H35ZM24.7362 32.6433H27.4837V44.4792C27.4837 44.8525 27.6062 45.1607 27.8512 45.4037C28.0942 45.6468 28.4024 45.7683 28.7758 45.7683C29.1491 45.7683 29.4573 45.6468 29.7003 45.4037C29.9434 45.1607 30.0649 44.8525 30.0649 44.4792V31.3542C30.0649 30.9808 29.9424 30.6726 29.6974 30.4296C29.4544 30.1865 29.1462 30.065 28.7728 30.065H24.7362C24.3628 30.065 24.0546 30.1875 23.8116 30.4325C23.5666 30.6775 23.4441 30.9857 23.4441 31.3571C23.4441 31.7285 23.5666 32.0357 23.8116 32.2787C24.0546 32.5218 24.3628 32.6433 24.7362 32.6433ZM37.0212 45.7683C36.1928 45.7683 35.4996 45.4893 34.9416 44.9312C34.3835 44.3732 34.1035 43.68 34.1016 42.8517V32.9817C34.1016 32.1553 34.3816 31.4621 34.9416 30.9021C35.5016 30.3421 36.1938 30.0631 37.0183 30.065H42.1808C43.0071 30.065 43.6994 30.344 44.2574 30.9021C44.8155 31.4601 45.0955 32.1533 45.0974 32.9817V42.8517C45.0974 43.6781 44.8174 44.3712 44.2574 44.9312C43.6974 45.4912 43.0052 45.7703 42.1808 45.7683H37.0212ZM37.1562 32.625C36.8801 32.625 36.6562 32.8489 36.6562 33.125V42.6719C36.6562 42.948 36.8801 43.1719 37.1562 43.1719H42.0234C42.2996 43.1719 42.5234 42.948 42.5234 42.6719V33.125C42.5234 32.8489 42.2996 32.625 42.0234 32.625H37.1562Z" fill="white"/>
</svg>
