<svg width="56" height="56" viewBox="0 0 56 56" fill="none" xmlns="http://www.w3.org/2000/svg">
<path d="M18.6667 22.1667C17.8931 22.1667 17.1513 22.474 16.6043 23.021C16.0573 23.568 15.75 24.3099 15.75 25.0834C15.75 25.857 16.0573 26.5988 16.6043 27.1458C17.1513 27.6928 17.8931 28.0001 18.6667 28.0001C19.4402 28.0001 20.1821 27.6928 20.7291 27.1458C21.276 26.5988 21.5833 25.857 21.5833 25.0834C21.5833 24.3099 21.276 23.568 20.7291 23.021C20.1821 22.474 19.4402 22.1667 18.6667 22.1667ZM28 22.1667C27.2265 22.1667 26.4846 22.474 25.9376 23.021C25.3906 23.568 25.0833 24.3099 25.0833 25.0834C25.0833 25.857 25.3906 26.5988 25.9376 27.1458C26.4846 27.6928 27.2265 28.0001 28 28.0001C28.7735 28.0001 29.5154 27.6928 30.0624 27.1458C30.6094 26.5988 30.9167 25.857 30.9167 25.0834C30.9167 24.3099 30.6094 23.568 30.0624 23.021C29.5154 22.474 28.7735 22.1667 28 22.1667ZM34.4167 25.0834C34.4167 24.3099 34.724 23.568 35.2709 23.021C35.8179 22.474 36.5598 22.1667 37.3333 22.1667C38.1069 22.1667 38.8487 22.474 39.3957 23.021C39.9427 23.568 40.25 24.3099 40.25 25.0834C40.25 25.857 39.9427 26.5988 39.3957 27.1458C38.8487 27.6928 38.1069 28.0001 37.3333 28.0001C36.5598 28.0001 35.8179 27.6928 35.2709 27.1458C34.724 26.5988 34.4167 25.857 34.4167 25.0834Z" fill="#FF8731"/>
<path fill-rule="evenodd" clip-rule="evenodd" d="M37.5668 10.7169C31.281 10.1808 24.9623 10.1496 18.6715 10.6236L18.2212 10.6586C15.3288 10.8769 12.6256 12.1798 10.653 14.3064C8.68047 16.433 7.5841 19.2263 7.5835 22.1269V41.9999C7.58376 42.3025 7.66245 42.5998 7.81189 42.8628C7.96133 43.1258 8.1764 43.3457 8.43613 43.5008C8.69586 43.6559 8.99137 43.7411 9.29382 43.7479C9.59627 43.7548 9.89534 43.6831 10.1618 43.5399L19.2852 38.6376C19.7105 38.409 20.1859 38.2895 20.6688 38.2899H41.6128C44.2542 38.2899 46.5175 36.3999 46.9912 33.8029C47.9525 28.5366 48.0272 23.1466 47.2152 17.8546L46.9772 16.2936C46.7656 14.9145 46.0965 13.6466 45.0775 12.6936C44.0585 11.7406 42.7486 11.1578 41.3585 11.0389L37.5668 10.7169ZM18.9375 14.1143C25.0418 13.6537 31.1732 13.6833 37.2728 14.2029L41.0622 14.5273C42.3128 14.6346 43.3302 15.5843 43.5192 16.8256L43.7595 18.3843C44.5111 23.2921 44.4401 28.2908 43.5495 33.1753C43.467 33.6282 43.2283 34.0379 42.8748 34.333C42.5213 34.628 42.0756 34.7897 41.6152 34.7899H20.6688C19.6085 34.7901 18.5647 35.0531 17.6308 35.5553L11.0835 39.0739V22.1269C11.0836 20.109 11.846 18.1656 13.218 16.6859C14.59 15.2061 16.4703 14.2993 18.4825 14.1469L18.9375 14.1143Z" fill="#FF8731"/>
</svg>
