<svg width="36" height="36" viewBox="0 0 36 36" fill="none" xmlns="http://www.w3.org/2000/svg">
<g clip-path="url(#clip0_10484_6310)">
<path d="M12.375 0C12.6734 0 12.9595 0.118526 13.1705 0.329505C13.3815 0.540483 13.5 0.826631 13.5 1.125V10.125C13.5 11.0201 13.1444 11.8786 12.5115 12.5115C11.8786 13.1444 11.0201 13.5 10.125 13.5H1.125C0.826631 13.5 0.540483 13.3815 0.329505 13.1705C0.118526 12.9595 0 12.6734 0 12.375C0 12.0766 0.118526 11.7905 0.329505 11.5795C0.540483 11.3685 0.826631 11.25 1.125 11.25H10.125C10.4234 11.25 10.7095 11.1315 10.9205 10.9205C11.1315 10.7095 11.25 10.4234 11.25 10.125V1.125C11.25 0.826631 11.3685 0.540483 11.5795 0.329505C11.7905 0.118526 12.0766 0 12.375 0ZM23.625 0C23.9234 0 24.2095 0.118526 24.4205 0.329505C24.6315 0.540483 24.75 0.826631 24.75 1.125V10.125C24.75 10.4234 24.8685 10.7095 25.0795 10.9205C25.2905 11.1315 25.5766 11.25 25.875 11.25H34.875C35.1734 11.25 35.4595 11.3685 35.6705 11.5795C35.8815 11.7905 36 12.0766 36 12.375C36 12.6734 35.8815 12.9595 35.6705 13.1705C35.4595 13.3815 35.1734 13.5 34.875 13.5H25.875C24.9799 13.5 24.1214 13.1444 23.4885 12.5115C22.8556 11.8786 22.5 11.0201 22.5 10.125V1.125C22.5 0.826631 22.6185 0.540483 22.8295 0.329505C23.0405 0.118526 23.3266 0 23.625 0ZM0 23.625C0 23.3266 0.118526 23.0405 0.329505 22.8295C0.540483 22.6185 0.826631 22.5 1.125 22.5H10.125C11.0201 22.5 11.8786 22.8556 12.5115 23.4885C13.1444 24.1214 13.5 24.9799 13.5 25.875V34.875C13.5 35.1734 13.3815 35.4595 13.1705 35.6705C12.9595 35.8815 12.6734 36 12.375 36C12.0766 36 11.7905 35.8815 11.5795 35.6705C11.3685 35.4595 11.25 35.1734 11.25 34.875V25.875C11.25 25.5766 11.1315 25.2905 10.9205 25.0795C10.7095 24.8685 10.4234 24.75 10.125 24.75H1.125C0.826631 24.75 0.540483 24.6315 0.329505 24.4205C0.118526 24.2095 0 23.9234 0 23.625ZM22.5 25.875C22.5 24.9799 22.8556 24.1214 23.4885 23.4885C24.1214 22.8556 24.9799 22.5 25.875 22.5H34.875C35.1734 22.5 35.4595 22.6185 35.6705 22.8295C35.8815 23.0405 36 23.3266 36 23.625C36 23.9234 35.8815 24.2095 35.6705 24.4205C35.4595 24.6315 35.1734 24.75 34.875 24.75H25.875C25.5766 24.75 25.2905 24.8685 25.0795 25.0795C24.8685 25.2905 24.75 25.5766 24.75 25.875V34.875C24.75 35.1734 24.6315 35.4595 24.4205 35.6705C24.2095 35.8815 23.9234 36 23.625 36C23.3266 36 23.0405 35.8815 22.8295 35.6705C22.6185 35.4595 22.5 35.1734 22.5 34.875V25.875Z" fill="white"/>
</g>
<defs>
<clipPath id="clip0_10484_6310">
<rect width="36" height="36" fill="white"/>
</clipPath>
</defs>
</svg>
