<svg width="40" height="40" viewBox="0 0 40 40" fill="none" xmlns="http://www.w3.org/2000/svg">
<path d="M31.25 6.66667C31.9613 6.66667 32.6657 6.80677 33.3228 7.07899C33.98 7.3512 34.5772 7.75019 35.0801 8.25317C35.5831 8.75616 35.9821 9.35329 36.2543 10.0105C36.5265 10.6676 36.6666 11.372 36.6666 12.0833V27.925C36.6666 28.6363 36.5265 29.3407 36.2543 29.9979C35.9821 30.6551 35.5831 31.2522 35.0801 31.7552C34.5772 32.2581 33.98 32.6571 33.3228 32.9293C32.6657 33.2016 31.9613 33.3417 31.25 33.3417H8.74998C8.03865 33.3417 7.33429 33.2016 6.67711 32.9293C6.01993 32.6571 5.4228 32.2581 4.91982 31.7552C4.41683 31.2522 4.01785 30.6551 3.74563 29.9979C3.47342 29.3407 3.33331 28.6363 3.33331 27.925V12.0833C3.33322 10.6998 3.86257 9.36862 4.81277 8.36295C5.76296 7.35728 7.06197 6.75333 8.44331 6.675L8.74998 6.66667H31.25ZM31.25 9.16667H8.74998L8.50998 9.17667C7.78048 9.2369 7.10029 9.56923 6.60445 10.1077C6.1086 10.6461 5.83334 11.3514 5.83331 12.0833V27.925C5.83331 29.535 7.13998 30.8417 8.74998 30.8417H31.25C32.0235 30.8417 32.7654 30.5344 33.3124 29.9874C33.8594 29.4404 34.1666 28.6985 34.1666 27.925V12.0833C34.1666 11.3098 33.8594 10.5679 33.3124 10.0209C32.7654 9.47396 32.0235 9.16667 31.25 9.16667ZM9.16665 20C9.16665 14.7567 13.6883 12.0417 17.7033 14.3317C17.9764 14.5033 18.1727 14.7738 18.251 15.0867C18.3293 15.3996 18.2836 15.7307 18.1235 16.0107C17.9633 16.2907 17.7012 16.4979 17.3918 16.5891C17.0824 16.6803 16.7497 16.6484 16.4633 16.5C14.135 15.1733 11.6666 16.6567 11.6666 20C11.6666 23.3417 14.14 24.8267 16.4666 23.505C16.754 23.353 17.0893 23.319 17.4014 23.4101C17.7134 23.5012 17.9777 23.7103 18.1382 23.993C18.2986 24.2758 18.3426 24.6099 18.2608 24.9245C18.179 25.2392 17.9778 25.5096 17.7 25.6783C13.6933 27.9583 9.16665 25.2383 9.16665 20ZM21.6666 20C21.6666 14.7567 26.1883 12.0417 30.2033 14.3317C30.4828 14.5003 30.6852 14.7715 30.7674 15.0874C30.8495 15.4033 30.8049 15.7388 30.6429 16.0222C30.481 16.3056 30.2146 16.5144 29.9008 16.604C29.5869 16.6936 29.2505 16.6569 28.9633 16.5017C26.635 15.1733 24.1666 16.6567 24.1666 20C24.1666 23.3417 26.64 24.8267 28.9666 23.505C29.254 23.353 29.5893 23.319 29.9014 23.4101C30.2134 23.5012 30.4777 23.7103 30.6382 23.993C30.7986 24.2758 30.8426 24.6099 30.7608 24.9245C30.679 25.2392 30.4778 25.5096 30.2 25.6783C26.1933 27.9583 21.6666 25.2383 21.6666 20Z" fill="white"/>
</svg>
