<svg width="386" height="440" viewBox="0 0 386 440" fill="none" xmlns="http://www.w3.org/2000/svg">
<path d="M362.868 124.013L254.038 124.013C251.969 124.013 249.985 123.19 248.523 121.724C247.06 120.259 246.238 118.272 246.238 116.2V36.8414C246.238 34.7703 247.06 32.7841 248.522 31.3197C249.984 29.8552 251.967 29.0325 254.034 29.0325L362.872 29.0325C364.94 29.0325 366.923 29.8552 368.385 31.3197C369.847 32.7841 370.668 34.7703 370.668 36.8414V116.2C370.668 118.272 369.846 120.259 368.384 121.724C366.921 123.19 364.937 124.013 362.868 124.013Z" fill="white"/>
<path d="M245.912 116.2V36.8408C245.912 34.6832 246.768 32.614 248.291 31.0883C249.814 29.5627 251.88 28.7056 254.034 28.7056H362.872C365.026 28.7056 367.092 29.5627 368.615 31.0883C370.138 32.614 370.994 34.6832 370.994 36.8408V116.2C370.994 117.268 370.783 118.327 370.375 119.314C369.967 120.302 369.368 121.199 368.614 121.955C367.859 122.71 366.963 123.31 365.978 123.719C364.992 124.128 363.935 124.339 362.868 124.339H254.038C252.97 124.339 251.914 124.128 250.928 123.719C249.942 123.31 249.047 122.71 248.292 121.955C247.537 121.199 246.939 120.302 246.531 119.314C246.122 118.327 245.912 117.268 245.912 116.2ZM254.034 29.3584C252.053 29.3589 250.154 30.1475 248.753 31.5507C247.353 32.9539 246.566 34.8567 246.566 36.8408V116.2C246.566 118.185 247.353 120.089 248.755 121.493C250.157 122.897 252.057 123.686 254.04 123.686H362.868C364.85 123.686 366.751 122.897 368.153 121.493C369.554 120.089 370.342 118.185 370.342 116.2V36.8408C370.342 34.8564 369.555 32.9532 368.154 31.55C366.753 30.1467 364.853 29.3584 362.872 29.3584H254.034Z" fill="#8B9BDD"/>
<path d="M246.239 36.8398V43.4522H370.667V36.8398C370.667 34.7688 369.846 32.7826 368.384 31.3181C366.922 29.8537 364.939 29.0309 362.871 29.0309H254.035C253.011 29.0309 251.997 29.2329 251.051 29.6254C250.106 30.0178 249.246 30.593 248.522 31.3181C247.798 32.0433 247.224 32.9041 246.832 33.8515C246.441 34.7989 246.239 35.8144 246.239 36.8398Z" fill="#8B9BDD"/>
<path d="M288.734 54.1408H282.862C282.793 54.1408 282.727 54.1133 282.678 54.0643C282.629 54.0153 282.602 53.9489 282.602 53.8797C282.602 53.8104 282.629 53.744 282.678 53.695C282.727 53.646 282.793 53.6185 282.862 53.6185H288.734C288.803 53.6185 288.869 53.646 288.918 53.695C288.967 53.744 288.994 53.8104 288.994 53.8797C288.994 53.9489 288.967 54.0153 288.918 54.0643C288.869 54.1133 288.803 54.1408 288.734 54.1408Z" fill="#8B9BDD"/>
<path d="M278.628 54.1408H276.406C276.337 54.1408 276.271 54.1133 276.222 54.0643C276.173 54.0153 276.146 53.9489 276.146 53.8797C276.146 53.8104 276.173 53.744 276.222 53.695C276.271 53.646 276.337 53.6185 276.406 53.6185H278.628C278.697 53.6185 278.763 53.646 278.812 53.695C278.861 53.744 278.889 53.8104 278.889 53.8797C278.889 53.9489 278.861 54.0153 278.812 54.0643C278.763 54.1133 278.697 54.1408 278.628 54.1408Z" fill="#11CCF5"/>
<path d="M278.628 58.8516H276.406C276.337 58.8516 276.271 58.8241 276.222 58.7751C276.173 58.7262 276.146 58.6597 276.146 58.5905C276.146 58.5212 276.173 58.4548 276.222 58.4058C276.271 58.3569 276.337 58.3293 276.406 58.3293H278.628C278.697 58.3293 278.763 58.3569 278.812 58.4058C278.861 58.4548 278.889 58.5212 278.889 58.5905C278.889 58.6597 278.861 58.7262 278.812 58.7751C278.763 58.8241 278.697 58.8516 278.628 58.8516Z" fill="#11CCF5"/>
<path d="M278.628 63.5624H276.406C276.337 63.5624 276.271 63.5349 276.222 63.4859C276.173 63.437 276.146 63.3705 276.146 63.3013C276.146 63.232 276.173 63.1656 276.222 63.1166C276.271 63.0677 276.337 63.0402 276.406 63.0402H278.628C278.697 63.0402 278.763 63.0677 278.812 63.1166C278.861 63.1656 278.889 63.232 278.889 63.3013C278.889 63.3705 278.861 63.437 278.812 63.4859C278.763 63.5349 278.697 63.5624 278.628 63.5624Z" fill="#11CCF5"/>
<path d="M278.628 68.2732H276.406C276.337 68.2732 276.271 68.2457 276.222 68.1968C276.173 68.1478 276.146 68.0814 276.146 68.0121C276.146 67.9429 276.173 67.8764 276.222 67.8275C276.271 67.7785 276.337 67.751 276.406 67.751H278.628C278.697 67.751 278.763 67.7785 278.812 67.8275C278.861 67.8764 278.889 67.9429 278.889 68.0121C278.889 68.0814 278.861 68.1478 278.812 68.1968C278.763 68.2457 278.697 68.2732 278.628 68.2732Z" fill="#11CCF5"/>
<path d="M278.628 72.9841H276.406C276.337 72.9841 276.271 72.9565 276.222 72.9076C276.173 72.8586 276.146 72.7922 276.146 72.7229C276.146 72.6537 276.173 72.5872 276.222 72.5383C276.271 72.4893 276.337 72.4618 276.406 72.4618H278.628C278.697 72.4618 278.763 72.4893 278.812 72.5383C278.861 72.5872 278.889 72.6537 278.889 72.7229C278.889 72.7922 278.861 72.8586 278.812 72.9076C278.763 72.9565 278.697 72.9841 278.628 72.9841Z" fill="#11CCF5"/>
<path d="M278.628 77.6949H276.406C276.337 77.6949 276.271 77.6674 276.222 77.6184C276.173 77.5694 276.146 77.503 276.146 77.4337C276.146 77.3645 276.173 77.2981 276.222 77.2491C276.271 77.2001 276.337 77.1726 276.406 77.1726H278.628C278.697 77.1726 278.763 77.2001 278.812 77.2491C278.861 77.2981 278.889 77.3645 278.889 77.4337C278.889 77.503 278.861 77.5694 278.812 77.6184C278.763 77.6674 278.697 77.6949 278.628 77.6949Z" fill="#11CCF5"/>
<path d="M278.628 82.4057H276.406C276.337 82.4057 276.271 82.3782 276.222 82.3292C276.173 82.2802 276.146 82.2138 276.146 82.1446C276.146 82.0753 276.173 82.0089 276.222 81.9599C276.271 81.9109 276.337 81.8834 276.406 81.8834H278.628C278.697 81.8834 278.763 81.9109 278.812 81.9599C278.861 82.0089 278.889 82.0753 278.889 82.1446C278.889 82.2138 278.861 82.2802 278.812 82.3292C278.763 82.3782 278.697 82.4057 278.628 82.4057Z" fill="#11CCF5"/>
<path d="M278.628 87.1164H276.406C276.337 87.1164 276.271 87.0889 276.222 87.04C276.173 86.991 276.146 86.9246 276.146 86.8553C276.146 86.7861 276.173 86.7196 276.222 86.6707C276.271 86.6217 276.337 86.5942 276.406 86.5942H278.628C278.697 86.5942 278.763 86.6217 278.812 86.6707C278.861 86.7196 278.889 86.7861 278.889 86.8553C278.889 86.9246 278.861 86.991 278.812 87.04C278.763 87.0889 278.697 87.1164 278.628 87.1164Z" fill="#11CCF5"/>
<path d="M278.628 91.8273H276.406C276.337 91.8273 276.271 91.7997 276.222 91.7508C276.173 91.7018 276.146 91.6354 276.146 91.5661C276.146 91.4969 276.173 91.4304 276.222 91.3815C276.271 91.3325 276.337 91.305 276.406 91.305H278.628C278.697 91.305 278.763 91.3325 278.812 91.3815C278.861 91.4304 278.889 91.4969 278.889 91.5661C278.889 91.6354 278.861 91.7018 278.812 91.7508C278.763 91.7997 278.697 91.8273 278.628 91.8273Z" fill="#11CCF5"/>
<path d="M278.628 96.5381H276.406C276.337 96.5381 276.271 96.5106 276.222 96.4616C276.173 96.4126 276.146 96.3462 276.146 96.2769C276.146 96.2077 276.173 96.1413 276.222 96.0923C276.271 96.0433 276.337 96.0158 276.406 96.0158H278.628C278.697 96.0158 278.763 96.0433 278.812 96.0923C278.861 96.1413 278.889 96.2077 278.889 96.2769C278.889 96.3462 278.861 96.4126 278.812 96.4616C278.763 96.5106 278.697 96.5381 278.628 96.5381Z" fill="#11CCF5"/>
<path d="M278.628 101.249H276.406C276.337 101.249 276.271 101.221 276.222 101.172C276.173 101.123 276.146 101.057 276.146 100.988C276.146 100.918 276.173 100.852 276.222 100.803C276.271 100.754 276.337 100.727 276.406 100.727H278.628C278.697 100.727 278.763 100.754 278.812 100.803C278.861 100.852 278.889 100.918 278.889 100.988C278.889 101.057 278.861 101.123 278.812 101.172C278.763 101.221 278.697 101.249 278.628 101.249Z" fill="#11CCF5"/>
<path d="M278.628 105.96H276.406C276.337 105.96 276.271 105.932 276.222 105.883C276.173 105.834 276.146 105.768 276.146 105.699C276.146 105.629 276.173 105.563 276.222 105.514C276.271 105.465 276.337 105.437 276.406 105.437H278.628C278.697 105.437 278.763 105.465 278.812 105.514C278.861 105.563 278.889 105.629 278.889 105.699C278.889 105.768 278.861 105.834 278.812 105.883C278.763 105.932 278.697 105.96 278.628 105.96Z" fill="#11CCF5"/>
<path d="M278.628 110.671H276.406C276.337 110.671 276.271 110.643 276.222 110.594C276.173 110.545 276.146 110.479 276.146 110.409C276.146 110.34 276.173 110.274 276.222 110.225C276.271 110.176 276.337 110.148 276.406 110.148H278.628C278.697 110.148 278.763 110.176 278.812 110.225C278.861 110.274 278.889 110.34 278.889 110.409C278.889 110.479 278.861 110.545 278.812 110.594C278.763 110.643 278.697 110.671 278.628 110.671Z" fill="#11CCF5"/>
<path d="M278.628 115.382H276.406C276.337 115.382 276.271 115.354 276.222 115.305C276.173 115.256 276.146 115.19 276.146 115.121C276.146 115.051 276.173 114.985 276.222 114.936C276.271 114.887 276.337 114.86 276.406 114.86H278.628C278.697 114.86 278.763 114.887 278.812 114.936C278.861 114.985 278.889 115.051 278.889 115.121C278.889 115.19 278.861 115.256 278.812 115.305C278.763 115.354 278.697 115.382 278.628 115.382Z" fill="#11CCF5"/>
<path d="M293.426 58.8515H288.076C288.007 58.8515 287.941 58.824 287.892 58.7751C287.843 58.7261 287.815 58.6597 287.815 58.5904C287.815 58.5212 287.843 58.4547 287.892 58.4058C287.941 58.3568 288.007 58.3293 288.076 58.3293H293.426C293.495 58.3293 293.562 58.3568 293.61 58.4058C293.659 58.4547 293.687 58.5212 293.687 58.5904C293.687 58.6597 293.659 58.7261 293.61 58.7751C293.562 58.824 293.495 58.8515 293.426 58.8515Z" fill="#8B9BDD"/>
<path d="M288.734 87.1164H282.862C282.793 87.1164 282.727 87.0889 282.678 87.0399C282.629 86.9909 282.602 86.9245 282.602 86.8552C282.602 86.786 282.629 86.7196 282.678 86.6706C282.727 86.6216 282.793 86.5941 282.862 86.5941H288.734C288.803 86.5941 288.869 86.6216 288.918 86.6706C288.967 86.7196 288.994 86.786 288.994 86.8552C288.994 86.9245 288.967 86.9909 288.918 87.0399C288.869 87.0889 288.803 87.1164 288.734 87.1164Z" fill="#8B9BDD"/>
<path d="M293.426 91.8272H288.076C288.007 91.8272 287.941 91.7997 287.892 91.7507C287.843 91.7017 287.815 91.6353 287.815 91.5661C287.815 91.4968 287.843 91.4304 287.892 91.3814C287.941 91.3324 288.007 91.3049 288.076 91.3049H293.426C293.495 91.3049 293.562 91.3324 293.61 91.3814C293.659 91.4304 293.687 91.4968 293.687 91.5661C293.687 91.6353 293.659 91.7017 293.61 91.7507C293.562 91.7997 293.495 91.8272 293.426 91.8272Z" fill="#8B9BDD"/>
<path d="M323.667 63.5624H291.726C291.656 63.5624 291.59 63.5349 291.541 63.4859C291.492 63.4369 291.465 63.3705 291.465 63.3012C291.465 63.232 291.492 63.1656 291.541 63.1166C291.59 63.0676 291.656 63.0401 291.726 63.0401H323.667C323.736 63.0401 323.802 63.0676 323.851 63.1166C323.9 63.1656 323.927 63.232 323.927 63.3012C323.927 63.3705 323.9 63.4369 323.851 63.4859C323.802 63.5349 323.736 63.5624 323.667 63.5624Z" fill="#8B9BDD"/>
<path d="M351.867 63.5624H329.311C329.242 63.5624 329.176 63.5349 329.127 63.4859C329.078 63.4369 329.051 63.3705 329.051 63.3012C329.051 63.232 329.078 63.1656 329.127 63.1166C329.176 63.0676 329.242 63.0401 329.311 63.0401H351.867C351.936 63.0401 352.002 63.0676 352.051 63.1166C352.1 63.1656 352.128 63.232 352.128 63.3012C352.128 63.3705 352.1 63.4369 352.051 63.4859C352.002 63.5349 351.936 63.5624 351.867 63.5624Z" fill="#0CBC8B"/>
<path d="M363.971 63.5624H357.058C356.988 63.5624 356.922 63.5349 356.873 63.4859C356.824 63.4369 356.797 63.3705 356.797 63.3012C356.797 63.232 356.824 63.1656 356.873 63.1166C356.922 63.0676 356.988 63.0401 357.058 63.0401H363.971C364.04 63.0401 364.107 63.0676 364.156 63.1166C364.205 63.1656 364.232 63.232 364.232 63.3012C364.232 63.3705 364.205 63.4369 364.156 63.4859C364.107 63.5349 364.04 63.5624 363.971 63.5624Z" fill="#8B9BDD"/>
<path d="M339.308 72.984H291.726C291.656 72.984 291.59 72.9565 291.541 72.9075C291.492 72.8585 291.465 72.7921 291.465 72.7229C291.465 72.6536 291.492 72.5872 291.541 72.5382C291.59 72.4892 291.656 72.4617 291.726 72.4617H339.308C339.378 72.4617 339.444 72.4892 339.493 72.5382C339.542 72.5872 339.569 72.6536 339.569 72.7229C339.569 72.7921 339.542 72.8585 339.493 72.9075C339.444 72.9565 339.378 72.984 339.308 72.984Z" fill="#8B9BDD"/>
<path d="M351.867 72.9839H344.953C344.884 72.9839 344.818 72.9564 344.769 72.9074C344.72 72.8585 344.692 72.7921 344.692 72.7228C344.692 72.6535 344.72 72.5871 344.769 72.5381C344.818 72.4892 344.884 72.4617 344.953 72.4617H351.867C351.936 72.4617 352.002 72.4892 352.051 72.5381C352.1 72.5871 352.127 72.6535 352.127 72.7228C352.127 72.7921 352.1 72.8585 352.051 72.9074C352.002 72.9564 351.936 72.9839 351.867 72.9839Z" fill="#11CCF5"/>
<path d="M297.597 68.2732H291.726C291.656 68.2732 291.59 68.2457 291.541 68.1967C291.492 68.1477 291.465 68.0813 291.465 68.012C291.465 67.9428 291.492 67.8764 291.541 67.8274C291.59 67.7784 291.656 67.7509 291.726 67.7509H297.597C297.666 67.7509 297.732 67.7784 297.781 67.8274C297.83 67.8764 297.858 67.9428 297.858 68.012C297.858 68.0813 297.83 68.1477 297.781 68.1967C297.732 68.2457 297.666 68.2732 297.597 68.2732Z" fill="#0CBC8B"/>
<path d="M336.226 68.2732H303.242C303.173 68.2732 303.107 68.2457 303.058 68.1967C303.009 68.1477 302.981 68.0813 302.981 68.012C302.981 67.9428 303.009 67.8764 303.058 67.8274C303.107 67.7784 303.173 67.7509 303.242 67.7509H336.226C336.295 67.7509 336.361 67.7784 336.41 67.8274C336.459 67.8764 336.486 67.9428 336.486 68.012C336.486 68.0813 336.459 68.1477 336.41 68.1967C336.361 68.2457 336.295 68.2732 336.226 68.2732Z" fill="#11CCF5"/>
<path d="M364.017 68.2732H342.503C342.434 68.2732 342.367 68.2457 342.319 68.1967C342.27 68.1477 342.242 68.0813 342.242 68.012C342.242 67.9428 342.27 67.8764 342.319 67.8274C342.367 67.7784 342.434 67.7509 342.503 67.7509H364.016C364.085 67.7509 364.152 67.7784 364.2 67.8274C364.249 67.8764 364.277 67.9428 364.277 68.012C364.277 68.0813 364.249 68.1477 364.2 68.1967C364.152 68.2457 364.085 68.2732 364.016 68.2732H364.017Z" fill="#8B9BDD"/>
<path d="M323.667 77.6948H291.726C291.656 77.6948 291.59 77.6673 291.541 77.6183C291.492 77.5693 291.465 77.5029 291.465 77.4337C291.465 77.3644 291.492 77.298 291.541 77.249C291.59 77.2001 291.656 77.1725 291.726 77.1725H323.667C323.736 77.1725 323.802 77.2001 323.851 77.249C323.9 77.298 323.927 77.3644 323.927 77.4337C323.927 77.5029 323.9 77.5693 323.851 77.6183C323.802 77.6673 323.736 77.6948 323.667 77.6948Z" fill="#8B9BDD"/>
<path d="M341.439 77.6949H329.311C329.242 77.6949 329.176 77.6674 329.127 77.6184C329.078 77.5694 329.051 77.503 329.051 77.4337C329.051 77.3645 329.078 77.2981 329.127 77.2491C329.176 77.2001 329.242 77.1726 329.311 77.1726H341.439C341.508 77.1726 341.575 77.2001 341.623 77.2491C341.672 77.2981 341.7 77.3645 341.7 77.4337C341.7 77.503 341.672 77.5694 341.623 77.6184C341.575 77.6674 341.508 77.6949 341.439 77.6949Z" fill="#0CBC8B"/>
<path d="M363.971 77.6949H346.63C346.561 77.6949 346.494 77.6674 346.446 77.6184C346.397 77.5694 346.369 77.503 346.369 77.4337C346.369 77.3645 346.397 77.2981 346.446 77.2491C346.494 77.2001 346.561 77.1726 346.63 77.1726H363.971C364.041 77.1726 364.107 77.2001 364.156 77.2491C364.205 77.2981 364.232 77.3645 364.232 77.4337C364.232 77.503 364.205 77.5694 364.156 77.6184C364.107 77.6674 364.041 77.6949 363.971 77.6949Z" fill="#8B9BDD"/>
<path d="M297.597 82.4056H291.726C291.656 82.4056 291.59 82.3781 291.541 82.3291C291.492 82.2801 291.465 82.2137 291.465 82.1444C291.465 82.0752 291.492 82.0088 291.541 81.9598C291.59 81.9108 291.656 81.8833 291.726 81.8833H297.597C297.666 81.8833 297.732 81.9108 297.781 81.9598C297.83 82.0088 297.858 82.0752 297.858 82.1444C297.858 82.2137 297.83 82.2801 297.781 82.3291C297.732 82.3781 297.666 82.4056 297.597 82.4056Z" fill="#11CCF5"/>
<path d="M336.226 82.4056H303.242C303.173 82.4056 303.107 82.3781 303.058 82.3291C303.009 82.2801 302.981 82.2137 302.981 82.1444C302.981 82.0752 303.009 82.0088 303.058 81.9598C303.107 81.9108 303.173 81.8833 303.242 81.8833H336.226C336.295 81.8833 336.361 81.9108 336.41 81.9598C336.459 82.0088 336.486 82.0752 336.486 82.1444C336.486 82.2137 336.459 82.2801 336.41 82.3291C336.361 82.3781 336.295 82.4056 336.226 82.4056Z" fill="#0CBC8B"/>
<path d="M322.624 101.249H290.683C290.613 101.249 290.547 101.221 290.498 101.172C290.449 101.123 290.422 101.057 290.422 100.988C290.422 100.918 290.449 100.852 290.498 100.803C290.547 100.754 290.613 100.727 290.683 100.727H322.624C322.693 100.727 322.759 100.754 322.808 100.803C322.857 100.852 322.884 100.918 322.884 100.988C322.884 101.057 322.857 101.123 322.808 101.172C322.759 101.221 322.693 101.249 322.624 101.249Z" fill="#8B9BDD"/>
<path d="M350.824 101.249H328.269C328.199 101.249 328.133 101.221 328.084 101.172C328.035 101.123 328.008 101.057 328.008 100.988C328.008 100.918 328.035 100.852 328.084 100.803C328.133 100.754 328.199 100.727 328.269 100.727H350.824C350.893 100.727 350.959 100.754 351.008 100.803C351.057 100.852 351.085 100.918 351.085 100.988C351.085 101.057 351.057 101.123 351.008 101.172C350.959 101.221 350.893 101.249 350.824 101.249Z" fill="#11CCF5"/>
<path d="M306.982 96.5379H290.683C290.613 96.5379 290.547 96.5104 290.498 96.4615C290.449 96.4125 290.422 96.3461 290.422 96.2768C290.422 96.2076 290.449 96.1411 290.498 96.0922C290.547 96.0432 290.613 96.0157 290.683 96.0157H306.982C307.051 96.0157 307.117 96.0432 307.166 96.0922C307.215 96.1411 307.243 96.2076 307.243 96.2768C307.243 96.3461 307.215 96.4125 307.166 96.4615C307.117 96.5104 307.051 96.5379 306.982 96.5379Z" fill="#0CBC8B"/>
<path d="M335.182 96.5379H312.627C312.558 96.5379 312.491 96.5104 312.443 96.4615C312.394 96.4125 312.366 96.3461 312.366 96.2768C312.366 96.2076 312.394 96.1411 312.443 96.0922C312.491 96.0432 312.558 96.0157 312.627 96.0157H335.182C335.252 96.0157 335.318 96.0432 335.367 96.0922C335.416 96.1411 335.443 96.2076 335.443 96.2768C335.443 96.3461 335.416 96.4125 335.367 96.4615C335.318 96.5104 335.252 96.5379 335.182 96.5379Z" fill="#11CCF5"/>
<path d="M362.974 96.5379H341.46C341.391 96.5379 341.324 96.5104 341.276 96.4615C341.227 96.4125 341.199 96.3461 341.199 96.2768C341.199 96.2076 341.227 96.1411 341.276 96.0922C341.324 96.0432 341.391 96.0157 341.46 96.0157H362.973C363.042 96.0157 363.109 96.0432 363.157 96.0922C363.206 96.1411 363.234 96.2076 363.234 96.2768C363.234 96.3461 363.206 96.4125 363.157 96.4615C363.109 96.5104 363.042 96.5379 362.973 96.5379H362.974Z" fill="#8B9BDD"/>
<path d="M338.266 110.671H290.683C290.613 110.671 290.547 110.643 290.498 110.594C290.449 110.545 290.422 110.479 290.422 110.41C290.422 110.341 290.449 110.274 290.498 110.225C290.547 110.176 290.613 110.149 290.683 110.149H338.266C338.335 110.149 338.401 110.176 338.45 110.225C338.499 110.274 338.526 110.341 338.526 110.41C338.526 110.479 338.499 110.545 338.45 110.594C338.401 110.643 338.335 110.671 338.266 110.671Z" fill="#11CCF5"/>
<path d="M350.824 110.671H343.91C343.841 110.671 343.775 110.643 343.726 110.594C343.677 110.545 343.649 110.479 343.649 110.41C343.649 110.341 343.677 110.274 343.726 110.225C343.775 110.176 343.841 110.149 343.91 110.149H350.824C350.893 110.149 350.959 110.176 351.008 110.225C351.057 110.274 351.084 110.341 351.084 110.41C351.084 110.479 351.057 110.545 351.008 110.594C350.959 110.643 350.893 110.671 350.824 110.671Z" fill="#8B9BDD"/>
<path d="M296.554 105.96H290.683C290.613 105.96 290.547 105.933 290.498 105.884C290.449 105.835 290.422 105.768 290.422 105.699C290.422 105.63 290.449 105.563 290.498 105.514C290.547 105.465 290.613 105.438 290.683 105.438H296.554C296.623 105.438 296.689 105.465 296.738 105.514C296.787 105.563 296.815 105.63 296.815 105.699C296.815 105.768 296.787 105.835 296.738 105.884C296.689 105.933 296.623 105.96 296.554 105.96Z" fill="#11CCF5"/>
<path d="M335.183 105.96H302.199C302.13 105.96 302.064 105.933 302.015 105.884C301.966 105.835 301.938 105.768 301.938 105.699C301.938 105.63 301.966 105.563 302.015 105.514C302.064 105.465 302.13 105.438 302.199 105.438H335.183C335.252 105.438 335.318 105.465 335.367 105.514C335.416 105.563 335.443 105.63 335.443 105.699C335.443 105.768 335.416 105.835 335.367 105.884C335.318 105.933 335.252 105.96 335.183 105.96Z" fill="#8B9BDD"/>
<path d="M362.974 105.96H341.46C341.391 105.96 341.324 105.933 341.276 105.884C341.227 105.835 341.199 105.768 341.199 105.699C341.199 105.63 341.227 105.563 341.276 105.514C341.324 105.465 341.391 105.438 341.46 105.438H362.973C363.042 105.438 363.109 105.465 363.157 105.514C363.206 105.563 363.234 105.63 363.234 105.699C363.234 105.768 363.206 105.835 363.157 105.884C363.109 105.933 363.042 105.96 362.973 105.96H362.974Z" fill="#0CBC8B"/>
<path d="M322.624 115.382H290.683C290.613 115.382 290.547 115.354 290.498 115.305C290.449 115.256 290.422 115.19 290.422 115.121C290.422 115.051 290.449 114.985 290.498 114.936C290.547 114.887 290.613 114.859 290.683 114.859H322.624C322.693 114.859 322.759 114.887 322.808 114.936C322.857 114.985 322.884 115.051 322.884 115.121C322.884 115.19 322.857 115.256 322.808 115.305C322.759 115.354 322.693 115.382 322.624 115.382Z" fill="#0CBC8B"/>
<path d="M340.396 115.382H328.269C328.199 115.382 328.133 115.354 328.084 115.305C328.035 115.256 328.008 115.19 328.008 115.121C328.008 115.051 328.035 114.985 328.084 114.936C328.133 114.887 328.199 114.859 328.269 114.859H340.396C340.465 114.859 340.532 114.887 340.58 114.936C340.629 114.985 340.657 115.051 340.657 115.121C340.657 115.19 340.629 115.256 340.58 115.305C340.532 115.354 340.465 115.382 340.396 115.382Z" fill="#8B9BDD"/>
<path d="M362.928 115.382H345.587C345.518 115.382 345.451 115.354 345.403 115.305C345.354 115.256 345.326 115.19 345.326 115.121C345.326 115.051 345.354 114.985 345.403 114.936C345.451 114.887 345.518 114.859 345.587 114.859H362.928C362.998 114.859 363.064 114.887 363.113 114.936C363.162 114.985 363.189 115.051 363.189 115.121C363.189 115.19 363.162 115.256 363.113 115.305C363.064 115.354 362.998 115.382 362.928 115.382Z" fill="#11CCF5"/>
<path d="M273.931 120.423C273.861 120.423 273.795 120.395 273.746 120.346C273.697 120.297 273.67 120.231 273.67 120.161V45.9173C273.67 45.848 273.697 45.7816 273.746 45.7326C273.795 45.6836 273.861 45.6561 273.931 45.6561C274 45.6561 274.066 45.6836 274.115 45.7326C274.164 45.7816 274.191 45.848 274.191 45.9173V120.161C274.191 120.231 274.164 120.297 274.115 120.346C274.066 120.395 274 120.423 273.931 120.423Z" fill="#8B9BDD"/>
<path d="M361.241 40.9542C363.551 40.9542 365.424 39.0784 365.424 36.7646C365.424 34.4508 363.551 32.575 361.241 32.575C358.931 32.575 357.059 34.4508 357.059 36.7646C357.059 39.0784 358.931 40.9542 361.241 40.9542Z" fill="white"/>
<path d="M262.007 49.1792H250.718C250.649 49.1792 250.582 49.1517 250.533 49.1028C250.485 49.0538 250.457 48.9874 250.457 48.9181C250.457 48.8489 250.485 48.7824 250.533 48.7335C250.582 48.6845 250.649 48.657 250.718 48.657H262.007C262.076 48.657 262.142 48.6845 262.191 48.7335C262.24 48.7824 262.268 48.8489 262.268 48.9181C262.268 48.9874 262.24 49.0538 262.191 49.1028C262.142 49.1517 262.076 49.1792 262.007 49.1792Z" fill="#8B9BDD"/>
<path d="M258.606 54.3298H250.718C250.649 54.3298 250.582 54.3023 250.533 54.2533C250.485 54.2044 250.457 54.1379 250.457 54.0687C250.457 53.9994 250.485 53.933 250.533 53.884C250.582 53.8351 250.649 53.8076 250.718 53.8076H258.606C258.675 53.8076 258.741 53.8351 258.79 53.884C258.839 53.933 258.867 53.9994 258.867 54.0687C258.867 54.1379 258.839 54.2044 258.79 54.2533C258.741 54.3023 258.675 54.3298 258.606 54.3298Z" fill="#8B9BDD"/>
<path d="M265.543 59.4803H250.718C250.649 59.4803 250.582 59.4528 250.533 59.4038C250.485 59.3549 250.457 59.2885 250.457 59.2192C250.457 59.1499 250.485 59.0835 250.533 59.0346C250.582 58.9856 250.649 58.9581 250.718 58.9581H265.543C265.612 58.9581 265.679 58.9856 265.727 59.0346C265.776 59.0835 265.804 59.1499 265.804 59.2192C265.804 59.2885 265.776 59.3549 265.727 59.4038C265.679 59.4528 265.612 59.4803 265.543 59.4803Z" fill="#8B9BDD"/>
<path d="M268.309 64.6309H255.932C255.862 64.6309 255.796 64.6034 255.747 64.5544C255.698 64.5054 255.671 64.439 255.671 64.3698C255.671 64.3005 255.698 64.2341 255.747 64.1851C255.796 64.1362 255.862 64.1086 255.932 64.1086H268.309C268.379 64.1086 268.445 64.1362 268.494 64.1851C268.543 64.2341 268.57 64.3005 268.57 64.3698C268.57 64.439 268.543 64.5054 268.494 64.5544C268.445 64.6034 268.379 64.6309 268.309 64.6309Z" fill="#8B9BDD"/>
<path d="M262.324 69.782H255.932C255.862 69.782 255.796 69.7545 255.747 69.7055C255.698 69.6565 255.671 69.5901 255.671 69.5208C255.671 69.4516 255.698 69.3852 255.747 69.3362C255.796 69.2872 255.862 69.2597 255.932 69.2597H262.324C262.393 69.2597 262.459 69.2872 262.508 69.3362C262.557 69.3852 262.585 69.4516 262.585 69.5208C262.585 69.5901 262.557 69.6565 262.508 69.7055C262.459 69.7545 262.393 69.782 262.324 69.782Z" fill="#8B9BDD"/>
<path d="M267.221 74.9325H255.932C255.862 74.9325 255.796 74.905 255.747 74.856C255.698 74.807 255.671 74.7406 255.671 74.6713C255.671 74.6021 255.698 74.5357 255.747 74.4867C255.796 74.4377 255.862 74.4102 255.932 74.4102H267.221C267.29 74.4102 267.356 74.4377 267.405 74.4867C267.454 74.5357 267.482 74.6021 267.482 74.6713C267.482 74.7406 267.454 74.807 267.405 74.856C267.356 74.905 267.29 74.9325 267.221 74.9325Z" fill="#8B9BDD"/>
<path d="M259.422 80.0831H250.718C250.649 80.0831 250.582 80.0555 250.533 80.0066C250.485 79.9576 250.457 79.8912 250.457 79.8219C250.457 79.7527 250.485 79.6862 250.533 79.6373C250.582 79.5883 250.649 79.5608 250.718 79.5608H259.422C259.492 79.5608 259.558 79.5883 259.607 79.6373C259.656 79.6862 259.683 79.7527 259.683 79.8219C259.683 79.8912 259.656 79.9576 259.607 80.0066C259.558 80.0555 259.492 80.0831 259.422 80.0831Z" fill="#8B9BDD"/>
<path d="M256.43 85.2331H250.718C250.649 85.2331 250.582 85.2056 250.533 85.1566C250.485 85.1076 250.457 85.0412 250.457 84.9719C250.457 84.9027 250.485 84.8363 250.533 84.7873C250.582 84.7383 250.649 84.7108 250.718 84.7108H256.43C256.499 84.7108 256.566 84.7383 256.614 84.7873C256.663 84.8363 256.691 84.9027 256.691 84.9719C256.691 85.0412 256.663 85.1076 256.614 85.1566C256.566 85.2056 256.499 85.2331 256.43 85.2331Z" fill="#8B9BDD"/>
<path d="M278.274 48.0742V48.1682L281.532 49.3799C281.579 49.3989 281.619 49.4314 281.647 49.4733C281.674 49.5152 281.689 49.5645 281.689 49.6149V49.7037C281.69 49.7429 281.68 49.7817 281.662 49.8164C281.644 49.8511 281.617 49.8806 281.584 49.9021C281.551 49.9255 281.513 49.9401 281.473 49.9447C281.433 49.9492 281.392 49.9436 281.355 49.9282L277.674 48.4868C277.628 48.4684 277.589 48.4367 277.561 48.3958C277.533 48.3549 277.518 48.3065 277.518 48.257V47.9907C277.517 47.9409 277.532 47.8923 277.56 47.8512C277.588 47.8102 277.628 47.7786 277.674 47.7609L281.355 46.3142C281.385 46.3039 281.416 46.2986 281.448 46.2985C281.497 46.2995 281.544 46.314 281.584 46.3403C281.617 46.3629 281.644 46.3934 281.662 46.4289C281.681 46.4645 281.69 46.504 281.689 46.544V46.6328C281.69 46.6826 281.675 46.7316 281.647 46.7728C281.619 46.814 281.579 46.8454 281.532 46.8626L278.274 48.0742Z" fill="#11CCF5"/>
<path d="M284.733 45.2488L282.783 51.2287C282.767 51.2785 282.736 51.3221 282.694 51.3531C282.651 51.384 282.601 51.4008 282.548 51.401C282.51 51.4016 282.473 51.3928 282.439 51.3755C282.406 51.3582 282.377 51.3329 282.355 51.3018C282.332 51.2709 282.316 51.235 282.309 51.197C282.302 51.1589 282.304 51.1197 282.314 51.0824L284.264 45.1077C284.28 45.0569 284.312 45.0125 284.355 44.9807C284.398 44.9488 284.45 44.9312 284.503 44.9302C284.541 44.93 284.578 44.939 284.612 44.9562C284.646 44.9735 284.675 44.9986 284.696 45.0294C284.72 45.0603 284.735 45.0964 284.742 45.1346C284.748 45.1728 284.745 45.212 284.733 45.2488Z" fill="#11CCF5"/>
<path d="M289.522 47.9906V48.257C289.523 48.306 289.509 48.3542 289.482 48.3952C289.455 48.4362 289.416 48.4681 289.371 48.4868L285.684 49.9282C285.648 49.9434 285.608 49.9489 285.569 49.9444C285.53 49.9398 285.492 49.9252 285.46 49.9021C285.427 49.8808 285.399 49.8515 285.38 49.8168C285.361 49.7822 285.351 49.7432 285.351 49.7036V49.6148C285.35 49.5638 285.366 49.5138 285.394 49.4718C285.423 49.4297 285.465 49.3976 285.512 49.3798L288.771 48.1682V48.0742L285.512 46.8625C285.464 46.8466 285.423 46.8156 285.394 46.7743C285.365 46.7329 285.35 46.6833 285.351 46.6327V46.5439C285.351 46.5036 285.361 46.4639 285.38 46.4284C285.399 46.3929 285.427 46.3626 285.46 46.3403C285.501 46.3141 285.548 46.2996 285.596 46.2985C285.626 46.2981 285.656 46.3034 285.684 46.3141L289.371 47.7608C289.416 47.7789 289.455 47.8107 289.482 47.8518C289.509 47.8929 289.523 47.9414 289.522 47.9906Z" fill="#11CCF5"/>
<path d="M215.806 0H32.1582V183.954H215.806V0Z" fill="#F4F4F4"/>
<path d="M32.1586 0H30.0537V183.954H32.1586V0Z" fill="#F4F4F4"/>
<path opacity="0.05" d="M32.1586 0H30.0537V183.954H32.1586V0Z" fill="#8B9BDD"/>
<path opacity="0.05" d="M76.6472 126.759V78.6307H116.006V106.593H176.973V156.102H202.885V183.954H176.973H171.981H40.9922V126.759H76.6472Z" fill="#8B9BDD"/>
<path opacity="0.34" d="M110.955 83.8565H82.293V89.0823H110.955V83.8565Z" fill="#FFFFFA"/>
<path opacity="0.34" d="M110.955 94.6851H82.293V99.9108H110.955V94.6851Z" fill="#FFFFFA"/>
<path opacity="0.34" d="M110.955 105.514H82.293V110.739H110.955V105.514Z" fill="#FFFFFA"/>
<path opacity="0.34" d="M51.357 131.831H46.0742V137.057H51.357V131.831Z" fill="#FFFFFA"/>
<path opacity="0.34" d="M51.357 142.66H46.0742V147.886H51.357V142.66Z" fill="#FFFFFA"/>
<path opacity="0.34" d="M51.357 153.489H46.0742V158.715H51.357V153.489Z" fill="#FFFFFA"/>
<path opacity="0.34" d="M61.1304 131.831H55.8477V137.057H61.1304V131.831Z" fill="#FFFFFA"/>
<path opacity="0.34" d="M61.1304 142.66H55.8477V147.886H61.1304V142.66Z" fill="#FFFFFA"/>
<path opacity="0.34" d="M61.1304 153.489H55.8477V158.715H61.1304V153.489Z" fill="#FFFFFA"/>
<path opacity="0.34" d="M70.6392 131.831H65.3564V137.057H70.6392V131.831Z" fill="#FFFFFA"/>
<path opacity="0.34" d="M70.6392 142.66H65.3564V147.886H70.6392V142.66Z" fill="#FFFFFA"/>
<path opacity="0.34" d="M70.6392 153.489H65.3564V158.715H70.6392V153.489Z" fill="#FFFFFA"/>
<path d="M32.1582 90.9451H69.1115V0H72.1674V90.9451H171.981V0H175.037V90.9451H215.806V94.0061H175.037V183.954H171.981V94.0061H72.1674V183.954H69.1115V94.0061H32.1582V90.9451Z" fill="white"/>
<path d="M223.123 183.732H24.8428V189.85H223.123V183.732Z" fill="#F4F4F4"/>
<path opacity="0.1" d="M223.123 183.732H24.8428V189.85H223.123V183.732Z" fill="#8B9BDD"/>
<path opacity="0.1" d="M24.8425 183.732H21.9795V189.85H24.8425V183.732Z" fill="#8B9BDD"/>
<path opacity="0.1" d="M24.8425 183.732H21.9795V189.85H24.8425V183.732Z" fill="#8B9BDD"/>
<path d="M30.0537 7.83179L215.807 7.83179V3.28341L30.0537 3.28341V7.83179Z" fill="white"/>
<path d="M30.0537 16.3279L215.807 16.3279V11.7796L30.0537 11.7796V16.3279Z" fill="white"/>
<path d="M30.0537 24.8236L215.807 24.8236V20.2752L30.0537 20.2752V24.8236Z" fill="white"/>
<path d="M30.0537 33.3192L215.807 33.3192V28.7708L30.0537 28.7708V33.3192Z" fill="white"/>
<path d="M30.0537 41.8143L215.807 41.8143V37.266L30.0537 37.266V41.8143Z" fill="white"/>
<path d="M49.7827 46.9446H52.5664L52.5664 1.90735e-05H49.7827L49.7827 46.9446Z" fill="white"/>
<path d="M50.9387 53.6864C53.0509 53.6864 54.7631 51.9713 54.7631 49.8556C54.7631 47.7399 53.0509 46.0248 50.9387 46.0248C48.8265 46.0248 47.1143 47.7399 47.1143 49.8556C47.1143 51.9713 48.8265 53.6864 50.9387 53.6864Z" fill="white"/>
<path d="M31.6734 439.648L30.6494 439.451L46.6541 280.145L47.6781 280.342L31.6734 439.648Z" fill="#B0ACAC"/>
<path d="M91.2672 439.648L90.2432 439.451L106.247 280.145L107.271 280.342L91.2672 439.648Z" fill="#B0ACAC"/>
<path d="M222.997 439.648L224.021 439.451L208.016 280.145L206.992 280.342L222.997 439.648Z" fill="#B0ACAC"/>
<path d="M163.403 439.648L164.427 439.451L148.422 280.145L147.398 280.342L163.403 439.648Z" fill="#B0ACAC"/>
<path d="M142.178 210.034L141.145 210.172L150.494 280.314L151.528 280.176L142.178 210.034Z" fill="#B0ACAC"/>
<path d="M34.8617 210.033L33.8281 210.171L43.1777 280.313L44.2113 280.175L34.8617 210.033Z" fill="#B0ACAC"/>
<path d="M151.437 275.107H46.4697C43.6376 275.107 41.3418 277.407 41.3418 280.244V280.244C41.3418 283.081 43.6376 285.381 46.4697 285.381H151.437C154.269 285.381 156.565 283.081 156.565 280.244V280.244C156.565 277.407 154.269 275.107 151.437 275.107Z" fill="#8B9BDD"/>
<path opacity="0.8" d="M151.437 275.107H46.4697C43.6376 275.107 41.3418 277.407 41.3418 280.244V280.244C41.3418 283.081 43.6376 285.381 46.4697 285.381H151.437C154.269 285.381 156.565 283.081 156.565 280.244V280.244C156.565 277.407 154.269 275.107 151.437 275.107Z" fill="white"/>
<path d="M151.437 285.902H46.4706C45.7287 285.902 44.9941 285.756 44.3087 285.472C43.6233 285.187 43.0005 284.77 42.4759 284.245C41.9513 283.72 41.5352 283.096 41.2513 282.409C40.9674 281.723 40.8213 280.987 40.8213 280.244C40.8213 279.501 40.9674 278.765 41.2513 278.078C41.5352 277.392 41.9513 276.768 42.4759 276.242C43.0005 275.717 43.6233 275.3 44.3087 275.016C44.9941 274.731 45.7287 274.585 46.4706 274.585H151.437C152.179 274.585 152.914 274.731 153.599 275.016C154.284 275.3 154.907 275.717 155.432 276.242C155.956 276.768 156.372 277.392 156.656 278.078C156.94 278.765 157.086 279.501 157.086 280.244C157.086 280.987 156.94 281.723 156.656 282.409C156.372 283.096 155.956 283.72 155.432 284.245C154.907 284.77 154.284 285.187 153.599 285.472C152.914 285.756 152.179 285.902 151.437 285.902ZM46.4706 275.629C45.8657 275.629 45.2666 275.749 44.7078 275.981C44.1489 276.213 43.6411 276.552 43.2133 276.981C42.7855 277.409 42.4462 277.918 42.2147 278.478C41.9832 279.038 41.8641 279.638 41.8641 280.244C41.8641 280.85 41.9832 281.45 42.2147 282.009C42.4462 282.569 42.7855 283.078 43.2133 283.506C43.6411 283.935 44.1489 284.275 44.7078 284.507C45.2666 284.739 45.8657 284.858 46.4706 284.858H151.437C152.042 284.858 152.641 284.739 153.2 284.507C153.759 284.275 154.267 283.935 154.694 283.506C155.122 283.078 155.461 282.569 155.693 282.009C155.924 281.45 156.044 280.85 156.044 280.244C156.044 279.638 155.924 279.038 155.693 278.478C155.461 277.918 155.122 277.409 154.694 276.981C154.267 276.552 153.759 276.213 153.2 275.981C152.641 275.749 152.042 275.629 151.437 275.629H46.4706Z" fill="#8B9BDD"/>
<path d="M209.049 275.107H104.082C101.25 275.107 98.9541 277.407 98.9541 280.244V280.244C98.9541 283.081 101.25 285.381 104.082 285.381H209.049C211.881 285.381 214.177 283.081 214.177 280.244V280.244C214.177 277.407 211.881 275.107 209.049 275.107Z" fill="white"/>
<path d="M209.049 285.902H104.082C103.34 285.902 102.605 285.756 101.92 285.472C101.235 285.187 100.612 284.77 100.087 284.245C99.5627 283.72 99.1466 283.096 98.8626 282.409C98.5787 281.723 98.4326 280.987 98.4326 280.244C98.4326 279.501 98.5787 278.765 98.8626 278.078C99.1466 277.392 99.5627 276.768 100.087 276.242C100.612 275.717 101.235 275.3 101.92 275.016C102.605 274.731 103.34 274.585 104.082 274.585H209.049C209.791 274.585 210.525 274.731 211.211 275.016C211.896 275.3 212.519 275.717 213.044 276.242C213.568 276.768 213.984 277.392 214.268 278.078C214.552 278.765 214.698 279.501 214.698 280.244C214.698 280.987 214.552 281.723 214.268 282.409C213.984 283.096 213.568 283.72 213.044 284.245C212.519 284.77 211.896 285.187 211.211 285.472C210.525 285.756 209.791 285.902 209.049 285.902ZM104.082 275.629C103.477 275.629 102.878 275.749 102.319 275.981C101.76 276.213 101.252 276.552 100.825 276.981C100.397 277.409 100.058 277.918 99.8261 278.478C99.5946 279.038 99.4754 279.638 99.4754 280.244C99.4754 280.85 99.5946 281.45 99.8261 282.009C100.058 282.569 100.397 283.078 100.825 283.506C101.252 283.935 101.76 284.275 102.319 284.507C102.878 284.739 103.477 284.858 104.082 284.858H209.049C209.654 284.858 210.253 284.739 210.812 284.507C211.371 284.275 211.879 283.935 212.306 283.506C212.734 283.078 213.073 282.569 213.305 282.009C213.536 281.45 213.655 280.85 213.655 280.244C213.655 279.638 213.536 279.038 213.305 278.478C213.073 277.918 212.734 277.409 212.306 276.981C211.879 276.552 211.371 276.213 210.812 275.981C210.253 275.749 209.654 275.629 209.049 275.629H104.082Z" fill="#8B9BDD"/>
<path d="M136.427 210.102H34.6266C32.9622 210.102 31.3546 209.495 30.104 208.395C28.8534 207.295 28.0452 205.776 27.8302 204.123L21.0964 152.326C20.9706 151.357 21.0524 150.373 21.3364 149.439C21.6204 148.505 22.1001 147.642 22.7435 146.909C23.3868 146.175 24.179 145.587 25.0672 145.185C25.9553 144.782 26.919 144.574 27.8938 144.574H129.693C131.358 144.574 132.965 145.181 134.216 146.281C135.467 147.381 136.275 148.899 136.49 150.552L143.223 202.35C143.349 203.319 143.267 204.303 142.983 205.237C142.699 206.171 142.22 207.033 141.577 207.767C140.934 208.501 140.141 209.088 139.253 209.491C138.365 209.894 137.402 210.102 136.427 210.102Z" fill="#8B9BDD"/>
<path opacity="0.8" d="M136.427 210.102H34.6266C32.9622 210.102 31.3546 209.495 30.104 208.395C28.8534 207.295 28.0452 205.776 27.8302 204.123L21.0964 152.326C20.9706 151.357 21.0524 150.373 21.3364 149.439C21.6204 148.505 22.1001 147.642 22.7435 146.909C23.3868 146.175 24.179 145.587 25.0672 145.185C25.9553 144.782 26.919 144.574 27.8938 144.574H129.693C131.358 144.574 132.965 145.181 134.216 146.281C135.467 147.381 136.275 148.899 136.49 150.552L143.223 202.35C143.349 203.319 143.267 204.303 142.983 205.237C142.699 206.171 142.22 207.033 141.577 207.767C140.934 208.501 140.141 209.088 139.253 209.491C138.365 209.894 137.402 210.102 136.427 210.102Z" fill="white"/>
<path d="M136.427 210.624H34.6263C32.8363 210.62 31.1086 209.966 29.7636 208.783C28.4187 207.599 27.5478 205.968 27.3127 204.19L20.5794 152.393C20.4438 151.351 20.5318 150.292 20.8373 149.287C21.1429 148.282 21.659 147.353 22.3513 146.564C23.0435 145.774 23.896 145.142 24.8517 144.708C25.8075 144.275 26.8445 144.051 27.8935 144.051H129.693C131.483 144.055 133.211 144.71 134.556 145.893C135.901 147.076 136.771 148.708 137.006 150.485L143.74 202.283C143.875 203.325 143.788 204.384 143.482 205.389C143.176 206.394 142.66 207.322 141.968 208.112C141.276 208.901 140.424 209.534 139.468 209.967C138.513 210.4 137.476 210.624 136.427 210.624ZM27.8935 145.096C26.9929 145.096 26.1027 145.288 25.2823 145.66C24.4618 146.032 23.73 146.575 23.1358 147.253C22.5415 147.931 22.0984 148.728 21.836 149.591C21.5737 150.454 21.4981 151.363 21.6144 152.258L28.3482 204.056C28.5499 205.582 29.2975 206.983 30.4523 207.999C31.607 209.014 33.0905 209.576 34.6273 209.58H136.427C137.327 209.579 138.217 209.387 139.038 209.015C139.858 208.643 140.59 208.099 141.184 207.422C141.778 206.744 142.221 205.947 142.483 205.084C142.745 204.221 142.821 203.312 142.705 202.418L135.972 150.62C135.77 149.094 135.023 147.693 133.868 146.678C132.713 145.662 131.23 145.1 129.693 145.096L27.8935 145.096Z" fill="#8B9BDD"/>
<path d="M142.185 210.102H40.384C38.7196 210.102 37.1122 209.495 35.8617 208.395C34.6111 207.295 33.803 205.776 33.5882 204.123L26.8523 152.326C26.7264 151.357 26.8082 150.373 27.0922 149.439C27.3762 148.505 27.8558 147.643 28.499 146.909C29.1422 146.175 29.9343 145.588 30.8223 145.185C31.7103 144.782 32.6739 144.574 33.6486 144.574H135.451C137.116 144.574 138.723 145.181 139.974 146.281C141.224 147.381 142.032 148.899 142.247 150.552L148.981 202.35C149.107 203.319 149.025 204.303 148.741 205.237C148.457 206.171 147.978 207.033 147.334 207.767C146.691 208.501 145.899 209.088 145.011 209.491C144.123 209.894 143.159 210.102 142.185 210.102Z" fill="white"/>
<path d="M142.185 210.624H40.384C38.594 210.62 36.8664 209.966 35.5215 208.783C34.1766 207.599 33.3059 205.968 33.0709 204.19L26.3371 152.393C26.2017 151.351 26.2897 150.292 26.5953 149.287C26.9009 148.282 27.417 147.354 28.1092 146.564C28.8013 145.775 29.6537 145.142 30.6093 144.709C31.5649 144.276 32.6017 144.051 33.6507 144.051H135.451C137.241 144.055 138.969 144.71 140.313 145.893C141.658 147.076 142.529 148.708 142.764 150.485L149.498 202.283C149.633 203.325 149.545 204.384 149.24 205.389C148.934 206.394 148.418 207.322 147.726 208.111C147.034 208.901 146.181 209.533 145.226 209.967C144.27 210.4 143.234 210.624 142.185 210.624ZM33.6507 145.096C32.7502 145.096 31.8602 145.289 31.04 145.661C30.2198 146.033 29.4883 146.577 28.8943 147.254C28.3002 147.932 27.8573 148.729 27.5951 149.592C27.3329 150.455 27.2574 151.364 27.3736 152.258L34.1048 204.056C34.3068 205.582 35.0544 206.983 36.2091 207.998C37.3638 209.014 38.8472 209.576 40.384 209.58H142.185C143.085 209.58 143.975 209.387 144.796 209.015C145.616 208.643 146.348 208.1 146.942 207.422C147.537 206.744 147.98 205.947 148.242 205.084C148.504 204.221 148.58 203.312 148.464 202.418L141.73 150.62C141.528 149.094 140.781 147.693 139.626 146.677C138.471 145.662 136.988 145.1 135.451 145.096L33.6507 145.096Z" fill="#8B9BDD"/>
<path d="M221.317 221.928L220.279 222.033L242.26 439.999L243.297 439.894L221.317 221.928Z" fill="#B0ACAC"/>
<path d="M131.214 65.0544C131.214 65.0544 137.978 59.9399 139.654 48.167C140.952 39.052 132.558 44.9572 132.558 44.9572C132.558 44.9572 133.429 38.3846 128.647 39.0369C123.866 39.6892 121.191 46.5935 121.191 46.5935" fill="#0C0C0C"/>
<path d="M103.939 39.8062C103.939 39.8062 80.2181 42.3553 88.7935 74.5496L90.8926 74.6906L95.1534 74.9768" fill="#0C0C0C"/>
<path d="M127.241 108.174C127.136 108.16 125.979 127.393 103.67 125.718C88.2267 124.559 82.7202 108.147 82.3662 108.147C84.0315 107.793 86.089 107.254 86.907 107.07C88.6893 106.655 90.3033 105.707 91.5344 104.352C92.7655 102.996 93.5553 101.297 93.7988 99.4803C94.2509 96.7541 93.486 82.8055 93.7201 80.0469L117.426 85.3468C117.095 91.1732 114.777 104.679 122.901 107.07C124.255 107.465 125.711 107.829 127.241 108.174Z" fill="#E98862"/>
<path opacity="0.52" d="M117.76 101.55C117.388 100.351 117.149 99.1154 117.046 97.8644C116.786 95.01 116.839 92.1356 117.203 89.2926C112.384 88.6413 107.845 86.6493 104.101 83.543C103.661 85.1714 101.24 92.2867 101.911 93.8341C103.175 96.7599 109.128 101.55 117.76 101.55Z" fill="#0C0C0C"/>
<path d="M112.866 97.7433C103.514 96.903 92.3198 90.9842 92.1587 78.2676L92.0127 66.7935C91.8516 54.0775 98.3883 43.684 110.342 43.5315C122.295 43.3795 131.36 53.574 131.521 66.2906L131.586 71.3701C131.578 73.1147 131.451 74.8566 131.206 76.5839C130.593 81.1537 129.642 88.1013 126.546 92.8011C123.622 97.2383 118.841 98.2797 112.866 97.7433Z" fill="#E98862"/>
<path d="M117.206 86.1209C119.136 86.2085 121.059 85.8405 122.821 85.0466C122.858 85.031 122.891 85.0084 122.918 84.9801C122.946 84.9517 122.968 84.9182 122.983 84.8814C122.997 84.8446 123.005 84.8052 123.004 84.7655C123.004 84.7259 122.996 84.6867 122.98 84.6502C122.965 84.6137 122.942 84.5806 122.914 84.5529C122.885 84.5251 122.852 84.5032 122.815 84.4885C122.778 84.4737 122.739 84.4663 122.7 84.4667C122.66 84.4671 122.621 84.4753 122.584 84.4909C118.789 86.1125 115.342 85.8749 112.617 83.8041C112.562 83.7604 112.505 83.7198 112.445 83.6824C112.377 83.6507 112.299 83.6457 112.227 83.6686C112.155 83.6915 112.094 83.7405 112.057 83.8061C112.019 83.8716 112.007 83.9489 112.024 84.0227C112.04 84.0965 112.084 84.1614 112.146 84.2047C112.168 84.2183 112.202 84.246 112.25 84.2841C113.683 85.3768 115.408 86.0163 117.206 86.1209Z" fill="#0C0C0C"/>
<path d="M117.115 88.9844C117.464 89.0059 117.814 88.9976 118.161 88.9594C118.241 88.9509 118.314 88.9112 118.364 88.8489C118.414 88.7866 118.438 88.7068 118.429 88.6272C118.421 88.5476 118.381 88.4745 118.319 88.4242C118.257 88.3738 118.177 88.3503 118.098 88.3588C116.008 88.5812 115.011 87.6224 114.969 87.5811C114.913 87.5244 114.836 87.4925 114.756 87.4924C114.676 87.4923 114.599 87.524 114.543 87.5806C114.486 87.6372 114.454 87.714 114.454 87.7941C114.454 87.8742 114.486 87.9511 114.542 88.0078C115.261 88.6213 116.171 88.9664 117.115 88.9844Z" fill="#0C0C0C"/>
<path d="M127.574 73.8153C128.387 73.8153 129.046 73.155 129.046 72.3405C129.046 71.5259 128.387 70.8656 127.574 70.8656C126.761 70.8656 126.102 71.5259 126.102 72.3405C126.102 73.155 126.761 73.8153 127.574 73.8153Z" fill="#0C0C0C"/>
<path d="M113.19 72.9113C114.003 72.9113 114.663 72.251 114.663 71.4364C114.663 70.6219 114.003 69.9615 113.19 69.9615C112.377 69.9615 111.718 70.6219 111.718 71.4364C111.718 72.251 112.377 72.9113 113.19 72.9113Z" fill="#0C0C0C"/>
<path d="M92.9508 82.1323C89.3182 82.1788 86.3244 78.3235 86.2769 74.6849C86.2295 71.0463 89.1498 69.0021 92.7824 68.9562L94.6849 71.3701L96.0729 82.0926L92.9508 82.1323Z" fill="#E98862"/>
<path d="M96.5628 76.2856C96.5628 76.2856 97.7897 58.2921 103.237 57.1807C106.865 56.4407 115.662 61.5954 123.81 60.0386C127.376 59.3596 130.76 60.2412 131.104 61.9281C131.24 62.5961 133.461 52.9974 127.879 45.715C123.434 39.9153 108.888 38.278 102.271 40.179C83.9472 45.4445 92.033 69.7479 92.033 69.7479L92.85 75.9514L96.5628 76.2856Z" fill="#0C0C0C"/>
<path d="M119.4 81.8733H119.424C120.594 81.8613 122.556 81.7109 122.548 80.8335C122.54 80.1065 120.476 72.2814 120.24 71.3915C120.217 71.3176 120.167 71.2554 120.099 71.2178C120.032 71.1803 119.953 71.1703 119.878 71.1902C119.803 71.21 119.739 71.2579 119.699 71.324C119.659 71.3901 119.646 71.4691 119.663 71.5445C120.581 75.0103 121.947 80.3457 121.952 80.8408C121.839 81.0497 120.63 81.2649 119.418 81.2774C119.341 81.279 119.269 81.31 119.214 81.3639C119.16 81.4179 119.128 81.4906 119.126 81.5672C119.124 81.6437 119.151 81.7182 119.202 81.7753C119.253 81.8324 119.324 81.8676 119.4 81.8738V81.8733Z" fill="#0C0C0C"/>
<path d="M123.396 64.3425C124.626 64.0033 125.925 64.0033 127.155 64.3425C127.76 64.5052 128.336 64.758 128.865 65.0925C129.389 65.4199 129.869 65.8123 130.294 66.2603C130.375 66.3393 130.422 66.4471 130.425 66.5607C130.428 66.6742 130.387 66.7845 130.31 66.8678C130.233 66.9511 130.126 67.0008 130.013 67.0064C129.9 67.0119 129.789 66.9728 129.704 66.8974L129.677 66.8745C129.284 66.5095 128.846 66.1956 128.374 65.9401C127.911 65.6861 127.412 65.5037 126.895 65.3991C125.876 65.1851 124.819 65.2444 123.83 65.5709L123.789 65.5855C123.626 65.6433 123.446 65.6338 123.29 65.5591C123.134 65.4844 123.014 65.3507 122.956 65.1873C122.899 65.0239 122.908 64.8443 122.983 64.6879C123.057 64.5315 123.191 64.4113 123.354 64.3535L123.396 64.3425Z" fill="#0C0C0C"/>
<path d="M114.684 65.0836C113.748 64.6279 112.708 64.4281 111.67 64.5044C111.144 64.5387 110.625 64.6528 110.132 64.8428C109.632 65.0333 109.156 65.286 108.718 65.5949L108.69 65.6137C108.596 65.6741 108.482 65.6958 108.373 65.6745C108.263 65.6531 108.166 65.5902 108.101 65.4989C108.037 65.4076 108.01 65.2949 108.026 65.1842C108.042 65.0735 108.101 64.9733 108.189 64.9044C108.67 64.5171 109.197 64.1921 109.76 63.9372C110.329 63.6768 110.934 63.5033 111.554 63.4223C112.819 63.2495 114.106 63.4224 115.281 63.9226C115.44 63.9919 115.565 64.1215 115.628 64.2832C115.692 64.4448 115.689 64.625 115.62 64.7843C115.55 64.9436 115.421 65.0689 115.26 65.1325C115.098 65.1962 114.918 65.1931 114.759 65.1238L114.723 65.1066L114.684 65.0836Z" fill="#0C0C0C"/>
<path d="M121.644 51.9566C124.333 51.3939 125.842 47.7242 125.015 43.7602C124.188 39.7961 121.338 37.0387 118.65 37.6014C115.961 38.1641 114.452 41.8338 115.278 45.7979C116.105 49.7619 118.955 52.5193 121.644 51.9566Z" fill="#0C0C0C"/>
<path d="M271.605 412.451C271.605 412.451 274.401 426.966 287.969 427.775C301.536 428.584 298.595 439.411 298.595 439.411H246.745V413.463L271.605 412.451Z" fill="#11CCF5"/>
<path d="M172.963 403.286C172.963 403.286 169.075 417.547 180.894 424.271C192.712 430.996 185.3 439.411 185.3 439.411L138.775 416.483L150.21 393.2L172.963 403.286Z" fill="#11CCF5"/>
<path d="M144.147 399.258L183.381 275.278H112.263C97.9769 275.278 92.0215 263.143 92.0215 248.834C92.0215 234.525 106.066 221.982 120.351 221.982H216.334C225.047 221.982 234.817 227.319 239.599 234.615C244.382 241.911 243.089 253.217 239.624 261.225L176.796 414.073" fill="#262626"/>
<path opacity="0.8" d="M144.147 399.258L183.381 275.278H112.263C97.9769 275.278 92.0215 263.143 92.0215 248.834C92.0215 234.525 106.066 221.982 120.351 221.982H216.334C225.047 221.982 234.817 227.319 239.599 234.615C244.382 241.911 243.089 253.217 239.624 261.225L176.796 414.073" fill="#367D70"/>
<path d="M243.762 425.931L178.159 275.278L92.0201 275.272C71.8364 273.687 62.5926 262.607 62.8867 248.302C63.1766 234.177 70.3165 220.226 84.354 220.226H200.454C210.84 220.439 219.011 231.936 222.864 241.599L277.402 416.708" fill="#374744"/>
<path d="M57.0118 220.399C57.0118 220.399 53.1863 245.387 59.2502 259.279C66.8203 276.624 95.1987 275.272 95.1987 275.272L93.5996 220.226L57.0118 220.399Z" fill="#262626"/>
<path d="M225.334 219.907L164.487 207.278C161.952 206.752 159.59 205.593 157.62 203.91C155.65 202.227 154.136 200.073 153.217 197.648L129.285 134.479C128.556 132.583 128.209 130.562 128.262 128.531C128.316 126.5 128.769 124.5 129.597 122.646C130.424 120.791 131.609 119.118 133.084 117.724C134.559 116.329 136.294 115.24 138.19 114.519C140.087 113.799 142.106 113.46 144.133 113.524C146.16 113.587 148.155 114.051 150.003 114.889C151.85 115.727 153.514 116.922 154.9 118.406C156.285 119.89 157.363 121.633 158.074 123.536L179.009 178.791L231.584 189.703C231.584 189.703 226.389 220.126 225.334 219.907Z" fill="#11CCF5"/>
<path d="M154.958 150.521C154.256 158.79 149.275 210.377 148.597 220.562H57.0528C56.5268 211.376 54.8192 172.375 52.8243 154.412C50.9207 137.27 50.2299 127.488 52.4229 122.162C56.2906 112.766 65.9692 109.386 74.3063 108.255C79.3967 107.565 87.0533 107.07 87.0533 107.07C87.0533 107.07 87.7019 120.206 103.16 120.938C124.203 121.93 122.798 107.07 122.902 107.07C126.311 107.07 144.868 109.553 149.507 112.582C156.061 116.861 157.998 122.692 158.075 128.049C158.163 134.217 155.755 141.143 154.958 150.521Z" fill="#11CCF5"/>
<path d="M151.361 192.673H151.339C151.305 192.671 151.271 192.661 151.241 192.645C151.21 192.63 151.183 192.608 151.161 192.582C151.139 192.556 151.122 192.525 151.112 192.493C151.102 192.46 151.098 192.426 151.101 192.391L153.477 163.795C153.479 163.761 153.488 163.727 153.503 163.696C153.519 163.665 153.54 163.638 153.566 163.616C153.593 163.593 153.623 163.577 153.656 163.566C153.689 163.556 153.724 163.553 153.758 163.557C153.792 163.56 153.825 163.569 153.856 163.585C153.886 163.601 153.913 163.622 153.936 163.648C153.958 163.674 153.974 163.705 153.985 163.737C153.995 163.77 153.999 163.805 153.996 163.839L151.62 192.435C151.614 192.5 151.585 192.56 151.537 192.604C151.489 192.649 151.426 192.673 151.361 192.673Z" fill="#0C0C0C"/>
<path d="M194.958 209.836L215.044 147.988C215.397 146.901 216.085 145.954 217.008 145.282C217.931 144.61 219.043 144.249 220.184 144.249H307.232C308.085 144.249 308.926 144.451 309.686 144.839C310.446 145.227 311.103 145.79 311.605 146.481C312.106 147.172 312.437 147.973 312.57 148.817C312.703 149.661 312.635 150.524 312.371 151.337L287.071 213.187C286.718 214.274 286.031 215.221 285.107 215.893C284.184 216.564 283.072 216.926 281.931 216.926H200.098C199.244 216.926 198.403 216.724 197.643 216.336C196.883 215.948 196.225 215.385 195.723 214.693C195.222 214.002 194.891 213.201 194.758 212.357C194.625 211.512 194.694 210.649 194.958 209.836Z" fill="#8B9BDD"/>
<path d="M194.958 209.836L215.044 147.988C215.397 146.901 216.085 145.954 217.008 145.282C217.931 144.61 219.043 144.249 220.184 144.249H307.232C308.085 144.249 308.926 144.451 309.686 144.839C310.446 145.227 311.103 145.79 311.605 146.481C312.106 147.172 312.437 147.973 312.57 148.817C312.703 149.661 312.635 150.524 312.371 151.337L287.071 213.187C286.718 214.274 286.031 215.221 285.107 215.893C284.184 216.564 283.072 216.926 281.931 216.926H200.098C199.244 216.926 198.403 216.724 197.643 216.336C196.883 215.948 196.225 215.385 195.723 214.693C195.222 214.002 194.891 213.201 194.758 212.357C194.625 211.512 194.694 210.649 194.958 209.836Z" fill="#8B9BDD"/>
<path d="M211.344 211.909H156.564C155.199 211.909 154.093 213.017 154.093 214.384V214.448C154.093 215.815 155.199 216.924 156.564 216.924H211.344C212.709 216.924 213.815 215.815 213.815 214.448V214.384C213.815 213.017 212.709 211.909 211.344 211.909Z" fill="#8B9BDD"/>
<path d="M211.344 211.909H156.564C155.199 211.909 154.093 213.017 154.093 214.384V214.448C154.093 215.815 155.199 216.924 156.564 216.924H211.344C212.709 216.924 213.815 215.815 213.815 214.448V214.384C213.815 213.017 212.709 211.909 211.344 211.909Z" fill="#8B9BDD"/>
<path d="M251.058 192.201C255.798 192.201 259.641 188.352 259.641 183.604C259.641 178.856 255.798 175.007 251.058 175.007C246.318 175.007 242.476 178.856 242.476 183.604C242.476 188.352 246.318 192.201 251.058 192.201Z" fill="white"/>
<path d="M190.38 195.348L176.708 190.548L178.671 190.412C179.304 190.356 179.891 190.061 180.315 189.587C180.739 189.113 180.968 188.495 180.954 187.859C180.936 187.531 180.852 187.21 180.706 186.916C180.559 186.622 180.355 186.361 180.105 186.148C179.855 185.936 179.564 185.777 179.25 185.68C178.937 185.584 178.607 185.553 178.281 185.589L154.093 188.164L154.718 195.949C154.914 198.368 155.825 200.672 157.337 202.568C158.848 204.464 160.89 205.864 163.202 206.59L173.676 209.858C174.217 210.039 174.804 210.027 175.337 209.824C175.87 209.621 176.316 209.239 176.601 208.744C176.848 208.292 176.945 207.772 176.876 207.261C176.808 206.75 176.579 206.274 176.221 205.903C176.244 205.886 176.264 205.865 176.279 205.841C176.294 205.817 176.303 205.79 176.307 205.761C176.311 205.733 176.309 205.705 176.302 205.677C176.294 205.65 176.281 205.624 176.263 205.602L178.193 206.208C178.795 206.411 179.451 206.377 180.029 206.113C180.607 205.849 181.064 205.376 181.306 204.788C181.505 204.254 181.509 203.668 181.318 203.132C181.128 202.596 180.754 202.145 180.264 201.857C180.286 201.845 180.306 201.829 180.323 201.809L181.117 202.058C181.658 202.239 182.244 202.227 182.777 202.023C183.31 201.82 183.757 201.439 184.041 200.944C184.341 200.395 184.417 199.752 184.254 199.148C184.091 198.545 183.7 198.028 183.165 197.706C183.17 197.69 183.172 197.673 183.172 197.657L188.866 199.655C189.149 199.758 189.45 199.803 189.75 199.789C190.051 199.774 190.346 199.7 190.618 199.571C190.89 199.442 191.133 199.26 191.335 199.036C191.536 198.811 191.691 198.549 191.79 198.265C191.89 197.98 191.932 197.679 191.915 197.378C191.897 197.077 191.82 196.782 191.688 196.511C191.557 196.24 191.372 195.998 191.146 195.799C190.921 195.599 190.657 195.447 190.372 195.35L190.38 195.348Z" fill="#E98862"/>
<path opacity="0.2" d="M182.957 197.878C182.931 197.877 182.905 197.873 182.88 197.864L177.373 195.858C177.316 195.837 177.27 195.795 177.245 195.74C177.219 195.685 177.217 195.623 177.238 195.566C177.258 195.509 177.301 195.463 177.355 195.438C177.41 195.413 177.472 195.41 177.529 195.431L183.036 197.437C183.087 197.455 183.129 197.49 183.156 197.537C183.182 197.583 183.192 197.637 183.183 197.69C183.173 197.743 183.146 197.79 183.105 197.825C183.064 197.859 183.012 197.878 182.959 197.878H182.957Z" fill="#0A0A0A"/>
<path opacity="0.2" d="M180.172 201.888C180.147 201.888 180.121 201.884 180.096 201.875L175.756 200.332C175.727 200.323 175.7 200.308 175.678 200.288C175.655 200.268 175.636 200.244 175.623 200.217C175.61 200.189 175.602 200.16 175.6 200.13C175.598 200.099 175.603 200.069 175.613 200.041C175.623 200.012 175.638 199.986 175.659 199.963C175.679 199.941 175.704 199.923 175.731 199.91C175.758 199.898 175.788 199.89 175.818 199.889C175.849 199.888 175.879 199.893 175.907 199.904L180.248 201.447C180.298 201.465 180.341 201.5 180.368 201.546C180.395 201.592 180.405 201.647 180.396 201.699C180.387 201.752 180.359 201.8 180.319 201.835C180.278 201.869 180.226 201.888 180.172 201.888Z" fill="#0A0A0A"/>
<path opacity="0.2" d="M176.084 205.958C176.057 205.958 176.029 205.953 176.003 205.943L173.97 205.166C173.914 205.145 173.868 205.102 173.844 205.047C173.819 204.992 173.818 204.929 173.839 204.873C173.861 204.817 173.904 204.771 173.959 204.747C174.014 204.722 174.076 204.72 174.132 204.742L176.166 205.518C176.215 205.537 176.257 205.573 176.283 205.619C176.309 205.666 176.318 205.72 176.309 205.772C176.299 205.824 176.271 205.872 176.23 205.906C176.19 205.94 176.138 205.958 176.085 205.958H176.084Z" fill="#0A0A0A"/>
<path d="M164.8 183.556L107.446 183.517L85.7489 130.501L53.3818 144.132L80.4516 207.054L80.7159 207.681C82.0403 210.739 84.2712 213.316 87.1063 215.062C89.9415 216.808 93.2439 217.639 96.5663 217.442L165.666 213.353L164.8 183.556Z" fill="#11CCF5"/>
<path d="M95.6161 217.731C92.4008 217.725 89.2568 216.782 86.5683 215.015C83.8798 213.249 81.7633 210.736 80.4774 207.784L80.2126 207.157L57.1445 153.545L57.6232 153.336L80.9556 207.579C82.2648 210.583 84.4611 213.114 87.2491 214.831C90.0371 216.547 93.2831 217.368 96.5504 217.182L165.397 213.108L164.544 183.818L107.27 183.779L90.5852 143.015L91.068 142.818L107.619 183.257L165.05 183.296L165.933 213.599L165.68 213.614L96.5828 217.702C96.26 217.722 95.9362 217.731 95.6161 217.731Z" fill="#0C0C0C"/>
<path d="M31.8229 221.932L9.82715 439.896L10.8646 440.001L32.8604 222.037L31.8229 221.932Z" fill="#B0ACAC"/>
<path d="M122.701 221.931L100.705 439.895L101.743 440L123.738 222.036L122.701 221.931Z" fill="#B0ACAC"/>
<path d="M312.194 221.928L311.156 222.033L333.137 439.999L334.174 439.894L312.194 221.928Z" fill="#B0ACAC"/>
<path d="M332.016 217.702H13.4422C11.0827 217.702 9.16992 219.618 9.16992 221.981C9.16992 224.345 11.0827 226.26 13.4422 226.26H332.016C334.375 226.26 336.288 224.345 336.288 221.981C336.288 219.618 334.375 217.702 332.016 217.702Z" fill="#8B9BDD"/>
<path opacity="0.8" d="M332.016 217.702H13.4422C11.0827 217.702 9.16992 219.618 9.16992 221.981C9.16992 224.345 11.0827 226.26 13.4422 226.26H332.016C334.375 226.26 336.288 224.345 336.288 221.981C336.288 219.618 334.375 217.702 332.016 217.702Z" fill="white"/>
<path d="M332.016 226.783H13.4443C12.8106 226.789 12.1819 226.67 11.5945 226.432C11.0071 226.193 10.4728 225.841 10.0223 225.394C9.57191 224.948 9.21432 224.416 8.97028 223.83C8.72624 223.245 8.60059 222.616 8.60059 221.981C8.60059 221.347 8.72624 220.718 8.97028 220.132C9.21432 219.546 9.57191 219.015 10.0223 218.568C10.4728 218.122 11.0071 217.769 11.5945 217.531C12.1819 217.293 12.8106 217.173 13.4443 217.18H332.016C332.65 217.173 333.278 217.293 333.866 217.531C334.453 217.769 334.987 218.122 335.438 218.568C335.888 219.015 336.246 219.546 336.49 220.132C336.734 220.718 336.86 221.347 336.86 221.981C336.86 222.616 336.734 223.245 336.49 223.83C336.246 224.416 335.888 224.948 335.438 225.394C334.987 225.841 334.453 226.193 333.866 226.432C333.278 226.67 332.65 226.789 332.016 226.783ZM13.4443 218.224C12.948 218.219 12.4555 218.311 11.9953 218.498C11.5352 218.684 11.1164 218.96 10.7634 219.309C10.4104 219.658 10.1302 220.075 9.93891 220.533C9.74764 220.992 9.64914 221.484 9.64914 221.981C9.64914 222.478 9.74764 222.971 9.93891 223.429C10.1302 223.888 10.4104 224.304 10.7634 224.654C11.1164 225.003 11.5352 225.279 11.9953 225.465C12.4555 225.651 12.948 225.744 13.4443 225.738H332.016C332.512 225.744 333.005 225.651 333.465 225.465C333.925 225.279 334.344 225.003 334.697 224.654C335.05 224.304 335.33 223.888 335.521 223.429C335.713 222.971 335.811 222.478 335.811 221.981C335.811 221.484 335.713 220.992 335.521 220.533C335.33 220.075 335.05 219.658 334.697 219.309C334.344 218.96 333.925 218.684 333.465 218.498C333.005 218.311 332.512 218.219 332.016 218.224H13.4443Z" fill="#8B9BDD"/>
<path d="M332.014 217.702H107.793C105.433 217.702 103.521 219.618 103.521 221.981C103.521 224.345 105.433 226.26 107.793 226.26H332.014C334.374 226.26 336.286 224.345 336.286 221.981C336.286 219.618 334.374 217.702 332.014 217.702Z" fill="white"/>
<path d="M332.015 226.783H107.794C106.531 226.77 105.324 226.258 104.436 225.359C103.548 224.46 103.05 223.246 103.05 221.981C103.05 220.717 103.548 219.503 104.436 218.604C105.324 217.705 106.531 217.193 107.794 217.18H332.015C332.649 217.173 333.278 217.293 333.865 217.531C334.452 217.769 334.987 218.122 335.437 218.568C335.888 219.015 336.245 219.546 336.489 220.132C336.733 220.718 336.859 221.347 336.859 221.981C336.859 222.616 336.733 223.245 336.489 223.83C336.245 224.416 335.888 224.948 335.437 225.394C334.987 225.841 334.452 226.193 333.865 226.432C333.278 226.67 332.649 226.789 332.015 226.783ZM107.794 218.224C106.806 218.236 105.864 218.637 105.17 219.34C104.476 220.044 104.087 220.993 104.087 221.981C104.087 222.97 104.476 223.919 105.17 224.622C105.864 225.326 106.806 225.727 107.794 225.738H332.015C332.512 225.744 333.004 225.651 333.464 225.465C333.924 225.279 334.343 225.003 334.696 224.654C335.049 224.304 335.329 223.888 335.521 223.429C335.712 222.971 335.811 222.478 335.811 221.981C335.811 221.484 335.712 220.992 335.521 220.533C335.329 220.075 335.049 219.658 334.696 219.309C334.343 218.96 333.924 218.684 333.464 218.498C333.004 218.311 332.512 218.219 332.015 218.224H107.794Z" fill="#8B9BDD"/>
<path d="M340.608 370.514C340.539 370.514 340.472 370.5 340.408 370.474C340.345 370.448 340.288 370.409 340.239 370.361C339.505 369.625 338.307 356.125 335.082 315.929C333.762 299.482 332.515 283.947 331.606 274.506C331.541 273.831 331.28 273.753 331.194 273.728C329.949 273.351 326.162 276.342 324.047 278.962C323.96 279.069 323.834 279.138 323.697 279.153C323.559 279.167 323.421 279.127 323.314 279.039C323.206 278.952 323.138 278.826 323.123 278.688C323.108 278.55 323.149 278.412 323.236 278.305C324.634 276.573 329.191 272.033 331.494 272.727C331.958 272.867 332.537 273.271 332.644 274.405C333.554 283.855 334.801 299.394 336.121 315.845C338.081 340.272 340.301 367.944 341.031 369.687C341.087 369.765 341.121 369.857 341.128 369.953C341.135 370.048 341.115 370.144 341.072 370.23C341.028 370.315 340.961 370.387 340.88 370.437C340.798 370.487 340.704 370.514 340.608 370.514Z" fill="#494949"/>
<path d="M330.266 291.83C338.918 284.883 341.786 274.071 336.671 267.679C331.557 261.288 320.397 261.739 311.745 268.685C303.093 275.632 300.225 286.445 305.34 292.836C310.454 299.227 321.614 298.777 330.266 291.83Z" fill="#0CBC8B"/>
<path opacity="0.2" d="M330.266 291.83C338.918 284.883 341.786 274.071 336.671 267.679C331.557 261.288 320.397 261.739 311.745 268.685C303.093 275.632 300.225 286.445 305.34 292.836C310.454 299.227 321.614 298.777 330.266 291.83Z" fill="white"/>
<path d="M307.766 294.461C307.716 294.461 307.668 294.447 307.626 294.421C307.584 294.394 307.551 294.356 307.53 294.311C307.509 294.266 307.501 294.216 307.507 294.167C307.513 294.118 307.533 294.072 307.565 294.034L332.222 264.25C332.266 264.196 332.33 264.163 332.399 264.156C332.468 264.15 332.536 264.171 332.589 264.215C332.643 264.26 332.676 264.323 332.683 264.392C332.689 264.461 332.668 264.53 332.624 264.583L307.966 294.367C307.942 294.397 307.911 294.42 307.876 294.437C307.842 294.453 307.804 294.461 307.766 294.461Z" fill="white"/>
<path d="M345.986 364.129C345.903 364.129 345.821 364.109 345.747 364.071C345.673 364.033 345.609 363.977 345.561 363.909C345.513 363.841 345.482 363.763 345.47 363.68C345.458 363.598 345.466 363.514 345.494 363.435L354.756 336.755C355.029 335.971 355.494 335.268 356.108 334.711C356.722 334.153 357.466 333.759 358.272 333.564C359.077 333.37 359.919 333.38 360.719 333.596C361.519 333.811 362.253 334.224 362.853 334.797L367.75 339.482C367.85 339.578 367.908 339.71 367.911 339.848C367.914 339.987 367.862 340.121 367.767 340.221C367.671 340.321 367.54 340.379 367.401 340.383C367.263 340.386 367.129 340.334 367.029 340.238L362.133 335.552C361.659 335.1 361.08 334.774 360.448 334.604C359.816 334.434 359.152 334.425 358.516 334.579C357.88 334.733 357.293 335.044 356.808 335.484C356.323 335.924 355.956 336.479 355.741 337.098L346.479 363.779C346.444 363.881 346.377 363.97 346.289 364.033C346.2 364.096 346.094 364.129 345.986 364.129Z" fill="#494949"/>
<path d="M381.429 354.254C387.841 349.17 387.46 337.989 380.578 329.28C373.696 320.572 362.919 317.633 356.507 322.717C350.095 327.8 350.476 338.981 357.358 347.69C364.24 356.399 375.017 359.338 381.429 354.254Z" fill="#0CBC8B"/>
<path d="M336.403 368.812C336.286 368.812 336.172 368.773 336.081 368.7C335.989 368.627 335.924 368.526 335.896 368.412L320.351 303.314C320.244 302.871 320.018 302.465 319.696 302.142C319.375 301.819 318.971 301.591 318.528 301.483C318.086 301.375 317.622 301.391 317.188 301.53C316.754 301.669 316.367 301.925 316.069 302.27L311.277 307.816C311.233 307.869 311.178 307.912 311.117 307.943C311.055 307.975 310.988 307.994 310.92 307.999C310.851 308.004 310.782 307.996 310.717 307.974C310.651 307.953 310.591 307.918 310.539 307.873C310.486 307.828 310.444 307.773 310.413 307.711C310.382 307.649 310.364 307.582 310.36 307.513C310.355 307.444 310.364 307.375 310.386 307.31C310.408 307.244 310.443 307.184 310.489 307.132L315.28 301.587C315.704 301.096 316.254 300.732 316.871 300.535C317.488 300.338 318.147 300.315 318.776 300.468C319.405 300.622 319.98 300.947 320.437 301.406C320.893 301.866 321.215 302.443 321.365 303.074L336.908 368.171C336.939 368.305 336.916 368.446 336.844 368.564C336.772 368.681 336.656 368.765 336.522 368.798C336.483 368.807 336.443 368.812 336.403 368.812Z" fill="#494949"/>
<path d="M330.668 322.277C332.557 311.333 327.557 301.329 319.499 299.934C311.441 298.538 303.377 306.279 301.488 317.223C299.598 328.167 304.599 338.171 312.656 339.567C320.714 340.963 328.778 333.222 330.668 322.277Z" fill="#0CBC8B"/>
<path d="M340.609 370.514C340.588 370.514 340.566 370.513 340.545 370.51C340.477 370.502 340.411 370.48 340.352 370.446C340.292 370.412 340.24 370.367 340.197 370.313C340.155 370.259 340.124 370.197 340.106 370.131C340.088 370.065 340.082 369.996 340.091 369.928L350.016 289.208C350.124 288.329 350.484 287.5 351.051 286.82C351.619 286.141 352.37 285.64 353.215 285.377C354.06 285.115 354.962 285.103 355.814 285.342C356.665 285.581 357.43 286.062 358.015 286.726L369.36 299.596C369.451 299.7 369.498 299.836 369.489 299.974C369.481 300.113 369.418 300.242 369.314 300.334C369.21 300.425 369.074 300.472 368.936 300.463C368.798 300.455 368.669 300.392 368.578 300.288L357.233 287.418C356.781 286.904 356.19 286.533 355.532 286.348C354.874 286.163 354.176 286.172 353.523 286.375C352.87 286.577 352.289 286.965 351.851 287.49C351.412 288.015 351.135 288.656 351.051 289.336L341.126 370.055C341.111 370.182 341.05 370.298 340.954 370.382C340.859 370.467 340.736 370.514 340.609 370.514Z" fill="#494949"/>
<path d="M380.995 306.749C384.953 299.581 380.296 289.412 370.593 284.036C360.89 278.66 349.815 280.112 345.857 287.28C341.899 294.448 346.556 304.616 356.259 309.992C365.962 315.368 377.037 313.916 380.995 306.749Z" fill="#0CBC8B"/>
<path opacity="0.2" d="M381.429 354.254C387.841 349.17 387.46 337.989 380.578 329.28C373.696 320.572 362.919 317.633 356.507 322.717C350.095 327.8 350.476 338.981 357.358 347.69C364.24 356.399 375.017 359.338 381.429 354.254Z" fill="white"/>
<path opacity="0.5" d="M330.668 322.277C332.557 311.333 327.557 301.329 319.499 299.934C311.441 298.538 303.377 306.279 301.488 317.223C299.598 328.167 304.599 338.171 312.656 339.567C320.714 340.963 328.778 333.222 330.668 322.277Z" fill="white"/>
<path opacity="0.5" d="M380.995 306.749C384.953 299.581 380.296 289.412 370.593 284.036C360.89 278.66 349.815 280.112 345.857 287.28C341.899 294.448 346.556 304.616 356.259 309.992C365.962 315.368 377.037 313.916 380.995 306.749Z" fill="white"/>
<path d="M353.304 439.004H327.914L323.706 357.634H357.511L353.304 439.004Z" fill="#8B9BDD"/>
<path opacity="0.3" d="M353.304 439.004H327.914L323.706 357.634H357.511L353.304 439.004Z" fill="white"/>
<path d="M381.429 354.512C381.39 354.512 381.351 354.503 381.316 354.485C381.281 354.468 381.249 354.443 381.225 354.412L356.302 322.875C356.26 322.821 356.24 322.752 356.248 322.683C356.256 322.614 356.291 322.551 356.345 322.508C356.399 322.465 356.468 322.445 356.537 322.453C356.606 322.461 356.668 322.496 356.711 322.551L381.634 354.088C381.664 354.126 381.683 354.173 381.689 354.222C381.694 354.27 381.686 354.32 381.664 354.364C381.643 354.408 381.61 354.446 381.568 354.472C381.527 354.498 381.479 354.512 381.429 354.512Z" fill="white"/>
<path d="M379.337 309.275C379.281 309.275 379.228 309.256 379.183 309.223L347.292 285.898C347.236 285.857 347.198 285.796 347.188 285.727C347.177 285.659 347.194 285.589 347.235 285.533C347.276 285.477 347.337 285.439 347.405 285.429C347.474 285.418 347.543 285.435 347.599 285.476L379.491 308.802C379.535 308.834 379.567 308.88 379.583 308.933C379.6 308.985 379.599 309.041 379.582 309.093C379.564 309.145 379.531 309.19 379.487 309.222C379.442 309.254 379.389 309.272 379.334 309.272L379.337 309.275Z" fill="white"/>
<path d="M311.361 339.227C311.338 339.226 311.316 339.223 311.294 339.217C311.227 339.199 311.17 339.156 311.136 339.096C311.101 339.036 311.092 338.965 311.109 338.898L321.261 300.797C321.281 300.732 321.325 300.677 321.384 300.644C321.443 300.611 321.513 300.602 321.578 300.619C321.644 300.637 321.7 300.679 321.735 300.738C321.77 300.796 321.781 300.866 321.765 300.932L311.613 339.032C311.598 339.088 311.566 339.137 311.52 339.172C311.474 339.207 311.419 339.227 311.361 339.227Z" fill="white"/>
<path d="M365.561 439.737H0.364976C0.268178 439.737 0.175345 439.699 0.106899 439.63C0.0384527 439.562 0 439.469 0 439.372C0 439.275 0.0384527 439.182 0.106899 439.113C0.175345 439.045 0.268178 439.006 0.364976 439.006H365.56C365.657 439.006 365.749 439.045 365.818 439.113C365.886 439.182 365.925 439.275 365.925 439.372C365.925 439.469 365.886 439.562 365.818 439.63C365.749 439.699 365.657 439.737 365.56 439.737H365.561Z" fill="#8B9BDD"/>
<g opacity="0.65">
<path d="M365.561 439.737H0.364976C0.268178 439.737 0.175345 439.699 0.106899 439.63C0.0384527 439.562 0 439.469 0 439.372C0 439.275 0.0384527 439.182 0.106899 439.113C0.175345 439.045 0.268178 439.006 0.364976 439.006H365.56C365.657 439.006 365.749 439.045 365.818 439.113C365.886 439.182 365.925 439.275 365.925 439.372C365.925 439.469 365.886 439.562 365.818 439.63C365.749 439.699 365.657 439.737 365.56 439.737H365.561Z" fill="#8B9BDD"/>
</g>
</svg>
