<svg width="41" height="40" viewBox="0 0 41 40" fill="none" xmlns="http://www.w3.org/2000/svg">
<path fill-rule="evenodd" clip-rule="evenodd" d="M3.50891 0.259438C1.71399 0.259438 0.258911 1.71451 0.258911 3.50944V29.6981C0.258911 31.493 1.71399 32.9481 3.50891 32.9481H9.05349V38C9.05349 39.1046 9.94892 40 11.0535 40H38.7407C39.8453 40 40.7407 39.1046 40.7407 38V11.8113C40.7407 10.7068 39.8453 9.81133 38.7407 9.81133H34.4462V3.50944C34.4462 1.71451 32.9911 0.259438 31.1962 0.259438H3.50891ZM31.9462 9.81133V3.50944C31.9462 3.09522 31.6104 2.75944 31.1962 2.75944H3.50891C3.0947 2.75944 2.75891 3.09522 2.75891 3.50944V29.6981C2.75891 30.1123 3.0947 30.4481 3.50891 30.4481H9.05349V11.8113C9.05349 10.7068 9.94892 9.81133 11.0535 9.81133H31.9462ZM11.5535 37.5V12.3113H38.2407V37.5H11.5535Z" fill="white"/>
</svg>
