<svg width="31" height="30" viewBox="0 0 31 30" fill="none" xmlns="http://www.w3.org/2000/svg">
<path fill-rule="evenodd" clip-rule="evenodd" d="M3.13171 0.132076C1.47486 0.132076 0.131714 1.47522 0.131714 3.13207V21.7736C0.131714 23.4304 1.47486 24.7736 3.13171 24.7736H6.79015V28C6.79015 29.1046 7.68558 30 8.79015 30H28.5556C29.6602 30 30.5556 29.1046 30.5556 28V9.35849C30.5556 8.25392 29.6602 7.35849 28.5556 7.35849H25.8972V3.13208C25.8972 1.47522 24.554 0.132076 22.8972 0.132076H3.13171ZM23.8972 7.35849V3.13208C23.8972 2.57979 23.4494 2.13208 22.8972 2.13208H3.13171C2.57943 2.13208 2.13171 2.57979 2.13171 3.13207V21.7736C2.13171 22.3259 2.57943 22.7736 3.13171 22.7736H6.79015V9.35849C6.79015 8.25392 7.68558 7.35849 8.79015 7.35849H23.8972ZM8.79015 9.35849L28.5556 9.35849V28L8.79015 28L8.79015 9.35849Z" fill="white"/>
</svg>
