<?xml version="1.0" encoding="UTF-8"?>
<svg id="Layer_1" data-name="Layer 1" xmlns="http://www.w3.org/2000/svg" width="24" height="24" xmlns:xlink="http://www.w3.org/1999/xlink" viewBox="0 0 24 24">
  <defs>
    <style>
      .cls-1, .cls-2 {
        fill: #fff;
      }

      .cls-2 {
        stroke-width: 0px;
      }

      .cls-3 {
        clip-path: url(#clippath);
      }
    </style>
    <clipPath id="clippath">
      <path class="cls-2" d="m12,16.97c-1.91,0-3.78-.48-5.35-1.39-1.53-.89-2.72-2.13-3.4-3.58,1.9-4.02,7.35-6,12.18-4.42,2.43.8,4.36,2.4,5.31,4.42-.68,1.45-1.86,2.69-3.4,3.58-1.57.91-3.44,1.39-5.35,1.39Zm0-8.28c-2.2,0-3.98,1.48-3.98,3.31s1.78,3.31,3.98,3.31,3.98-1.48,3.98-3.31c0-1.83-1.78-3.31-3.98-3.31Zm0,5.3c-1.32,0-2.39-.89-2.39-1.99s1.07-1.99,2.39-1.99,2.39.89,2.39,1.99-1.07,1.99-2.39,1.99Z"/>
    </clipPath>
  </defs>
  <g id="Group_2222" data-name="Group 2222">
    <path id="Mask-2" class="cls-2" d="m12,16.97c-1.91,0-3.78-.48-5.35-1.39-1.53-.89-2.72-2.13-3.4-3.58,1.9-4.02,7.35-6,12.18-4.42,2.43.8,4.36,2.4,5.31,4.42-.68,1.45-1.86,2.69-3.4,3.58-1.57.91-3.44,1.39-5.35,1.39Zm0-8.28c-2.2,0-3.98,1.48-3.98,3.31s1.78,3.31,3.98,3.31,3.98-1.48,3.98-3.31c0-1.83-1.78-3.31-3.98-3.31Zm0,5.3c-1.32,0-2.39-.89-2.39-1.99s1.07-1.99,2.39-1.99,2.39.89,2.39,1.99-1.07,1.99-2.39,1.99Z"/>
    <g>
      <path class="cls-1" d="m12,16.97c-1.91,0-3.78-.48-5.35-1.39-1.53-.89-2.72-2.13-3.4-3.58,1.9-4.02,7.35-6,12.18-4.42,2.43.8,4.36,2.4,5.31,4.42-.68,1.45-1.86,2.69-3.4,3.58-1.57.91-3.44,1.39-5.35,1.39Zm0-8.28c-2.2,0-3.98,1.48-3.98,3.31s1.78,3.31,3.98,3.31,3.98-1.48,3.98-3.31c0-1.83-1.78-3.31-3.98-3.31Zm0,5.3c-1.32,0-2.39-.89-2.39-1.99s1.07-1.99,2.39-1.99,2.39.89,2.39,1.99-1.07,1.99-2.39,1.99Z"/>
      <g class="cls-3">
        <g id="Mask_Group_2222" data-name="Mask Group 2222">
          <g id="_Color" data-name=" Color">
            <g id="Group_1769" data-name="Group 1769">
              <rect id="Black-2" class="cls-2" x="-7.88" y="-4.56" width="39.76" height="33.11"/>
            </g>
          </g>
        </g>
      </g>
    </g>
  </g>
</svg>