<svg width="70" height="70" viewBox="0 0 70 70" fill="none" xmlns="http://www.w3.org/2000/svg">
<path d="M27.4837 32.6433H24.7362C24.3629 32.6433 24.0547 32.5218 23.8116 32.2788C23.5666 32.0357 23.4441 31.7285 23.4441 31.3571C23.4441 30.9857 23.5666 30.6775 23.8116 30.4325C24.0547 30.1875 24.3629 30.065 24.7362 30.065H28.7729C29.1462 30.065 29.4544 30.1865 29.6975 30.4296C29.9425 30.6726 30.065 30.9808 30.065 31.3542V44.4792C30.065 44.8525 29.9434 45.1607 29.7004 45.4038C29.4573 45.6468 29.1491 45.7683 28.7758 45.7683C28.4025 45.7683 28.0943 45.6468 27.8512 45.4038C27.6062 45.1607 27.4837 44.8525 27.4837 44.4792V32.6433ZM37.0212 45.7683C36.1929 45.7683 35.4997 45.4893 34.9416 44.9312C34.3836 44.3732 34.1036 43.68 34.1016 42.8517V32.9817C34.1016 32.1553 34.3816 31.4621 34.9416 30.9021C35.5016 30.3421 36.1939 30.0631 37.0183 30.065H42.1808C43.0072 30.065 43.6994 30.344 44.2575 30.9021C44.8155 31.4601 45.0955 32.1533 45.0975 32.9817V42.8517C45.0975 43.6781 44.8175 44.3712 44.2575 44.9312C43.6975 45.4912 43.0052 45.7703 42.1808 45.7683H37.0212ZM37.3566 43.19H41.8425C42.068 43.19 42.2362 43.1336 42.347 43.0208C42.4579 42.9081 42.5143 42.7399 42.5162 42.5162V33.3171C42.5162 33.0935 42.4598 32.9253 42.347 32.8125C42.2343 32.6997 42.0661 32.6433 41.8425 32.6433H37.3566C37.1311 32.6433 36.9629 32.6997 36.852 32.8125C36.7393 32.9253 36.6829 33.0935 36.6829 33.3171V42.5162C36.6829 42.7399 36.7393 42.9081 36.852 43.0208C36.9629 43.1336 37.1311 43.19 37.3566 43.19ZM35 61.25C31.7644 61.25 28.7311 60.6414 25.9 59.4242C23.0727 58.2069 20.6013 56.5415 18.4858 54.4279C16.3722 52.3124 14.7068 49.841 13.4895 47.0137C12.2743 44.1865 11.6666 41.1542 11.6666 37.9167C11.6666 37.5025 11.8066 37.1564 12.0866 36.8783C12.3666 36.5983 12.7137 36.4583 13.1279 36.4583C13.5401 36.4583 13.8862 36.5983 14.1662 36.8783C14.4443 37.1583 14.5833 37.5044 14.5833 37.9167C14.5833 43.6042 16.5647 48.4293 20.5275 52.3921C24.4902 56.3549 29.3144 58.3353 35 58.3333C40.6875 58.3333 45.5126 56.3529 49.4754 52.3921C53.4382 48.4312 55.4186 43.6061 55.4166 37.9167C55.4166 32.2292 53.4362 27.405 49.4754 23.4442C45.5145 19.4833 40.6894 17.5019 35 17.5H33.8916L37.6016 21.2129C37.8855 21.4968 38.0343 21.8313 38.0479 22.2163C38.0615 22.6013 37.9166 22.9551 37.6133 23.2779C37.2827 23.5988 36.9327 23.7621 36.5633 23.7679C36.19 23.7738 35.8429 23.6163 35.522 23.2954L29.9191 17.6371C29.4466 17.1646 29.2104 16.6143 29.2104 15.9863C29.2104 15.3582 29.4466 14.8079 29.9191 14.3354L35.6358 8.67709C35.9177 8.3932 36.2541 8.24445 36.645 8.23084C37.0358 8.21723 37.3965 8.37181 37.727 8.69459C38.0284 9.01542 38.182 9.35959 38.1879 9.72709C38.1937 10.0926 38.0362 10.4358 37.7154 10.7567L33.8887 14.5833H35C38.2375 14.5833 41.2698 15.1919 44.097 16.4092C46.9243 17.6264 49.3957 19.2918 51.5112 21.4054C53.6248 23.521 55.2902 25.9924 56.5075 28.8196C57.7247 31.6449 58.3333 34.6762 58.3333 37.9137C58.3333 41.1493 57.7247 44.1826 56.5075 47.0137C55.2902 49.841 53.6248 52.3124 51.5112 54.4279C49.3957 56.5415 46.9243 58.2069 44.097 59.4242C41.2718 60.6414 38.2404 61.25 35.0029 61.25" fill="white"/>
</svg>
