<?xml version="1.0" encoding="utf-8"?>
<!-- Generator: Adobe Illustrator 28.2.0, SVG Export Plug-In . SVG Version: 6.00 Build 0)  -->
<svg version="1.1" id="Layer_1" xmlns="http://www.w3.org/2000/svg" xmlns:xlink="http://www.w3.org/1999/xlink" x="0px" y="0px"
	 viewBox="0 0 60 60" style="enable-background:new 0 0 60 60;" xml:space="preserve">
<style type="text/css">
	.st0{fill:#FFFFFF;}
	.st1{clip-path:url(#SVGID_00000088101253577228383080000007000806106039600523_);}
</style>
<g id="ic_play_circle_filled">
	<g id="Group_2007">
		<path id="Mask-28" class="st0" d="M30,55.9C15.7,55.9,4.1,44.3,4.1,30S15.7,4.1,30,4.1S55.9,15.7,55.9,30S44.3,55.9,30,55.9z
			 M24.8,18.3v23.3L40.4,30L24.8,18.3z"/>
		<g>
			<path class="st0" d="M30,55.9C15.7,55.9,4.1,44.3,4.1,30S15.7,4.1,30,4.1S55.9,15.7,55.9,30S44.3,55.9,30,55.9z M24.8,18.3v23.3
				L40.4,30L24.8,18.3z"/>
			<g>
				<defs>
					<path id="SVGID_1_" d="M30,55.9C15.7,55.9,4.1,44.3,4.1,30S15.7,4.1,30,4.1S55.9,15.7,55.9,30S44.3,55.9,30,55.9z M24.8,18.3
						v23.3L40.4,30L24.8,18.3z"/>
				</defs>
				<use xlink:href="#SVGID_1_"  style="overflow:visible;fill:#FFFFFF;"/>
				<clipPath id="SVGID_00000108988178338717421630000016131852986837478055_">
					<use xlink:href="#SVGID_1_"  style="overflow:visible;"/>
				</clipPath>
				<g style="clip-path:url(#SVGID_00000108988178338717421630000016131852986837478055_);">
					<g id="Mask_Group_2007">
						<g id="_Color-6">
							<g id="Group_1769-6">
								<rect id="Black-28" x="-34.9" y="-34.9" class="st0" width="129.7" height="129.7"/>
							</g>
						</g>
					</g>
				</g>
			</g>
		</g>
	</g>
</g>
</svg>
