<?xml version="1.0" encoding="utf-8"?>
<!-- Generator: Adobe Illustrator 28.2.0, SVG Export Plug-In . SVG Version: 6.00 Build 0)  -->
<svg version="1.1" id="Layer_1" xmlns="http://www.w3.org/2000/svg" xmlns:xlink="http://www.w3.org/1999/xlink" x="0px" y="0px"
	 viewBox="0 0 24 24" style="enable-background:new 0 0 24 24;" xml:space="preserve">
<style type="text/css">
	.st0{fill:#FFFFFF;}
</style>
<path class="st0" d="M12,0.2C5.5,0.2,0.2,5.5,0.2,12S5.5,23.8,12,23.8c6.5,0,11.8-5.3,11.8-11.8C23.8,5.5,18.5,0.2,12,0.2z
	 M12.1,5.5c0.6,0,1.1,0.5,1.1,1.1s-0.5,1.1-1.1,1.1S11,7.2,11,6.6S11.5,5.5,12.1,5.5z M4.1,8.3c0-0.6,0.5-1.1,1.1-1.1
	c0.6,0,1.1,0.5,1.1,1.1S5.8,9.4,5.2,9.4S4.1,8.9,4.1,8.3z M16,18.5H8v-1.9h8V18.5z M16.2,15.2H8L5.6,9.3l3.4,1.7l3-3.4l3,3.5
	l3.5-1.8L16.2,15.2L16.2,15.2z M18.8,9.3c-0.6,0-1.1-0.5-1.1-1.1c0-0.6,0.5-1.1,1.1-1.1c0.6,0,1.1,0.5,1.1,1.1
	C19.9,8.9,19.4,9.3,18.8,9.3z"/>
</svg>
