<svg width="60" height="60" viewBox="0 0 60 60" fill="none" xmlns="http://www.w3.org/2000/svg">
<path d="M30 51.875C25.195 51.8684 20.5887 49.9567 17.191 46.559C13.7933 43.1613 11.8816 38.555 11.875 33.75C11.875 33.2527 12.0725 32.7758 12.4242 32.4242C12.7758 32.0725 13.2527 31.875 13.75 31.875C14.2473 31.875 14.7242 32.0725 15.0758 32.4242C15.4275 32.7758 15.625 33.2527 15.625 33.75C15.625 36.5931 16.4681 39.3724 18.0476 41.7363C19.6272 44.1003 21.8722 45.9428 24.4989 47.0308C27.1256 48.1188 30.0159 48.4035 32.8044 47.8488C35.5929 47.2941 38.1543 45.925 40.1647 43.9147C42.175 41.9043 43.5441 39.3429 44.0988 36.5544C44.6535 33.7659 44.3688 30.8756 43.2808 28.2489C42.1928 25.6222 40.3503 23.3772 37.9863 21.7976C35.6224 20.2181 32.8431 19.375 30 19.375H23.75C23.2527 19.375 22.7758 19.1775 22.4242 18.8258C22.0725 18.4742 21.875 17.9973 21.875 17.5C21.875 17.0027 22.0725 16.5258 22.4242 16.1742C22.7758 15.8225 23.2527 15.625 23.75 15.625H30C34.807 15.625 39.4172 17.5346 42.8163 20.9337C46.2154 24.3328 48.125 28.943 48.125 33.75C48.125 38.557 46.2154 43.1672 42.8163 46.5663C39.4172 49.9654 34.807 51.875 30 51.875Z" fill="white"/>
<path d="M30.0001 26.875C29.7537 26.8762 29.5096 26.8281 29.2821 26.7337C29.0545 26.6392 28.8482 26.5003 28.6751 26.325L21.1751 18.825C20.8239 18.4734 20.6267 17.9969 20.6267 17.5C20.6267 17.0031 20.8239 16.5266 21.1751 16.175L28.6751 8.675C28.8467 8.49079 29.0537 8.34303 29.2837 8.24055C29.5137 8.13807 29.762 8.08297 30.0138 8.07852C30.2655 8.07408 30.5156 8.12039 30.7491 8.2147C30.9825 8.309 31.1946 8.44936 31.3727 8.62741C31.5507 8.80545 31.6911 9.01754 31.7854 9.25101C31.8797 9.48448 31.926 9.73455 31.9215 9.98631C31.9171 10.2381 31.862 10.4863 31.7595 10.7163C31.657 10.9463 31.5093 11.1533 31.3251 11.325L25.1501 17.5L31.3251 23.675C31.6762 24.0266 31.8734 24.5031 31.8734 25C31.8734 25.4969 31.6762 25.9734 31.3251 26.325C31.1519 26.5003 30.9456 26.6392 30.718 26.7337C30.4905 26.8281 30.2464 26.8762 30.0001 26.875Z" fill="white"/>
</svg>
