<svg width="24" height="24" viewBox="0 0 24 24" fill="none" xmlns="http://www.w3.org/2000/svg">
<path d="M20.924 5.617C20.8737 5.49577 20.7999 5.38566 20.707 5.293L17.707 2.293C17.6147 2.19749 17.5044 2.12131 17.3824 2.0689C17.2604 2.01649 17.1292 1.9889 16.9964 1.98775C16.8636 1.98659 16.7319 2.0119 16.609 2.06218C16.4861 2.11246 16.3745 2.18671 16.2806 2.2806C16.1867 2.3745 16.1124 2.48615 16.0622 2.60905C16.0119 2.73194 15.9866 2.86362 15.9877 2.9964C15.9889 3.12918 16.0165 3.2604 16.0689 3.3824C16.1213 3.50441 16.1975 3.61475 16.293 3.707L17.586 5H7.99999C6.6739 5 5.40213 5.52678 4.46445 6.46447C3.52677 7.40215 2.99999 8.67392 2.99999 10V12C2.99999 12.2652 3.10534 12.5196 3.29288 12.7071C3.48042 12.8946 3.73477 13 3.99999 13C4.2652 13 4.51956 12.8946 4.70709 12.7071C4.89463 12.5196 4.99999 12.2652 4.99999 12V10C4.99999 9.20435 5.31606 8.44129 5.87867 7.87868C6.44127 7.31607 7.20434 7 7.99999 7H17.586L16.293 8.293C16.1108 8.4816 16.01 8.7342 16.0123 8.9964C16.0146 9.2586 16.1198 9.50941 16.3052 9.69482C16.4906 9.88023 16.7414 9.98539 17.0036 9.98767C17.2658 9.98995 17.5184 9.88916 17.707 9.707L20.707 6.707C20.8 6.61426 20.8737 6.50406 20.924 6.38273C20.9743 6.2614 21.0001 6.13133 21 6M20.924 5.617C20.974 5.73747 20.9998 5.86658 21 5.997L20.924 5.617ZM3.07599 17.617C2.99988 17.7997 2.97987 18.0009 3.01852 18.195C3.05716 18.3892 3.15271 18.5674 3.29299 18.707L6.29299 21.707C6.48159 21.8892 6.73419 21.99 6.99639 21.9877C7.25858 21.9854 7.5094 21.8802 7.6948 21.6948C7.88021 21.5094 7.98538 21.2586 7.98766 20.9964C7.98994 20.7342 7.88914 20.4816 7.70699 20.293L6.41399 19H16C17.3261 19 18.5978 18.4732 19.5355 17.5355C20.4732 16.5979 21 15.3261 21 14V12C21 11.7348 20.8946 11.4804 20.7071 11.2929C20.5196 11.1054 20.2652 11 20 11C19.7348 11 19.4804 11.1054 19.2929 11.2929C19.1053 11.4804 19 11.7348 19 12V14C19 14.7956 18.6839 15.5587 18.1213 16.1213C17.5587 16.6839 16.7956 17 16 17H6.41399L7.70699 15.707C7.8025 15.6148 7.87868 15.5044 7.93109 15.3824C7.9835 15.2604 8.01108 15.1292 8.01224 14.9964C8.01339 14.8636 7.98809 14.7319 7.93781 14.609C7.88753 14.4861 7.81327 14.3745 7.71938 14.2806C7.62549 14.1867 7.51384 14.1125 7.39094 14.0622C7.26804 14.0119 7.13636 13.9866 7.00358 13.9877C6.87081 13.9889 6.73959 14.0165 6.61758 14.0689C6.49558 14.1213 6.38523 14.1975 6.29299 14.293L3.29299 17.293M3.07599 17.617C3.12592 17.4966 3.19897 17.3873 3.29099 17.295L3.07599 17.617Z" fill="#FF8731"/>
</svg>
