<svg width="30" height="30" viewBox="0 0 30 30" fill="none" xmlns="http://www.w3.org/2000/svg">
<path d="M22.5876 10.6373L11.8876 5.2873C4.70009 1.6873 1.75009 4.6373 5.35009 11.8248L6.43759 13.9998C6.75009 14.6373 6.75009 15.3748 6.43759 16.0123L5.35009 18.1748C1.75009 25.3623 4.68759 28.3123 11.8876 24.7123L22.5876 19.3623C27.3876 16.9623 27.3876 13.0373 22.5876 10.6373ZM18.5501 15.9373H11.8001C11.2876 15.9373 10.8626 15.5123 10.8626 14.9998C10.8626 14.4873 11.2876 14.0623 11.8001 14.0623H18.5501C19.0626 14.0623 19.4876 14.4873 19.4876 14.9998C19.4876 15.5123 19.0626 15.9373 18.5501 15.9373Z" fill="#FF8731"/>
</svg>
