<svg width="40" height="40" viewBox="0 0 40 40" fill="none" xmlns="http://www.w3.org/2000/svg">
<path d="M14.5933 7.09244L16.9107 3.76216C17.0977 3.4935 17.4043 3.33333 17.7316 3.33333H21.4351C21.7612 3.33333 22.0668 3.49232 22.254 3.75933L24.5494 7.03387M14.5933 7.09244C14.0153 7.91718 13.0544 8.32131 12.0344 8.24926M14.5933 7.09244C14.0124 7.91521 13.0544 8.32466 12.0344 8.24926M12.0344 8.24926L7.9453 7.99254C7.62445 7.9724 7.31348 8.10774 7.10956 8.35626L4.7609 11.2187C4.5447 11.4822 4.4776 11.8377 4.58286 12.1619L5.78856 15.8751M5.78856 15.8751C5.93677 16.3556 5.95573 16.8705 5.84967 17.3567M5.78856 15.8751C5.93888 16.3548 5.95714 16.8686 5.84897 17.3617M5.84967 17.3567C5.7422 17.8371 5.51181 18.2908 5.16973 18.6582M5.84967 17.3567L5.84897 17.3617M5.16973 18.6582L2.44906 21.5843C2.22066 21.83 2.13063 22.1738 2.20931 22.4999L3.04793 25.9751C3.12636 26.3001 3.362 26.5644 3.67591 26.6794L7.41395 28.0494C7.88878 28.2332 8.299 28.5319 8.60946 28.9081M5.16973 18.6582C5.51391 18.2938 5.7422 17.8416 5.84897 17.3617M8.60946 28.9081C8.91782 29.2854 9.12785 29.7408 9.20933 30.2339M8.60946 28.9081C8.92063 29.2854 9.13136 29.7396 9.20933 30.2339M8.60946 28.9081L8.60455 28.9027C8.58418 28.878 8.5624 28.8523 8.54133 28.8283M9.20933 30.2339L9.84554 34.142C9.89881 34.4692 10.1108 34.7487 10.4114 34.8883L13.7541 36.4402C14.0452 36.5754 14.3834 36.5626 14.6635 36.4059L18.1504 34.4551M18.1504 34.4551C18.5922 34.2069 19.0853 34.0825 19.5784 34.0819M18.1504 34.4551C18.3253 34.3556 18.5086 34.2762 18.6969 34.2166C18.9827 34.126 19.2806 34.0813 19.5784 34.0819M19.5784 34.0819C19.8348 34.0824 20.0912 34.1163 20.3412 34.1833C20.5737 34.2456 20.7999 34.3364 21.0141 34.4551M19.5784 34.0819C20.0736 34.0812 20.5695 34.2057 21.0141 34.4551M21.0141 34.4551L24.6517 36.4243C24.933 36.5766 25.2701 36.5851 25.5588 36.4473L28.8846 34.8588C29.1842 34.7157 29.3933 34.4332 29.4426 34.1049L30.0142 30.2966M30.0142 30.2966C30.0922 29.8008 30.2994 29.3419 30.607 28.9613M30.0142 30.2966C30.0894 29.7997 30.298 29.3415 30.607 28.9613M30.607 28.9613C30.9126 28.5846 31.3179 28.2845 31.7899 28.0989M30.607 28.9613C30.9119 28.5831 31.3158 28.2822 31.7899 28.0989M31.7899 28.0989L35.5564 26.6228C35.8644 26.5021 36.0927 26.2369 36.1664 25.9144L36.9659 22.414C37.0394 22.0923 36.9495 21.7552 36.7257 21.5128L33.9955 18.5566M33.9955 18.5566C33.6471 18.1879 33.4041 17.7476 33.2861 17.2796M33.9955 18.5566C33.8318 18.3844 33.6913 18.1962 33.5769 17.9966C33.4462 17.77 33.3486 17.5288 33.2861 17.2796M33.2861 17.2796C33.1702 16.8149 33.1772 16.3225 33.324 15.8459L34.5089 12.0477C34.6093 11.7259 34.5408 11.3752 34.3268 11.1148L32.0247 8.31486C31.8184 8.06397 31.5032 7.92889 31.1792 7.95262L27.1294 8.24926M27.1294 8.24926C26.6222 8.28507 26.1235 8.18846 25.6796 7.98064M27.1294 8.24926C26.6215 8.28713 26.1235 8.18975 25.6796 7.98064M25.6796 7.98064C25.2328 7.77016 24.8409 7.4465 24.5494 7.03387M25.6796 7.98064C25.2321 7.77094 24.8395 7.44813 24.5494 7.03387M5.84897 17.3617L5.85037 17.3544M25.2265 20.0177C25.2265 23.1259 22.6501 25.6456 19.4723 25.6456C16.2946 25.6456 13.7181 23.1259 13.7181 20.0177C13.7181 16.9094 16.2946 14.3898 19.4723 14.3898C22.6501 14.3898 25.2265 16.9094 25.2265 20.0177Z" stroke="white" stroke-width="2.5"/>
</svg>
