<svg width="24" height="24" viewBox="0 0 24 24" fill="none" xmlns="http://www.w3.org/2000/svg">
<path d="M21.924 6.617C21.8737 6.49577 21.8 6.38566 21.707 6.293L18.707 3.293C18.6148 3.19749 18.5044 3.1213 18.3824 3.0689C18.2604 3.01649 18.1292 2.9889 17.9964 2.98775C17.8636 2.98659 17.7319 3.01189 17.609 3.06218C17.4862 3.11246 17.3745 3.18671 17.2806 3.2806C17.1867 3.37449 17.1125 3.48615 17.0622 3.60904C17.0119 3.73194 16.9866 3.86362 16.9877 3.9964C16.9889 4.12918 17.0165 4.2604 17.0689 4.3824C17.1213 4.50441 17.1975 4.61475 17.293 4.707L18.586 6H15.265C14.4014 5.99995 13.5526 6.22357 12.8011 6.64907C12.0497 7.07457 11.4212 7.68745 10.977 8.428L7.307 14.543C7.04065 14.9871 6.66388 15.3547 6.21334 15.61C5.76281 15.8653 5.25385 15.9997 4.736 16H3C2.73478 16 2.48043 16.1054 2.29289 16.2929C2.10536 16.4804 2 16.7348 2 17C2 17.2652 2.10536 17.5196 2.29289 17.7071C2.48043 17.8946 2.73478 18 3 18H4.735C5.59856 18 6.44742 17.7764 7.19888 17.3509C7.95034 16.9254 8.57878 16.3125 9.023 15.572L12.693 9.457C12.9593 9.01289 13.3361 8.64529 13.7867 8.38997C14.2372 8.13465 14.7461 8.0003 15.264 8H18.584L17.292 9.293C17.1098 9.4816 17.009 9.7342 17.0113 9.9964C17.0136 10.2586 17.1188 10.5094 17.3042 10.6948C17.4896 10.8802 17.7404 10.9854 18.0026 10.9877C18.2648 10.9899 18.5174 10.8892 18.706 10.707L21.706 7.707C21.7992 7.61434 21.8731 7.50418 21.9236 7.38285C21.974 7.26151 22 7.1314 22 7M21.924 6.617C21.974 6.73747 21.9998 6.86658 22 6.997L21.924 6.617Z" fill="#FF8731"/>
<path d="M21.706 17.708L18.707 20.708C18.5194 20.8955 18.2649 21.0008 17.9996 21.0007C17.7344 21.0006 17.48 20.8951 17.2925 20.7075C17.105 20.5199 16.9997 20.2654 16.9998 20.0001C16.9999 19.7349 17.1054 19.4805 17.293 19.293L18.586 18H15.265C14.4014 18 13.5526 17.7764 12.8011 17.3509C12.0497 16.9254 11.4212 16.3125 10.977 15.572L7.307 9.457C7.04065 9.01289 6.66388 8.6453 6.21334 8.38998C5.76281 8.13466 5.25385 8.00031 4.736 8H3C2.73478 8 2.48043 7.89464 2.29289 7.70711C2.10536 7.51957 2 7.26522 2 7C2 6.73478 2.10536 6.48043 2.29289 6.29289C2.48043 6.10536 2.73478 6 3 6H4.735C5.59856 5.99996 6.44742 6.22358 7.19888 6.64908C7.95034 7.07458 8.57878 7.68745 9.023 8.428L12.693 14.543C12.9593 14.9871 13.3361 15.3547 13.7867 15.61C14.2372 15.8653 14.7461 15.9997 15.264 16H18.584L17.292 14.707C17.1098 14.5184 17.009 14.2658 17.0113 14.0036C17.0136 13.7414 17.1188 13.4906 17.3042 13.3052C17.4896 13.1198 17.7404 13.0146 18.0026 13.0123C18.2648 13.01 18.5174 13.1108 18.706 13.293L21.706 16.293C21.901 16.487 21.998 16.743 21.999 16.997V17C21.9991 17.1316 21.9732 17.2619 21.9228 17.3834C21.8723 17.5049 21.7993 17.6152 21.706 17.708Z" fill="#FF8731"/>
</svg>
