<svg id="amazon-a-logo-icon" xmlns="http://www.w3.org/2000/svg" width="29.205" height="26.55" viewBox="0 0 29.205 26.55">
  <path id="Path_4109" data-name="Path 4109" d="M33.848,13.036a5.358,5.358,0,0,1,.9-3.133A5.572,5.572,0,0,1,37.22,7.939a13.367,13.367,0,0,1,3.531-.876q.717-.08,2.336-.212V6.4a4.727,4.727,0,0,0-.372-2.283,1.99,1.99,0,0,0-1.752-.8h-.212a2.905,2.905,0,0,0-1.514.557A2.176,2.176,0,0,0,38.415,5.2a.674.674,0,0,1-.531.611L34.83,5.443q-.451-.106-.451-.478a.782.782,0,0,1,.026-.186,5.089,5.089,0,0,1,2.217-3.5A8.326,8.326,0,0,1,40.751,0h.664a6.712,6.712,0,0,1,4.726,1.567,5.081,5.081,0,0,1,.491.571,5.145,5.145,0,0,1,.358.544,2.771,2.771,0,0,1,.239.69c.071.3.124.509.16.624a3.808,3.808,0,0,1,.079.744q.026.571.026.677v6.425a3.8,3.8,0,0,0,.2,1.261,3.3,3.3,0,0,0,.385.823q.186.252.611.81a.8.8,0,0,1,.159.425.458.458,0,0,1-.213.371q-2.2,1.912-2.389,2.071a.74.74,0,0,1-.77.053q-.371-.319-.65-.611t-.4-.425a5.9,5.9,0,0,1-.385-.518c-.177-.257-.3-.429-.372-.518a6.518,6.518,0,0,1-2.92,2.018,8.024,8.024,0,0,1-2.23.265,4.652,4.652,0,0,1-3.359-1.261,4.716,4.716,0,0,1-1.314-3.571Zm4.567-.531a2.517,2.517,0,0,0,.518,1.659,1.718,1.718,0,0,0,1.394.624,1.367,1.367,0,0,0,.226-.026,1.312,1.312,0,0,1,.2-.027A2.7,2.7,0,0,0,42.477,13.3a4.151,4.151,0,0,0,.438-1.1,5.028,5.028,0,0,0,.159-.969q.013-.371.014-1.221V9.346a9.668,9.668,0,0,0-2.336.212,2.846,2.846,0,0,0-2.337,2.947Z" transform="translate(-25.803)" fill="#e9e9e9"/>
  <path id="Path_4110" data-name="Path 4110" d="M23.762,84.98a.836.836,0,0,1,.16-.213,4.164,4.164,0,0,1,1.274-.61,8.674,8.674,0,0,1,1.965-.292,1.583,1.583,0,0,1,.5.026q1.2.106,1.434.4a.871.871,0,0,1,.106.478v.186a6.056,6.056,0,0,1-.5,2.19,5.1,5.1,0,0,1-1.408,2.031.4.4,0,0,1-.239.106.235.235,0,0,1-.106-.026q-.159-.08-.08-.292a10.125,10.125,0,0,0,.982-3.213.683.683,0,0,0-.106-.425q-.266-.318-1.487-.318-.452,0-1.062.053-.663.08-1.221.16a.309.309,0,0,1-.213-.053.087.087,0,0,1-.026-.106.2.2,0,0,1,.027-.079ZM.053,84.529q.133-.212.425-.027a28.286,28.286,0,0,0,14.443,3.85A28.571,28.571,0,0,0,25.2,86.414c.088-.035.217-.088.385-.159s.288-.124.358-.159a.473.473,0,0,1,.624.159q.226.319-.146.584-.478.345-1.221.8a19.9,19.9,0,0,1-5.1,2.1A21.4,21.4,0,0,1,.159,84.954.363.363,0,0,1,0,84.688a.283.283,0,0,1,.053-.159Z" transform="translate(0 -63.926)" fill="#f90"/>
</svg>
