<svg xmlns="http://www.w3.org/2000/svg" width="21.95" height="21.95" viewBox="0 0 21.95 21.95">
  <path id="Path_4122" data-name="Path 4122" d="M8.4-12.127c0-5.148-4.8-9.945-10.95-9.945a11,11,0,0,0-11,11A10.953,10.953,0,0,0-2.346-.122,12.31,12.31,0,0,0,4.309-2.006l-.5-.8A11.291,11.291,0,0,1-2.346-1.127a9.828,9.828,0,0,1-10.146-9.945,9.868,9.868,0,0,1,9.945-10c5.651,0,9.9,4.295,9.9,8.941C7.348-8.786,5.942-7,4.159-7A1.621,1.621,0,0,1,2.325-8.586,4.512,4.512,0,0,1,2.4-9.364l1.18-6.756L.618-16.6.341-15.266a4.009,4.009,0,0,0-3.466-1.708c-2.938,0-5.626,2.763-5.626,6.3a4.527,4.527,0,0,0,4.6,4.847A5.446,5.446,0,0,0-.437-7.33,4.834,4.834,0,0,0,3.405-5.823C6.168-5.823,8.4-7.933,8.4-12.127Zm-8.69.1A3.355,3.355,0,0,1-3.275-8.41a2.236,2.236,0,0,1-2.361-2.436,3.3,3.3,0,0,1,3.014-3.541A2.234,2.234,0,0,1-.287-12.026Z" transform="translate(13.547 22.072)" fill="#dedede"/>
</svg>
