<svg xmlns="http://www.w3.org/2000/svg" width="26.421" height="22.722" viewBox="0 0 26.421 22.722">
  <path id="axis-bank-logo-1" d="M13.2,195.13c1.36,2.328,2.72,4.631,4.03,6.959-2.145,3.793-4.291,7.614-6.515,11.38-.864,1.438-1.675,2.9-2.537,4.343-2.746.026-5.494.026-8.214,0a5.22,5.22,0,0,1,.261-.548c4.341-7.379,8.685-14.729,12.976-22.134Zm0,14.129c2.746,0,5.494-.026,8.241.026,1.647,2.853,3.323,5.677,4.944,8.556-2.746.026-5.494,0-8.241,0C16.52,214.962,14.818,212.135,13.2,209.259Z" transform="translate(0.04 -195.13)" fill="#ae285d"/>
</svg>
