<?xml version="1.0" encoding="utf-8"?>
<!-- Generator: Adobe Illustrator 27.9.0, SVG Export Plug-In . SVG Version: 6.00 Build 0)  -->
<svg version="1.1" id="Layer_1" xmlns="http://www.w3.org/2000/svg" xmlns:xlink="http://www.w3.org/1999/xlink" x="0px" y="0px"
	 viewBox="0 0 35 35" enable-background="new 0 0 35 35" xml:space="preserve">
<path fill="#FFFFFF" d="M9.1,18.6H7.4c0,2,0.6,3.9,1.7,5.6c1.1,1.6,2.7,2.9,4.5,3.7c1.8,0.8,3.8,1,5.8,0.6s3.8-1.4,5.2-2.8
	s2.4-3.2,2.8-5.2c0.4-1.9,0.2-4-0.6-5.8c-0.7-1.8-2-3.4-3.7-4.5c-1.6-1.1-3.6-1.7-5.6-1.7h-3.4V4.3L9,9.4l5.1,5.1v-4.2h3.4
	c1.7,0,3.3,0.5,4.7,1.4c1.4,0.9,2.5,2.3,3.1,3.8c0.7,1.6,0.8,3.3,0.5,4.9c-0.3,1.6-1.1,3.1-2.3,4.3c-1.2,1.2-2.7,2-4.3,2.3
	c-1.7,0.3-3.4,0.1-4.9-0.5c-1.6-0.6-2.9-1.7-3.8-3.1c-0.9-1.4-1.4-3-1.4-4.7V18.6z"/>
<path fill="#FFFFFF" d="M20.6,22.2c-0.4,0-0.7-0.1-1.1-0.2c-0.3-0.2-0.6-0.4-0.8-0.6c-0.2-0.3-0.4-0.7-0.4-1.1
	c-0.1-0.5-0.1-0.9-0.1-1.4s0-1,0.1-1.4s0.2-0.7,0.4-1.1c0.2-0.3,0.5-0.5,0.8-0.6c0.3-0.2,0.7-0.2,1.1-0.2s0.7,0,1,0.2
	c0.3,0.1,0.6,0.4,0.8,0.7c0.4,0.7,0.6,1.6,0.6,2.5s-0.2,1.7-0.6,2.5c-0.2,0.3-0.5,0.5-0.8,0.7C21.3,22.1,20.9,22.2,20.6,22.2
	L20.6,22.2z M20.6,21.2c0.2,0,0.3,0,0.5-0.1c0.1-0.1,0.3-0.2,0.4-0.4c0.2-0.4,0.3-0.8,0.3-1.3v-1.2c0-0.4-0.1-0.9-0.2-1.3
	c-0.1-0.1-0.2-0.3-0.4-0.3c-0.2-0.1-0.3-0.1-0.5-0.1s-0.3,0-0.5,0.1s-0.3,0.2-0.4,0.3c-0.2,0.4-0.3,0.8-0.2,1.3v1.2
	c0,0.4,0.1,0.9,0.2,1.3c0.1,0.1,0.2,0.3,0.3,0.4C20.2,21.1,20.4,21.2,20.6,21.2L20.6,21.2z M13,22.1v-1h1.7v-4.4l-1.6,0.8l-0.5-0.9
	l2-1.1h1.2V21h1.5v1H13V22.1z"/>
</svg>
