<svg width="50" height="50" viewBox="0 0 50 50" fill="none" xmlns="http://www.w3.org/2000/svg">
<g clip-path="url(#clip0_2804_10911)">
<path d="M49.9984 25.1531C49.9984 11.2594 38.8047 -0.00311279 24.9984 -0.00311279C11.1859 1.22071e-05 -0.0078125 11.2594 -0.0078125 25.1563C-0.0078125 37.7094 9.13594 48.1156 21.0859 50.0031V32.425H14.7422V25.1563H21.0922V19.6094C21.0922 13.3063 24.8266 9.82501 30.5359 9.82501C33.2734 9.82501 36.1328 10.3156 36.1328 10.3156V16.5031H32.9797C29.8766 16.5031 28.9078 18.4438 28.9078 20.4344V25.1531H35.8391L34.7328 32.4219H28.9047V50C40.8547 48.1125 49.9984 37.7063 49.9984 25.1531Z" fill="white"/>
</g>
<defs>
<clipPath id="clip0_2804_10911">
<rect width="50" height="50" fill="white"/>
</clipPath>
</defs>
</svg>
