<svg xmlns="http://www.w3.org/2000/svg" width="22" height="17" viewBox="0 0 22 17">
  <path id="Union_566" data-name="Union 566" d="M2.75,17A2.793,2.793,0,0,1,0,14.167V2.833A2.793,2.793,0,0,1,2.75,0h16.5A2.793,2.793,0,0,1,22,2.833V14.167A2.793,2.793,0,0,1,19.25,17ZM1.375,14.167A1.4,1.4,0,0,0,2.75,15.583h16.5a1.4,1.4,0,0,0,1.375-1.417V7.083H1.375Zm0-11.333V4.25h19.25V2.833A1.4,1.4,0,0,0,19.25,1.417H2.75A1.4,1.4,0,0,0,1.375,2.833Zm6.569,8.5a1.834,1.834,0,1,1,1.834,1.889A1.862,1.862,0,0,1,7.944,11.333Zm-4.888,0A1.861,1.861,0,0,1,4.889,9.445a1.89,1.89,0,0,1,0,3.777A1.861,1.861,0,0,1,3.056,11.333Z" fill="#dedede"/>
</svg>
