<svg width="66" height="66" viewBox="0 0 66 66" fill="none" xmlns="http://www.w3.org/2000/svg">
<path d="M66 33C66 41.7521 62.5232 50.1458 56.3345 56.3345C50.1458 62.5232 41.7521 66 33 66C24.2479 66 15.8542 62.5232 9.66548 56.3345C3.47678 50.1458 0 41.7521 0 33C0 24.2479 3.47678 15.8542 9.66548 9.66548C15.8542 3.47678 24.2479 0 33 0C41.7521 0 50.1458 3.47678 56.3345 9.66548C62.5232 15.8542 66 24.2479 66 33ZM28.0087 21.0086C27.7003 20.789 27.3375 20.6586 26.9598 20.6315C26.5822 20.6045 26.2045 20.6819 25.8679 20.8553C25.5314 21.0287 25.249 21.2913 25.0518 21.6145C24.8547 21.9377 24.7502 22.3089 24.75 22.6875V43.3125C24.7502 43.6911 24.8547 44.0623 25.0518 44.3855C25.249 44.7087 25.5314 44.9713 25.8679 45.1447C26.2045 45.3181 26.5822 45.3955 26.9598 45.3685C27.3375 45.3414 27.7003 45.211 28.0087 44.9914L42.4463 34.6789C42.7136 34.4881 42.9315 34.2362 43.0819 33.9442C43.2323 33.6522 43.3107 33.3285 43.3107 33C43.3107 32.6715 43.2323 32.3478 43.0819 32.0558C42.9315 31.7638 42.7136 31.5119 42.4463 31.3211L28.0087 21.0086Z" fill="#FBFBFB"/>
</svg>
