<svg xmlns="http://www.w3.org/2000/svg" width="12.979" height="13.468" viewBox="0 0 12.979 13.468">
  <path id="recycle-bin-line" d="M38.568,3.085h4V2.741a.277.277,0,0,1,0-.033.741.741,0,0,1,.218-.49h0A.741.741,0,0,1,43.3,2h2.391l.037,0a.741.741,0,0,1,.7.734v0h0v.346H50.38a.311.311,0,0,1,.048,0,.588.588,0,0,1,.364.169h0a.582.582,0,0,1,.168.4v0h0v1.3a.32.32,0,0,1-.32.319H38.3a.32.32,0,0,1-.32-.319v-1.3a.29.29,0,0,1,0-.038v0a.586.586,0,0,1,.17-.371h0a.582.582,0,0,1,.4-.17h0v0h0Zm8.739,3.54h-.713v6.722h.713V6.625Zm-2.317,0h-.713v6.722h.713V6.625Zm-2.317,0h-.713v6.722h.713V6.625Zm-3.391-2.1H49.756l.033,0h.032l.02,0a.742.742,0,0,1,.428.2.666.666,0,0,1,.2.475c0,.012,0,.023,0,.034v.008l0,.018-.886,9.508v.005h0l0,.017-.006.034h0v0a.819.819,0,0,1-.025.111v0h0v0l0,.007v0a.768.768,0,0,1-.052.121.7.7,0,0,1-.624.382H40.157l-.03,0h-.005a.7.7,0,0,1-.154-.024.675.675,0,0,1-.143-.059h0a.761.761,0,0,1-.38-.6l-.874-9.51V5.212h0a.666.666,0,0,1,.2-.476.744.744,0,0,1,.45-.207h.015l.036,0h.012v0Zm10.473.639H39.269a.1.1,0,0,0-.052.027.037.037,0,0,0-.012.021h0v.014l.873,9.5h0a.122.122,0,0,0,.054.1h0l.01,0h8.729a.076.076,0,0,0,.062-.045l.01-.024.007-.026,0-.017h0l.885-9.493V5.212a.036.036,0,0,0-.012-.021.1.1,0,0,0-.054-.027h-.012Zm.013,0h0m.068.061h0m.635.046v0M42.884,3.724H38.623v.923h11.7V3.724H46.115a.319.319,0,0,1-.319-.319V2.739h0a.106.106,0,0,0-.031-.07.1.1,0,0,0-.062-.03H43.3a.1.1,0,0,0-.069.031h0a.111.111,0,0,0-.031.06v.676a.32.32,0,0,1-.32.319Z" transform="translate(-37.984 -2)" fill="#dedede"/>
</svg>
