<svg width="145" height="145" viewBox="0 0 145 145" fill="none" xmlns="http://www.w3.org/2000/svg">
<path d="M62.5 5.7735C68.688 2.20085 76.312 2.20085 82.5 5.7735L125.287 30.4765C131.475 34.0492 135.287 40.6517 135.287 47.797V97.203C135.287 104.348 131.475 110.951 125.287 114.524L82.5 139.226C76.312 142.799 68.688 142.799 62.5 139.226L19.7132 114.524C13.5251 110.951 9.71316 104.348 9.71316 97.203V47.797C9.71316 40.6517 13.5251 34.0492 19.7132 30.4765L62.5 5.7735Z" fill="#F9A025"/>
<path d="M48.875 86L42.125 48.875L60.6875 65.75L72.5 45.5L84.3125 65.75L102.875 48.875L96.125 86H48.875ZM96.125 96.125C96.125 98.15 94.775 99.5 92.75 99.5H52.25C50.225 99.5 48.875 98.15 48.875 96.125V92.75H96.125V96.125Z" fill="black"/>
</svg>
