<?xml version="1.0" encoding="utf-8"?>
<!-- Generator: Adobe Illustrator 27.7.0, SVG Export Plug-In . SVG Version: 6.00 Build 0)  -->
<svg version="1.1" id="Layer_1" xmlns="http://www.w3.org/2000/svg" xmlns:xlink="http://www.w3.org/1999/xlink" x="0px" y="0px"
	 viewBox="0 0 100 50" style="enable-background:new 0 0 100 50;" xml:space="preserve">
<style type="text/css">
	.st0{fill:#75B851;}
	.st1{fill:#FFFFFF;}
</style>
<path id="Path_208" class="st0" d="M0,5c0-2.7,2.2-5,4.9-5C4.9,0,5,0,5,0h90c2.7,0,5,2.2,5,4.9c0,0,0,0.1,0,0.1v40
	c0,2.7-2.1,5-4.9,5c0,0-0.1,0-0.1,0H5c-2.7,0-5-2.1-5-4.8C0,45.1,0,45,0,45C0,45,0,5,0,5z"/>
<g>
	<path class="st1" d="M13.2,37.6V12.4h14.2v4.3h-10v6H26v4.3h-8.7v10.7H13.2z"/>
	<path class="st1" d="M30.9,37.6V12.4h8.8c2.3,0,3.9,0.2,4.8,0.7c1,0.5,1.8,1.2,2.4,2.4s0.9,2.5,0.9,4c0,2-0.5,3.6-1.4,4.8
		s-2.3,2-4,2.3c0.9,0.6,1.6,1.3,2.2,2.1c0.6,0.8,1.4,2.1,2.4,4.1l2.5,4.9h-5l-3-5.5c-1.1-2-1.8-3.2-2.2-3.7c-0.4-0.5-0.8-0.8-1.2-1
		s-1.1-0.3-2.1-0.3H35v10.6H30.9z M35,23.1h3.1c1.9,0,3.1-0.1,3.6-0.2c0.5-0.2,0.9-0.5,1.3-1c0.3-0.5,0.5-1.2,0.5-2
		c0-0.8-0.2-1.5-0.5-1.9c-0.3-0.5-0.8-0.8-1.3-1c-0.4-0.1-1.5-0.2-3.4-0.2H35V23.1z"/>
	<path class="st1" d="M51.8,37.6V12.4h15.4v4.3H55.9v5.6h10.4v4.3H55.9v6.9h11.6v4.3H51.8z"/>
	<path class="st1" d="M71.1,37.6V12.4h15.4v4.3H75.2v5.6h10.4v4.3H75.2v6.9h11.6v4.3H71.1z"/>
</g>
</svg>
