<svg xmlns="http://www.w3.org/2000/svg" width="48" height="48" viewBox="0 0 48 48">
  <g id="Group_5100" data-name="Group 5100" transform="translate(0 -0.102)">
    <g id="Group_5104" data-name="Group 5104">
      <path id="Path_3724" data-name="Path 3724" d="M24,1.5a22.506,22.506,0,0,0-8.758,43.232A22.506,22.506,0,0,0,32.758,3.268,22.358,22.358,0,0,0,24,1.5M24,0A24,24,0,1,1,0,24,24,24,0,0,1,24,0Z" transform="translate(0 0.102)" fill="#646464"/>
      <path id="Polygon_43" data-name="Polygon 43" d="M11.5,6.018,5.186,17H17.814L11.5,6.018m0-4.006a1.981,1.981,0,0,1,1.734,1L21.277,17a2,2,0,0,1-1.734,3H3.457a2,2,0,0,1-1.734-3L9.766,3.015A1.981,1.981,0,0,1,11.5,2.012Z" transform="translate(37 12.602) rotate(90)" fill="#dedede"/>
    </g>
  </g>
</svg>
