<svg id="layer1" xmlns="http://www.w3.org/2000/svg" width="26.421" height="28.63" viewBox="0 0 26.421 28.63">
  <g id="g651">
    <path id="path160" d="M8.061,6.807C14.593.321,22.526-1.367,25.69,3.058s.39,13.361-6.142,19.855c-6.541,6.532-14.465,8.22-17.684,3.748-3.127-4.472-.334-13.37,6.2-19.855Z" transform="translate(-0.581 -0.589)" fill="#f06321"/>
    <path id="path162" d="M56.631,3.183a9.376,9.376,0,0,1,1.206,6.244,22.124,22.124,0,0,1-6.151,9.955c-5.864,5.725-12.878,7.163-15.81,3.266-2.83-3.888-.427-11.681,5.289-17.35a23.572,23.572,0,0,1,2.162-1.828C48.753.01,54.135-.278,56.631,3.183Z" transform="translate(-31.522 -0.714)" fill="#ae282e"/>
    <path id="path164" d="M76.825,25.4v.139a4.453,4.453,0,0,1-1.4,2.691c-1.29,1.253-3.025,1.735-3.748,1.011-.816-.77-.334-2.449.965-3.795,1.345-1.3,3.08-1.735,3.795-.965A1.236,1.236,0,0,1,76.825,25.4Zm-5,22.063c-3.071,2.3-6.244,3.461-9.325,2.978,1.3.046,2.357-1.392,3.229-3.312A33.16,33.16,0,0,0,67.5,41.6c.622-2.746.677-4.667.334-5.094-.529-.677-1.679-.529-3.025.241-.677.38-1.54.139-.529-1.113a25.872,25.872,0,0,1,6.578-4.7c1.642-.436,3.461.186,2.839,1.967C73.263,34.191,67.594,49,71.825,47.459Z" transform="translate(-56.755 -21.915)" fill="#fff"/>
  </g>
</svg>
