<svg xmlns="http://www.w3.org/2000/svg" width="26.026" height="19.674" viewBox="0 0 26.026 19.674">
  <path id="mobikwik-logo-icon" d="M25.188,7.87a.974.974,0,1,0-.285.692.976.976,0,0,0,.285-.692ZM20.611,2.189,19.128,17.1c.333.04.847,0,.938-.525.142-.8,1.366-13.289,1.366-13.289s.225-.589-.832-1.1Zm3.425,7.746a19.338,19.338,0,0,1-1.949.436L21.4,17s-.093,1.413-1.131,1.413H19.009l-.015.144s-.157.972-1,1.1-17.247,0-17.247,0a.88.88,0,0,1-.722-.775c-.03-.648,0-14.011,0-14.011a1.4,1.4,0,0,1,1.192-.985c.377-.049,3.219-.517,6.566-1.074L8.9.7A1.271,1.271,0,0,1,11.084.635a1.222,1.222,0,0,0-.8-.39h-.114a1.243,1.243,0,0,0-1.1.661L.832,16.554a1.243,1.243,0,0,0,2.2,1.159L8.961,6.449v9.3a1.231,1.231,0,0,0,1.228,1.226c.765,0,1.271-.955,1.313-1.042l3.262-6.293v5.443a1.226,1.226,0,1,0,2.453,0V4.6a1.224,1.224,0,0,0-2.364-.453l-.019.03-3.2,6.178-.786,1.652.568-2.052V2.206C15.637,1.5,19.56.84,19.56.84a.856.856,0,0,1,1.1.847l-.047.464c.356-.076,2.033-.366,2.148,1.059L22.528,6.6s.288.212,1.54-.28c0,0,1.76-.7,1.949,1.046,0,0,.341,1.788-1.98,2.58Zm.72-2.059a.541.541,0,1,1,0-.006Z" transform="translate(-0.008 -0.042)" fill="#dedede"/>
</svg>
