<svg xmlns="http://www.w3.org/2000/svg" width="21.728" height="16.935" viewBox="0 0 21.728 16.935">
  <path id="Union_568" data-name="Union 568" d="M4.074,16.935a.7.7,0,0,1,0-1.4h13.58a.7.7,0,0,1,0,1.4ZM2.716,14.356A2.57,2.57,0,0,1,0,11.963V2.393A2.57,2.57,0,0,1,2.716,0h16.3a2.57,2.57,0,0,1,2.717,2.393v9.569a2.57,2.57,0,0,1-2.717,2.393ZM1.358,11.963a1.285,1.285,0,0,0,1.358,1.2h16.3a1.284,1.284,0,0,0,1.358-1.2V2.393a1.284,1.284,0,0,0-1.358-1.2H2.716a1.285,1.285,0,0,0-1.358,1.2v9.569Zm0-5.981h0Z" transform="translate(0)" fill="#dedede"/>
</svg>
