<svg id="paytm-icon" xmlns="http://www.w3.org/2000/svg" width="37.678" height="11.81" viewBox="0 0 37.678 11.81">
  <path id="Path_4119" data-name="Path 4119" d="M86.087,3.483A2.513,2.513,0,0,0,83.72,1.8H83.7a2.5,2.5,0,0,0-1.809.773A2.5,2.5,0,0,0,80.078,1.8h-.021a2.506,2.506,0,0,0-1.637.607V2.22a.369.369,0,0,0-.368-.343h-1.68A.37.37,0,0,0,76,2.247v9.118a.37.37,0,0,0,.371.371h1.68a.368.368,0,0,0,.365-.319V4.872a.432.432,0,0,1,0-.064A.611.611,0,0,1,79,4.246h.31a.627.627,0,0,1,.353.138.614.614,0,0,1,.227.491l.006,6.512a.373.373,0,0,0,.371.374h1.68a.368.368,0,0,0,.368-.353V4.869a.615.615,0,0,1,.273-.524.7.7,0,0,1,.31-.1h.31a.613.613,0,0,1,.583.629l.006,6.506a.37.37,0,0,0,.371.371h1.68a.372.372,0,0,0,.371-.346V4.265a2.23,2.23,0,0,0-.129-.782ZM74.719,1.9h-.96V.337A.339.339,0,0,0,73.419,0a.458.458,0,0,0-.064.006C72.29.3,72.5,1.772,70.558,1.9h-.187a.38.38,0,0,0-.083.009h0A.378.378,0,0,0,70,2.272v1.68a.37.37,0,0,0,.371.371h1.012l0,7.119a.369.369,0,0,0,.368.368h1.662a.369.369,0,0,0,.368-.368V4.323h.941a.374.374,0,0,0,.371-.371V2.272a.37.37,0,0,0-.371-.371Z" transform="translate(-48.538)" fill="#00baf2"/>
  <path id="Path_4120" data-name="Path 4120" d="M20.14,6.193H18.46a.372.372,0,0,0-.371.371v3.474a.392.392,0,0,1-.392.386h-.7a.394.394,0,0,1-.4-.392l-.006-3.468a.37.37,0,0,0-.371-.371h-1.68a.37.37,0,0,0-.371.371v3.8a2.385,2.385,0,0,0,2.477,2.477s1.085,0,1.119.006a.392.392,0,0,1,0,.779.09.09,0,0,0-.028.006l-2.456.009a.37.37,0,0,0-.371.371v1.677a.37.37,0,0,0,.371.371h2.744a2.382,2.382,0,0,0,2.477-2.474V6.564a.366.366,0,0,0-.368-.371ZM10.587,6.2H8.257a.363.363,0,0,0-.374.346V8.125a.386.386,0,0,0,.4.371H10.5a.389.389,0,0,1,.334.356v.218a.368.368,0,0,1-.325.343h-1.1a2.33,2.33,0,0,0-2.5,2.333V13.7a2.2,2.2,0,0,0,2.345,2.318H12.3a.96.96,0,0,0,.99-.923V8.722c0-1.545-.8-2.52-2.7-2.52Zm.267,7.009v.264a.377.377,0,0,1-.006.061.371.371,0,0,1-.015.055.393.393,0,0,1-.374.254h-.7a.384.384,0,0,1-.4-.371V12.037a.383.383,0,0,1,.4-.368h.7a.384.384,0,0,1,.4.371v1.171ZM4.035,6.19H.365A.366.366,0,0,0,0,6.555v9.124a.359.359,0,0,0,.34.371H2.051a.37.37,0,0,0,.371-.371l.006-2.551H4.035a2.18,2.18,0,0,0,2.281-2.284V8.477A2.184,2.184,0,0,0,4.035,6.19ZM3.888,9.268V10.3a.394.394,0,0,1-.392.4H2.431V8.624H3.5a.391.391,0,0,1,.392.392v.251Z" transform="translate(0 -4.292)" fill="#20336b"/>
</svg>
