<svg width="22" height="22" viewBox="0 0 22 22" fill="none" xmlns="http://www.w3.org/2000/svg">
<path d="M11 19.4391C10.5433 19.4408 10.1046 19.2616 9.77967 18.9406L2.63827 11.7992C2.11076 11.2702 1.69636 10.6395 1.42027 9.94532C1.14418 9.25116 1.01217 8.50809 1.03227 7.76131C1.05236 7.01453 1.22415 6.27964 1.53717 5.60133C1.85019 4.92302 2.29792 4.31547 2.85311 3.81563C3.38814 3.338 4.01395 2.97312 4.69316 2.74278C5.37237 2.51244 6.09104 2.42136 6.80623 2.475C8.23605 2.56973 9.58282 3.18051 10.5961 4.19375L11 4.59766L11.5758 4.01328C12.1047 3.48577 12.7355 3.07138 13.4297 2.79529C14.1238 2.5192 14.8669 2.38719 15.6137 2.40728C16.3605 2.42738 17.0953 2.59916 17.7737 2.91219C18.452 3.22521 19.0595 3.67293 19.5594 4.22813C20.037 4.76315 20.4019 5.38897 20.6322 6.06818C20.8625 6.74739 20.9536 7.46605 20.9 8.18125C20.8053 9.61107 20.1945 10.9578 19.1812 11.9711L12.2117 18.9406C12.0527 19.0997 11.8637 19.2256 11.6557 19.3112C11.4478 19.3967 11.2249 19.4402 11 19.4391ZM6.4453 4.52891C5.63333 4.51775 4.84619 4.80872 4.2367 5.34531C3.88831 5.6571 3.60718 6.03669 3.41052 6.46085C3.21385 6.88501 3.10577 7.34483 3.0929 7.81219C3.08003 8.27955 3.16264 8.74463 3.33566 9.17897C3.50869 9.61331 3.7685 10.0078 4.0992 10.3383L11 17.2391L17.7203 10.5188C19.0867 9.14375 19.2242 6.94375 18.0297 5.61172C17.7179 5.26333 17.3383 4.9822 16.9141 4.78553C16.49 4.58886 16.0302 4.48079 15.5628 4.46792C15.0954 4.45505 14.6304 4.53765 14.196 4.71068C13.7617 4.8837 13.3672 5.14351 13.0367 5.47422L11.7305 6.78047C11.6346 6.87661 11.5208 6.95289 11.3955 7.00494C11.2701 7.05699 11.1357 7.08378 11 7.08378C10.8643 7.08378 10.7299 7.05699 10.6045 7.00494C10.4792 6.95289 10.3653 6.87661 10.2695 6.78047L9.13514 5.65469C8.78305 5.29911 8.36416 5.0166 7.90255 4.82341C7.44094 4.63021 6.9457 4.53013 6.4453 4.52891Z" fill="#C5C5C5"/>
</svg>
