<svg xmlns="http://www.w3.org/2000/svg" width="25.011" height="25.011" viewBox="0 0 25.011 25.011">
  <g id="phonepe-logo-icon" transform="translate(-0.012 -0.002)">
    <path id="Path_4106" data-name="Path 4106" d="M15.39.34a12.5,12.5,0,1,0,9.294,15.043A12.5,12.5,0,0,0,15.39.34Z" transform="translate(0 0)" fill="#5f259f"/>
    <path id="Path_4107" data-name="Path 4107" d="M42.87,22.77a.924.924,0,0,0-.908-.9H40.285l-3.841-4.411a1.425,1.425,0,0,0-1.468-.419l-1.331.419a.309.309,0,0,0-.14.489l4.2,3.982H31.344a.332.332,0,0,0-.346.348v.7a.924.924,0,0,0,.908.908h.979V27.24c0,2.514,1.327,3.982,3.562,3.982a4.816,4.816,0,0,0,1.956-.35v2.239a1.1,1.1,0,0,0,1.118,1.118H40.5a.452.452,0,0,0,.419-.419V23.818h1.6a.332.332,0,0,0,.35-.35Zm-4.478,6.007a3.334,3.334,0,0,1-1.4.279c-1.118,0-1.675-.558-1.675-1.816V23.888h3.074v4.885Z" transform="translate(-24.678 -13.524)" fill="#fff"/>
  </g>
</svg>
