<svg width="60" height="60" viewBox="0 0 60 60" fill="none" xmlns="http://www.w3.org/2000/svg">
<path d="M30.0039 5C43.8114 5 55.0039 16.1925 55.0039 30C55.0039 43.8075 43.8114 55 30.0039 55C25.5859 55.0071 21.2456 53.8379 17.4289 51.6125L5.01394 55L8.39394 42.58C6.16667 38.7622 4.99656 34.42 5.00394 30C5.00394 16.1925 16.1964 5 30.0039 5ZM21.4839 18.25L20.9839 18.27C20.6602 18.2897 20.3439 18.3748 20.0539 18.52C19.7827 18.6736 19.5352 18.8656 19.3189 19.09C19.0189 19.3725 18.8489 19.6175 18.6664 19.855C17.7417 21.0573 17.2439 22.5333 17.2514 24.05C17.2564 25.275 17.5764 26.4675 18.0764 27.5825C19.0989 29.8375 20.7814 32.225 23.0014 34.4375C23.5364 34.97 24.0614 35.505 24.6264 36.0025C27.3849 38.4312 30.6721 40.1826 34.2264 41.1175L35.6464 41.335C36.1089 41.36 36.5714 41.325 37.0364 41.3025C37.7645 41.2649 38.4755 41.0678 39.1189 40.725C39.4463 40.5564 39.7658 40.3728 40.0764 40.175C40.0764 40.175 40.1839 40.105 40.3889 39.95C40.7264 39.7 40.9339 39.5225 41.2139 39.23C41.4214 39.015 41.6014 38.7625 41.7389 38.475C41.9339 38.0675 42.1289 37.29 42.2089 36.6425C42.2689 36.1475 42.2514 35.8775 42.2439 35.71C42.2339 35.4425 42.0114 35.165 41.7689 35.0475L40.3139 34.395C40.3139 34.395 38.1389 33.4475 36.8089 32.8425C36.6698 32.7817 36.5206 32.747 36.3689 32.74C36.1979 32.7224 36.0251 32.7417 35.8621 32.7964C35.6991 32.8512 35.5497 32.9402 35.4239 33.0575C35.4114 33.0525 35.2439 33.195 33.4364 35.385C33.3327 35.5244 33.1898 35.6298 33.0259 35.6876C32.8621 35.7455 32.6847 35.7533 32.5164 35.71C32.3536 35.6663 32.194 35.6112 32.0389 35.545C31.7289 35.415 31.6214 35.365 31.4089 35.275C29.9741 34.6489 28.6457 33.8029 27.4714 32.7675C27.1564 32.4925 26.8639 32.1925 26.5639 31.9025C25.5804 30.9606 24.7232 29.895 24.0139 28.7325L23.8664 28.495C23.7605 28.3354 23.6748 28.1633 23.6114 27.9825C23.5164 27.615 23.7639 27.32 23.7639 27.32C23.7639 27.32 24.3714 26.655 24.6539 26.295C24.9289 25.945 25.1614 25.605 25.3114 25.3625C25.6064 24.8875 25.6989 24.4 25.5439 24.0225C24.8439 22.3125 24.1189 20.61 23.3739 18.92C23.2264 18.585 22.7889 18.345 22.3914 18.2975C22.2564 18.2825 22.1214 18.2675 21.9864 18.2575C21.6507 18.2408 21.3143 18.2442 20.9789 18.2675L21.4814 18.2475L21.4839 18.25Z" fill="white"/>
</svg>
