<svg width="9" height="37" viewBox="0 0 9 37" fill="none" xmlns="http://www.w3.org/2000/svg">
<path d="M4.3 0.329998C4.82 0.329998 5.31 0.419998 5.77 0.599998C6.23 0.799998 6.63 1.06 6.97 1.38C7.31 1.72 7.58 2.12 7.78 2.58C7.98 3.04 8.08 3.53 8.08 4.05C8.08 4.57 7.98 5.06 7.78 5.52C7.58 5.98 7.31 6.38 6.97 6.72C6.63 7.06 6.23 7.33 5.77 7.53C5.31 7.73 4.82 7.83 4.3 7.83C3.76 7.83 3.26 7.73 2.8 7.53C2.36 7.33 1.97 7.06 1.63 6.72C1.29 6.38 1.03 5.98 0.85 5.52C0.65 5.06 0.55 4.57 0.55 4.05C0.55 3.53 0.65 3.04 0.85 2.58C1.03 2.12 1.29 1.72 1.63 1.38C1.97 1.06 2.36 0.799998 2.8 0.599998C3.26 0.419998 3.76 0.329998 4.3 0.329998ZM4.3 14.5097C4.82 14.5097 5.31 14.5997 5.77 14.7797C6.23 14.9797 6.63 15.2397 6.97 15.5597C7.31 15.8997 7.58 16.2997 7.78 16.7597C7.98 17.2197 8.08 17.7097 8.08 18.2297C8.08 18.7497 7.98 19.2397 7.78 19.6997C7.58 20.1597 7.31 20.5597 6.97 20.8997C6.63 21.2397 6.23 21.5097 5.77 21.7097C5.31 21.9097 4.82 22.0097 4.3 22.0097C3.76 22.0097 3.26 21.9097 2.8 21.7097C2.36 21.5097 1.97 21.2397 1.63 20.8997C1.29 20.5597 1.03 20.1597 0.849999 19.6997C0.649999 19.2397 0.549999 18.7497 0.549999 18.2297C0.549999 17.7097 0.649999 17.2197 0.849999 16.7597C1.03 16.2997 1.29 15.8997 1.63 15.5597C1.97 15.2397 2.36 14.9797 2.8 14.7797C3.26 14.5997 3.76 14.5097 4.3 14.5097ZM4.3 28.6894C4.82 28.6894 5.31 28.7794 5.77 28.9594C6.23 29.1594 6.63 29.4194 6.97 29.7394C7.31 30.0794 7.58 30.4794 7.78 30.9394C7.98 31.3994 8.08 31.8894 8.08 32.4094C8.08 32.9294 7.98 33.4194 7.78 33.8794C7.58 34.3394 7.31 34.7394 6.97 35.0794C6.63 35.4194 6.23 35.6894 5.77 35.8894C5.31 36.0894 4.82 36.1894 4.3 36.1894C3.76 36.1894 3.26 36.0894 2.8 35.8894C2.36 35.6894 1.97 35.4194 1.63 35.0794C1.29 34.7394 1.03 34.3394 0.849998 33.8794C0.649998 33.4194 0.549998 32.9294 0.549998 32.4094C0.549998 31.8894 0.649998 31.3994 0.849999 30.9394C1.03 30.4794 1.29 30.0794 1.63 29.7394C1.97 29.4194 2.36 29.1594 2.8 28.9594C3.26 28.7794 3.76 28.6894 4.3 28.6894Z" fill="white"/>
</svg>
