<svg xmlns="http://www.w3.org/2000/svg" width="32.604" height="33.963" viewBox="0 0 32.604 33.963">
  <path id="Union_424" data-name="Union 424" d="M20.9,28.23a5.548,5.548,0,0,1,.177-1.395L9.8,21.158a5.725,5.725,0,1,1,0-8.047L21.107,7.359a5.847,5.847,0,1,1,5.648,4.334,5.886,5.886,0,0,1-3.887-1.48l-11.48,5.84a5.3,5.3,0,0,1,0,2.146l11.459,5.738A5.755,5.755,0,0,1,26.616,22.5h.015A5.73,5.73,0,1,1,20.9,28.23Zm3.334,0a2.382,2.382,0,1,0,2.383-2.381A2.386,2.386,0,0,0,24.233,28.23ZM3.431,17.08A2.382,2.382,0,1,0,5.813,14.7,2.384,2.384,0,0,0,3.431,17.08Zm20.8-11.15a2.382,2.382,0,1,0,2.383-2.383A2.383,2.383,0,0,0,24.233,5.93Z" transform="translate(0 0.002)" fill="#fff"/>
</svg>
