<svg width="59" height="51" viewBox="0 0 59 51" fill="none" xmlns="http://www.w3.org/2000/svg">
<path d="M29.9989 50.15C28.6704 50.1549 27.394 49.6336 26.4489 48.7L5.67389 27.925C4.13933 26.3861 2.9338 24.5512 2.13063 22.5318C1.32746 20.5124 0.943431 18.3508 1.00189 16.1783C1.06036 14.0059 1.56009 11.868 2.4707 9.89475C3.38132 7.92149 4.68378 6.15407 6.29889 4.69997C7.85534 3.31051 9.67588 2.24903 11.6518 1.57895C13.6276 0.908871 15.7183 0.643933 17.7989 0.799967C21.9584 1.07556 25.8762 2.85236 28.8239 5.79997L29.9989 6.97497L31.6739 5.27497C33.2127 3.7404 35.0477 2.53488 37.067 1.73171C39.0864 0.928537 41.2481 0.544506 43.4205 0.602968C45.593 0.66143 47.7308 1.16116 49.7041 2.07178C51.6774 2.98239 53.4448 4.28486 54.8989 5.89997C56.2883 7.45641 57.3498 9.27696 58.0199 11.2528C58.69 13.2287 58.9549 15.3194 58.7989 17.4C58.5233 21.5594 56.7465 25.4773 53.7989 28.425L33.5239 48.7C33.0613 49.1626 32.5116 49.529 31.9066 49.7779C31.3015 50.0267 30.6531 50.1532 29.9989 50.15ZM16.7489 6.77497C14.3868 6.74251 12.0969 7.58896 10.3239 9.14997C9.31039 10.057 8.49256 11.1612 7.92044 12.3952C7.34831 13.6291 7.03392 14.9668 6.99647 16.3263C6.95903 17.6859 7.19933 19.0389 7.70268 20.3024C8.20603 21.566 8.96184 22.7135 9.92389 23.675L29.9989 43.75L49.5489 24.2C53.5239 20.2 53.9239 13.8 50.4489 9.92497C49.5419 8.91146 48.4376 8.09364 47.2037 7.52151C45.9698 6.94939 44.6321 6.63499 43.2725 6.59755C41.9129 6.56011 40.56 6.80041 39.2964 7.30376C38.0329 7.80711 36.8853 8.56292 35.9239 9.52497L32.1239 13.325C31.8452 13.6046 31.514 13.8266 31.1493 13.978C30.7847 14.1294 30.3937 14.2073 29.9989 14.2073C29.604 14.2073 29.2131 14.1294 28.8484 13.978C28.4838 13.8266 28.1526 13.6046 27.8739 13.325L24.5739 10.05C23.5496 9.01555 22.331 8.19372 20.9882 7.63169C19.6453 7.06966 18.2046 6.77851 16.7489 6.77497Z" fill="#C5C5C5"/>
</svg>
