<svg xmlns="http://www.w3.org/2000/svg" width="20.623" height="15.887" viewBox="0 0 20.623 15.887">
  <g id="wallet" transform="translate(0 2)">
    <path id="Union_407" data-name="Union 407" d="M3.028,15.887A2.877,2.877,0,0,1,0,13.189V2.7A2.877,2.877,0,0,1,3.028,0H17.836a.978.978,0,0,1,1.03.917V2.444h.728a1.09,1.09,0,0,1,.729.27h0a.864.864,0,0,1,.3.651l-.014,4.093h.014v3.892h-.028l-.013,3.624a.981.981,0,0,1-1.029.914ZM1.372,2.7V13.189a1.574,1.574,0,0,0,1.656,1.475H19.211l.012-3.316H11.548V7.457h7.688l.013-3.791H3.088V2.444H17.494V1.222H3.028A1.573,1.573,0,0,0,1.372,2.7Zm11.156,7.5h6.7l.006-1.622h-6.7Z" transform="translate(0 -2)" fill="#dedede"/>
  </g>
</svg>
