<svg width="169" height="107" viewBox="0 0 169 107" fill="none" xmlns="http://www.w3.org/2000/svg">
<path d="M6.31557 46.7049C6.18439 46.705 6.05448 46.6792 5.9333 46.629C5.81212 46.5788 5.70206 46.5051 5.60943 46.4122L0.948351 41.7512C0.766411 41.5628 0.665731 41.3105 0.668007 41.0486C0.670282 40.7867 0.775327 40.5362 0.960513 40.351C1.1457 40.1658 1.39621 40.0608 1.65809 40.0585C1.91997 40.0562 2.17227 40.1569 2.36065 40.3389L7.02173 44.9999C7.16137 45.1396 7.25647 45.3176 7.29499 45.5113C7.33351 45.705 7.31373 45.9058 7.23815 46.0883C7.16257 46.2708 7.03458 46.4267 6.87037 46.5365C6.70615 46.6462 6.51309 46.7048 6.31557 46.7049Z" fill="#FC745A"/>
<path d="M1.65484 46.7049C1.45732 46.7048 1.26426 46.6462 1.10005 46.5365C0.935839 46.4267 0.807847 46.2708 0.732268 46.0883C0.656688 45.9058 0.636909 45.705 0.675431 45.5113C0.713952 45.3176 0.809051 45.1396 0.948693 44.9999L5.60977 40.3389C5.79815 40.1569 6.05045 40.0562 6.31233 40.0585C6.57421 40.0608 6.82472 40.1658 7.00991 40.351C7.19509 40.5362 7.30014 40.7867 7.30241 41.0486C7.30469 41.3105 7.20401 41.5628 7.02207 41.7512L2.36099 46.4122C2.26839 46.5051 2.15833 46.5788 2.03714 46.6291C1.91595 46.6793 1.78602 46.7051 1.65484 46.7049Z" fill="#FC745A"/>
<path d="M139.772 91.255L138.441 94.3069L146.629 97.8765L147.96 94.8246L139.772 91.255Z" fill="#FC745A"/>
<path d="M142.357 9.43309L134.656 13.9584L136.343 16.8288L144.044 12.3035L142.357 9.43309Z" fill="#FC745A"/>
<path d="M14.0275 17.1827L12.9961 20.3483L21.4893 23.1156L22.5207 19.95L14.0275 17.1827Z" fill="#FC745A"/>
<path d="M23.9698 70.2762L16.6543 75.3944L18.562 78.1211L25.8776 73.0029L23.9698 70.2762Z" fill="#FC745A"/>
<path d="M158.147 58.544L157.842 61.8593L166.542 62.6613L166.848 59.346L158.147 58.544Z" fill="#FC745A"/>
<path d="M167.008 34.6962C166.877 34.6964 166.747 34.6707 166.626 34.6204C166.505 34.5702 166.395 34.4965 166.302 34.4036L161.641 29.7425C161.545 29.6504 161.469 29.5401 161.417 29.4183C161.365 29.2964 161.337 29.1654 161.336 29.0328C161.335 28.9001 161.36 28.7686 161.41 28.6459C161.461 28.5231 161.535 28.4116 161.628 28.3178C161.722 28.224 161.834 28.1499 161.957 28.0996C162.079 28.0494 162.211 28.0242 162.343 28.0253C162.476 28.0265 162.607 28.054 162.729 28.1064C162.851 28.1587 162.961 28.2348 163.053 28.3302L167.714 32.9913C167.854 33.131 167.949 33.3089 167.987 33.5026C168.026 33.6963 168.006 33.8971 167.931 34.0796C167.855 34.2621 167.727 34.4181 167.563 34.5278C167.399 34.6376 167.206 34.6962 167.008 34.6962Z" fill="#FC745A"/>
<path d="M162.346 34.6962C162.149 34.6962 161.956 34.6376 161.791 34.5278C161.627 34.4181 161.499 34.2621 161.424 34.0796C161.348 33.8971 161.328 33.6963 161.367 33.5026C161.405 33.3089 161.5 33.131 161.64 32.9913L166.301 28.3302C166.393 28.2348 166.504 28.1587 166.625 28.1064C166.747 28.054 166.878 28.0265 167.011 28.0253C167.144 28.0242 167.275 28.0494 167.398 28.0996C167.521 28.1499 167.632 28.224 167.726 28.3178C167.82 28.4116 167.894 28.5231 167.944 28.6459C167.994 28.7686 168.02 28.9001 168.018 29.0328C168.017 29.1654 167.99 29.2964 167.937 29.4183C167.885 29.5401 167.809 29.6504 167.713 29.7425L163.052 34.4036C162.96 34.4965 162.85 34.5701 162.729 34.6204C162.607 34.6706 162.477 34.6964 162.346 34.6962Z" fill="#FC745A"/>
<path opacity="0.4" d="M84.9564 106.722C114.29 106.722 138.069 82.943 138.069 53.6097C138.069 24.2764 114.29 0.49707 84.9564 0.49707C55.6231 0.49707 31.8438 24.2764 31.8438 53.6097C31.8438 82.943 55.6231 106.722 84.9564 106.722Z" fill="#FC745A"/>
<path d="M84.957 90.754C105.471 90.754 122.101 74.1239 122.101 53.6096C122.101 33.0952 105.471 16.4651 84.957 16.4651C64.4426 16.4651 47.8125 33.0952 47.8125 53.6096C47.8125 74.1239 64.4426 90.754 84.957 90.754Z" fill="#FC745A"/>
<path d="M77.3615 69.5449C77.0698 69.5451 76.7812 69.4862 76.5129 69.3717C76.2446 69.2573 76.0023 69.0897 75.8007 68.879L63.9778 56.5748C63.7773 56.3706 63.6191 56.1287 63.5127 55.863C63.4062 55.5973 63.3535 55.3132 63.3576 55.027C63.3618 54.7408 63.4226 54.4583 63.5366 54.1958C63.6507 53.9333 63.8157 53.696 64.022 53.4977C64.2284 53.2994 64.4721 53.144 64.7389 53.0405C65.0057 52.937 65.2905 52.8874 65.5766 52.8947C65.8627 52.902 66.1445 52.966 66.4058 53.0829C66.667 53.1999 66.9024 53.3675 67.0984 53.576L77.4727 64.3724L104.595 40.0419C104.806 39.849 105.053 39.6998 105.322 39.6029C105.591 39.506 105.877 39.4634 106.162 39.4775C106.448 39.4916 106.728 39.5622 106.986 39.6851C107.244 39.8081 107.475 39.9809 107.666 40.1938C107.857 40.4066 108.004 40.6551 108.098 40.925C108.192 41.195 108.232 41.4809 108.216 41.7663C108.199 42.0517 108.125 42.331 108 42.588C107.875 42.8449 107.7 43.0745 107.485 43.2634L78.8064 68.9905C78.4099 69.3477 77.8951 69.5452 77.3615 69.5449Z" fill="white"/>
<path d="M6.31557 46.7048C6.18439 46.7049 6.05448 46.6791 5.9333 46.6289C5.81212 46.5787 5.70206 46.505 5.60943 46.4121L0.948351 41.751C0.766411 41.5627 0.665731 41.3104 0.668007 41.0485C0.670282 40.7866 0.775327 40.5361 0.960513 40.3509C1.1457 40.1657 1.39621 40.0607 1.65809 40.0584C1.91997 40.0561 2.17227 40.1568 2.36065 40.3387L7.02173 44.9998C7.16137 45.1395 7.25647 45.3174 7.29499 45.5112C7.33351 45.7049 7.31373 45.9057 7.23815 46.0882C7.16257 46.2706 7.03458 46.4266 6.87037 46.5364C6.70615 46.6461 6.51309 46.7047 6.31557 46.7048Z" fill="#FC745A"/>
<path d="M1.65484 46.7048C1.45732 46.7047 1.26426 46.6461 1.10005 46.5364C0.935839 46.4266 0.807847 46.2706 0.732268 46.0882C0.656688 45.9057 0.636909 45.7049 0.675431 45.5112C0.713952 45.3174 0.809051 45.1395 0.948693 44.9998L5.60977 40.3387C5.79815 40.1568 6.05045 40.0561 6.31233 40.0584C6.57421 40.0607 6.82472 40.1657 7.00991 40.3509C7.19509 40.5361 7.30014 40.7866 7.30241 41.0485C7.30469 41.3104 7.20401 41.5627 7.02207 41.751L2.36099 46.4121C2.26839 46.505 2.15833 46.5787 2.03714 46.6289C1.91595 46.6792 1.78602 46.7049 1.65484 46.7048Z" fill="#FC745A"/>
<path d="M139.772 91.255L138.441 94.3069L146.629 97.8765L147.96 94.8246L139.772 91.255Z" fill="#FC745A"/>
<path d="M142.357 9.43309L134.656 13.9584L136.343 16.8288L144.044 12.3035L142.357 9.43309Z" fill="#FC745A"/>
<path d="M14.0275 17.1827L12.9961 20.3483L21.4893 23.1156L22.5207 19.95L14.0275 17.1827Z" fill="#FC745A"/>
<path d="M23.9698 70.2761L16.6543 75.3943L18.562 78.121L25.8776 73.0028L23.9698 70.2761Z" fill="#FC745A"/>
<path d="M158.147 58.544L157.842 61.8593L166.542 62.6613L166.848 59.346L158.147 58.544Z" fill="#FC745A"/>
<path d="M167.008 34.6962C166.877 34.6964 166.747 34.6707 166.626 34.6204C166.505 34.5702 166.395 34.4965 166.302 34.4036L161.641 29.7425C161.545 29.6504 161.469 29.5401 161.417 29.4183C161.365 29.2964 161.337 29.1654 161.336 29.0328C161.335 28.9001 161.36 28.7686 161.41 28.6459C161.461 28.5231 161.535 28.4116 161.628 28.3178C161.722 28.224 161.834 28.1499 161.957 28.0996C162.079 28.0494 162.211 28.0242 162.343 28.0253C162.476 28.0265 162.607 28.054 162.729 28.1064C162.851 28.1587 162.961 28.2348 163.053 28.3302L167.714 32.9913C167.854 33.131 167.949 33.3089 167.987 33.5026C168.026 33.6963 168.006 33.8971 167.931 34.0796C167.855 34.2621 167.727 34.4181 167.563 34.5278C167.399 34.6376 167.206 34.6962 167.008 34.6962Z" fill="#FC745A"/>
<path d="M162.346 34.6962C162.149 34.6962 161.956 34.6376 161.791 34.5278C161.627 34.4181 161.499 34.2621 161.424 34.0796C161.348 33.8971 161.328 33.6963 161.367 33.5026C161.405 33.3089 161.5 33.131 161.64 32.9913L166.301 28.3302C166.393 28.2348 166.504 28.1587 166.625 28.1064C166.747 28.054 166.878 28.0265 167.011 28.0253C167.144 28.0242 167.275 28.0494 167.398 28.0996C167.521 28.1499 167.632 28.224 167.726 28.3178C167.82 28.4116 167.894 28.5231 167.944 28.6459C167.994 28.7686 168.02 28.9001 168.018 29.0328C168.017 29.1654 167.99 29.2964 167.937 29.4183C167.885 29.5401 167.809 29.6504 167.713 29.7425L163.052 34.4036C162.96 34.4965 162.85 34.5701 162.729 34.6204C162.607 34.6706 162.477 34.6964 162.346 34.6962Z" fill="#FC745A"/>
<path opacity="0.4" d="M84.9564 106.722C114.29 106.722 138.069 82.943 138.069 53.6097C138.069 24.2764 114.29 0.49707 84.9564 0.49707C55.6231 0.49707 31.8438 24.2764 31.8438 53.6097C31.8438 82.943 55.6231 106.722 84.9564 106.722Z" fill="#FC745A"/>
<path d="M84.957 90.754C105.471 90.754 122.101 74.1239 122.101 53.6096C122.101 33.0952 105.471 16.4651 84.957 16.4651C64.4426 16.4651 47.8125 33.0952 47.8125 53.6096C47.8125 74.1239 64.4426 90.754 84.957 90.754Z" fill="#FC745A"/>
<path d="M77.3615 69.5449C77.0698 69.5451 76.7812 69.4862 76.5129 69.3717C76.2446 69.2573 76.0023 69.0897 75.8007 68.879L63.9778 56.5748C63.7773 56.3706 63.6191 56.1287 63.5127 55.863C63.4062 55.5973 63.3535 55.3132 63.3576 55.027C63.3618 54.7408 63.4226 54.4583 63.5366 54.1958C63.6507 53.9333 63.8157 53.696 64.022 53.4977C64.2284 53.2994 64.4721 53.144 64.7389 53.0405C65.0057 52.937 65.2905 52.8874 65.5766 52.8947C65.8627 52.902 66.1445 52.966 66.4058 53.0829C66.667 53.1999 66.9024 53.3675 67.0984 53.576L77.4727 64.3724L104.595 40.0419C104.806 39.849 105.053 39.6998 105.322 39.6029C105.591 39.506 105.877 39.4634 106.162 39.4775C106.448 39.4916 106.728 39.5622 106.986 39.6851C107.244 39.8081 107.475 39.9809 107.666 40.1938C107.857 40.4066 108.004 40.6551 108.098 40.925C108.192 41.195 108.232 41.4809 108.216 41.7663C108.199 42.0517 108.125 42.331 108 42.588C107.875 42.8449 107.7 43.0745 107.485 43.2634L78.8064 68.9905C78.4099 69.3477 77.8951 69.5452 77.3615 69.5449Z" fill="white"/>
<path d="M6.31557 46.7048C6.18439 46.7049 6.05448 46.6791 5.9333 46.6289C5.81212 46.5787 5.70206 46.505 5.60943 46.4121L0.948351 41.751C0.766411 41.5627 0.665731 41.3104 0.668007 41.0485C0.670282 40.7866 0.775327 40.5361 0.960513 40.3509C1.1457 40.1657 1.39621 40.0607 1.65809 40.0584C1.91997 40.0561 2.17227 40.1568 2.36065 40.3387L7.02173 44.9998C7.16137 45.1395 7.25647 45.3174 7.29499 45.5112C7.33351 45.7049 7.31373 45.9057 7.23815 46.0882C7.16257 46.2706 7.03458 46.4266 6.87037 46.5364C6.70615 46.6461 6.51309 46.7047 6.31557 46.7048Z" fill="#FC745A"/>
<path d="M1.65484 46.7048C1.45732 46.7047 1.26426 46.6461 1.10005 46.5364C0.935839 46.4266 0.807847 46.2706 0.732268 46.0882C0.656688 45.9057 0.636909 45.7049 0.675431 45.5112C0.713952 45.3174 0.809051 45.1395 0.948693 44.9998L5.60977 40.3387C5.79815 40.1568 6.05045 40.0561 6.31233 40.0584C6.57421 40.0607 6.82472 40.1657 7.00991 40.3509C7.19509 40.5361 7.30014 40.7866 7.30241 41.0485C7.30469 41.3104 7.20401 41.5627 7.02207 41.751L2.36099 46.4121C2.26839 46.505 2.15833 46.5787 2.03714 46.6289C1.91595 46.6792 1.78602 46.7049 1.65484 46.7048Z" fill="#FC745A"/>
<path d="M139.772 91.255L138.441 94.3069L146.629 97.8765L147.96 94.8246L139.772 91.255Z" fill="#FC745A"/>
<path d="M142.357 9.43309L134.656 13.9584L136.343 16.8288L144.044 12.3035L142.357 9.43309Z" fill="#FC745A"/>
<path d="M14.0275 17.1827L12.9961 20.3483L21.4893 23.1156L22.5207 19.95L14.0275 17.1827Z" fill="#FC745A"/>
<path d="M23.9698 70.2761L16.6543 75.3943L18.562 78.121L25.8776 73.0028L23.9698 70.2761Z" fill="#FC745A"/>
<path d="M158.147 58.544L157.842 61.8593L166.542 62.6613L166.848 59.346L158.147 58.544Z" fill="#FC745A"/>
<path d="M167.008 34.6962C166.877 34.6964 166.747 34.6707 166.626 34.6204C166.505 34.5702 166.395 34.4965 166.302 34.4036L161.641 29.7425C161.545 29.6504 161.469 29.5401 161.417 29.4183C161.365 29.2964 161.337 29.1654 161.336 29.0328C161.335 28.9001 161.36 28.7686 161.41 28.6459C161.461 28.5231 161.535 28.4116 161.628 28.3178C161.722 28.224 161.834 28.1499 161.957 28.0996C162.079 28.0494 162.211 28.0242 162.343 28.0253C162.476 28.0265 162.607 28.054 162.729 28.1064C162.851 28.1587 162.961 28.2348 163.053 28.3302L167.714 32.9913C167.854 33.131 167.949 33.3089 167.987 33.5026C168.026 33.6963 168.006 33.8971 167.931 34.0796C167.855 34.2621 167.727 34.4181 167.563 34.5278C167.399 34.6376 167.206 34.6962 167.008 34.6962Z" fill="#FC745A"/>
<path d="M162.346 34.6962C162.149 34.6962 161.956 34.6376 161.791 34.5278C161.627 34.4181 161.499 34.2621 161.424 34.0796C161.348 33.8971 161.328 33.6963 161.367 33.5026C161.405 33.3089 161.5 33.131 161.64 32.9913L166.301 28.3302C166.393 28.2348 166.504 28.1587 166.625 28.1064C166.747 28.054 166.878 28.0265 167.011 28.0253C167.144 28.0242 167.275 28.0494 167.398 28.0996C167.521 28.1499 167.632 28.224 167.726 28.3178C167.82 28.4116 167.894 28.5231 167.944 28.6459C167.994 28.7686 168.02 28.9001 168.018 29.0328C168.017 29.1654 167.99 29.2964 167.937 29.4183C167.885 29.5401 167.809 29.6504 167.713 29.7425L163.052 34.4036C162.96 34.4965 162.85 34.5701 162.729 34.6204C162.607 34.6706 162.477 34.6964 162.346 34.6962Z" fill="#FC745A"/>
<path opacity="0.4" d="M84.9564 106.722C114.29 106.722 138.069 82.943 138.069 53.6097C138.069 24.2764 114.29 0.49707 84.9564 0.49707C55.6231 0.49707 31.8438 24.2764 31.8438 53.6097C31.8438 82.943 55.6231 106.722 84.9564 106.722Z" fill="#FC745A"/>
<path d="M84.957 90.754C105.471 90.754 122.101 74.1239 122.101 53.6096C122.101 33.0952 105.471 16.4651 84.957 16.4651C64.4426 16.4651 47.8125 33.0952 47.8125 53.6096C47.8125 74.1239 64.4426 90.754 84.957 90.754Z" fill="#FC745A"/>
<path d="M77.3615 69.5449C77.0698 69.5451 76.7812 69.4862 76.5129 69.3717C76.2446 69.2573 76.0023 69.0897 75.8007 68.879L63.9778 56.5748C63.7773 56.3706 63.6191 56.1287 63.5127 55.863C63.4062 55.5973 63.3535 55.3132 63.3576 55.027C63.3618 54.7408 63.4226 54.4583 63.5366 54.1958C63.6507 53.9333 63.8157 53.696 64.022 53.4977C64.2284 53.2994 64.4721 53.144 64.7389 53.0405C65.0057 52.937 65.2905 52.8874 65.5766 52.8947C65.8627 52.902 66.1445 52.966 66.4058 53.0829C66.667 53.1999 66.9024 53.3675 67.0984 53.576L77.4727 64.3724L104.595 40.0419C104.806 39.849 105.053 39.6998 105.322 39.6029C105.591 39.506 105.877 39.4634 106.162 39.4775C106.448 39.4916 106.728 39.5622 106.986 39.6851C107.244 39.8081 107.475 39.9809 107.666 40.1938C107.857 40.4066 108.004 40.6551 108.098 40.925C108.192 41.195 108.232 41.4809 108.216 41.7663C108.199 42.0517 108.125 42.331 108 42.588C107.875 42.8449 107.7 43.0745 107.485 43.2634L78.8064 68.9905C78.4099 69.3477 77.8951 69.5452 77.3615 69.5449Z" fill="white"/>
<path d="M6.31557 46.7048C6.18439 46.7049 6.05448 46.6791 5.9333 46.6289C5.81212 46.5787 5.70206 46.505 5.60943 46.4121L0.948351 41.751C0.766411 41.5627 0.665731 41.3104 0.668007 41.0485C0.670282 40.7866 0.775327 40.5361 0.960513 40.3509C1.1457 40.1657 1.39621 40.0607 1.65809 40.0584C1.91997 40.0561 2.17227 40.1568 2.36065 40.3387L7.02173 44.9998C7.16137 45.1395 7.25647 45.3174 7.29499 45.5112C7.33351 45.7049 7.31373 45.9057 7.23815 46.0882C7.16257 46.2706 7.03458 46.4266 6.87037 46.5364C6.70615 46.6461 6.51309 46.7047 6.31557 46.7048Z" fill="#FC745A"/>
<path d="M1.65484 46.7048C1.45732 46.7047 1.26426 46.6461 1.10005 46.5364C0.935839 46.4266 0.807847 46.2706 0.732268 46.0882C0.656688 45.9057 0.636909 45.7049 0.675431 45.5112C0.713952 45.3174 0.809051 45.1395 0.948693 44.9998L5.60977 40.3387C5.79815 40.1568 6.05045 40.0561 6.31233 40.0584C6.57421 40.0607 6.82472 40.1657 7.00991 40.3509C7.19509 40.5361 7.30014 40.7866 7.30241 41.0485C7.30469 41.3104 7.20401 41.5627 7.02207 41.751L2.36099 46.4121C2.26839 46.505 2.15833 46.5787 2.03714 46.6289C1.91595 46.6792 1.78602 46.7049 1.65484 46.7048Z" fill="#FC745A"/>
<path d="M139.772 91.255L138.441 94.3069L146.629 97.8765L147.96 94.8246L139.772 91.255Z" fill="#FC745A"/>
<path d="M142.357 9.43309L134.656 13.9584L136.343 16.8288L144.044 12.3035L142.357 9.43309Z" fill="#FC745A"/>
<path d="M14.0275 17.1827L12.9961 20.3483L21.4893 23.1156L22.5207 19.95L14.0275 17.1827Z" fill="#FC745A"/>
<path d="M23.9698 70.2761L16.6543 75.3943L18.562 78.121L25.8776 73.0028L23.9698 70.2761Z" fill="#FC745A"/>
<path d="M158.147 58.544L157.842 61.8593L166.542 62.6613L166.848 59.346L158.147 58.544Z" fill="#FC745A"/>
<path d="M167.008 34.6962C166.877 34.6964 166.747 34.6707 166.626 34.6204C166.505 34.5702 166.395 34.4965 166.302 34.4036L161.641 29.7425C161.545 29.6504 161.469 29.5401 161.417 29.4183C161.365 29.2964 161.337 29.1654 161.336 29.0328C161.335 28.9001 161.36 28.7686 161.41 28.6459C161.461 28.5231 161.535 28.4116 161.628 28.3178C161.722 28.224 161.834 28.1499 161.957 28.0996C162.079 28.0494 162.211 28.0242 162.343 28.0253C162.476 28.0265 162.607 28.054 162.729 28.1064C162.851 28.1587 162.961 28.2348 163.053 28.3302L167.714 32.9913C167.854 33.131 167.949 33.3089 167.987 33.5026C168.026 33.6963 168.006 33.8971 167.931 34.0796C167.855 34.2621 167.727 34.4181 167.563 34.5278C167.399 34.6376 167.206 34.6962 167.008 34.6962Z" fill="#FC745A"/>
<path d="M162.346 34.6962C162.149 34.6962 161.956 34.6376 161.791 34.5278C161.627 34.4181 161.499 34.2621 161.424 34.0796C161.348 33.8971 161.328 33.6963 161.367 33.5026C161.405 33.3089 161.5 33.131 161.64 32.9913L166.301 28.3302C166.393 28.2348 166.504 28.1587 166.625 28.1064C166.747 28.054 166.878 28.0265 167.011 28.0253C167.144 28.0242 167.275 28.0494 167.398 28.0996C167.521 28.1499 167.632 28.224 167.726 28.3178C167.82 28.4116 167.894 28.5231 167.944 28.6459C167.994 28.7686 168.02 28.9001 168.018 29.0328C168.017 29.1654 167.99 29.2964 167.937 29.4183C167.885 29.5401 167.809 29.6504 167.713 29.7425L163.052 34.4036C162.96 34.4965 162.85 34.5701 162.729 34.6204C162.607 34.6706 162.477 34.6964 162.346 34.6962Z" fill="#FC745A"/>
<path opacity="0.4" d="M84.9564 106.722C114.29 106.722 138.069 82.943 138.069 53.6097C138.069 24.2764 114.29 0.49707 84.9564 0.49707C55.6231 0.49707 31.8438 24.2764 31.8438 53.6097C31.8438 82.943 55.6231 106.722 84.9564 106.722Z" fill="#FC745A"/>
<path d="M84.957 90.754C105.471 90.754 122.101 74.1239 122.101 53.6096C122.101 33.0952 105.471 16.4651 84.957 16.4651C64.4426 16.4651 47.8125 33.0952 47.8125 53.6096C47.8125 74.1239 64.4426 90.754 84.957 90.754Z" fill="#FC745A"/>
<path d="M77.3615 69.5449C77.0698 69.5451 76.7812 69.4862 76.5129 69.3717C76.2446 69.2573 76.0023 69.0897 75.8007 68.879L63.9778 56.5748C63.7773 56.3706 63.6191 56.1287 63.5127 55.863C63.4062 55.5973 63.3535 55.3132 63.3576 55.027C63.3618 54.7408 63.4226 54.4583 63.5366 54.1958C63.6507 53.9333 63.8157 53.696 64.022 53.4977C64.2284 53.2994 64.4721 53.144 64.7389 53.0405C65.0057 52.937 65.2905 52.8874 65.5766 52.8947C65.8627 52.902 66.1445 52.966 66.4058 53.0829C66.667 53.1999 66.9024 53.3675 67.0984 53.576L77.4727 64.3724L104.595 40.0419C104.806 39.849 105.053 39.6998 105.322 39.6029C105.591 39.506 105.877 39.4634 106.162 39.4775C106.448 39.4916 106.728 39.5622 106.986 39.6851C107.244 39.8081 107.475 39.9809 107.666 40.1938C107.857 40.4066 108.004 40.6551 108.098 40.925C108.192 41.195 108.232 41.4809 108.216 41.7663C108.199 42.0517 108.125 42.331 108 42.588C107.875 42.8449 107.7 43.0745 107.485 43.2634L78.8064 68.9905C78.4099 69.3477 77.8951 69.5452 77.3615 69.5449Z" fill="white"/>
</svg>
