<svg width="31" height="31" viewBox="0 0 31 31" fill="none" xmlns="http://www.w3.org/2000/svg">
<path d="M13.7286 26.0168C16.575 26.0163 19.3393 25.0634 21.5814 23.31L28.6308 30.3594L30.8983 28.0919L23.8489 21.0425C25.6032 18.8001 26.5567 16.0352 26.5574 13.1881C26.5574 6.11467 20.8021 0.359375 13.7286 0.359375C6.65519 0.359375 0.899902 6.11467 0.899902 13.1881C0.899902 20.2616 6.65519 26.0168 13.7286 26.0168ZM13.7286 3.56656C19.0349 3.56656 23.3502 7.88183 23.3502 13.1881C23.3502 18.4944 19.0349 22.8097 13.7286 22.8097C8.42235 22.8097 4.10709 18.4944 4.10709 13.1881C4.10709 7.88183 8.42235 3.56656 13.7286 3.56656Z" fill="#ADABBE"/>
</svg>
