<?xml version="1.0" encoding="utf-8"?>
<!-- Generator: Adobe Illustrator 27.3.1, SVG Export Plug-In . SVG Version: 6.00 Build 0)  -->
<svg version="1.1" id="Layer_1" xmlns="http://www.w3.org/2000/svg" xmlns:xlink="http://www.w3.org/1999/xlink" x="0px" y="0px"
	 viewBox="0 0 340 189" style="enable-background:new 0 0 340 189;" xml:space="preserve">
<style type="text/css">
	.st0{fill:#6C6C6C;}
</style>
<g transform="translate(-613 -287)">
	<g transform="translate(613 287)">
		<path class="st0" d="M121.5,72.4l24-2.5c0,0-5.2-24.9-34.5-29.3c-4.9-0.1-9.8,0.1-14.7,0.6c0,0-33.3,3.4-33.9,3.5S41.8,47,41.8,47
			s-14.6,0.9-21.6,5.9C8.8,59.8,1.3,71.7,0,85C0,89,0.2,93,0.7,97c0,0,1.5,15.9,1.8,18.1c0,0,2.5,32.5,36.5,37.1
			c7,0,14-0.6,20.9-1.6c0,0,41.2-4.3,48.3-5c0,0,21.1,0.4,32.8-16c0,0,7.4-7.4,8.4-22.1l-24.1,2.6c0,0-1.5,10.6-15.2,12.4l-58.6,6
			c0,0-20,5.4-25.5-11.9c0,0-2.4-19.4-2.8-25.9c0,0-2.1-16,14.1-20c0,0,26.9-2.9,30.2-3.2l32.7-3.5
			C100.3,63.9,115.6,60.4,121.5,72.4z"/>
		<path class="st0" d="M147.7,77.3l-37,3.7c0,0-11.5,0.9-11.5,12.5c0,0,1.5,12.8,15.2,10.3l38.6-4l0.4-2.1l3.8-3.8h3.2l0.1-2.9
			c0,0-1.6-2.9-0.6-4.1c0,0-6.3-4.9-7.2-6C152.8,80.8,151.1,77.4,147.7,77.3z"/>
		<path class="st0" d="M182,80.2c0,0-3.8-1.6-1.6-4.3c0,0,44.2,4.7,44.6,4.7s5.9,0.4,5.9,0.4s10.2,1.6,9.9,11.6
			c0,0,0.4,11.6-12.7,11.3l-45.2-4.7l1.5-2.2l-2.4-2.8l2.5-4.6l0.1-2.9h2.4l-2.5-4.6l-0.3-3.8L182,80.2z"/>
		<path class="st0" d="M190.5,107.6l23.7,2.5c0,0,3.8,11.9,16.9,12.5c0,0,54,5.4,56.8,6c0,0,10.7,1.5,15.2-0.3c0,0,10-3.7,11.3-14.4
			l2.7-25.3c0,0,0.9-13.5-14-17.8l-61.8-6.6c0,0-11.9-2.4-17.8,2.5c0,0-3.7,3.2-4.9,5.9l-24.1-2.6c0,0,7.1-26.5,36.4-29.4
			c0,0,15.8,0.4,19,1.5c0,0,48.9,5,50.1,5.3c0,0,20.9,0.1,32.5,17.2c0,0,9.4,10.6,7.2,30l-1.8,17.8c0,0-0.7,23-18.4,33.3
			c0,0-12.7,10-32.2,6l-55.2-5.9c0,0-25.6,0.4-37.4-23C194.6,122.8,190.4,114.5,190.5,107.6z"/>
		<path class="st0" d="M183.7,137.1l29,42.1l13.4-13.4L183.7,137.1z"/>
		<path class="st0" d="M160.3,189h19.1l-9.6-50.5L160.3,189z"/>
		<path class="st0" d="M113.7,166.1l13.3,13.4l29.2-42.1L113.7,166.1z"/>
		<path class="st0" d="M114,23.1l13.3-13.5L155.9,52L114,23.1z"/>
		<path class="st0" d="M160.6,0h19l-9.6,50.4L160.6,0z"/>
		<path class="st0" d="M183.6,52.1L213,9.6l13.3,13.7L183.6,52.1z"/>
	</g>
</g>
</svg>
