<svg id="Component_64_71" data-name="Component_64" xmlns="http://www.w3.org/2000/svg" width="38.275" height="38.275" viewBox="0 0 38.275 38.275">
  <g id="Group_4224" data-name="Group 4224" transform="translate(0 0)">
    <path id="Rectangle_227" data-name="Rectangle 227" d="M19.138,1.5A17.638,17.638,0,0,0,6.666,31.609,17.638,17.638,0,1,0,31.609,6.666,17.522,17.522,0,0,0,19.138,1.5m0-1.5h0a19.138,19.138,0,1,1,0,38.275h0A19.138,19.138,0,0,1,19.138,0Z" transform="translate(0 0)" fill="#646464"/>
  </g>
  <g id="Group_4036" data-name="Group 4036" transform="translate(10.307 10.307)">
    <path id="Subtraction_127" data-name="Subtraction 127" d="M13832.276,17673.5a1.168,1.168,0,0,1-1.167-1.166v-6.746h-6.746a1.167,1.167,0,1,1,0-2.334h6.746v-6.75a1.169,1.169,0,0,1,2.338,0v6.75h6.742a1.167,1.167,0,1,1,0,2.334h-6.742v6.746A1.17,1.17,0,0,1,13832.276,17673.5Z" transform="translate(-13823.445 -17655.582)" fill="#fff"/>
  </g>
</svg>
