<svg width="60" height="71" viewBox="0 0 60 71" fill="none" xmlns="http://www.w3.org/2000/svg">
<path d="M54.375 41.4375C54.375 46.2584 52.9454 50.9711 50.2671 54.9795C47.5887 58.988 43.7819 62.1122 39.3279 63.9571C34.874 65.802 29.973 66.2847 25.2447 65.3441C20.5164 64.4036 16.1732 62.0821 12.7643 58.6732C9.35538 55.2643 7.03389 50.9211 6.09337 46.1928C5.15286 41.4645 5.63556 36.5635 7.48045 32.1096C9.32534 27.6556 12.4495 23.8488 16.458 21.1704C20.4664 18.4921 25.1791 17.0625 30 17.0625H39.75V29.25L54.375 14.625L39.75 0V12.1875H30C24.2149 12.1875 18.5597 13.903 13.7496 17.117C8.93945 20.331 5.1904 24.8993 2.97654 30.244C0.762674 35.5887 0.183426 41.4699 1.31204 47.1439C2.44066 52.8178 5.22645 58.0297 9.31714 62.1204C13.4078 66.2111 18.6197 68.9968 24.2936 70.1255C29.9676 71.2541 35.8488 70.6748 41.1935 68.461C46.5382 66.2471 51.1065 62.4981 54.3205 57.6879C57.5345 52.8778 59.25 47.2226 59.25 41.4375H54.375Z" fill="white"/>
<path d="M38.848 51.5044C37.771 51.5308 36.7026 51.3055 35.728 50.8463C34.8626 50.4071 34.1178 49.7627 33.5586 48.9694C32.9457 48.044 32.5154 47.0097 32.2911 45.9226C32.0031 44.5769 31.8641 43.2036 31.8768 41.8276C31.8669 40.4516 32.0058 39.0786 32.2911 37.7326C32.5199 36.6468 32.9498 35.6134 33.5586 34.6857C34.1178 33.8924 34.8626 33.2481 35.728 32.8088C36.7026 32.3496 37.771 32.1243 38.848 32.1507C39.8607 32.0736 40.8762 32.2572 41.7979 32.6839C42.7195 33.1106 43.5166 33.7662 44.113 34.5882C45.3699 36.7499 45.9633 39.2336 45.8193 41.7301C45.9633 44.2265 45.3699 46.7102 44.113 48.8719C43.5393 49.7298 42.7521 50.4237 41.829 50.8852C40.9059 51.3468 39.8786 51.5602 38.848 51.5044V51.5044ZM38.848 48.5307C39.3394 48.56 39.8291 48.4497 40.2604 48.2125C40.6918 47.9752 41.0471 47.6208 41.2855 47.1901C41.868 46.0499 42.1768 44.7897 42.1874 43.5094V40.1457C42.2401 38.8885 41.998 37.6364 41.4805 36.4894C41.208 36.072 40.8358 35.7291 40.3974 35.4917C39.959 35.2544 39.4684 35.1301 38.9699 35.1301C38.4714 35.1301 37.9807 35.2544 37.5424 35.4917C37.104 35.7291 36.7317 36.072 36.4593 36.4894C35.9417 37.6364 35.6997 38.8885 35.7524 40.1457V43.5094C35.7021 44.7743 35.944 46.0338 36.4593 47.1901C36.6917 47.615 37.039 47.9659 37.4614 48.203C37.8837 48.44 38.3642 48.5536 38.848 48.5307V48.5307ZM16.9105 51.1876V48.3113H21.7855V35.6607L17.2518 38.0982L15.9111 35.5144L21.5661 32.3457H25.1249V48.1894H29.4636V51.1876H16.9105Z" fill="white"/>
</svg>
