<svg width="59" height="71" viewBox="0 0 59 71" fill="none" xmlns="http://www.w3.org/2000/svg">
<path d="M4.87499 41.4375C4.87499 46.2584 6.30456 50.9711 8.98292 54.9795C11.6613 58.988 15.4681 62.1122 19.9221 63.9571C24.376 65.802 29.277 66.2847 34.0053 65.3441C38.7336 64.4036 43.0768 62.0821 46.4857 58.6732C49.8946 55.2643 52.2161 50.9211 53.1566 46.1928C54.0971 41.4645 53.6144 36.5635 51.7696 32.1096C49.9247 27.6556 46.8005 23.8488 42.792 21.1704C38.7836 18.4921 34.0709 17.0625 29.25 17.0625H19.5V29.25L4.87499 14.625L19.5 0V12.1875H29.25C35.0351 12.1875 40.6903 13.903 45.5004 17.117C50.3106 20.331 54.0596 24.8993 56.2735 30.244C58.4873 35.5887 59.0666 41.4699 57.938 47.1439C56.8093 52.8178 54.0235 58.0297 49.9329 62.1204C45.8422 66.2111 40.6303 68.9968 34.9564 70.1255C29.2824 71.2541 23.4012 70.6748 18.0565 68.461C12.7118 66.2471 8.14353 62.4981 4.9295 57.6879C1.71547 52.8778 -1.39475e-05 47.2226 -1.39475e-05 41.4375H4.87499Z" fill="white"/>
<path d="M38.098 51.5044C37.021 51.5308 35.9526 51.3055 34.978 50.8463C34.1126 50.4071 33.3678 49.7627 32.8086 48.9694C32.1957 48.044 31.7654 47.0097 31.5411 45.9226C31.2531 44.5769 31.1141 43.2036 31.1268 41.8276C31.1169 40.4516 31.2558 39.0786 31.5411 37.7326C31.7699 36.6468 32.1998 35.6134 32.8086 34.6857C33.3678 33.8924 34.1126 33.2481 34.978 32.8088C35.9526 32.3496 37.021 32.1243 38.098 32.1507C39.1107 32.0736 40.1262 32.2572 41.0479 32.6839C41.9695 33.1106 42.7666 33.7662 43.363 34.5882C44.6199 36.7499 45.2133 39.2336 45.0693 41.7301C45.2133 44.2265 44.6199 46.7102 43.363 48.8719C42.7893 49.7298 42.0021 50.4237 41.079 50.8852C40.1559 51.3468 39.1286 51.5602 38.098 51.5044V51.5044ZM38.098 48.5307C38.5894 48.56 39.0791 48.4497 39.5104 48.2125C39.9418 47.9752 40.2971 47.6208 40.5355 47.1901C41.118 46.0499 41.4268 44.7897 41.4374 43.5094V40.1457C41.4901 38.8885 41.248 37.6364 40.7305 36.4894C40.458 36.072 40.0858 35.7291 39.6474 35.4917C39.209 35.2544 38.7184 35.1301 38.2199 35.1301C37.7214 35.1301 37.2307 35.2544 36.7924 35.4917C36.354 35.7291 35.9817 36.072 35.7093 36.4894C35.1917 37.6364 34.9497 38.8885 35.0024 40.1457V43.5094C34.9521 44.7743 35.194 46.0338 35.7093 47.1901C35.9417 47.615 36.289 47.9659 36.7114 48.203C37.1337 48.44 37.6142 48.5536 38.098 48.5307V48.5307ZM16.1605 51.1876V48.3113H21.0355V35.6607L16.5018 38.0982L15.1611 35.5144L20.8161 32.3457H24.3749V48.1894H28.7136V51.1876H16.1605Z" fill="white"/>
</svg>
