<svg id="Group_944" data-name="Group 944" xmlns="http://www.w3.org/2000/svg" width="118.125" height="35" viewBox="0 0 118.125 35">
  <path id="Path_389" data-name="Path 389" d="M113.922,35H4.138A4.147,4.147,0,0,1,0,30.859V4.135A4.142,4.142,0,0,1,4.138,0H113.922a4.2,4.2,0,0,1,4.2,4.135V30.859a4.2,4.2,0,0,1-4.2,4.141Z" fill="#a6a6a6"/>
  <path id="Path_390" data-name="Path 390" d="M117.389,30.971a3.351,3.351,0,0,1-3.355,3.351H4.249A3.355,3.355,0,0,1,.89,30.971V4.246A3.36,3.36,0,0,1,4.249.89H114.034a3.355,3.355,0,0,1,3.355,3.356V30.971Z" transform="translate(-0.111 -0.111)"/>
  <g id="Group_940" data-name="Group 940" transform="translate(11.193 5.44)">
    <g id="Group_939" data-name="Group 939">
      <path id="Path_391" data-name="Path 391" d="M27.961,18.857A5.072,5.072,0,0,1,30.377,14.6a5.2,5.2,0,0,0-4.091-2.212c-1.721-.181-3.391,1.03-4.267,1.03-.894,0-2.244-1.012-3.7-.983a5.447,5.447,0,0,0-4.585,2.8c-1.983,3.433-.5,8.477,1.4,11.252.95,1.359,2.061,2.876,3.514,2.823,1.422-.059,1.953-.906,3.669-.906,1.7,0,2.2.906,3.681.872,1.526-.024,2.487-1.365,3.4-2.736a11.228,11.228,0,0,0,1.557-3.17A4.9,4.9,0,0,1,27.961,18.857Z" transform="translate(-12.792 -6.986)" fill="#fff"/>
      <path id="Path_392" data-name="Path 392" d="M26.45,9.795a4.993,4.993,0,0,0,1.143-3.578,5.086,5.086,0,0,0-3.288,1.7,4.751,4.751,0,0,0-1.173,3.446A4.2,4.2,0,0,0,26.45,9.795Z" transform="translate(-14.081 -6.217)" fill="#fff"/>
    </g>
  </g>
  <g id="Group_941" data-name="Group 941" transform="translate(37.109 15.751)">
    <path id="Path_393" data-name="Path 393" d="M52.241,29.84H50.254l-1.089-3.42H45.382l-1.037,3.42H42.41L46.159,18.2h2.315Zm-3.4-4.855-.984-3.041q-.156-.466-.587-2.194H47.23q-.172.743-.553,2.194l-.967,3.041Z" transform="translate(-42.41 -18.025)" fill="#fff"/>
    <path id="Path_394" data-name="Path 394" d="M63.507,25.978a4.771,4.771,0,0,1-1.158,3.385,3.385,3.385,0,0,1-2.574,1.106,2.574,2.574,0,0,1-2.384-1.192h-.035V33.7H55.49V24.647q0-1.347-.069-2.764h1.641l.1,1.331H57.2a3.319,3.319,0,0,1,5.312-.329A4.626,4.626,0,0,1,63.507,25.978Zm-1.9.068a3.457,3.457,0,0,0-.553-2.021,1.91,1.91,0,0,0-1.624-.83,1.94,1.94,0,0,0-1.252.458,2.123,2.123,0,0,0-.734,1.2,2.442,2.442,0,0,0-.087.569v1.4a2.243,2.243,0,0,0,.562,1.547A1.862,1.862,0,0,0,59.378,29a1.91,1.91,0,0,0,1.641-.812A3.574,3.574,0,0,0,61.606,26.047Z" transform="translate(-44.036 -18.465)" fill="#fff"/>
    <path id="Path_395" data-name="Path 395" d="M74.544,25.978a4.768,4.768,0,0,1-1.159,3.385,3.382,3.382,0,0,1-2.573,1.106,2.572,2.572,0,0,1-2.383-1.192h-.035V33.7H66.528V24.647q0-1.347-.069-2.764H68.1l.1,1.331h.035a3.32,3.32,0,0,1,5.313-.329A4.639,4.639,0,0,1,74.544,25.978Zm-1.9.068a3.457,3.457,0,0,0-.554-2.021,1.907,1.907,0,0,0-1.623-.83,1.942,1.942,0,0,0-1.253.458,2.121,2.121,0,0,0-.733,1.2,2.491,2.491,0,0,0-.087.569v1.4a2.25,2.25,0,0,0,.56,1.547A1.866,1.866,0,0,0,70.415,29a1.91,1.91,0,0,0,1.641-.812A3.574,3.574,0,0,0,72.644,26.047Z" transform="translate(-45.416 -18.465)" fill="#fff"/>
    <path id="Path_396" data-name="Path 396" d="M87.007,26.551a3.1,3.1,0,0,1-1.034,2.418A4.584,4.584,0,0,1,82.8,29.988a5.552,5.552,0,0,1-3.018-.725l.432-1.555a5.114,5.114,0,0,0,2.7.744,2.55,2.55,0,0,0,1.642-.476,1.554,1.554,0,0,0,.586-1.272,1.622,1.622,0,0,0-.484-1.194,4.5,4.5,0,0,0-1.606-.9q-3.058-1.141-3.057-3.339a2.955,2.955,0,0,1,1.072-2.353A4.226,4.226,0,0,1,83.916,18a5.652,5.652,0,0,1,2.643.553l-.466,1.521a4.585,4.585,0,0,0-2.229-.535,2.256,2.256,0,0,0-1.536.484,1.383,1.383,0,0,0-.466,1.054,1.423,1.423,0,0,0,.535,1.14,6.042,6.042,0,0,0,1.694.9A5.747,5.747,0,0,1,86.3,24.532,2.958,2.958,0,0,1,87.007,26.551Z" transform="translate(-47.082 -18.001)" fill="#fff"/>
    <path id="Path_397" data-name="Path 397" d="M94.357,23.009H92.3v4.077q0,1.555,1.089,1.555a3.318,3.318,0,0,0,.829-.087l.052,1.417a4.227,4.227,0,0,1-1.451.207,2.238,2.238,0,0,1-1.728-.674,3.31,3.31,0,0,1-.622-2.264V23.007H89.244v-1.4h1.225V20.07l1.832-.553v2.09h2.056Z" transform="translate(-48.264 -18.191)" fill="#fff"/>
    <path id="Path_398" data-name="Path 398" d="M104.516,26.013a4.606,4.606,0,0,1-1.106,3.179,3.949,3.949,0,0,1-3.076,1.278,3.755,3.755,0,0,1-2.944-1.226,4.465,4.465,0,0,1-1.1-3.092,4.561,4.561,0,0,1,1.131-3.2,3.916,3.916,0,0,1,3.049-1.244,3.835,3.835,0,0,1,2.971,1.227A4.414,4.414,0,0,1,104.516,26.013Zm-1.936.06a3.777,3.777,0,0,0-.5-1.992,1.843,1.843,0,0,0-1.675-1,1.871,1.871,0,0,0-1.711,1,3.849,3.849,0,0,0-.5,2.027,3.771,3.771,0,0,0,.5,1.991,1.907,1.907,0,0,0,3.369-.017A3.79,3.79,0,0,0,102.581,26.073Z" transform="translate(-49.145 -18.465)" fill="#fff"/>
    <path id="Path_399" data-name="Path 399" d="M111.979,23.524a3.239,3.239,0,0,0-.588-.052,1.763,1.763,0,0,0-1.521.744,2.8,2.8,0,0,0-.466,1.658V30.28h-1.865l.018-5.752q0-1.452-.07-2.643h1.625l.068,1.607h.052a2.871,2.871,0,0,1,.933-1.33,2.256,2.256,0,0,1,1.348-.45,3,3,0,0,1,.466.034Z" transform="translate(-50.545 -18.465)" fill="#fff"/>
    <path id="Path_400" data-name="Path 400" d="M121.09,25.682a4.376,4.376,0,0,1-.068.846h-5.6a2.436,2.436,0,0,0,.812,1.9,2.772,2.772,0,0,0,1.83.587,6.19,6.19,0,0,0,2.265-.4l.292,1.3a7,7,0,0,1-2.815.519,4.078,4.078,0,0,1-3.068-1.149,4.243,4.243,0,0,1-1.114-3.083,4.81,4.81,0,0,1,1.038-3.161,3.575,3.575,0,0,1,2.936-1.347,3.129,3.129,0,0,1,2.748,1.347A4.541,4.541,0,0,1,121.09,25.682Zm-1.779-.484a2.534,2.534,0,0,0-.362-1.434,1.63,1.63,0,0,0-1.487-.778,1.77,1.77,0,0,0-1.485.76,2.784,2.784,0,0,0-.552,1.451h3.886Z" transform="translate(-51.312 -18.462)" fill="#fff"/>
  </g>
  <g id="Group_943" data-name="Group 943" transform="translate(38.216 5.737)">
    <g id="Group_942" data-name="Group 942">
      <path id="Path_401" data-name="Path 401" d="M48.378,9.614a2.872,2.872,0,0,1-.926,2.326,3.682,3.682,0,0,1-2.435.721,11.29,11.29,0,0,1-1.341-.068V6.965a9.9,9.9,0,0,1,1.579-.119,3.4,3.4,0,0,1,2.266.654A2.641,2.641,0,0,1,48.378,9.614Zm-.967.025a2.091,2.091,0,0,0-.53-1.536,2.09,2.09,0,0,0-1.55-.535,3.881,3.881,0,0,0-.739.06v4.278a4.842,4.842,0,0,0,.619.025,2.169,2.169,0,0,0,1.625-.585A2.344,2.344,0,0,0,47.411,9.639Z" transform="translate(-43.676 -6.592)" fill="#fff"/>
      <path id="Path_402" data-name="Path 402" d="M54.332,10.735a2.262,2.262,0,0,1-.543,1.562,1.939,1.939,0,0,1-1.511.628,1.843,1.843,0,0,1-1.447-.6,2.2,2.2,0,0,1-.538-1.519,2.24,2.24,0,0,1,.556-1.57,1.927,1.927,0,0,1,1.5-.611,1.886,1.886,0,0,1,1.46.6A2.178,2.178,0,0,1,54.332,10.735Zm-.951.03a1.866,1.866,0,0,0-.246-.979.906.906,0,0,0-.822-.494.92.92,0,0,0-.841.494,1.891,1.891,0,0,0-.246,1,1.866,1.866,0,0,0,.246.979.925.925,0,0,0,.832.493.915.915,0,0,0,.822-.5A1.854,1.854,0,0,0,53.381,10.765Z" transform="translate(-44.503 -6.814)" fill="#fff"/>
      <path id="Path_403" data-name="Path 403" d="M61.911,8.719l-1.291,4.125h-.84l-.535-1.791a13.4,13.4,0,0,1-.332-1.333H58.9a9.757,9.757,0,0,1-.332,1.333L58,12.844h-.85L55.935,8.719h.942l.466,1.961q.169.7.28,1.324h.017q.1-.517.34-1.315l.585-1.969h.747l.561,1.927q.2.7.331,1.358h.025a12.974,12.974,0,0,1,.28-1.358l.5-1.927h.9Z" transform="translate(-45.208 -6.826)" fill="#fff"/>
      <path id="Path_404" data-name="Path 404" d="M67.681,12.831h-.917V10.469q0-1.092-.831-1.092a.828.828,0,0,0-.662.3,1.065,1.065,0,0,0-.255.707v2.447H64.1V9.885q0-.543-.033-1.18h.806l.043.645h.025a1.325,1.325,0,0,1,.475-.5,1.55,1.55,0,0,1,.831-.232,1.316,1.316,0,0,1,.96.374,1.815,1.815,0,0,1,.475,1.367Z" transform="translate(-46.225 -6.814)" fill="#fff"/>
      <path id="Path_405" data-name="Path 405" d="M70.957,12.573h-.916V6.556h.916Z" transform="translate(-46.972 -6.556)" fill="#fff"/>
      <path id="Path_406" data-name="Path 406" d="M76.681,10.735a2.262,2.262,0,0,1-.543,1.562,1.941,1.941,0,0,1-1.511.628,1.841,1.841,0,0,1-1.447-.6,2.2,2.2,0,0,1-.538-1.519,2.24,2.24,0,0,1,.556-1.57,1.926,1.926,0,0,1,1.5-.611,1.888,1.888,0,0,1,1.461.6A2.178,2.178,0,0,1,76.681,10.735Zm-.952.03a1.866,1.866,0,0,0-.246-.979.9.9,0,0,0-.822-.494.918.918,0,0,0-.841.494,1.891,1.891,0,0,0-.246,1,1.866,1.866,0,0,0,.246.979.925.925,0,0,0,.832.493.914.914,0,0,0,.822-.5A1.846,1.846,0,0,0,75.729,10.765Z" transform="translate(-47.297 -6.814)" fill="#fff"/>
      <path id="Path_407" data-name="Path 407" d="M81.846,12.832h-.823l-.068-.475h-.025a1.412,1.412,0,0,1-1.2.569,1.243,1.243,0,0,1-.941-.374,1.171,1.171,0,0,1-.323-.84,1.281,1.281,0,0,1,.633-1.154,3.283,3.283,0,0,1,1.779-.39V10.09q0-.815-.857-.815a1.918,1.918,0,0,0-1.075.305l-.186-.6a2.645,2.645,0,0,1,1.415-.356q1.617,0,1.619,1.706v1.519A6.442,6.442,0,0,0,81.846,12.832Zm-.952-1.418v-.636q-1.517-.026-1.517.831a.621.621,0,0,0,.176.484.641.641,0,0,0,.448.161.926.926,0,0,0,.561-.191.783.783,0,0,0,.332-.649Z" transform="translate(-48.024 -6.814)" fill="#fff"/>
      <path id="Path_408" data-name="Path 408" d="M87.723,12.573h-.814l-.043-.662H86.84a1.371,1.371,0,0,1-1.325.756,1.552,1.552,0,0,1-1.239-.585,2.281,2.281,0,0,1-.492-1.519,2.391,2.391,0,0,1,.535-1.621,1.644,1.644,0,0,1,1.273-.578,1.236,1.236,0,0,1,1.162.56h.018V6.556h.918v4.906Q87.69,12.065,87.723,12.573Zm-.95-1.74v-.688a1.349,1.349,0,0,0-.025-.289,1.044,1.044,0,0,0-.332-.556.9.9,0,0,0-.613-.225A.941.941,0,0,0,85,9.485a1.747,1.747,0,0,0-.294,1.044,1.629,1.629,0,0,0,.282.993.944.944,0,0,0,.8.407.884.884,0,0,0,.725-.34A1.13,1.13,0,0,0,86.772,10.834Z" transform="translate(-48.69 -6.556)" fill="#fff"/>
      <path id="Path_409" data-name="Path 409" d="M96.671,10.735a2.262,2.262,0,0,1-.543,1.562,1.938,1.938,0,0,1-1.511.628,1.846,1.846,0,0,1-1.447-.6,2.2,2.2,0,0,1-.538-1.519,2.24,2.24,0,0,1,.556-1.57,1.928,1.928,0,0,1,1.5-.611,1.885,1.885,0,0,1,1.46.6A2.178,2.178,0,0,1,96.671,10.735Zm-.95.03a1.866,1.866,0,0,0-.246-.979.907.907,0,0,0-.823-.494.922.922,0,0,0-.841.494,1.891,1.891,0,0,0-.246,1,1.866,1.866,0,0,0,.246.979.937.937,0,0,0,1.656-.009A1.862,1.862,0,0,0,95.721,10.765Z" transform="translate(-49.795 -6.814)" fill="#fff"/>
      <path id="Path_410" data-name="Path 410" d="M102.367,12.831h-.916V10.469q0-1.092-.832-1.092a.825.825,0,0,0-.662.3,1.061,1.061,0,0,0-.255.707v2.447h-.918V9.885q0-.543-.032-1.18h.805l.043.645h.025a1.338,1.338,0,0,1,.475-.5,1.553,1.553,0,0,1,.832-.232,1.316,1.316,0,0,1,.959.374,1.812,1.812,0,0,1,.475,1.367Z" transform="translate(-50.56 -6.814)" fill="#fff"/>
      <path id="Path_411" data-name="Path 411" d="M109.577,9.259h-1.01v2c0,.509.179.764.535.764a1.615,1.615,0,0,0,.409-.043l.024.7a2.06,2.06,0,0,1-.712.1,1.1,1.1,0,0,1-.848-.331,1.618,1.618,0,0,1-.306-1.112V9.259h-.6V8.572h.6V7.816l.9-.271V8.571h1.01v.688Z" transform="translate(-51.6 -6.68)" fill="#fff"/>
      <path id="Path_412" data-name="Path 412" d="M114.972,12.573h-.918V10.228q0-1.109-.83-1.11a.875.875,0,0,0-.875.643,1.152,1.152,0,0,0-.043.33v2.481h-.916V6.556h.916V9.042h.018a1.386,1.386,0,0,1,1.239-.678,1.278,1.278,0,0,1,.943.374,1.878,1.878,0,0,1,.466,1.383Z" transform="translate(-52.14 -6.556)" fill="#fff"/>
      <path id="Path_413" data-name="Path 413" d="M120.683,10.573a2.215,2.215,0,0,1-.034.416H117.9a1.2,1.2,0,0,0,.4.934,1.366,1.366,0,0,0,.9.289,3.038,3.038,0,0,0,1.112-.2l.144.637a3.453,3.453,0,0,1-1.384.255,2,2,0,0,1-1.506-.564,2.079,2.079,0,0,1-.547-1.515,2.361,2.361,0,0,1,.509-1.553,1.754,1.754,0,0,1,1.442-.661,1.534,1.534,0,0,1,1.348.661A2.2,2.2,0,0,1,120.683,10.573Zm-.875-.237a1.235,1.235,0,0,0-.178-.7.8.8,0,0,0-.73-.382.871.871,0,0,0-.73.374,1.388,1.388,0,0,0-.272.713Z" transform="translate(-52.843 -6.813)" fill="#fff"/>
    </g>
  </g>
</svg>
