<svg xmlns="http://www.w3.org/2000/svg" width="106.808" height="38.756" viewBox="0 0 106.808 38.756">
  <g id="backward" transform="translate(-0.002 2.546)">
    <path id="Union_143" data-name="Union 143" d="M21.8,35.769a1.5,1.5,0,0,1,0-2.121L37.342,18.1,21.8,2.561A1.5,1.5,0,0,1,23.92.439L41.584,18.1,23.92,35.769a1.5,1.5,0,0,1-2.121,0Zm-24,0a1.5,1.5,0,0,1,0-2.121L13.342,18.1-2.2,2.561A1.5,1.5,0,0,1-2.2.439,1.494,1.494,0,0,1-1.14,0,1.492,1.492,0,0,1-.08.439L17.584,18.1-.08,35.769a1.5,1.5,0,0,1-1.061.439A1.5,1.5,0,0,1-2.2,35.769Z" transform="translate(41.585 36.209) rotate(180)" fill="#fff" opacity="0.75"/>
    <text id="_10s" data-name="10s" transform="translate(62.81 28.454)" fill="#fff" font-size="29" font-family="SegoeUI, Segoe UI"><tspan x="0" y="0">10s</tspan></text>
  </g>
</svg>
