<svg id="Component_122_5" data-name="Component 122 – 5" xmlns="http://www.w3.org/2000/svg" width="40" height="40" viewBox="0 0 40 40">
  <rect id="Rectangle_6629" data-name="Rectangle 6629" width="40" height="40" rx="20" fill="#ff1a00"/>
  <path id="Union_385" data-name="Union 385" d="M7.692,19.353V4.14L2.285,9.811a1.393,1.393,0,0,1-1,.4,1.431,1.431,0,0,1-.8-.233.964.964,0,0,1-.2-1.511L7.973.4a.967.967,0,0,1,.1-.094L8.082.3l.03-.021A.257.257,0,0,1,8.151.253s0,0,.006,0L8.174.235a1.408,1.408,0,0,1,.244-.13h0L8.47.087,8.485.081,8.521.07,8.547.061A.194.194,0,0,1,8.572.054L8.6.045a.061.061,0,0,0,.014,0,1.761,1.761,0,0,1,.2-.032h0A1.406,1.406,0,0,1,8.974,0C9,0,9.036,0,9.067,0a.092.092,0,0,1,.025,0h.027c.013,0,.025,0,.038,0a.054.054,0,0,1,.018,0,1.393,1.393,0,0,1,.6.22,1.2,1.2,0,0,1,.244.217l7.647,8.015a.961.961,0,0,1-.2,1.511,1.442,1.442,0,0,1-.8.233,1.391,1.391,0,0,1-1-.4L10.258,4.144V19.353a1.2,1.2,0,0,1-1.284,1.074A1.194,1.194,0,0,1,7.692,19.353Z" transform="translate(11.025 9.786)" fill="#fff"/>
</svg>
