<svg xmlns="http://www.w3.org/2000/svg" xmlns:xlink="http://www.w3.org/1999/xlink" width="92" height="92" viewBox="0 0 92 92">
  <defs>
    <linearGradient id="linear-gradient" x1="0.5" y1="0.117" x2="1.127" y2="2.412" gradientUnits="objectBoundingBox">
      <stop offset="0" stop-color="#f68b1f"/>
      <stop offset="0.82" stop-color="#ed2124"/>
      <stop offset="1" stop-color="#de0084" stop-opacity="0.949"/>
    </linearGradient>
    <linearGradient id="linear-gradient-2" x1="0.5" x2="0.5" y2="1" gradientUnits="objectBoundingBox">
      <stop offset="0" stop-color="#f68b1f"/>
      <stop offset="0.494" stop-color="#ed2124"/>
      <stop offset="1" stop-color="#de0084" stop-opacity="0.949"/>
    </linearGradient>
  </defs>
  <g id="chat" transform="translate(-11.742 0.5)">
    <g id="noun-chat-1540367" transform="translate(33.134 23.211)">
      <path id="Union_6" data-name="Union 6" d="M16.04,52.33a1.51,1.51,0,0,1-1-1.276L13.848,39.879l-.412-.157a22.462,22.462,0,0,1-8.851-5.858A17.666,17.666,0,0,1,.261,25.118C-.7,19.642,1.022,14.051,5.119,9.377A28.3,28.3,0,0,1,21.558.478,31.123,31.123,0,0,1,26.97,0,27.21,27.21,0,0,1,40.05,3.22c5.451,3,8.984,7.666,9.949,13.13.964,5.481-.761,11.07-4.859,15.743a28.386,28.386,0,0,1-16.2,8.857l-.218.041-11.1,11a1.533,1.533,0,0,1-.8.41,1.5,1.5,0,0,1-.253.021A1.654,1.654,0,0,1,16.04,52.33Zm6.1-48.83-.044.007A25.336,25.336,0,0,0,7.534,11.288C3.977,15.28,2.465,20.009,3.274,24.61,4.3,30.417,8.952,35.153,15.728,37.281a1.532,1.532,0,0,1,1.066,1.3l.948,9,9.21-9.078a1.506,1.506,0,0,1,.808-.372l.33-.058.061-.085c.016-.007.03-.009.042-.014,12.052-2.124,20.492-11.591,18.816-21.1a14.281,14.281,0,0,0-2.941-6.453,17.908,17.908,0,0,0-5.68-4.643A24.243,24.243,0,0,0,27.014,3.067,28.083,28.083,0,0,0,22.136,3.5Zm8.533,27.022s-6.746.5-6.746-3.456a6.978,6.978,0,0,1,6.746-7.174,6.977,6.977,0,0,1,6.745,7.174c0,3.158-4.294,3.477-6.031,3.477C30.944,30.543,30.669,30.522,30.669,30.522Zm-10.843-1.5s-5.388.405-5.388-2.766a5.526,5.526,0,0,1,5.362-5.7,5.249,5.249,0,0,1,3.934,1.811A9.026,9.026,0,0,0,22.4,27.09a4.29,4.29,0,0,0,.334,1.693,9.677,9.677,0,0,1-2.29.257C20.065,29.04,19.826,29.021,19.826,29.021ZM16.487,16.076A3.313,3.313,0,1,1,19.8,19.392,3.313,3.313,0,0,1,16.487,16.076ZM26.5,14.29a4.171,4.171,0,1,1,4.17,4.172A4.169,4.169,0,0,1,26.5,14.29Z" fill="url(#linear-gradient)"/>
    </g>
    <path id="Subtraction_12" data-name="Subtraction 12" d="M46,92a46.012,46.012,0,0,1-17.9-88.385A46.012,46.012,0,0,1,63.9,88.385,45.714,45.714,0,0,1,46,92ZM46,2.875A43.137,43.137,0,0,0,29.213,85.736,43.136,43.136,0,0,0,62.786,6.264,42.856,42.856,0,0,0,46,2.875Z" transform="translate(11.742 -0.5)" fill="url(#linear-gradient-2)"/>
  </g>
</svg>
