<svg width="24" height="24" viewBox="0 0 24 24" fill="none" xmlns="http://www.w3.org/2000/svg">
<g clip-path="url(#clip0_881_10379)">
<path d="M6.39981 12L11.1998 16.0001L17.5998 8.00005M11.9998 23.2001C10.529 23.2001 9.0726 22.9104 7.71375 22.3475C6.3549 21.7846 5.12023 20.9597 4.08021 19.9196C3.04019 18.8796 2.21521 17.645 1.65235 16.2861C1.0895 14.9273 0.799805 13.4709 0.799805 12C0.799805 10.5292 1.0895 9.07284 1.65235 7.714C2.21521 6.35515 3.04019 5.12047 4.08021 4.08045C5.12023 3.04044 6.3549 2.21545 7.71375 1.6526C9.0726 1.08975 10.529 0.800049 11.9998 0.800049C14.9702 0.800049 17.819 1.98005 19.9194 4.08045C22.0198 6.18086 23.1998 9.02962 23.1998 12C23.1998 14.9705 22.0198 17.8192 19.9194 19.9196C17.819 22.0201 14.9702 23.2001 11.9998 23.2001Z" stroke="white" stroke-width="1.5"/>
</g>
<defs>
<clipPath id="clip0_881_10379">
<rect width="24" height="24" fill="white"/>
</clipPath>
</defs>
</svg>
