<svg xmlns="http://www.w3.org/2000/svg" width="34" height="34" viewBox="0 0 34 34">
  <g id="Group_5109" data-name="Group 5109" transform="translate(-317 -583)" opacity="0.4">
    <g id="Group_5340" data-name="Group 5340">
      <circle id="Ellipse_819" data-name="Ellipse 819" cx="17" cy="17" r="17" transform="translate(317 583)" fill="#1e1e1e"/>
      <path id="Union_197" data-name="Union 197" d="M22074.084,17653.916l-5.584-5.584-5.586,5.584a2,2,0,0,1-2.832,0,2,2,0,0,1,0-2.82l5.592-5.59-5.586-5.586a2,2,0,1,1,2.826-2.832l5.588,5.588,5.588-5.588a1.977,1.977,0,0,1,1.412-.586,2,2,0,0,1,1.414,3.418l-5.586,5.584,5.586,5.586a2,2,0,1,1-2.832,2.826Zm1.418-1.412-5.586-5.588Zm-8.412-8.414-5.588-5.588Z" transform="translate(-21734.5 -17045.504)" fill="#fff"/>
    </g>
  </g>
</svg>
