<svg xmlns="http://www.w3.org/2000/svg" width="21.601" height="15.508" viewBox="0 0 21.601 15.508">
  <g id="Group_3828" data-name="Group 3828" transform="translate(-323.295 -51.83)">
    <g id="Group_2952" data-name="Group 2952" transform="translate(46.2 12.98)">
      <g id="btn_cast" transform="translate(277.245 39)">
        <g id="Group_412" data-name="Group 412" transform="translate(0 0)">
          <path id="Union_158" data-name="Union 158" d="M20452.789,22608.527a.755.755,0,0,1,0-1.51h8.313a.281.281,0,0,0,.285-.283v-11.922a.286.286,0,0,0-.285-.289h-18.014a.29.29,0,0,0-.285.289v2.055a.752.752,0,0,1-.748.754h-.012a.744.744,0,0,1-.742-.748v-2.061a1.788,1.788,0,0,1,1.787-1.793h18.02a1.793,1.793,0,0,1,1.793,1.793v11.922a1.8,1.8,0,0,1-1.793,1.793Z" transform="translate(-20441.449 -22593.17)" fill="#fff"/>
          <path id="Path_146" data-name="Path 146" d="M2.882,221.984a.6.6,0,0,1-.6-.6A1.682,1.682,0,0,0,.6,219.705a.6.6,0,1,1,0-1.205,2.887,2.887,0,0,1,2.882,2.882A.6.6,0,0,1,2.882,221.984Z" transform="translate(0 -207.052)" fill="#fff"/>
          <path id="Path_146_-_Outline" data-name="Path 146 - Outline" d="M2.882,222.134a.753.753,0,0,1-.753-.753A1.528,1.528,0,0,0,.6,219.855a.753.753,0,0,1,0-1.505,3.035,3.035,0,0,1,3.032,3.032A.753.753,0,0,1,2.882,222.134ZM.6,218.65a.453.453,0,1,0,0,.905,1.829,1.829,0,0,1,1.827,1.827.448.448,0,0,0,.453.453.453.453,0,0,0,.453-.453A2.735,2.735,0,0,0,.6,218.65Z" transform="translate(0 -207.052)" fill="#fff"/>
          <path id="Path_147" data-name="Path 147" d="M6,165.507a.6.6,0,0,1-.6-.6,4.805,4.805,0,0,0-4.8-4.8.6.6,0,1,1,0-1.205,6.011,6.011,0,0,1,6,6A.606.606,0,0,1,6,165.507Z" transform="translate(0 -150.574)" fill="#fff"/>
          <path id="Path_147_-_Outline" data-name="Path 147 - Outline" d="M6,165.657a.753.753,0,0,1-.753-.753A4.655,4.655,0,0,0,.6,160.255a.753.753,0,0,1,0-1.505A6.161,6.161,0,0,1,6.757,164.9.753.753,0,0,1,6,165.657ZM.6,159.05a.453.453,0,0,0,0,.905A4.955,4.955,0,0,1,5.552,164.9a.448.448,0,0,0,.453.453.459.459,0,0,0,.453-.453A5.861,5.861,0,0,0,.6,159.05Z" transform="translate(0 -150.574)" fill="#fff"/>
          <path id="Path_148" data-name="Path 148" d="M8.781,115.284a.6.6,0,0,1-.6-.6A7.584,7.584,0,0,0,.6,107.105a.6.6,0,1,1,0-1.205,8.792,8.792,0,0,1,8.781,8.781A.606.606,0,0,1,8.781,115.284Z" transform="translate(0 -100.351)" fill="#fff"/>
          <path id="Path_148_-_Outline" data-name="Path 148 - Outline" d="M8.781,115.434a.753.753,0,0,1-.753-.753A7.435,7.435,0,0,0,.6,107.255a.753.753,0,1,1,0-1.505,8.941,8.941,0,0,1,8.931,8.931A.753.753,0,0,1,8.781,115.434ZM.6,106.05a.453.453,0,1,0,0,.905,7.735,7.735,0,0,1,7.726,7.726.448.448,0,0,0,.453.453.459.459,0,0,0,.453-.453A8.641,8.641,0,0,0,.6,106.05Z" transform="translate(0 -100.351)" fill="#fff"/>
        </g>
      </g>
    </g>
  </g>
</svg>
