<svg xmlns="http://www.w3.org/2000/svg" width="16" height="16" viewBox="0 0 16 16">
  <g id="close" transform="translate(-317 -583.061)">
    <circle id="Ellipse_819" data-name="Ellipse 819" cx="8" cy="8" r="8" transform="translate(317 583.061)" fill="#1e1e1e" opacity="0.7"/>
    <path id="Union_193" data-name="Union 193" d="M22093.006,22827.107l-2.3-2.26-2.3,2.26a.818.818,0,0,1-.582.238.832.832,0,0,1-.582-.238.8.8,0,0,1,0-1.146l2.3-2.258-2.3-2.26a.8.8,0,0,1,0-1.145.82.82,0,0,1,.582-.234.806.806,0,0,1,.582.234l2.3,2.26,2.3-2.26a.834.834,0,0,1,.584-.234.813.813,0,0,1,.582.234.8.8,0,0,1,0,1.145l-2.3,2.26,2.3,2.258a.8.8,0,0,1,0,1.146.825.825,0,0,1-.582.238A.84.84,0,0,1,22093.006,22827.107Zm.584-.572-2.3-2.26Zm-5.768,0,2.3-2.26ZM22090.705,22823.705Zm.586-.574,2.3-2.258Zm-1.168,0-2.3-2.258Z" transform="translate(-21765.709 -22232.641)" fill="#fff"/>
  </g>
</svg>
