<svg xmlns="http://www.w3.org/2000/svg" width="21.23" height="19.143" viewBox="0 0 21.23 19.143">
  <g id="noun_eye_closed_108706" data-name="noun_eye closed_108706" transform="translate(-4.603 -3.986)">
    <path id="Subtraction_119" data-name="Subtraction 119" d="M5.242,19.143v0l-1.193-.612,2.449-3.8-.484-.236A18.624,18.624,0,0,1,.3,9.937L0,9.57l.284-.352c.475-.583,4.8-5.709,10.331-5.709a9.288,9.288,0,0,1,2.436.331l.406.1L15.988,0l1.194.612-2.449,3.8.484.236a18.281,18.281,0,0,1,5.718,4.577l.3.366-.284.349c-.475.584-4.795,5.712-10.331,5.712a9.548,9.548,0,0,1-2.436-.329l-.407-.107L5.243,19.141ZM14.079,5.479,13.055,7.044,11.833,8.936,8.467,14.12l.706.149a7.148,7.148,0,0,0,1.442.14c3.938,0,7.335-3.168,8.613-4.53l.292-.312-.292-.308a17.552,17.552,0,0,0-4.694-3.553Zm-3.464-.751C6.681,4.729,3.281,7.9,2,9.264l-.292.312L2,9.884a17.385,17.385,0,0,0,4.719,3.553l.463.221,1.3-2.028-.244-.257a2.531,2.531,0,0,1-.337-3.2l0,0a3.193,3.193,0,0,1,2.7-1.382,3.854,3.854,0,0,1,.564.044l.374.063,1.206-1.878-.7-.149A7.117,7.117,0,0,0,10.615,4.729Z" transform="translate(4.603 3.986)" fill="#2d2d2d"/>
  </g>
</svg>
