<?xml version="1.0" encoding="utf-8"?>
<!-- Generator: Adobe Illustrator 27.7.0, SVG Export Plug-In . SVG Version: 6.00 Build 0)  -->
<svg version="1.1" id="Component_126_1" xmlns="http://www.w3.org/2000/svg" xmlns:xlink="http://www.w3.org/1999/xlink" x="0px"
	 y="0px" viewBox="0 0 62 62" style="enable-background:new 0 0 62 62;" xml:space="preserve">
<style type="text/css">
	.st0{fill:#11CCF5;}
	.st1{fill:#F2F2F2;}
</style>
<circle id="Ellipse_891" class="st0" cx="31" cy="31" r="31"/>
<g id="microphone" transform="translate(17.492 13.631)">
	<path id="Path_2614" class="st1" d="M13.5,23.9c4.1,0,7.4-3.3,7.4-7.3V7.3c0-4.1-3.3-7.4-7.4-7.4C9.4,0,6.1,3.3,6.1,7.3v9.2
		C6.2,20.6,9.4,23.9,13.5,23.9z M8.6,7.3c0-2.7,2.2-4.9,4.9-4.9c2.7,0,4.9,2.2,4.9,4.9v9.2c0,2.7-2.2,4.9-4.9,4.9
		c-2.7,0-4.9-2.2-4.9-4.9V7.3z"/>
	<path id="Path_2615" class="st1" d="M24.6,12.2v4.3c-0.1,6.1-5.2,11-11.3,10.8C7.4,27.3,2.6,22.5,2.5,16.5v-4.3H0v4.3
		c0,7,5.3,12.8,12.3,13.4v6.8h2.5v-6.8C21.7,29.3,27,23.5,27,16.5v-4.3H24.6z"/>
</g>
</svg>
