<svg xmlns="http://www.w3.org/2000/svg" width="52.12" height="52.117" viewBox="0 0 52.12 52.117">
  <path id="Correct" d="M0,26.06A26.06,26.06,0,1,1,26.058,52.117,26.058,26.058,0,0,1,0,26.06ZM16.67,3.825a24.139,24.139,0,0,0,0,44.463A24.133,24.133,0,0,0,35.45,3.825a24.193,24.193,0,0,0-18.78,0Zm1.745,30.066A5.323,5.323,0,0,1,17.3,32.76l-2.933-3.774A1.67,1.67,0,1,1,17,26.937l3.014,3.882.018.027a1.367,1.367,0,0,0,.927.581.616.616,0,0,0,.1-.011c.282-.123,1.714-.88,7.71-5.485,3.346-2.571,6.469-5.074,6.5-5.1a1.669,1.669,0,0,1,2.087,2.6c-.032.023-3.323,2.664-6.787,5.318-2.046,1.571-3.751,2.835-5.073,3.77-2.51,1.774-3.177,2.023-3.641,2.138a4.12,4.12,0,0,1-.9.1A4.227,4.227,0,0,1,18.415,33.891Z" fill="#dedede"/>
</svg>
