<svg xmlns="http://www.w3.org/2000/svg" width="34" height="34" viewBox="0 0 34 34">
  <g id="Group_5339" data-name="Group 5339" transform="translate(-317 -583)">
    <circle id="Ellipse_819" data-name="Ellipse 819" cx="17" cy="17" r="17" transform="translate(317 583)" fill="#1e1e1e"/>
    <g id="Group_5056" data-name="Group 5056" transform="translate(-544.5 445.5)">
      <path id="Line_467_-_Outline" data-name="Line 467 - Outline" d="M14,16a1.987,1.987,0,0,1-1.414-.586l-14-14a2,2,0,0,1,0-2.828A1.987,1.987,0,0,1,0-2a1.987,1.987,0,0,1,1.414.586l14,14A2,2,0,0,1,14,16ZM0,0,14,14h0Z" transform="translate(871.5 147.5)" fill="#fff"/>
      <path id="Union_158" data-name="Union 158" d="M23915.082,20293.91a2,2,0,0,1,0-2.82l14.008-14a1.966,1.966,0,0,1,1.414-.59,2,2,0,0,1,1.414,3.418l-14,14a1.995,1.995,0,0,1-2.832,0Z" transform="translate(-23045 -20131)" fill="#fff"/>
    </g>
  </g>
</svg>
