<svg xmlns="http://www.w3.org/2000/svg" width="24" height="24" viewBox="0 0 24 24">
  <g id="Group_1900" data-name="Group 1900" transform="translate(-3466 -114)">
    <g id="Group_1899" data-name="Group 1899" transform="translate(3442.725 17.092)">
      <path id="Path_426" data-name="Path 426" d="M89.594,484.731a.907.907,0,0,1-.6-.964c.021-.441.011-.884,0-1.326,0-.17.051-.225.222-.224,1.015.007,2.03,0,3.044,0h11.456c.3,0,.3,0,.3.3,0,.416-.016.833,0,1.248a.906.906,0,0,1-.6.964Z" transform="translate(-61.222 -368.074)" fill="#fff"/>
      <path id="Path_427" data-name="Path 427" d="M495.061,206.274a.861.861,0,1,1-.91-1.09.88.88,0,0,1,.837.463c.027.052.049.106.073.159Z" transform="translate(-449.785 -101.871)" fill="#fff"/>
      <path id="Path_428" data-name="Path 428" d="M55.7,174.691q-3.63,0-7.26,0c-.2,0-.28-.057-.324-.258-.51-2.328-1.032-4.653-1.549-6.98a.86.86,0,0,1,.649-1.121.893.893,0,0,1,.717.173q1.923,1.283,3.848,2.564c.268.178.268.179.413-.112q1.357-2.712,2.712-5.424a.854.854,0,0,1,.748-.539.832.832,0,0,1,.845.509q.841,1.684,1.683,3.367c.366.733.737,1.463,1.1,2.2.076.155.134.159.271.067q1.976-1.327,3.96-2.642a.86.86,0,0,1,1.361.887q-.642,2.881-1.28,5.763c-.1.431-.2.86-.283,1.294-.038.207-.132.254-.327.254Q59.339,174.686,55.7,174.691Z" transform="translate(-20.429 -61.34)" fill="#fff"/>
      <path id="Path_429" data-name="Path 429" d="M259.924,100.862a.875.875,0,0,1-.857-.861.862.862,0,0,1,1.725.011A.875.875,0,0,1,259.924,100.862Z" transform="translate(-224.647 0)" fill="#fff"/>
      <path id="Path_430" data-name="Path 430" d="M25.275,206.012a.85.85,0,0,1,.844-.845.862.862,0,0,1,.005,1.724A.85.85,0,0,1,25.275,206.012Z" transform="translate(0 -101.861)" fill="#fff"/>
    </g>
    <rect id="Rectangle_366" data-name="Rectangle 366" width="24" height="24" transform="translate(3466 114)" fill="none"/>
  </g>
</svg>
