<svg xmlns="http://www.w3.org/2000/svg" width="20.658" height="19.182" viewBox="0 0 20.658 19.182">
  <path id="Union_435" data-name="Union 435" d="M11765.127,20793.186a5.928,5.928,0,0,1-6.127-5.689v-7.8a5.929,5.929,0,0,1,6.127-5.691h8.4a5.926,5.926,0,0,1,6.127,5.691v7.8a5.924,5.924,0,0,1-6.127,5.689Zm-4.373-5.689a4.235,4.235,0,0,0,4.373,4.066h8.4a4.24,4.24,0,0,0,4.379-4.066v-7.8h-17.156Zm13.549-9.432h3.236a4.394,4.394,0,0,0-4.008-2.437h-.747Zm-6.3,0h4.28l-1.514-2.437h-4.279Zm-6.879,0h4.854l-1.483-2.391A4.365,4.365,0,0,0,11761.119,20778.064Zm5.778,9.8v-4.963a.616.616,0,0,1,.924-.531l4.295,2.479a.612.612,0,0,1,0,1.064l-4.295,2.479a.611.611,0,0,1-.924-.527Z" transform="translate(-11759 -20774.004)" fill="#fff"/>
</svg>
