<svg id="Group_3813" data-name="Group 3813" xmlns="http://www.w3.org/2000/svg" width="27.514" height="27.514" viewBox="0 0 27.514 27.514">
  <g id="Rectangle_847" data-name="Rectangle 847" fill="none" stroke="#707070" stroke-width="1" opacity="0">
    <rect width="27.514" height="27.514" stroke="none"/>
    <rect x="0.5" y="0.5" width="26.514" height="26.514" fill="none"/>
  </g>
  <g id="noun-search-1166289" transform="translate(4.444 3.44)">
    <path id="Path_2489" data-name="Path 2489" d="M156.982,78.4a8.582,8.582,0,1,0,5.4,15.241l5.808,5.808a.89.89,0,0,0,1.258,0,.88.88,0,0,0,0-1.249l-5.808-5.807A8.579,8.579,0,0,0,156.982,78.4Zm0,1.776a6.806,6.806,0,1,1-6.806,6.806A6.793,6.793,0,0,1,156.982,80.175Z" transform="translate(-148.4 -78.399)" fill="#a2a2a2"/>
  </g>
</svg>
