<svg id="Group_3814" data-name="Group 3814" xmlns="http://www.w3.org/2000/svg" width="27.514" height="27.514" viewBox="0 0 27.514 27.514">
  <g id="Rectangle_848" data-name="Rectangle 848" fill="none" stroke="#707070" stroke-width="1" opacity="0">
    <rect width="27.514" height="27.514" stroke="none"/>
    <rect x="0.5" y="0.5" width="26.514" height="26.514" fill="none"/>
  </g>
  <g id="noun-download-4576131" transform="translate(2.293 3.44)">
    <path id="Path_2482" data-name="Path 2482" d="M216.213,72.5a.979.979,0,0,0,.273.191.69.69,0,0,0,.327.055,1.361,1.361,0,0,0,.327-.055.978.978,0,0,0,.273-.191l5.968-5.968a.848.848,0,1,0-1.2-1.2l-4.524,4.524V57.406a.845.845,0,0,0-1.69,0V69.833l-4.524-4.5a.848.848,0,0,0-1.2,1.2Z" transform="translate(-205.912 -56.561)" fill="#a2a2a2"/>
    <path id="Path_2483" data-name="Path 2483" d="M146.957,354.48a.849.849,0,0,0-.845.845,4.687,4.687,0,0,1-4.687,4.687H132.4a4.687,4.687,0,0,1-4.687-4.687.849.849,0,0,0-.845-.845.873.873,0,0,0-.872.845,6.414,6.414,0,0,0,6.4,6.4h9.02a6.391,6.391,0,0,0,6.377-6.4.849.849,0,0,0-.845-.845Z" transform="translate(-126 -339.982)" fill="#a2a2a2"/>
  </g>
</svg>
