<svg id="Group_5348" data-name="Group 5348" xmlns="http://www.w3.org/2000/svg" xmlns:xlink="http://www.w3.org/1999/xlink" width="47.918" height="47.917" viewBox="0 0 47.918 47.917">
  <defs>
    <linearGradient id="linear-gradient" x1="0.216" y1="0.102" x2="0.743" y2="0.915" gradientUnits="objectBoundingBox">
      <stop offset="0" stop-color="#ff9600"/>
      <stop offset="0.075" stop-color="#ff9600"/>
      <stop offset="0.5" stop-color="#ff0032"/>
      <stop offset="1" stop-color="#ff009b"/>
    </linearGradient>
  </defs>
  <g id="Group_5108" data-name="Group 5108">
    <ellipse id="Ellipse_134" data-name="Ellipse 134" cx="23.959" cy="23.959" rx="23.959" ry="23.959" transform="translate(0)" fill="url(#linear-gradient)"/>
    <path id="Ellipse_134_-_Outline" data-name="Ellipse 134 - Outline" d="M23.959,1a22.97,22.97,0,0,0-8.938,44.123A22.97,22.97,0,0,0,32.9,2.8,22.819,22.819,0,0,0,23.959,1m0-1A23.959,23.959,0,1,1,0,23.959,23.959,23.959,0,0,1,23.959,0Z" transform="translate(0)" fill="#414141"/>
  </g>
  <path id="Union_54" data-name="Union 54" d="M3.17,18.822a1,1,0,0,1-1-1V16.643a1,1,0,0,1,1-1H20.623a1,1,0,0,1,1,1v1.179a1,1,0,0,1-1,1Zm8.822-4.541h-9.4a.4.4,0,0,1-.392-.308C1.721,7.186,1.55,6.5,1.468,6.166c-.008-.03-.015-.061-.023-.091s-.016-.068-.024-.1a1.719,1.719,0,0,1,.3-3.412h.025A1.723,1.723,0,0,1,3.439,4.295,1.7,1.7,0,0,1,2.9,5.537a2.256,2.256,0,0,1,.188.45,4.591,4.591,0,0,0,.738,1.481,1.88,1.88,0,0,0,1.547.874,2.627,2.627,0,0,0,.9-.188l.112-.039A15.188,15.188,0,0,0,9.708,4.562l.708-.939.406-.538a.011.011,0,0,1,.005-.007.05.05,0,0,1,0-.007A1.72,1.72,0,0,1,11.894,0H12a1.72,1.72,0,0,1,1.061,3.071l.005.007a.032.032,0,0,1,0,.007l.407.539q.355.468.707.938a15.207,15.207,0,0,0,3.326,3.553c.03.008.067.023.112.039a2.636,2.636,0,0,0,.9.187,1.878,1.878,0,0,0,1.546-.873,4.592,4.592,0,0,0,.739-1.481,2.219,2.219,0,0,1,.187-.45,1.7,1.7,0,0,1-.543-1.242,1.723,1.723,0,0,1,1.695-1.731h.026a1.719,1.719,0,0,1,.3,3.412c-.008.031-.015.063-.024.1s-.014.061-.022.091c-.082.331-.254,1.02-.727,7.806a.4.4,0,0,1-.393.308H11.993Z" transform="translate(12.111 13.656)" fill="#fff" stroke="rgba(0,0,0,0)" stroke-width="1"/>
</svg>
