<svg xmlns="http://www.w3.org/2000/svg" width="112.81" height="38.755" viewBox="0 0 112.81 38.755">
  <g id="forward" transform="translate(0 4.047)">
    <path id="Union_143" data-name="Union 143" d="M6228.8,14107.724a1.5,1.5,0,0,1,0-2.121l15.54-15.544-15.54-15.543a1.5,1.5,0,0,1,2.121-2.121l17.665,17.664-17.665,17.665a1.5,1.5,0,0,1-2.121,0Zm-25,0a1.5,1.5,0,0,1,0-2.121l15.543-15.544-15.543-15.543a1.5,1.5,0,0,1,2.121-2.121l17.665,17.664-17.665,17.665a1.5,1.5,0,0,1-2.121,0Z" transform="translate(-6135.777 -14073.453)" fill="#fff" opacity="0.75"/>
    <text id="_10s" data-name="10s" transform="translate(0 26.953)" fill="#fff" font-size="29" font-family="SegoeUI, Segoe UI"><tspan x="0" y="0">10s</tspan></text>
  </g>
</svg>
