<?xml version="1.0" encoding="utf-8"?>
<!-- Generator: Adobe Illustrator 28.2.0, SVG Export Plug-In . SVG Version: 6.00 Build 0)  -->
<svg version="1.1" id="free" xmlns="http://www.w3.org/2000/svg" xmlns:xlink="http://www.w3.org/1999/xlink" x="0px" y="0px"
	 viewBox="0 0 53.5 34.4" style="enable-background:new 0 0 53.5 34.4;" xml:space="preserve">
<style type="text/css">
	.st0{fill:url(#SVGID_1_);}
	.st1{fill:url(#Path_2674_00000008108446920719491490000001724023745353689277_);}
	.st2{enable-background:new    ;}
	.st3{fill:#FFFFFF;}
</style>
<g id="Path_2675">
	<g>
		
			<linearGradient id="SVGID_1_" gradientUnits="userSpaceOnUse" x1="-4411.6958" y1="3314.8003" x2="-4411.4824" y2="3315.271" gradientTransform="matrix(53.52 0 0 28.589 236129.9219 -94754.8906)">
			<stop  offset="1.598337e-08" style="stop-color:#41E541"/>
			<stop  offset="1" style="stop-color:#13B713"/>
		</linearGradient>
		<path class="st0" d="M45.1,5.9H0v28.6h45.1c1.3,0,2.3-1.6,3-3.5l5.4-9.9L48.1,9.3C47.3,7.4,46.4,5.9,45.1,5.9z"/>
	</g>
</g>
<linearGradient id="Path_2674_00000101070953888151999780000016922630557811954068_" gradientUnits="userSpaceOnUse" x1="0" y1="3" x2="7.9" y2="3">
	<stop  offset="1.598337e-08" style="stop-color:#41E541"/>
	<stop  offset="1" style="stop-color:#13B713"/>
</linearGradient>
<path id="Path_2674" style="fill:url(#Path_2674_00000101070953888151999780000016922630557811954068_);" d="M7.9,0.1L0,5.9h7.8
	L7.9,0.1L7.9,0.1z"/>
<g class="st2">
	<path class="st3" d="M16.9,15.9h-4.3l-0.6,3h4l-0.5,2.2h-4l-1,4.7H7.7l2.6-12.2h7.1L16.9,15.9z"/>
	<path class="st3" d="M23.4,19.6L23.4,19.6c-0.2-0.1-0.3-0.1-0.4-0.2c-0.2-0.1-0.3-0.1-0.5-0.1c-0.3,0-0.6,0.1-0.9,0.3
		c-0.3,0.2-0.5,0.3-0.7,0.6c-0.2,0.3-0.3,0.5-0.5,0.9c-0.2,0.3-0.3,0.7-0.3,1.1l-0.8,3.6h-2.8l1.2-5.5c0.1-0.3,0.1-0.5,0.2-0.9
		c0.1-0.3,0.1-0.6,0.2-0.9s0.1-0.5,0.1-0.8s0.1-0.5,0.1-0.7H21c0,0.2,0,0.3-0.1,0.5c0,0.2,0,0.3-0.1,0.5c0,0.2,0,0.3-0.1,0.4
		c0,0.2,0,0.3-0.1,0.3l0,0c0.3-0.7,0.7-1.1,1.1-1.5c0.4-0.3,0.9-0.5,1.4-0.5c0.2,0,0.3,0,0.4,0c0.2,0,0.3,0.1,0.3,0.1L23.4,19.6z"/>
	<path class="st3" d="M32,19.4c0,0.4-0.1,0.9-0.3,1.2c-0.2,0.3-0.5,0.7-0.9,0.9c-0.4,0.3-1,0.5-1.8,0.6c-0.8,0.2-1.6,0.3-2.8,0.3
		v0.1v0.1c0,0.2,0,0.3,0.1,0.5s0.2,0.3,0.3,0.5c0.2,0.2,0.3,0.3,0.5,0.3c0.3,0.1,0.5,0.2,0.9,0.2c0.2,0,0.4,0,0.7-0.1
		c0.3,0,0.5-0.1,0.8-0.2s0.5-0.2,0.8-0.3c0.3-0.1,0.5-0.2,0.7-0.3l-0.4,2c-0.2,0.1-0.3,0.2-0.6,0.3c-0.3,0.1-0.4,0.2-0.8,0.3
		c-0.3,0.1-0.5,0.1-0.9,0.2c-0.3,0-0.6,0.1-0.9,0.1c-0.7,0-1.2-0.1-1.7-0.3c-0.4-0.2-0.9-0.4-1.1-0.8c-0.3-0.3-0.5-0.7-0.7-1.1
		s-0.2-0.9-0.2-1.4c0-0.8,0.1-1.5,0.3-2.2c0.3-0.7,0.6-1.3,1-1.7c0.4-0.5,1-0.9,1.6-1.2c0.6-0.3,1.4-0.4,2.2-0.4
		c0.6,0,1,0.1,1.5,0.2c0.4,0.2,0.7,0.3,0.9,0.5c0.3,0.3,0.4,0.5,0.6,0.8C31.9,18.8,32,19.1,32,19.4z M29.4,19.5
		c0-0.2-0.1-0.3-0.3-0.5s-0.3-0.2-0.7-0.2c-0.3,0-0.5,0.1-0.7,0.2c-0.3,0.1-0.4,0.3-0.6,0.4c-0.2,0.2-0.3,0.4-0.5,0.7
		c-0.2,0.3-0.3,0.5-0.3,0.9c1,0,1.8-0.1,2.2-0.3C29.1,20.2,29.4,19.9,29.4,19.5z"/>
	<path class="st3" d="M41,19.4c0,0.4-0.1,0.9-0.3,1.2c-0.2,0.3-0.5,0.7-0.9,0.9s-1,0.5-1.8,0.6c-0.8,0.2-1.6,0.3-2.8,0.3v0.1v0.1
		c0,0.2,0,0.3,0.1,0.5s0.2,0.3,0.3,0.5c0.2,0.2,0.3,0.3,0.5,0.3c0.3,0.1,0.5,0.2,0.9,0.2c0.2,0,0.4,0,0.7-0.1s0.5-0.1,0.8-0.2
		s0.5-0.2,0.8-0.3c0.3-0.1,0.5-0.2,0.7-0.3l-0.4,2c-0.2,0.1-0.3,0.2-0.6,0.3c-0.3,0.1-0.4,0.2-0.8,0.3c-0.3,0.1-0.5,0.1-0.9,0.2
		c-0.3,0-0.6,0.1-0.9,0.1c-0.7,0-1.2-0.1-1.7-0.3c-0.4-0.2-0.9-0.4-1.1-0.8c-0.3-0.3-0.5-0.7-0.7-1.1s-0.2-0.9-0.2-1.4
		c0-0.8,0.1-1.5,0.3-2.2c0.3-0.7,0.6-1.3,1-1.7c0.4-0.5,1-0.9,1.6-1.2c0.6-0.3,1.4-0.4,2.2-0.4c0.6,0,1,0.1,1.5,0.2
		c0.4,0.2,0.7,0.3,0.9,0.5c0.3,0.3,0.4,0.5,0.6,0.8C41,18.8,41,19.1,41,19.4z M38.5,19.5c0-0.2-0.1-0.3-0.3-0.5s-0.3-0.2-0.7-0.2
		c-0.3,0-0.5,0.1-0.7,0.2c-0.3,0.1-0.4,0.3-0.6,0.4c-0.2,0.2-0.3,0.4-0.5,0.7c-0.2,0.3-0.3,0.5-0.3,0.9c1,0,1.8-0.1,2.2-0.3
		C38.2,20.2,38.5,19.9,38.5,19.5z"/>
</g>
</svg>
