<svg id="Group_5105" data-name="Group 5105" xmlns="http://www.w3.org/2000/svg" width="24" height="24" viewBox="0 0 24 24">
  <circle id="Ellipse_811" data-name="Ellipse 811" cx="12" cy="12" r="12" fill="#fff"/>
  <path id="Path_2984" data-name="Path 2984" d="M-12464.622,2505.753a2.583,2.583,0,0,1-.778-.121,3.691,3.691,0,0,1-2-1.832l-1.105-1.861a1.5,1.5,0,0,1,.524-2.055,1.5,1.5,0,0,1,2.056.524l1.179,1.985.019.042a1.486,1.486,0,0,0,.158.236c1.613-.9,7.639-4.03,7.905-4.169a1.5,1.5,0,0,1,2.023.638,1.5,1.5,0,0,1-.639,2.023c-.067.035-6.759,3.517-7.984,4.215A2.72,2.72,0,0,1-12464.622,2505.753Z" transform="translate(12473.549 -2489.197)" fill="#0ba400"/>
</svg>
