<svg xmlns="http://www.w3.org/2000/svg" xmlns:xlink="http://www.w3.org/1999/xlink" width="118.125" height="35" viewBox="0 0 118.125 35">
  <defs>
    <linearGradient id="linear-gradient" x1="0.915" y1="6.614" x2="-0.383" y2="5.945" gradientUnits="objectBoundingBox">
      <stop offset="0" stop-color="#00a0ff"/>
      <stop offset="0.007" stop-color="#00a1ff"/>
      <stop offset="0.26" stop-color="#00beff"/>
      <stop offset="0.512" stop-color="#00d2ff"/>
      <stop offset="0.76" stop-color="#00dfff"/>
      <stop offset="1" stop-color="#00e3ff"/>
    </linearGradient>
    <linearGradient id="linear-gradient-2" x1="1.076" y1="17.098" x2="-1.305" y2="17.098" gradientUnits="objectBoundingBox">
      <stop offset="0" stop-color="#ffe000"/>
      <stop offset="0.409" stop-color="#ffbd00"/>
      <stop offset="0.775" stop-color="orange"/>
      <stop offset="1" stop-color="#ff9c00"/>
    </linearGradient>
    <linearGradient id="linear-gradient-3" x1="0.862" y1="10.863" x2="-0.501" y2="9.093" gradientUnits="objectBoundingBox">
      <stop offset="0" stop-color="#ff3a44"/>
      <stop offset="1" stop-color="#c31162"/>
    </linearGradient>
    <linearGradient id="linear-gradient-4" x1="-0.188" y1="13.583" x2="0.421" y2="12.793" gradientUnits="objectBoundingBox">
      <stop offset="0" stop-color="#32a071"/>
      <stop offset="0.068" stop-color="#2da771"/>
      <stop offset="0.476" stop-color="#15cf74"/>
      <stop offset="0.801" stop-color="#06e775"/>
      <stop offset="1" stop-color="#00f076"/>
    </linearGradient>
  </defs>
  <g id="Group_938" data-name="Group 938" transform="translate(-10 -10)">
    <rect id="Rectangle_289" data-name="Rectangle 289" width="118.125" height="35" rx="5" transform="translate(10 10)"/>
    <g id="Group_934" data-name="Group 934" transform="translate(10 10)">
      <g id="Group_933" data-name="Group 933" transform="translate(0 0)">
        <path id="Path_372" data-name="Path 372" d="M123.75,10.7a3.679,3.679,0,0,1,3.675,3.675v26.25A3.679,3.679,0,0,1,123.75,44.3H14.375A3.679,3.679,0,0,1,10.7,40.625V14.375A3.679,3.679,0,0,1,14.375,10.7H123.75m0-.7H14.375A4.388,4.388,0,0,0,10,14.375v26.25A4.388,4.388,0,0,0,14.375,45H123.75a4.388,4.388,0,0,0,4.375-4.375V14.375A4.388,4.388,0,0,0,123.75,10Z" transform="translate(-10 -10)" fill="#a6a6a6"/>
      </g>
    </g>
    <g id="Group_935" data-name="Group 935" transform="translate(46.183 16.008)">
      <path id="Path_373" data-name="Path 373" d="M56.66,19.821a2.37,2.37,0,0,1-.652,1.753,2.544,2.544,0,0,1-1.928.777,2.758,2.758,0,0,1-1.932-4.7,2.641,2.641,0,0,1,1.932-.788,2.718,2.718,0,0,1,1.078.22,2.16,2.16,0,0,1,.821.587l-.461.461a1.776,1.776,0,0,0-1.438-.622,2.126,2.126,0,0,0-1.433,3.61,2.091,2.091,0,0,0,2.9,0,1.656,1.656,0,0,0,.44-1.064H54.079v-.63h2.544A2.238,2.238,0,0,1,56.66,19.821Z" transform="translate(-51.352 -16.866)" fill="#fff" stroke="#fff" stroke-miterlimit="10" stroke-width="0.2"/>
      <path id="Path_374" data-name="Path 374" d="M61.59,17.645H59.2V19.31h2.156v.63H59.2v1.665H61.59v.645H58.525V17H61.59Z" transform="translate(-52.249 -16.883)" fill="#fff" stroke="#fff" stroke-miterlimit="10" stroke-width="0.2"/>
      <path id="Path_375" data-name="Path 375" d="M64.973,22.25H64.3V17.645H62.832V17H66.44v.645H64.973Z" transform="translate(-52.787 -16.883)" fill="#fff" stroke="#fff" stroke-miterlimit="10" stroke-width="0.2"/>
      <path id="Path_376" data-name="Path 376" d="M69.938,22.25V17h.674v5.25Z" transform="translate(-53.675 -16.883)" fill="#fff" stroke="#fff" stroke-miterlimit="10" stroke-width="0.2"/>
      <path id="Path_377" data-name="Path 377" d="M73.822,22.25h-.675V17.645H71.681V17h3.608v.645H73.822Z" transform="translate(-53.893 -16.883)" fill="#fff" stroke="#fff" stroke-miterlimit="10" stroke-width="0.2"/>
      <path id="Path_378" data-name="Path 378" d="M82.949,21.555a2.726,2.726,0,0,1-3.849,0,2.837,2.837,0,0,1,0-3.894,2.718,2.718,0,0,1,3.846,0,2.828,2.828,0,0,1,0,3.89Zm-3.351-.44a2.019,2.019,0,0,0,2.852,0,2.237,2.237,0,0,0,0-3.013,2.019,2.019,0,0,0-2.852,0,2.239,2.239,0,0,0,0,3.013Z" transform="translate(-54.724 -16.866)" fill="#fff" stroke="#fff" stroke-miterlimit="10" stroke-width="0.2"/>
      <path id="Path_379" data-name="Path 379" d="M85.575,22.25V17H86.4l2.551,4.084h.029l-.029-1.011V17h.675v5.25h-.7l-2.67-4.282h-.029l.029,1.012v3.27Z" transform="translate(-55.63 -16.883)" fill="#fff" stroke="#fff" stroke-miterlimit="10" stroke-width="0.2"/>
    </g>
    <path id="Path_380" data-name="Path 380" d="M74.749,31.164a3.721,3.721,0,1,0,3.735,3.721A3.668,3.668,0,0,0,74.749,31.164Zm0,5.976a2.261,2.261,0,1,1,2.1-2.255A2.153,2.153,0,0,1,74.749,37.14ZM66.6,31.164a3.721,3.721,0,1,0,3.735,3.721A3.668,3.668,0,0,0,66.6,31.164Zm0,5.976a2.261,2.261,0,1,1,2.1-2.255A2.153,2.153,0,0,1,66.6,37.14Zm-9.694-4.834v1.578h3.777a3.3,3.3,0,0,1-.859,1.987,3.868,3.868,0,0,1-2.918,1.156,4.2,4.2,0,0,1,0-8.4,4.025,4.025,0,0,1,2.847,1.128l1.114-1.114a5.508,5.508,0,0,0-3.961-1.593,5.78,5.78,0,1,0,0,11.56,5.282,5.282,0,0,0,4.031-1.621A5.217,5.217,0,0,0,62.3,33.292a5.1,5.1,0,0,0-.085-.986Zm39.644,1.226a3.459,3.459,0,0,0-3.186-2.368,3.536,3.536,0,0,0-3.51,3.721,3.642,3.642,0,0,0,3.693,3.721,3.7,3.7,0,0,0,3.1-1.649l-1.269-.846a2.126,2.126,0,0,1-1.832,1.029,1.894,1.894,0,0,1-1.805-1.127l4.976-2.059Zm-5.075,1.241A2.042,2.042,0,0,1,93.421,32.6a1.44,1.44,0,0,1,1.382.789Zm-4.045,3.608h1.634V27.442H87.431ZM84.751,32H84.7a2.579,2.579,0,0,0-1.959-.831,3.725,3.725,0,0,0,0,7.443A2.535,2.535,0,0,0,84.7,37.76h.056V38.3c0,1.424-.76,2.185-1.987,2.185a2.06,2.06,0,0,1-1.875-1.326l-1.424.592a3.546,3.546,0,0,0,3.3,2.2c1.917,0,3.538-1.128,3.538-3.876V31.389H84.751ZM82.877,37.14a2.263,2.263,0,0,1,0-4.511,2.273,2.273,0,0,1,0,4.511Zm21.333-9.7H100.3V38.381h1.632V34.237h2.28a3.4,3.4,0,1,0,0-6.794Zm.042,5.272H101.93V28.965h2.322a1.875,1.875,0,1,1,0,3.749Zm10.09-1.571a3.067,3.067,0,0,0-2.914,1.674l1.45.605a1.547,1.547,0,0,1,1.492-.8,1.572,1.572,0,0,1,1.717,1.408v.112a3.611,3.611,0,0,0-1.7-.422c-1.562,0-3.153.858-3.153,2.462a2.528,2.528,0,0,0,2.716,2.407,2.3,2.3,0,0,0,2.083-1.07h.056v.844h1.576V34.169C117.663,32.227,116.214,31.144,114.343,31.144Zm-.2,5.995c-.535,0-1.281-.267-1.281-.928,0-.844.928-1.168,1.731-1.168a2.913,2.913,0,0,1,1.492.366A1.979,1.979,0,0,1,114.146,37.138Zm9.259-5.756-1.872,4.742h-.056l-1.942-4.742h-1.759l2.913,6.628L119.028,41.7h1.7l4.49-10.315Zm-14.706,7h1.633V27.442H108.7Z" transform="translate(-5.13 -2.131)" fill="#fff"/>
    <g id="Group_937" data-name="Group 937" transform="translate(18.726 16.248)">
      <path id="Path_381" data-name="Path 381" d="M20.377,17.529a1.756,1.756,0,0,0-.4,1.229V38.11a1.755,1.755,0,0,0,.4,1.229l.065.063,10.84-10.84v-.255L20.442,17.465Z" transform="translate(-19.973 -17.181)" fill="url(#linear-gradient)"/>
      <path id="Path_382" data-name="Path 382" d="M36.512,33.21,32.9,29.594v-.255l3.615-3.615.081.047L40.875,28.2a1.328,1.328,0,0,1,0,2.526l-4.281,2.432Z" transform="translate(-21.589 -18.213)" fill="url(#linear-gradient-2)"/>
      <path id="Path_383" data-name="Path 383" d="M35.036,33.7,31.34,30,20.435,40.906a1.424,1.424,0,0,0,1.819.053L35.036,33.7" transform="translate(-20.031 -18.748)" fill="url(#linear-gradient-3)"/>
      <path id="Path_384" data-name="Path 384" d="M35.036,24.7,22.254,17.435a1.424,1.424,0,0,0-1.819.053L31.34,28.393Z" transform="translate(-20.031 -17.14)" fill="url(#linear-gradient-4)"/>
      <g id="Group_936" data-name="Group 936" transform="translate(0 14.868)">
        <path id="Path_385" data-name="Path 385" d="M34.955,34.132l-12.7,7.216a1.457,1.457,0,0,1-1.753.01h0l-.066.065h0l.065.064h0a1.457,1.457,0,0,0,1.753-.01l12.782-7.262Z" transform="translate(-20.031 -34.132)" opacity="0.2"/>
        <path id="Path_386" data-name="Path 386" d="M20.377,42.142a1.755,1.755,0,0,1-.4-1.229v.129a1.752,1.752,0,0,0,.4,1.228l.066-.065Z" transform="translate(-19.973 -34.98)" opacity="0.12"/>
      </g>
      <path id="Path_387" data-name="Path 387" d="M41.392,31.137l-4.363,2.479.081.081,4.281-2.432A1.536,1.536,0,0,0,42.309,30h0A1.628,1.628,0,0,1,41.392,31.137Z" transform="translate(-22.105 -18.748)" opacity="0.12"/>
      <path id="Path_388" data-name="Path 388" d="M22.2,17.563,39.26,27.258a1.628,1.628,0,0,1,.917,1.136h0a1.534,1.534,0,0,0-.917-1.263L22.2,17.435c-1.223-.695-2.223-.117-2.223,1.283v.129C19.973,17.445,20.973,16.868,22.2,17.563Z" transform="translate(-19.973 -17.14)" fill="#fff" opacity="0.25"/>
    </g>
  </g>
</svg>
