<svg xmlns="http://www.w3.org/2000/svg" width="38.275" height="38.275" viewBox="0 0 38.275 38.275">
  <g id="Group_6825" data-name="Group 6825" transform="translate(-28 -105)">
    <g id="Group_6834" data-name="Group 6834">
      <g id="Group_4224" data-name="Group 4224" transform="translate(28 105)">
        <rect id="Rectangle_227" data-name="Rectangle 227" width="38.275" height="38.275" rx="19.138" transform="translate(0 0)" fill="#fb0000"/>
      </g>
      <g id="Group_5353" data-name="Group 5353" transform="translate(38.307 115.305)">
        <path id="Subtraction_127" data-name="Subtraction 127" d="M13832.276,17673.5a1.168,1.168,0,0,1-1.167-1.166v-6.746h-6.746a1.167,1.167,0,1,1,0-2.334h6.746v-6.75a1.169,1.169,0,0,1,2.338,0v6.75h6.742a1.167,1.167,0,1,1,0,2.334h-6.742v6.746A1.17,1.17,0,0,1,13832.276,17673.5Z" transform="translate(-13823.445 -17655.582)" fill="#fff"/>
      </g>
    </g>
  </g>
</svg>
