<svg id="Group_4318" data-name="Group 4318" xmlns="http://www.w3.org/2000/svg" width="46.166" height="46.167" viewBox="0 0 46.166 46.167">
  <g id="Group_6836" data-name="Group 6836">
    <path id="Path_3709" data-name="Path 3709" d="M23.083,1.612a21.477,21.477,0,0,0-8.357,41.256A21.477,21.477,0,0,0,31.44,3.3a21.335,21.335,0,0,0-8.357-1.687m0-1.612A23.083,23.083,0,1,1,0,23.083,23.083,23.083,0,0,1,23.083,0Z" fill="#fff"/>
    <path id="Union_536" data-name="Union 536" d="M22126.967,16206.679a3.179,3.179,0,0,1,.115-.85l-6.687-3.361a3.28,3.28,0,0,1-2.367,1.012,3.2,3.2,0,0,1-1.1-.2,3.267,3.267,0,1,1,3.467-5.327l6.705-3.41a3.343,3.343,0,1,1,3.211,2.416,3.381,3.381,0,0,1-2.256-.872l-6.8,3.45a3.1,3.1,0,0,1,.006,1.333l6.781,3.394a3.332,3.332,0,0,1,2.2-.855h.006a3.267,3.267,0,1,1-3.271,3.267Zm1.8,0a1.464,1.464,0,1,0,1.467-1.461A1.466,1.466,0,0,0,22128.766,16206.679Zm-12.154-6.5a1.464,1.464,0,1,0,1.467-1.461A1.464,1.464,0,0,0,22116.611,16200.18Zm12.154-6.5a1.464,1.464,0,1,0,1.467-1.461A1.464,1.464,0,0,0,22128.766,16193.675Z" transform="translate(-22102.201 -16177.034)" fill="#fff"/>
  </g>
</svg>
