<svg xmlns="http://www.w3.org/2000/svg" width="46.166" height="46.167" viewBox="0 0 46.166 46.167">
  <g id="Group_6848" data-name="Group 6848" transform="translate(-305.834 -289.714)">
    <g id="Group_6846" data-name="Group 6846">
      <g id="Group_6831" data-name="Group 6831" transform="translate(305.834 289.714)">
        <path id="Ellipse_204" data-name="Ellipse 204" d="M23.083,0A23.083,23.083,0,1,1,0,23.083,23.083,23.083,0,0,1,23.083,0Z" transform="translate(0 0)" fill="#fb0000"/>
      </g>
    </g>
    <g id="Group_6847" data-name="Group 6847">
      <g id="Group_4319" data-name="Group 4319" transform="translate(305.834 289.713)">
        <path id="Subtraction_496" data-name="Subtraction 496" d="M2.791,19.795H.2V5.828H2.791V19.794ZM1.473,3.233A1.336,1.336,0,0,1,.446,2.767,1.623,1.623,0,0,1,0,1.616,1.6,1.6,0,0,1,.446.46,1.351,1.351,0,0,1,1.473,0,1.373,1.373,0,0,1,2.517.46a1.614,1.614,0,0,1,.447,1.156,1.607,1.607,0,0,1-.45,1.15A1.352,1.352,0,0,1,1.473,3.233Z" transform="translate(21.603 14.505)" fill="#fff"/>
      </g>
    </g>
  </g>
</svg>
