<svg id="Group_4341" data-name="Group 4341" xmlns="http://www.w3.org/2000/svg" width="46.166" height="46.167" viewBox="0 0 46.166 46.167">
  <g id="Group_6835" data-name="Group 6835">
    <path id="Ellipse_204" data-name="Ellipse 204" d="M23.083,1.612a21.477,21.477,0,0,0-8.357,41.256A21.477,21.477,0,0,0,31.44,3.3a21.335,21.335,0,0,0-8.357-1.687m0-1.612A23.083,23.083,0,1,1,0,23.083,23.083,23.083,0,0,1,23.083,0Z" fill="#fff"/>
    <path id="Union_65" data-name="Union 65" d="M7.981,18.961V11.153H1a1.061,1.061,0,0,1-1-1.115A1.062,1.062,0,0,1,1,8.923H7.981V1.116A1.062,1.062,0,0,1,8.978,0a1.062,1.062,0,0,1,1,1.116V8.923h6.984a1.062,1.062,0,0,1,1,1.116,1.061,1.061,0,0,1-1,1.115H9.976v7.808a1.062,1.062,0,0,1-1,1.116A1.062,1.062,0,0,1,7.981,18.961Z" transform="translate(14.106 13.044)" fill="#fff"/>
  </g>
</svg>
