<svg xmlns="http://www.w3.org/2000/svg" width="38.275" height="38.275" viewBox="0 0 38.275 38.275">
  <g id="Group_6824" data-name="Group 6824" transform="translate(-135 -105)">
    <g id="Group_share" data-name="Group share">
      <rect id="Rectangle_7011" data-name="Rectangle 7011" width="38.275" height="38.275" rx="19.138" transform="translate(135 105)" fill="#fb0000"/>
      <path id="Union_532" data-name="Union 532" d="M14271.18,22308.455a3.173,3.173,0,0,1,.1-.812l-6.489-3.307a3.263,3.263,0,0,1-2.348.988,3.215,3.215,0,0,1-1.1-.193,3.348,3.348,0,0,1,0-6.283,3.215,3.215,0,0,1,1.1-.193,3.256,3.256,0,0,1,2.348.988l6.506-3.352a3.422,3.422,0,0,1,1.748-3.932,3.334,3.334,0,0,1,4.35,1.234,3.436,3.436,0,0,1-.783,4.508,3.3,3.3,0,0,1-2.064.717,3.349,3.349,0,0,1-2.236-.865l-6.607,3.408a3.053,3.053,0,0,1,0,1.248l6.6,3.346a3.277,3.277,0,0,1,2.169-.838h.007a3.338,3.338,0,1,1-3.3,3.338Zm1.917,0a1.371,1.371,0,1,0,1.372-1.387A1.384,1.384,0,0,0,14273.1,22308.455Zm-11.973-6.5a1.372,1.372,0,1,0,1.372-1.389A1.382,1.382,0,0,0,14261.124,22301.957Zm11.973-6.5a1.371,1.371,0,1,0,1.372-1.387A1.383,1.383,0,0,0,14273.1,22295.457Z" transform="translate(-14115.895 -22177.758)" fill="#fff"/>
    </g>
  </g>
</svg>
