<svg width="40" height="40" viewBox="0 0 40 40" fill="none" xmlns="http://www.w3.org/2000/svg">
<path d="M17.105 34.21C20.9001 34.2092 24.5859 32.9387 27.5754 30.6008L36.9746 40L39.9979 36.9767L30.5987 27.5775C32.9378 24.5877 34.2091 20.9011 34.21 17.105C34.21 7.67372 26.5362 0 17.105 0C7.67372 0 0 7.67372 0 17.105C0 26.5362 7.67372 34.21 17.105 34.21ZM17.105 4.27625C24.18 4.27625 29.9337 10.0299 29.9337 17.105C29.9337 24.18 24.18 29.9337 17.105 29.9337C10.0299 29.9337 4.27625 24.18 4.27625 17.105C4.27625 10.0299 10.0299 4.27625 17.105 4.27625Z" fill="#ADABBE"/>
</svg>
