<svg xmlns="http://www.w3.org/2000/svg" width="46.166" height="46.167" viewBox="0 0 46.166 46.167">
  <g id="Group_6845" data-name="Group 6845" transform="translate(-305.834 -167.713)">
    <g id="Group_6844" data-name="Group 6844">
      <g id="Group_6839" data-name="Group 6839">
        <g id="Group_6843" data-name="Group 6843">
          <g id="Group_4319" data-name="Group 4319" transform="translate(305.834 167.713)">
            <g id="Group_6842" data-name="Group 6842">
              <g id="Group_6840" data-name="Group 6840">
                <g id="Group_6841" data-name="Group 6841">
                  <g id="Group_4317" data-name="Group 4317">
                    <g id="Group_6837" data-name="Group 6837">
                      <path id="Ellipse_205" data-name="Ellipse 205" d="M23.083,1.612a21.477,21.477,0,0,0-8.357,41.256A21.477,21.477,0,0,0,31.44,3.3a21.335,21.335,0,0,0-8.357-1.687m0-1.612A23.083,23.083,0,1,1,0,23.083,23.083,23.083,0,0,1,23.083,0Z" fill="#fff"/>
                    </g>
                  </g>
                  <g id="Group_6838" data-name="Group 6838">
                    <path id="Subtraction_496" data-name="Subtraction 496" d="M2.791,19.795H.2V5.828H2.791V19.794ZM1.473,3.233A1.336,1.336,0,0,1,.446,2.767,1.623,1.623,0,0,1,0,1.616,1.6,1.6,0,0,1,.446.46,1.351,1.351,0,0,1,1.473,0,1.373,1.373,0,0,1,2.517.46a1.614,1.614,0,0,1,.447,1.156,1.607,1.607,0,0,1-.45,1.15A1.352,1.352,0,0,1,1.473,3.233Z" transform="translate(21.603 14.505)" fill="#fff"/>
                  </g>
                </g>
              </g>
            </g>
          </g>
        </g>
      </g>
    </g>
  </g>
</svg>
