<svg xmlns="http://www.w3.org/2000/svg" width="55.001" height="55" viewBox="0 0 55.001 55">
  <g id="Group_5074" data-name="Group 5074" transform="translate(-1121.001 -257.105)">
    <path id="Union_192" data-name="Union 192" d="M-15954,17990.6a27.5,27.5,0,0,1,27.5-27.5,27.5,27.5,0,0,1,27.5,27.5,27.5,27.5,0,0,1-27.5,27.5A27.5,27.5,0,0,1-15954,17990.6Zm17.572-23.5a25.463,25.463,0,0,0-8.1,5.467,25.425,25.425,0,0,0-5.467,8.1,25.35,25.35,0,0,0-2,9.926,25.322,25.322,0,0,0,2,9.926,25.4,25.4,0,0,0,5.467,8.107,25.356,25.356,0,0,0,8.1,5.463,25.267,25.267,0,0,0,9.926,2.008,25.25,25.25,0,0,0,9.926-2.008,25.376,25.376,0,0,0,8.108-5.463,25.385,25.385,0,0,0,5.462-8.107,25.322,25.322,0,0,0,2-9.926,25.35,25.35,0,0,0-2-9.926,25.411,25.411,0,0,0-5.462-8.1,25.484,25.484,0,0,0-8.108-5.467,25.316,25.316,0,0,0-9.926-2A25.333,25.333,0,0,0-15936.427,17967.107Zm-.226,32.35a7,7,0,0,1-1.5-1.514l-3.925-5.053a2.235,2.235,0,0,1,.394-3.133,2.235,2.235,0,0,1,3.134.389l4.038,5.2.022.037a1.819,1.819,0,0,0,1.239.777.677.677,0,0,0,.14-.014c.38-.162,2.293-1.18,10.319-7.338,4.481-3.437,8.659-6.789,8.7-6.82a2.228,2.228,0,0,1,3.138.344,2.23,2.23,0,0,1-.344,3.139c-.045.035-4.454,3.568-9.089,7.121-2.735,2.094-5.02,3.791-6.782,5.039-3.365,2.377-4.256,2.717-4.875,2.857a5.345,5.345,0,0,1-1.212.141A5.672,5.672,0,0,1-15936.652,17999.457Z" transform="translate(17075 -17706)" fill="#dedede"/>
  </g>
</svg>
