<svg xmlns="http://www.w3.org/2000/svg" width="14.737" height="17.654" viewBox="0 0 14.737 17.654">
  <g id="Group_5215" data-name="Group 5215" transform="translate(-275.168 -1108.598)">
    <path id="Union_189" data-name="Union 189" d="M.4,8.185A.928.928,0,0,1,0,7.421a.936.936,0,0,1,1.7-.54l3.344,3.345V1.11A.979.979,0,0,1,5.026.934.935.935,0,0,1,6.9.934a.981.981,0,0,1-.012.151v9.14l3.376-3.376A.933.933,0,1,1,11.51,8.2L5.964,13.748Z" transform="translate(276.575 1108.598)" fill="#f2f2f2"/>
    <path id="Union_188" data-name="Union 188" d="M1.607,4.8A1.531,1.531,0,0,1,0,3.361V.9H0A1,1,0,0,1,1.045,0,1,1,0,0,1,2.09.934a.892.892,0,0,1-.028.215V2.955H12.671V1.131a.831.831,0,0,1-.023-.2A1.053,1.053,0,0,1,14.736.9h0V3.361A1.531,1.531,0,0,1,13.13,4.8Z" transform="translate(275.168 1121.456)" fill="#f2f2f2"/>
  </g>
</svg>
