<svg xmlns="http://www.w3.org/2000/svg" width="22.001" height="18.999" viewBox="0 0 22.001 18.999">
  <path id="Union_2" data-name="Union 2" d="M-5724.644-38A1.356,1.356,0,0,1-5726-39.358a1.357,1.357,0,0,1,1.356-1.357h13.2a1.358,1.358,0,0,1,1.358,1.357A1.357,1.357,0,0,1-5711.445-38Zm0-8.142A1.358,1.358,0,0,1-5726-47.5a1.358,1.358,0,0,1,1.358-1.358h19.285A1.358,1.358,0,0,1-5704-47.5a1.358,1.358,0,0,1-1.358,1.357Zm0-8.142A1.358,1.358,0,0,1-5726-55.643,1.358,1.358,0,0,1-5724.643-57h13.2a1.357,1.357,0,0,1,1.356,1.357,1.358,1.358,0,0,1-1.356,1.358Z" transform="translate(5726 57)" fill="#fff"/>
</svg>
