<svg width="59" height="59" viewBox="0 0 59 59" fill="none" xmlns="http://www.w3.org/2000/svg">
<circle cx="29.5" cy="29.5" r="29.5" fill="white"/>
<g clip-path="url(#clip0_2789_12754)">
<path d="M12.3714 24.9802C12.3714 15.9146 19.7212 8.56486 28.7868 8.56486C37.8523 8.56486 45.2021 15.9146 45.2021 24.9802V28.5487H39.4924C39.1138 28.5487 38.7508 28.6991 38.4831 28.9668C38.2154 29.2345 38.065 29.5976 38.065 29.9762V44.2503C38.065 44.6289 38.2154 44.992 38.4831 45.2597C38.7508 45.5274 39.1138 45.6778 39.4924 45.6778H41.6335C43.3371 45.6778 44.9709 45.001 46.1756 43.7964C47.3802 42.5918 48.0569 40.958 48.0569 39.2544V24.9802C48.0569 14.3373 39.4296 5.71002 28.7868 5.71002C18.1439 5.71002 9.5166 14.3373 9.5166 24.9802V39.2544C9.5166 40.958 10.1933 42.5918 11.398 43.7964C12.6026 45.001 14.2364 45.6778 15.94 45.6778H18.0811C18.4597 45.6778 18.8228 45.5274 19.0905 45.2597C19.3581 44.992 19.5085 44.6289 19.5085 44.2503V29.9762C19.5085 29.5976 19.3581 29.2345 19.0905 28.9668C18.8228 28.6991 18.4597 28.5487 18.0811 28.5487H12.3714V24.9802ZM40.9198 31.4036H45.2021V39.2544C45.2021 40.2008 44.8261 41.1085 44.1569 41.7777C43.4877 42.447 42.58 42.8229 41.6335 42.8229H40.9198V31.4036ZM12.3714 31.4036H16.6537V42.8229H15.94C14.9936 42.8229 14.0859 42.447 13.4166 41.7777C12.7474 41.1085 12.3714 40.2008 12.3714 39.2544V31.4036ZM30.2142 27.1213C30.2142 26.7427 30.0638 26.3797 29.7961 26.112C29.5284 25.8443 29.1653 25.6939 28.7868 25.6939C28.4082 25.6939 28.0451 25.8443 27.7774 26.112C27.5097 26.3797 27.3593 26.7427 27.3593 27.1213V45.6778C27.3593 46.0563 27.5097 46.4194 27.7774 46.6871C28.0451 46.9548 28.4082 47.1052 28.7868 47.1052C29.1653 47.1052 29.5284 46.9548 29.7961 46.6871C30.0638 46.4194 30.2142 46.0563 30.2142 45.6778V27.1213ZM23.7908 31.4036C24.1694 31.4036 24.5324 31.554 24.8001 31.8217C25.0678 32.0893 25.2182 32.4524 25.2182 32.831V39.9681C25.2182 40.3467 25.0678 40.7097 24.8001 40.9774C24.5324 41.2451 24.1694 41.3955 23.7908 41.3955C23.4122 41.3955 23.0492 41.2451 22.7815 40.9774C22.5138 40.7097 22.3634 40.3467 22.3634 39.9681V32.831C22.3634 32.4524 22.5138 32.0893 22.7815 31.8217C23.0492 31.554 23.4122 31.4036 23.7908 31.4036ZM35.2102 32.831C35.2102 32.4524 35.0598 32.0893 34.7921 31.8217C34.5244 31.554 34.1613 31.4036 33.7827 31.4036C33.4042 31.4036 33.0411 31.554 32.7734 31.8217C32.5057 32.0893 32.3553 32.4524 32.3553 32.831V39.9681C32.3553 40.3467 32.5057 40.7097 32.7734 40.9774C33.0411 41.2451 33.4042 41.3955 33.7827 41.3955C34.1613 41.3955 34.5244 41.2451 34.7921 40.9774C35.0598 40.7097 35.2102 40.3467 35.2102 39.9681V32.831Z" fill="#FF7B31"/>
</g>
<defs>
<clipPath id="clip0_2789_12754">
<rect width="45.6774" height="45.6774" fill="white" transform="translate(5.70996 5.71002)"/>
</clipPath>
</defs>
</svg>
