<svg xmlns="http://www.w3.org/2000/svg" width="23.589" height="21.848" viewBox="0 0 23.589 21.848">
  <path id="Subtraction_119" data-name="Subtraction 119" d="M18.73,21.848H4.847A3.179,3.179,0,0,1,1.661,18.68v-8H1.215A1.233,1.233,0,0,1,.08,9.918L.07,9.895A1.226,1.226,0,0,1,.416,8.557L9.742.744a3.2,3.2,0,0,1,4.1-.006l9.32,7.814A1.19,1.19,0,0,1,23.509,9.9a1.208,1.208,0,0,1-1.129.783h-.458v8A3.184,3.184,0,0,1,18.73,21.848ZM9.422,12.5h4.745a2.076,2.076,0,0,1,2.078,2.066v5.854h2.491a1.744,1.744,0,0,0,1.746-1.738V9.967a.709.709,0,0,1,.634-.707l.572-.07L12.916,1.834a1.744,1.744,0,0,0-2.245.006L1.893,9.189l.574.07a.716.716,0,0,1,.632.707V18.68a1.745,1.745,0,0,0,1.748,1.738H7.334V14.564A2.079,2.079,0,0,1,9.422,12.5Zm0,1.432a.657.657,0,0,0-.646.635v5.854h6.03V14.564a.635.635,0,0,0-.638-.635Z" fill="#fff"/>
</svg>
