<svg width="26" height="26" viewBox="0 0 26 26" fill="none" xmlns="http://www.w3.org/2000/svg">
<path d="M17.4994 14.0116L16.9538 13.1735L16.9399 13.1826L16.9263 13.1921L17.4994 14.0116ZM17.4994 12.2914L16.9064 13.0966L16.9511 13.1295L16.999 13.1572L17.4994 12.2914ZM10.6051 7.21477L11.1981 6.40953L11.1699 6.38875L11.1402 6.37L10.6051 7.21477ZM9.15979 7.97303L10.1598 7.97013L10.1598 7.96138L10.1596 7.95262L9.15979 7.97303ZM9.18869 17.9452L8.1887 17.9481L8.18878 17.9764L8.19046 18.0046L9.18869 17.9452ZM10.687 18.7762L11.1712 19.6511L11.2172 19.6257L11.2602 19.5956L10.687 18.7762ZM13.0002 23.9998C6.92511 23.9998 2.00024 19.0749 2.00024 12.9998H0.000244141C0.000244141 20.1795 5.82054 25.9998 13.0002 25.9998V23.9998ZM24.0002 12.9998C24.0002 19.0749 19.0754 23.9998 13.0002 23.9998V25.9998C20.1799 25.9998 26.0002 20.1795 26.0002 12.9998H24.0002ZM13.0002 1.99982C19.0754 1.99982 24.0002 6.92468 24.0002 12.9998H26.0002C26.0002 5.82012 20.1799 -0.000183105 13.0002 -0.000183105V1.99982ZM13.0002 -0.000183105C5.82054 -0.000183105 0.000244141 5.82012 0.000244141 12.9998H2.00024C2.00024 6.92468 6.92511 1.99982 13.0002 1.99982V-0.000183105ZM18.045 14.8497C18.5675 14.5095 19.1605 13.9445 19.1594 13.1253C19.1583 12.2836 18.537 11.736 17.9997 11.4256L16.999 13.1572C17.0704 13.1984 17.1213 13.2344 17.1561 13.2628C17.1911 13.2913 17.2052 13.3083 17.2073 13.311C17.209 13.3132 17.1965 13.2979 17.1836 13.2639C17.1771 13.2469 17.1709 13.2263 17.1664 13.2026C17.1619 13.1788 17.1595 13.1537 17.1594 13.128C17.1594 13.1023 17.1618 13.0782 17.1658 13.0564C17.1698 13.0347 17.1751 13.0168 17.1802 13.003C17.1902 12.9758 17.1983 12.9674 17.1912 12.977C17.1838 12.9869 17.1642 13.0108 17.1243 13.0462C17.0846 13.0815 17.0291 13.1246 16.9538 13.1735L18.045 14.8497ZM18.0923 11.4861L11.1981 6.40953L10.0122 8.02002L16.9064 13.0966L18.0923 11.4861ZM11.1402 6.37C10.5982 6.02662 9.86407 5.84652 9.18417 6.16398C8.44904 6.50722 8.14486 7.25199 8.15999 7.99344L10.1596 7.95262C10.1574 7.84685 10.1783 7.82705 10.1633 7.85575C10.1556 7.87049 10.1407 7.89321 10.1156 7.9174C10.0905 7.94171 10.0611 7.96179 10.0303 7.97617C9.96733 8.00557 9.92803 7.99866 9.93629 7.99982C9.94591 8.00116 9.99334 8.01098 10.07 8.05955L11.1402 6.37ZM8.15979 7.97593L8.1887 17.9481L10.1887 17.9423L10.1598 7.97013L8.15979 7.97593ZM8.19046 18.0046C8.22837 18.6414 8.44624 19.4189 9.16866 19.8048C9.88075 20.1851 10.6399 19.9452 11.1712 19.6511L10.2028 17.9012C10.1344 17.9391 10.0791 17.9636 10.037 17.979C10.0162 17.9865 9.9996 17.9915 9.98701 17.9948C9.97442 17.998 9.96652 17.9993 9.96305 17.9998C9.95593 18.0008 9.96917 17.998 9.99791 18.0023C10.0123 18.0044 10.0299 18.0081 10.0497 18.0145C10.0695 18.021 10.0902 18.0296 10.1109 18.0406C10.1315 18.0517 10.1505 18.0642 10.1675 18.0776C10.1844 18.091 10.198 18.1042 10.2085 18.116C10.2297 18.1395 10.2358 18.1542 10.2335 18.1493C10.231 18.1439 10.2215 18.1218 10.2114 18.0766C10.2014 18.0317 10.1919 17.969 10.1869 17.8857L8.19046 18.0046ZM11.2602 19.5956L18.0725 14.8311L16.9263 13.1921L10.1139 17.9567L11.2602 19.5956Z" fill="white"/>
</svg>
