<svg xmlns="http://www.w3.org/2000/svg" width="44.117" height="44.117" viewBox="0 0 44.117 44.117">
  <path id="info" d="M-14929,18085.055a22.05,22.05,0,0,1,22.053-22.055,22.059,22.059,0,0,1,22.064,22.055,22.061,22.061,0,0,1-22.064,22.063A22.052,22.052,0,0,1-14929,18085.055Zm14.105-18.816a20.3,20.3,0,0,0-6.49,4.379,20.446,20.446,0,0,0-4.379,6.492,20.368,20.368,0,0,0-1.6,7.945,20.383,20.383,0,0,0,1.6,7.957,20.446,20.446,0,0,0,4.379,6.492,20.491,20.491,0,0,0,6.49,4.379,20.416,20.416,0,0,0,7.947,1.6,20.422,20.422,0,0,0,7.957-1.6,20.5,20.5,0,0,0,6.492-4.379,20.478,20.478,0,0,0,4.379-6.492,20.381,20.381,0,0,0,1.6-7.957,20.366,20.366,0,0,0-1.6-7.945,20.478,20.478,0,0,0-4.379-6.492,20.307,20.307,0,0,0-6.492-4.379,20.362,20.362,0,0,0-7.957-1.609A20.357,20.357,0,0,0-14914.893,18066.238Zm5.457,29.922a2.494,2.494,0,0,1,2.5-2.5,2.492,2.492,0,0,1,2.49,2.5,2.5,2.5,0,0,1-2.49,2.5A2.5,2.5,0,0,1-14909.436,18096.16Zm1.008-6.527v-17.1c0-.594.664-1.07,1.492-1.07s1.484.477,1.484,1.07v17.1c0,.594-.666,1.07-1.484,1.07S-14908.428,18090.227-14908.428,18089.633Z" transform="translate(14928.998 -18063)" fill="#dedede"/>
</svg>
