<svg id="instagram-logo" xmlns="http://www.w3.org/2000/svg" width="20.06" height="20.06" viewBox="0 0 20.06 20.06">
  <path id="Path_414" data-name="Path 414" d="M14.524,0H5.536A5.542,5.542,0,0,0,0,5.536v8.988A5.542,5.542,0,0,0,5.536,20.06h8.988a5.542,5.542,0,0,0,5.536-5.536V5.536A5.542,5.542,0,0,0,14.524,0ZM18.28,14.524a3.76,3.76,0,0,1-3.756,3.756H5.536A3.76,3.76,0,0,1,1.78,14.524V5.536A3.76,3.76,0,0,1,5.536,1.78h8.988A3.76,3.76,0,0,1,18.28,5.536v8.988Z" transform="translate(0 0)" fill="#fff"/>
  <path id="Path_415" data-name="Path 415" d="M46.137,40.97a5.169,5.169,0,1,0,5.169,5.169A5.175,5.175,0,0,0,46.137,40.97Zm0,8.558a3.389,3.389,0,1,1,3.389-3.389A3.393,3.393,0,0,1,46.137,49.528Z" transform="translate(-36.107 -36.109)" fill="#fff"/>
  <path id="Path_416" data-name="Path 416" d="M120.226,28.251a1.3,1.3,0,1,0,.923.382A1.31,1.31,0,0,0,120.226,28.251Z" transform="translate(-104.81 -24.899)" fill="#fff"/>
</svg>
