<svg xmlns="http://www.w3.org/2000/svg" xmlns:xlink="http://www.w3.org/1999/xlink" width="306.844" height="60.697" viewBox="0 0 306.844 60.697">
  <defs>
    <linearGradient id="linear-gradient" x1="0.5" x2="0.5" y2="1" gradientUnits="objectBoundingBox">
      <stop offset="0" stop-color="#ff9600"/>
      <stop offset="0.501" stop-color="#ff112c"/>
      <stop offset="1" stop-color="#ff0a96"/>
    </linearGradient>
    <linearGradient id="linear-gradient-3" x1="0.174" y1="0.058" x2="0.807" y2="1.079" xlink:href="#linear-gradient"/>
  </defs>
  <g id="Group_3916" data-name="Group 3916" transform="translate(-1130.394 -217.321)">
    <path id="Union_15" data-name="Union 15" d="M4.833,16.448a9.7,9.7,0,0,1-2.673-.318C-.454,15.387-.509,15.262,1,13.021c.464-.69.929-1.017,1.742-.532a5.361,5.361,0,0,0,3.208.45c.67-.04,1.334-.254,1.507-.985s-.293-1.181-.9-1.54A17.636,17.636,0,0,1,4.134,8.835,4.663,4.663,0,0,1,2.45,3.822,4.729,4.729,0,0,1,6.357.234,8.9,8.9,0,0,1,11.5.539c.558.233,1.958.089,1.173,1.32-.549.862-.45,2.778-2.359,2.074a7.069,7.069,0,0,0-2.629-.5,1.33,1.33,0,0,0-1.34.919,1.247,1.247,0,0,0,.493,1.532c.531.353,1.017.778,1.56,1.109,2.516,1.533,3.307,3.114,2.729,5.527a5.507,5.507,0,0,1-5.134,3.925c-.144.008-.287.011-.431.011C5.319,16.456,5.076,16.448,4.833,16.448Zm72.139-.387c-1.066,0-.4-1.012-.318-1.511a40.437,40.437,0,0,0,.812-5.7c-.973,1.251-1.922,2.523-2.928,3.748s-1.879,1.069-2.437-.409c-.4-1.068-.8-2.14-1.2-3.209l-.469.026c-.418,1.991-.88,3.974-1.243,5.975-.269,1.477-1.158,1.32-2.007,1.164a3.393,3.393,0,0,0-.9-.09c-1.34.135-.681-.987-.577-1.511.861-4.352,1.834-8.681,2.672-13.037C68.584.445,69.149.328,70,.348c.156,0,.314,0,.471-.009.783-.03,1.529-.06,1.821,1.115.4,1.623,1.009,3.2,1.491,4.8.395,1.311.855,1.238,1.58.2,1.1-1.586,2.387-3.054,3.407-4.689C79.588.45,80.709.294,82.051.291c1.029,0,1.236.514,1.059,1.343-.981,4.584-1.879,9.191-3.027,13.732a1.117,1.117,0,0,1-1.2.96C78.257,16.327,77.526,16.062,76.972,16.061Zm-49.576.1a3.178,3.178,0,0,0-.911-.119c-1.4.126-.757-1.106-.643-1.681.854-4.28,1.787-8.544,2.722-12.807.1-.469.2-.977.882-1.107A13.31,13.31,0,0,1,35,.347a3.776,3.776,0,0,1,3.155,3.018c.372,2.155.081,4.214-1.9,5.478a1.577,1.577,0,0,0-.672,2.468,15.808,15.808,0,0,1,.7,2c1.041,2.877,1.042,2.791-1.963,2.835-1.1.016-1.262-.571-1.552-1.3a23.188,23.188,0,0,0-2.134-5.106c-.5,2.129-.916,3.716-1.23,5.324-.192.982-.649,1.228-1.179,1.228A3.973,3.973,0,0,1,27.4,16.166Zm3.893-9.92c-.319.575.056.92.755.885a2.3,2.3,0,0,0,2.436-2c.019-1.1-.711-1.457-1.617-1.467h-.034C31.005,3.669,31.773,5.372,31.288,6.246ZM17.583,16.17a3.33,3.33,0,0,0-.951-.1c-1.214.13-.648-1.034-.548-1.548.572-2.968,1.192-5.93,1.917-8.864.336-1.358.043-1.794-1.395-1.826a2.747,2.747,0,0,0-.665.123c-.689.18-1.472.359-1.507-.955-.055-2.04.6-2.687,2.485-2.671h4.07c1.421,0,2.842-.024,4.263.011a3.842,3.842,0,0,0,.4-.023c.541-.05,1.15-.1,1.027.7-.154,1,.316,2.479-1.25,2.85a4.127,4.127,0,0,1-1.343,0c-.814-.085-1.613-.17-2.081.547-.621.951-.551,2.348-.807,3.542-.514,2.395-1.025,4.791-1.572,7.178-.211.921-.678,1.149-1.217,1.149A4.365,4.365,0,0,1,17.583,16.17ZM59.6,14.822c-.075-.591.191-1.626-.943-1.552a6.041,6.041,0,0,1-1.1-.076c-.939-.12-1.9-.24-2.26.681-1.03,2.606-2.922,2.411-5.253,2.129C52.881,10.856,55.628,5.922,58.315.955,58.91-.145,59.846.182,60.681.2c.973.02.949.886,1.04,1.574.545,4.2,1.106,8.4,1.588,12.607.068.594.705,1.8-.708,1.683a3.887,3.887,0,0,0-.907.085,4.959,4.959,0,0,1-.8.091C60.272,16.239,59.747,15.977,59.6,14.822Zm-2.411-4.747c2.132.2,2.132.2,1.646-3.259Zm-10.7,6.085a36.209,36.209,0,0,0-6.19-.006c-1.389.091-1.409-.375-1.154-1.518.947-4.262,1.82-8.542,2.65-12.828C42,.745,42.35.268,43.538.325c1.333.063,2.67.045,4.008.027C48.339.341,49.134.33,49.927.337c.106,0,.229-.009.356-.02.555-.043,1.206-.086.991.753-.248.964.374,2.532-1.31,2.785a11.821,11.821,0,0,1-1.939.073c-.321-.006-.642-.012-.961,0-2.128.048-2.128.051-2.289,2.444a18.547,18.547,0,0,1,2.883.039,2.01,2.01,0,0,0,.649-.072c.6-.125,1.227-.25,1.116.838-.118,1.141.342,2.939-1.911,2.714a8.806,8.806,0,0,0-1.2-.012,9.432,9.432,0,0,1-1.125,0c-1.333-.112-1.613.669-1.714,1.762s.465,1.025,1.017.951a1.969,1.969,0,0,1,.556-.025,2.914,2.914,0,0,0,.688,0,2.08,2.08,0,0,1,.848.046,1.811,1.811,0,0,0,.878-.04c.663-.13,1.324-.26,1.27.942s.026,2.677-1.8,2.678A4.135,4.135,0,0,1,46.486,16.16Z" transform="translate(1298.711 246.467)" stroke="rgba(0,0,0,0)" stroke-width="1" fill="url(#linear-gradient)"/>
    <path id="Union_14" data-name="Union 14" d="M14.9,16.109c-2.681.036-2.667.039-2.189-2.239.856-4.079,1.67-8.167,2.572-12.236.1-.458-.1-1.322.745-1.35a24.059,24.059,0,0,1,3.64.125c.254.031.041.686-.039,1.059C18.723,5.736,17.78,10,16.958,14.28c-.224,1.172-.574,1.959-1.4,1.959A1.955,1.955,0,0,1,14.9,16.109Zm10.541.106c-.2-.007-.4-.016-.6-.011-1.291.028-.867-1.164-.959-1.741-.7-4.379-1.239-8.782-1.9-13.167C21.868.516,21.99.189,22.793.24a1.532,1.532,0,0,0,.193,0C26.389.03,26.4.029,26.678,3.4c.12,1.476.165,2.96.257,4.439.007.108.123.209.38.622,1.1-2.295,2.183-4.328,3.049-6.45C30.936.613,31.722,0,33.238.231A21.548,21.548,0,0,0,36.1.253c-1.375,2.49-2.616,4.748-3.871,7-1.438,2.581-3.006,5.1-4.289,7.752a1.953,1.953,0,0,1-2.02,1.225C25.763,16.228,25.6,16.222,25.442,16.215Zm9.1,0c1.069-5.125,2.109-10.08,3.131-15.039A1.013,1.013,0,0,1,38.851.231c2.517.041,5.035.048,7.55,0,.871-.016,1.065.227.976,1.1C47.105,4,47.149,4,44.561,4.006c-.839,0-1.678.022-2.517.009-1.386-.02-1.289,1.048-1.335,1.906-.046.838.43.76.886.682a1.525,1.525,0,0,1,.5-.035,9.22,9.22,0,0,0,1.738.026c2.417,0,2.9.849,1.774,3.029a.963.963,0,0,1-1.084.538c-.3-.012-.6,0-.9.009a7.055,7.055,0,0,1-1.423-.043c-2.015-.337-3.04.374-2.867,2.646h5.528c-.591,3.434-.591,3.436-3.858,3.442l-2.454,0ZM.067,14.814C1.05,10.365,1.96,5.9,2.966,1.456,3.371-.337,4.547-.075,5.634.188A4.822,4.822,0,0,0,6.751.375c1.335-.022.46,1.221.332,1.878-.629,3.2-1.322,6.388-2.024,9.734h5.7a1.214,1.214,0,0,1,.074.3c-.665,3.829-.665,3.83-4.557,3.832-.508,0-1.016,0-1.523-.007-1.171-.009-2.341-.018-3.51.026q-.085,0-.164,0C.183,16.14-.158,15.829.067,14.814Z" transform="translate(1181.468 246.467)" stroke="rgba(0,0,0,0)" stroke-width="1" fill="url(#linear-gradient)"/>
    <path id="Path_714" data-name="Path 714" d="M401.148,161.371c4.455,0,8.91-.009,13.365.015.435,0,1.2-.294,1.188.513-.011.669-.7.645-1.21.646-8.975.005-93.3.009-102.276,0-.55,0-1.353.088-1.268-.749.07-.694.829-.429,1.291-.431,4.519-.021,84.391-.012,88.911-.012Z" transform="translate(960.39 111.786)" fill="#d20063"/>
    <path id="Path_715" data-name="Path 715" d="M411.007,161.371c4.455,0,8.91-.009,13.365.015.435,0,1.2-.294,1.188.513-.011.669-.7.645-1.21.646-8.975.005-63.161.009-72.135,0-.55,0-1.353.088-1.268-.749.07-.694.829-.429,1.291-.431,4.519-.021,54.25-.012,58.77-.012Z" transform="translate(837.905 111.786)" fill="#fff"/>
    <path id="Path_709" data-name="Path 709" d="M216.437,51.694c2.837,0,5.675-.009,8.512.007.543,0,1.368-.195,1.411.586.047.852-.809.648-1.332.649q-8.8.028-17.6,0c-.527,0-1.383.178-1.316-.672.06-.766.886-.562,1.431-.565,2.966-.016,5.933-.007,8.9-.007" transform="translate(1004.223 185.685)" fill="#d20063"/>
    <path id="Path_710" data-name="Path 710" d="M25.208,110.6q-4.446,0-8.893,0c-.5,0-1.2.107-1.191-.607s.717-.585,1.206-.585q8.892-.006,17.785.02c.452,0,1.188-.257,1.248.5.076.962-.763.665-1.263.67-2.964.027-5.928.013-8.892.013Z" transform="translate(1121.135 150.359)" fill="#d20063"/>
    <path id="Path_711" data-name="Path 711" d="M46.576,124.3c-.962,0-1.924.01-2.887,0-.448-.007-.957,0-.961-.649,0-.531.437-.6.81-.6,2.18-.016,4.36-.015,6.54.015.349,0,.823.042.794.6-.027.523-.473.575-.834.585-1.153.032-2.308.012-3.462.012Z" transform="translate(1104.237 142.003)" fill="#f0eeed"/>
    <path id="Path_712" data-name="Path 712" d="M29.5,124.233c-.56-.268-1.686.4-1.662-.683.022-.991,1.091-.577,1.706-.61s1.676-.283,1.669.631c-.009,1-1.095.478-1.713.661" transform="translate(1113.353 142.096)" fill="#f0eeed"/>
    <path id="Path_706" data-name="Path 706" d="M63.74,90.755c-.838-.33-2.2.433-2.227-.654s1.336-.637,2.069-.6c.773.034,2.19-.6,2.171.672-.016,1.011-1.418.17-2.013.587" transform="translate(1092.737 162.612)" fill="#f0eeed"/>
    <path id="Path_707" data-name="Path 707" d="M192.521,53c-.607-.161-1.495.221-1.5-.58,0-1.086,1.02-.624,1.622-.7.547-.07,1.361-.113,1.312.657-.061.969-1.013.388-1.437.625" transform="translate(1013.455 185.682)" fill="#d20063"/>
    <path id="Path_722" data-name="Path 722" d="M495.88,161.368c.484.15,1.36-.3,1.342.6-.015.784-.832.6-1.379.623-.569.019-1.432.082-1.452-.553-.029-.931.923-.543,1.489-.665" transform="translate(884.656 111.754)" fill="#d20063"/>
    <g id="Group_3216" data-name="Group 3216" transform="translate(1166.648 235.157)">
      <path id="Path_636" data-name="Path 636" d="M90.651,81.151c.272-3.12,1.309-6.589,1.979-10.126.694-3.665,1.518-7.3,2.313-10.949,1.126-5.165,4.728-8.721,10-9.122.578-.044,1.494-.38,1.584.542.085.866-.834.582-1.338.659-5.843.9-8.016,3.3-9.271,9.121-1.3,6.031-2.5,12.085-3.835,18.108-.766,3.454-1.838,8.728,11.581,7.756.422.128,1,.227.78.85-.2.579-.754.362-1.177.28-16.728,1.464-12.615-7.12-12.615-7.12" transform="translate(-90.184 -49.249)" fill="#d20063"/>
      <path id="Path_645" data-name="Path 645" d="M93.493,59.443a14.745,14.745,0,0,1,3.865-7.411c.332-.344.752-.869,1.274-.31.432.464-.043.828-.34,1.128A13.529,13.529,0,0,0,94.7,59.706c-.087.4-.2.919-.77.956-.332.021-.495-.408-.435-1.219" transform="translate(-93.48 -49.348)" fill="#f0eeed"/>
      <path id="Path_660" data-name="Path 660" d="M112.552,46.57c-.185.838-.994.838-1.593,1.073a.468.468,0,0,1-.593-.53c.161-.836.952-.908,1.591-1.1.378-.113.548.181.595.557" transform="translate(-103.813 -45.989)" fill="#f0eeed"/>
      <path id="Path_662" data-name="Path 662" d="M116.563,147.927c-.443,0-1.037.068-1.083-.57-.057-.808.609-.8,1.1-.813s1.2.012,1.2.717c-.008.742-.721.628-1.217.666" transform="translate(-97.904 -108.469)" fill="#d20063"/>
    </g>
    <g id="Group_3218" data-name="Group 3218" transform="translate(1390.32 235.718) rotate(21)">
      <path id="Path_636-2" data-name="Path 636" d="M15.7,29.717c-.272-3.12-1.309-6.589-1.979-10.126-.694-3.665-1.518-7.3-2.313-10.949C10.285,3.477,6.862.5,1.59.1,1.012.052.1-.284.005.638-.079,1.5.84,1.22,1.344,1.3c5.843.9,7.836,2.727,9.092,8.546,1.3,6.031,2.5,12.085,3.835,18.108.766,3.454-.108,7.032-4.545,8.384-.422.128-.968.376-.751,1,.2.579.753.189,1.176.107A7.783,7.783,0,0,0,15.7,29.717" transform="translate(0 0)" fill="#d20063"/>
    </g>
    <path id="Path_713" data-name="Path 713" d="M1.329,109.25c.619.24,1.6-.329,1.625.634s-.961.6-1.507.6-1.5.381-1.445-.662c.047-.883.958-.262,1.327-.573" transform="translate(1130.394 150.441)" fill="#d20063"/>
    <path id="Path_708" data-name="Path 708" d="M52.8,90.785c-.491-.061-1.184.144-1.064-.687.105-.731.775-.5,1.234-.519.484-.015,1.153-.061,1.044.708-.1.739-.795.4-1.214.5" transform="translate(1098.73 162.497)" fill="#f0eeed"/>
    <g id="Group_3217" data-name="Group 3217" transform="translate(1235.309 217.321)">
      <path id="Path_621" data-name="Path 621" d="M302.445,66.351c-1.257-2.22-3.1-4.026-4.161-6.416a19.5,19.5,0,0,1,8.348-25c6.892-3.765,13.832-3.456,20.32.87,6.018,4.014,8.846,9.871,8.585,17.164a18.479,18.479,0,0,1-5.614,12.726,1.032,1.032,0,0,0-.4.819q-3.579-.026-7.158-.052-9.96-.058-19.921-.112m6.908-14.418h-.007c0,3.161.018,6.322-.009,9.483-.01,1.172.258,1.586,1.423.858q7.669-4.79,15.379-9.514c.982-.6.683-.965-.119-1.458q-7.654-4.706-15.268-9.477c-1.082-.677-1.432-.437-1.413.82.046,3.1.015,6.192.015,9.289" transform="translate(-284.978 -19.785)" fill="url(#linear-gradient-3)"/>
      <path id="Path_624" data-name="Path 624" d="M333.058,46.074A22.48,22.48,0,0,1,329.35,58.44a9.408,9.408,0,0,1-.767,1.113.83.83,0,0,1-1.213.132c-.386-.309-.117-.686.085-1.019.567-.935,1.207-1.836,1.676-2.818,4.021-8.431,3.481-16.579-2.3-23.936-5.679-7.231-13.412-10.027-22.367-7.949-9.162,2.126-14.842,8.144-16.864,17.384a21.317,21.317,0,0,0,1.735,13.923c.257.544.886,1.238.075,1.669-1,.531-1.128-.558-1.4-1.107-7.084-14.344,2.394-31.757,18.33-33.7a23.633,23.633,0,0,1,26.713,23.947" transform="translate(-278.265 -13.432)" fill="#f0eeed"/>
      <path id="Path_634" data-name="Path 634" d="M275.689,39.89a27.609,27.609,0,0,1,22.348-27.235,1.285,1.285,0,0,1,.375-.086c.637.086,1.66-.5,1.793.48.112.823-.917.671-1.508.8-10.7,2.341-17.751,8.721-20.812,19.234a25.609,25.609,0,0,0,.928,16.506c.2.542.9,1.28.058,1.643s-.989-.634-1.2-1.176a25.907,25.907,0,0,1-1.979-10.167" transform="translate(-272.174 -7.635)" fill="#d20063"/>
      <path id="Path_637" data-name="Path 637" d="M409.308,59.1a26.3,26.3,0,0,1-1.627,9.445c-.2.648-.523,1.457-1.215,1.191-.805-.31-.2-1.067-.009-1.636a26.68,26.68,0,0,0-1.969-22.553c-.125-.225-.294-.427-.406-.658-.2-.4-.465-.9.024-1.208.514-.319.8.173,1.058.546a23.824,23.824,0,0,1,3.179,7.015,22.409,22.409,0,0,1,.964,7.858" transform="translate(-350.622 -26.677)" fill="#d20063"/>
      <path id="Path_639" data-name="Path 639" d="M266.636,53.045a31.156,31.156,0,0,1,5.811-18.437c.34-.479.7-1.455,1.384-.992.725.489-.08,1.119-.423,1.608a30.269,30.269,0,0,0-5.522,20.03c.026.385.11.768.107,1.152,0,.315-.064.677-.473.72s-.509-.3-.6-.61a2.5,2.5,0,0,1-.123-.565c-.066-1.093-.119-2.187-.157-2.905" transform="translate(-266.636 -20.504)" fill="#f0eeed"/>
      <path id="Path_644" data-name="Path 644" d="M422.816,65.384c-.192.638.448,2.038-.437,2.055-1.235.025-.651-1.419-.707-2.191a30.992,30.992,0,0,0-1.243-6.985c-.151-.488-.572-1.261.252-1.458.559-.133.739.566.868,1.08a35.185,35.185,0,0,1,1.267,7.5" transform="translate(-360.636 -34.764)" fill="#d20063"/>
      <path id="Path_647" data-name="Path 647" d="M374.745,1.113c-.561,1.613-1.222,3.546-1.915,5.468a.6.6,0,0,1-.813.3.568.568,0,0,1-.331-.791c.611-1.88,1.252-3.752,1.9-5.62a.61.61,0,0,1,.737-.455c.361.091.475.392.422,1.093" transform="translate(-330.916 0)" fill="#f0eeed"/>
      <path id="Path_650" data-name="Path 650" d="M383.753,15.88c-.091-.005-.222-.357-.115-.64a12.358,12.358,0,0,1,2.344-3.633.474.474,0,0,1,.793.152c.342.626-1.956,4.164-3.022,4.12" transform="translate(-338.237 -7.01)" fill="#d20063"/>
      <path id="Path_651" data-name="Path 651" d="M396.421,24.6c0-.038-2.234,2.027-2.723,1.942-.438-.076-.764-.437-.52-.806a6.846,6.846,0,0,1,2.564-2.261c.387-.2.75.017.678,1.125" transform="translate(-344.051 -14.33)" fill="#f0eeed"/>
      <path id="Path_653" data-name="Path 653" d="M361.385,7.087c-.19.643.144,1.678-.861,1.838-.675.108-.739-.649-.556-1.135.284-.753-.39-2.074.919-2.178.747-.059.387.907.5,1.475" transform="translate(-323.718 -3.434)" fill="#d20063"/>
      <path id="Path_656" data-name="Path 656" d="M293.811,19.525c.2.085.465.121.5.233.068.21.1.568-.023.683-.784.735-1.6,1.435-2.438,2.111a.442.442,0,0,1-.659-.15c-.077-.137-.132-.4-.057-.491a9.348,9.348,0,0,1,2.675-2.384" transform="translate(-281.613 -11.953)" fill="#f0eeed"/>
      <path id="Path_665" data-name="Path 665" d="M423.535,92.042c.082-.593-.1-1.253.634-1.289.476-.022.548.438.5.842-.055.489.027,1.148-.6,1.256-.784.137-.32-.627-.542-.809" transform="translate(-362.686 -55.557)" fill="#d20063"/>
      <path id="Path_666" data-name="Path 666" d="M329.462,66.352c0-3.1.031-6.193-.015-9.289-.019-1.257.331-1.5,1.413-.82q7.617,4.767,15.268,9.477c.8.493,1.1.854.119,1.458q-7.7,4.739-15.379,9.514c-1.165.728-1.433.314-1.422-.858.027-3.161.009-6.322.009-9.483Z" transform="translate(-305.086 -34.204)" fill="#f0eeed"/>
    </g>
    <path id="Subtraction_15" data-name="Subtraction 15" d="M211.744,27.589H5.351C2.4,27.589,0,25.526,0,22.991L4.586,4.6c0-2.536,2.4-4.6,5.351-4.6H55.992V.9H9.937C7.485.9,5.491,2.562,5.491,4.6v.111L.906,23.094A3.42,3.42,0,0,0,2.25,25.636a4.926,4.926,0,0,0,3.1,1.049H211.744c2.452,0,4.447-1.657,4.447-3.694v-.075l.012-.074,3.044-18.314a3.408,3.408,0,0,0-1.331-2.563A4.921,4.921,0,0,0,214.8.9H133.6V0h81.2c2.95,0,5.351,2.063,5.351,4.6l-3.058,18.392C217.095,25.526,214.694,27.589,211.744,27.589Z" transform="translate(1173.194 241.126)" fill="#fff"/>
    <path id="Path_725" data-name="Path 725" d="M425.8,161.371c4.455,0,8.91-.009,13.365.015.435,0,1.2-.294,1.188.513-.011.669-.7.645-1.21.646q-13.462.008-26.924,0c-.55,0-1.353.088-1.268-.749.07-.694.829-.429,1.291-.431,4.519-.021,9.039-.012,13.559-.012Z" transform="translate(991.102 97.96)" fill="#d20063"/>
    <path id="Path_726" data-name="Path 726" d="M430.868,174.5c.836,0,1.671,0,2.507,0a.578.578,0,1,1,0,1.149q-2.6.008-5.206,0a.532.532,0,0,1-.6-.575.526.526,0,0,1,.6-.572c.9,0,1.8,0,2.7,0" transform="translate(980.923 89.891)" fill="#f0eeed"/>
    <path id="Path_727" data-name="Path 727" d="M452.651,175.552c-.624-.223-1.753.388-1.728-.659.023-.982,1.125-.5,1.736-.527.547-.021,1.54-.434,1.585.474.059,1.174-1.067.435-1.593.712" transform="translate(966.626 90.04)" fill="#f0eeed"/>
    <path id="Path_728" data-name="Path 728" d="M495.88,161.368c.484.15,1.36-.3,1.342.6-.015.784-.832.6-1.379.623-.569.019-1.432.082-1.452-.553-.029-.931.923-.543,1.489-.665" transform="translate(940.016 97.928)" fill="#d20063"/>
    <path id="Path_724" data-name="Path 724" d="M5.312,1.22A14.745,14.745,0,0,1,1.447,8.631c-.332.344-.752.87-1.274.31-.432-.464.043-.828.34-1.128A13.53,13.53,0,0,0,4.107.957c.087-.4.2-.919.77-.956.332-.021.495.408.435,1.219" transform="translate(1394.422 266.408) rotate(-6)" fill="#f0eeed"/>
    <path id="Path_723" data-name="Path 723" d="M0,1.1C.185.264.994.263,1.593.028a.468.468,0,0,1,.593.53c-.161.836-.952.908-1.591,1.1C.217,1.771.047,1.477,0,1.1" transform="translate(1392.032 276.345) rotate(-6)" fill="#f0eeed"/>
  </g>
</svg>
