<svg width="31" height="31" viewBox="0 0 31 31" fill="none" xmlns="http://www.w3.org/2000/svg">
<circle cx="15.5" cy="15.5" r="15.5" fill="white"/>
<path d="M8.5 25C8.0875 25 7.73438 24.8531 7.44063 24.5594C7.14687 24.2656 7 23.9125 7 23.5V12.65C7 12.2375 7.14687 11.8844 7.44063 11.5906C7.73438 11.2969 8.0875 11.15 8.5 11.15H10.25V8.75C10.25 7.43583 10.7134 6.31562 11.6401 5.38937C12.5669 4.46312 13.6878 4 15.0027 4C16.3176 4 17.4375 4.46312 18.3625 5.38937C19.2875 6.31562 19.75 7.43583 19.75 8.75V11.15H21.5C21.9125 11.15 22.2656 11.2969 22.5594 11.5906C22.8531 11.8844 23 12.2375 23 12.65V23.5C23 23.9125 22.8531 24.2656 22.5594 24.5594C22.2656 24.8531 21.9125 25 21.5 25H8.5ZM8.5 23.5H21.5V12.65H8.5V23.5ZM15.0042 20C15.5347 20 15.9875 19.8164 16.3625 19.4492C16.7375 19.082 16.925 18.6406 16.925 18.125C16.925 17.625 16.7361 17.1708 16.3583 16.7625C15.9805 16.3542 15.5263 16.15 14.9958 16.15C14.4653 16.15 14.0125 16.3542 13.6375 16.7625C13.2625 17.1708 13.075 17.6292 13.075 18.1375C13.075 18.6458 13.2639 19.0833 13.6417 19.45C14.0195 19.8167 14.4737 20 15.0042 20ZM11.75 11.15H18.25V8.75C18.25 7.84722 17.9343 7.07986 17.3029 6.44793C16.6716 5.81598 15.9049 5.5 15.003 5.5C14.101 5.5 13.3333 5.81598 12.7 6.44793C12.0667 7.07986 11.75 7.84722 11.75 8.75V11.15Z" fill="#FF8731"/>
</svg>
