<?xml version="1.0" encoding="utf-8"?>
<!-- Generator: Adobe Illustrator 28.2.0, SVG Export Plug-In . SVG Version: 6.00 Build 0)  -->
<svg version="1.1" id="Layer_1" xmlns="http://www.w3.org/2000/svg" xmlns:xlink="http://www.w3.org/1999/xlink" x="0px" y="0px"
	 viewBox="0 0 31 31" style="enable-background:new 0 0 31 31;" xml:space="preserve">
<style type="text/css">
	.st0{fill:url(#SVGID_1_);}
	.st1{fill:#FFFFFF;}
</style>
<radialGradient id="SVGID_1_" cx="15.5" cy="15.5" r="15.5" gradientUnits="userSpaceOnUse">
	<stop  offset="0" style="stop-color:#FF8F43"/>
	<stop  offset="0.8668" style="stop-color:#F97C28"/>
	<stop  offset="0.9533" style="stop-color:#DD6512"/>
</radialGradient>
<circle class="st0" cx="15.5" cy="15.5" r="15.5"/>
<path class="st1" d="M8.5,25c-0.4,0-0.8-0.1-1.1-0.4C7.1,24.3,7,23.9,7,23.5V12.6c0-0.4,0.1-0.8,0.4-1.1c0.3-0.3,0.6-0.4,1.1-0.4
	h1.8V8.8c0-1.3,0.5-2.4,1.4-3.4C12.6,4.5,13.7,4,15,4s2.4,0.5,3.4,1.4c0.9,0.9,1.4,2,1.4,3.4v2.4h1.8c0.4,0,0.8,0.1,1.1,0.4
	c0.3,0.3,0.4,0.6,0.4,1.1v10.9c0,0.4-0.1,0.8-0.4,1.1c-0.3,0.3-0.6,0.4-1.1,0.4H8.5z M8.5,23.5h13V12.6h-13V23.5z M15,20
	c0.5,0,1-0.2,1.4-0.6c0.4-0.4,0.6-0.8,0.6-1.3c0-0.5-0.2-1-0.6-1.4c-0.4-0.4-0.8-0.6-1.4-0.6s-1,0.2-1.4,0.6
	c-0.4,0.4-0.6,0.9-0.6,1.4c0,0.5,0.2,0.9,0.6,1.3C14,19.8,14.5,20,15,20z M11.8,11.1h6.5V8.8c0-0.9-0.3-1.7-0.9-2.3
	c-0.6-0.6-1.4-0.9-2.3-0.9c-0.9,0-1.7,0.3-2.3,0.9c-0.6,0.6-0.9,1.4-0.9,2.3V11.1z"/>
</svg>
