<svg width="62" height="72" viewBox="0 0 62 72" fill="none" xmlns="http://www.w3.org/2000/svg">
<path d="M8.25518 71.1489C6.1644 71.1489 4.3752 70.4939 2.88758 69.184C1.39742 67.8717 0.652344 66.295 0.652344 64.4539V30.9787C0.652344 29.1376 1.39742 27.5609 2.88758 26.2487C4.3752 24.9387 6.1644 24.2837 8.25518 24.2837H12.0566V17.5887C12.0566 12.9579 13.9104 9.01009 17.6181 5.74514C21.3232 2.48243 25.8051 0.851074 31.0637 0.851074C36.3223 0.851074 40.8055 2.48243 44.5131 5.74514C48.2182 9.01009 50.0708 12.9579 50.0708 17.5887V24.2837H53.8722C55.963 24.2837 57.7534 24.9387 59.2436 26.2487C60.7312 27.5609 61.475 29.1376 61.475 30.9787V64.4539C61.475 66.295 60.7312 67.8717 59.2436 69.184C57.7534 70.4939 55.963 71.1489 53.8722 71.1489H8.25518ZM31.0637 54.4114C33.1545 54.4114 34.9449 53.7564 36.4351 52.4464C37.9227 51.1341 38.6665 49.5575 38.6665 47.7163C38.6665 45.8752 37.9227 44.2985 36.4351 42.9863C34.9449 41.6763 33.1545 41.0213 31.0637 41.0213C28.9729 41.0213 27.1837 41.6763 25.6961 42.9863C24.2059 44.2985 23.4609 45.8752 23.4609 47.7163C23.4609 49.5575 24.2059 51.1341 25.6961 52.4464C27.1837 53.7564 28.9729 54.4114 31.0637 54.4114ZM19.6594 24.2837H42.4679V17.5887C42.4679 14.7991 41.3592 12.4279 39.1417 10.4752C36.9242 8.52247 34.2315 7.54611 31.0637 7.54611C27.8958 7.54611 25.2032 8.52247 22.9857 10.4752C20.7682 12.4279 19.6594 14.7991 19.6594 17.5887V24.2837Z" fill="white"/>
</svg>
