<svg id="Component_10_8" data-name="Component 10 – 8" xmlns="http://www.w3.org/2000/svg" xmlns:xlink="http://www.w3.org/1999/xlink" width="90" height="16" viewBox="0 0 90 16">
  <defs>
    <linearGradient id="linear-gradient" y1="0.5" x2="1" y2="0.5" gradientUnits="objectBoundingBox">
      <stop offset="0.05" stop-color="#ff9600"/>
      <stop offset="0.55" stop-color="#ff0032"/>
      <stop offset="1" stop-color="#ff009b"/>
    </linearGradient>
  </defs>
  <g id="Group_305" data-name="Group 305">
    <g id="Group_304" data-name="Group 304">
      <path id="Path_87" data-name="Path 87" d="M0,15.961H5.241L7,13.625h5.241v2.336h4.3V0H12.282Zm12.243-5.839H9.465l2.777-3.659ZM27.5,0V3.5h3.52V15.961h4.3V3.5h3.52V0ZM23.585,0H18.892V15.961H28.67v-3.5H23.585V0Z" fill="url(#linear-gradient)"/>
    </g>
  </g>
  <g id="Group_307" data-name="Group 307" transform="translate(41.226)">
    <g id="Group_306" data-name="Group 306">
      <path id="Path_88" data-name="Path 88" d="M105.439.1h2.386c2.66,0,5.163,1.09,5.163,4.009v.117a3.742,3.742,0,0,1-2.308,3.581,3.6,3.6,0,0,1,2.5,3.5v.195c0,2.8-2.19,4.4-5.28,4.4h-2.5V.1Zm2.777,6.657a1.878,1.878,0,0,0,2.034-2.063V4.654a1.791,1.791,0,0,0-2.034-1.946h-.039V6.8h.039Zm.039,6.618a2,2,0,0,0,2.19-2.063v-.117a1.979,1.979,0,0,0-2.19-2.063h-.078v4.2h.078Z" transform="translate(-105.4 -0.061)" fill="#fff"/>
      <path id="Path_89" data-name="Path 89" d="M131.912,0h2.934l3.012,15.844H135.08l-.508-3.153h-2.5l-.508,3.153H128.9Zm2.269,10.238-.821-5.216-.9,5.216Z" transform="translate(-119.708)" fill="#fff"/>
      <path id="Path_90" data-name="Path 90" d="M156.9.1h2.777V13.3h2.934V15.9H156.9Z" transform="translate(-136.757 -0.061)" fill="#fff"/>
      <path id="Path_91" data-name="Path 91" d="M177.912,0h2.934l3.012,15.844H181.08l-.508-3.153h-2.5l-.508,3.153H174.9Zm2.269,10.238-.821-5.216-.9,5.216Z" transform="translate(-147.716)" fill="#fff"/>
      <path id="Path_92" data-name="Path 92" d="M201.7,15.827V13.1a3.859,3.859,0,0,0,1.33.273c.9,0,1.447-.467,1.447-1.635V.1h2.816V11.934c0,2.8-1.486,4.126-3.794,4.126A7.481,7.481,0,0,1,201.7,15.827Z" transform="translate(-164.034 -0.061)" fill="#fff"/>
      <path id="Path_93" data-name="Path 93" d="M223,.1h2.777V15.9H223Z" transform="translate(-177.003 -0.061)" fill="#fff"/>
    </g>
  </g>
</svg>
