<svg id="microphone" xmlns="http://www.w3.org/2000/svg" width="15.926" height="21.657" viewBox="0 0 15.926 21.657">
  <path id="Path_2614" data-name="Path 2614" d="M15.593,15.2a4.343,4.343,0,0,0,4.343-4.331V5.456a4.343,4.343,0,0,0-8.687,0v5.415A4.343,4.343,0,0,0,15.593,15.2ZM12.7,5.456a2.9,2.9,0,0,1,5.791,0v5.415a2.9,2.9,0,0,1-5.791,0Z" transform="translate(-7.63 -1.125)" fill="#434343"/>
  <path id="Path_2615" data-name="Path 2615" d="M20.1,12.375V14.9a6.515,6.515,0,0,1-13.03,0V12.375H5.625V14.9a7.96,7.96,0,0,0,7.239,7.908v4h1.448v-4A7.96,7.96,0,0,0,21.551,14.9V12.375Z" transform="translate(-5.625 -5.156)" fill="#434343"/>
</svg>
