<svg xmlns="http://www.w3.org/2000/svg" width="25" height="16.332" viewBox="0 0 25 16.332">
  <g id="Mobile_Wallets" data-name="Mobile Wallets" transform="translate(-1.125 -3.375)">
    <path id="Union_407" data-name="Union 407" d="M993.8-3410.627c-2.028,0-3.671-1.242-3.671-2.773v-10.786c0-1.531,1.643-2.772,3.671-2.772h17.951a1.128,1.128,0,0,1,1.248.942v1.57h.882a1.466,1.466,0,0,1,.884.277h0a.839.839,0,0,1,.365.669l-.017,4.207h.017v4h-.034l-.016,3.726a1.132,1.132,0,0,1-1.247.94Zm-2.008-13.559v10.786a1.815,1.815,0,0,0,2.008,1.517h19.618l.014-3.409h-9.3v-4h9.32l.016-3.9H993.868v-1.256h17.464v-1.255H993.8A1.815,1.815,0,0,0,991.788-3424.187Zm13.524,7.709h8.121l.007-1.668h-8.128Z" transform="translate(-989 3430.334)" fill="#434343"/>
  </g>
</svg>
