<svg id="more" xmlns="http://www.w3.org/2000/svg" width="128" height="42" viewBox="0 0 128 42">
  <rect id="Rectangle_227" data-name="Rectangle 227" width="128" height="42" rx="8" fill="#333"/>
  <g id="Group_3418" data-name="Group 3418" transform="translate(8.787 6.697)">
    <text id="More_Info" data-name="More Info" transform="translate(37.721 19.803)" fill="#fff" font-size="14" font-family="SegoeUI, Segoe UI"><tspan x="0" y="0">More Info</tspan></text>
  </g>
  <g id="Group_5356" data-name="Group 5356" transform="translate(24076.057 5250.952)">
    <path id="Union_199" data-name="Union 199" d="M-10231.785,12475.548a11.7,11.7,0,0,0-8.324,3.447,11.7,11.7,0,0,0-3.447,8.323,11.7,11.7,0,0,0,3.447,8.324,11.7,11.7,0,0,0,8.324,3.447,11.7,11.7,0,0,0,8.323-3.447,11.7,11.7,0,0,0,3.447-8.324,11.7,11.7,0,0,0-3.447-8.323,11.7,11.7,0,0,0-8.323-3.447m0-1.5a13.271,13.271,0,0,1,13.271,13.271,13.271,13.271,0,0,1-13.271,13.271,13.271,13.271,0,0,1-13.271-13.271A13.271,13.271,0,0,1-10231.785,12474.048Z" transform="translate(-13819.252 -17717.27)" fill="#fff"/>
    <path id="Union_198" data-name="Union 198" d="M-6496.392,9607.375v-10.02c0-.345.4-.624.895-.624s.892.279.892.624v10.02c0,.345-.4.627-.892.627S-6496.392,9607.72-6496.392,9607.375ZM-6497,9593.5a1.5,1.5,0,0,1,1.5-1.5,1.5,1.5,0,0,1,1.5,1.5,1.5,1.5,0,0,1-1.5,1.5A1.5,1.5,0,0,1-6497,9593.5Z" transform="translate(-17555.537 -14829.951)" fill="#fff"/>
  </g>
</svg>
