<svg xmlns="http://www.w3.org/2000/svg" width="19.798" height="20.469" viewBox="0 0 19.798 20.469">
  <path id="Union_183" data-name="Union 183" d="M14436.3,20742.145a1.45,1.45,0,0,1-.821-.25l-7.455-4.861h-.124v-10.262h.124l7.455-4.859a1.463,1.463,0,0,1,.8-.236,2.852,2.852,0,0,1,1.516.557v19.361A2.816,2.816,0,0,1,14436.3,20742.145Zm-10.381-5.111h-5.938a2.5,2.5,0,0,1-1.408-.379,1.082,1.082,0,0,1-.571-.9v-7.7a1.087,1.087,0,0,1,.571-.9,2.5,2.5,0,0,1,1.408-.381h5.938v10.262Z" transform="translate(-14418.003 -20721.676)" fill="#fff"/>
</svg>
