<svg xmlns="http://www.w3.org/2000/svg" width="28.514" height="26.789" viewBox="0 0 28.514 26.789">
  <path id="Union_471" data-name="Union 471" d="M14444.428,20747.453l-3.6-3.4v.7a3.262,3.262,0,0,1-1.725.631,1.675,1.675,0,0,1-.951-.291l-8.592-5.6h-.145v-6.217l-2.279-2.152v8.369h-6.852a2.882,2.882,0,0,1-1.621-.436,1.243,1.243,0,0,1-.658-1.037v-8.879a1.245,1.245,0,0,1,.658-1.039,2.862,2.862,0,0,1,1.621-.441h3.189l-5.148-4.865a.982.982,0,0,1-.324-.789,1.038,1.038,0,0,1,.445-.766,1.322,1.322,0,0,1,.758-.238,1.3,1.3,0,0,1,.885.338l26.1,24.662a1.021,1.021,0,0,1,.324.793,1.009,1.009,0,0,1-.443.758,1.292,1.292,0,0,1-.762.238A1.279,1.279,0,0,1,14444.428,20747.453Zm-3.6-9.586-11.033-10.365,8.359-5.447a1.672,1.672,0,0,1,.928-.277,3.32,3.32,0,0,1,1.748.641v15.449Z" transform="translate(-14417.999 -20720.998)" fill="#fff"/>
</svg>
