<svg xmlns="http://www.w3.org/2000/svg" width="25" height="18.876" viewBox="0 0 25 18.876">
  <path id="Net_Banking" data-name="Net Banking" d="M1714.687-2825.124a.782.782,0,0,1-.781-.781.781.781,0,0,1,.781-.781h15.626a.781.781,0,0,1,.781.781.782.782,0,0,1-.781.781Zm-1.562-2.875a2.923,2.923,0,0,1-3.125-2.667v-10.666a2.923,2.923,0,0,1,3.125-2.667h18.75a2.924,2.924,0,0,1,3.126,2.667v10.666a2.924,2.924,0,0,1-3.126,2.667Zm-1.562-2.667a1.461,1.461,0,0,0,1.562,1.334h18.75a1.461,1.461,0,0,0,1.562-1.334v-10.666a1.461,1.461,0,0,0-1.562-1.334h-18.75a1.461,1.461,0,0,0-1.562,1.334v10.666Zm0-6.666h0Z" transform="translate(-1710 2844)" fill="#434343"/>
</svg>
