<svg xmlns="http://www.w3.org/2000/svg" width="18.287" height="18.293" viewBox="0 0 18.287 18.293">
  <g id="noun_calender_dates_2457046" data-name="noun_calender dates_2457046" transform="translate(-2.252 -2.25)">
    <path id="Subtraction_123" data-name="Subtraction 123" d="M16.683,18.293H1.6A1.607,1.607,0,0,1,0,16.688V2.549A1.607,1.607,0,0,1,1.6.943H3.767V0H5.091V.943H13.2V0H14.52V.943h2.163a1.607,1.607,0,0,1,1.6,1.605V16.688A1.607,1.607,0,0,1,16.683,18.293ZM1.324,6.98h0v9.988H16.963V6.98Zm0-4.713h0V5.654H16.963V2.268H14.52v.939H13.2V2.268H5.091v.939H3.767V2.268ZM9.8,14.52H8.485V13.2H9.8V14.52Zm-3.767,0H4.712V13.2H6.036V14.52Zm7.54-3.768H12.251V9.428h1.324v1.324Zm-3.773,0H8.485V9.428H9.8v1.324Zm-3.767,0H4.712V9.428H6.036v1.324Z" transform="translate(2.251 2.25)" fill="#434343"/>
  </g>
</svg>
