<svg xmlns="http://www.w3.org/2000/svg" width="21.232" height="12.146" viewBox="0 0 21.232 12.146">
  <path id="Union_473" data-name="Union 473" d="M8.18,11.813l-.406-.1v0L6.98,11.4l-.793-.336-.174-.082A18.6,18.6,0,0,1,.3,6.428L0,6.059l.287-.348C.762,5.125,5.088,0,10.615,0A9.457,9.457,0,0,1,13.055.33l.406.1,0,0,1.551.613.2.1a18.3,18.3,0,0,1,5.717,4.576l.3.369-.281.348c-.479.586-4.809,5.713-10.334,5.713A9.339,9.339,0,0,1,8.18,11.813ZM2,5.752l-.291.311L2,6.371A18.57,18.57,0,0,0,5.49,9.246a9.882,9.882,0,0,0,1.793.982c.4.141.8.27,1.2.369l-.008.012.705.15a7.285,7.285,0,0,0,1.439.141c3.932,0,7.334-3.17,8.611-4.529l.295-.312-.295-.307a18.552,18.552,0,0,0-3.684-3.008,1.954,1.954,0,0,0-.4-.295,9.548,9.548,0,0,0-3.336-1.133,7.633,7.633,0,0,0-1.193-.094C6.682,1.223,3.279,4.391,2,5.752Zm5.617.32a3,3,0,1,1,3,3A3,3,0,0,1,7.615,6.072Z" transform="translate(0.002 0.002)" fill="#2d2d2d"/>
</svg>
