<svg xmlns="http://www.w3.org/2000/svg" width="24.831" height="20.465" viewBox="0 0 24.831 20.465">
  <path id="Union_184" data-name="Union 184" d="M2.547,20.465A2.552,2.552,0,0,1,0,17.907V2.559A2.553,2.553,0,0,1,2.547,0H22.284a2.553,2.553,0,0,1,2.547,2.559V17.907a2.552,2.552,0,0,1-2.547,2.558ZM1.91,2.559V17.907a.64.64,0,0,0,.637.64H22.284a.64.64,0,0,0,.637-.64V2.559a.64.64,0,0,0-.637-.64H2.547A.64.64,0,0,0,1.91,2.559ZM13.46,11.511a2,2,0,0,1-2-2V6.476a2,2,0,0,1,2-2h4.55a2,2,0,0,1,2,2V9.511a2,2,0,0,1-2,2Z" fill="#f2f2f2"/>
</svg>
