<svg id="noun-my-play-list-4423206" xmlns="http://www.w3.org/2000/svg" width="21.05" height="18.735" viewBox="0 0 21.05 18.735">
  <path id="Path_2485" data-name="Path 2485" d="M203.6,184.872h6.677a.936.936,0,0,0,0-1.872H203.6a.936.936,0,1,0,0,1.872Z" transform="translate(-202.665 -180.56)" fill="#a2a2a2"/>
  <path id="Path_2486" data-name="Path 2486" d="M203.6,285.842h19.178a.936.936,0,1,0,0-1.872H203.6a.936.936,0,1,0,0,1.872Z" transform="translate(-202.665 -274.317)" fill="#a2a2a2"/>
  <path id="Path_2487" data-name="Path 2487" d="M222.779,384.89H203.6a.936.936,0,1,0,0,1.872h19.178a.936.936,0,1,0,0-1.872Z" transform="translate(-202.665 -368.028)" fill="#a2a2a2"/>
  <path id="Path_2488" data-name="Path 2488" d="M370.844,155.508a.957.957,0,0,0,.728,0c3.18-1.336,3.98-3.424,3.7-4.8a2.222,2.222,0,0,0-2.192-1.86c-.832,0-1.44.744-1.876,1.052-.436-.308-1.044-1.052-1.876-1.052a2.226,2.226,0,0,0-2.2,1.864c-.28,1.384.524,3.468,3.708,4.8Z" transform="translate(-355.338 -148.843)" fill="#a2a2a2"/>
</svg>
