<?xml version="1.0" encoding="utf-8"?>
<!-- Generator: Adobe Illustrator 28.2.0, SVG Export Plug-In . SVG Version: 6.00 Build 0)  -->
<svg version="1.1" id="Layer_1" xmlns="http://www.w3.org/2000/svg" xmlns:xlink="http://www.w3.org/1999/xlink" x="0px" y="0px"
	 viewBox="0 0 60 60" style="enable-background:new 0 0 60 60;" xml:space="preserve">
<style type="text/css">
	.st0{fill:#FFFFFF;}
	.st1{clip-path:url(#SVGID_00000165934496748690983170000007616765193666152832_);}
</style>
<g id="ic_play_circle_filled">
	<g id="Group_2007">
		<path id="Mask-28" class="st0" d="M29.4,53.2C16,53.2,5.1,42.3,5.1,28.9S16,4.7,29.4,4.7s24.3,10.9,24.3,24.3S42.8,53.2,29.4,53.2
			z M24.5,18v21.8l14.6-10.9L24.5,18z"/>
		<g>
			<path class="st0" d="M29.4,53.2C16,53.2,5.1,42.3,5.1,28.9S16,4.7,29.4,4.7s24.3,10.9,24.3,24.3S42.8,53.2,29.4,53.2z M24.5,18
				v21.8l14.6-10.9L24.5,18z"/>
			<g>
				<defs>
					<path id="SVGID_1_" d="M29.4,53.2C16,53.2,5.1,42.3,5.1,28.9S16,4.7,29.4,4.7s24.3,10.9,24.3,24.3S42.8,53.2,29.4,53.2z
						 M24.5,18v21.8l14.6-10.9L24.5,18z"/>
				</defs>
				<use xlink:href="#SVGID_1_"  style="overflow:visible;fill:#FFFFFF;"/>
				<clipPath id="SVGID_00000175300053153255333970000000401050707773461392_">
					<use xlink:href="#SVGID_1_"  style="overflow:visible;"/>
				</clipPath>
				<g style="clip-path:url(#SVGID_00000175300053153255333970000000401050707773461392_);">
					<g id="Mask_Group_2007">
						<g id="_Color-6">
							<g id="Group_1769-6">
								<rect id="Black-28" x="-31.3" y="-31.7" class="st0" width="121.3" height="121.3"/>
							</g>
						</g>
					</g>
				</g>
			</g>
		</g>
	</g>
</g>
</svg>
