<svg xmlns="http://www.w3.org/2000/svg" width="24.987" height="24.987" viewBox="0 0 24.987 24.987">
  <g id="Group_5448" data-name="Group 5448" transform="translate(-1309 -24)">
    <path id="Line_526" data-name="Line 526" d="M22.278,23.487a1.205,1.205,0,0,1-.855-.354L-1.146.564a1.209,1.209,0,0,1,0-1.71,1.209,1.209,0,0,1,1.71,0L23.133,21.423a1.209,1.209,0,0,1-.855,2.064Z" transform="translate(1310.5 25.5)" fill="#fff"/>
    <path id="Line_527" data-name="Line 527" d="M-.291,23.487a1.205,1.205,0,0,1-.855-.354,1.209,1.209,0,0,1,0-1.71L21.423-1.146a1.209,1.209,0,0,1,1.71,0,1.209,1.209,0,0,1,0,1.71L.564,23.133A1.205,1.205,0,0,1-.291,23.487Z" transform="translate(1310.5 25.5)" fill="#fff"/>
  </g>
</svg>
