<svg xmlns="http://www.w3.org/2000/svg" width="26.562" height="26.562" viewBox="0 0 26.562 26.562">
  <g id="Group_396" data-name="Group 396" transform="translate(0)">
    <circle id="Ellipse_18" data-name="Ellipse 18" cx="12.617" cy="12.617" r="12.617" transform="translate(0.664 0.664)" fill="none" opacity="0.496"/>
    <g id="Layer_7" data-name="Layer 7" transform="translate(9.662 7.32)">
      <g id="Group_584" data-name="Group 584" transform="translate(0 0)">
        <path id="Path_184" data-name="Path 184" d="M225.442,193.646a.277.277,0,0,1,0,.524l-9.816,5.653c-.25.144-.455.026-.455-.262V188.255c0-.288.2-.406.455-.262Z" transform="translate(-215.171 -187.932)" fill="#fff"/>
      </g>
    </g>
    <g id="Exclusion_3" data-name="Exclusion 3" fill="#fff">
      <path d="M13.28,26.562A13.281,13.281,0,0,1,3.89,3.89,13.281,13.281,0,1,1,22.672,22.672,13.194,13.194,0,0,1,13.28,26.562Zm0-24.9A11.617,11.617,0,1,0,24.9,13.28,11.629,11.629,0,0,0,13.28,1.664Z" stroke="none"/>
      <path d="M 13.28040027618408 26.56170082092285 C 9.733250617980957 26.56170082092285 6.39831018447876 25.18020057678223 3.889910459518433 22.67168045043945 C 1.381460428237915 20.16311073303223 4.104614390598726e-07 16.82789039611816 4.104614390598726e-07 13.28040027618408 C 4.104614390598726e-07 9.73330020904541 1.381460428237915 6.398360252380371 3.889910459518433 3.889910459518433 C 6.398360252380371 1.381460428237915 9.73330020904541 4.104614390598726e-07 13.28040027618408 4.104614390598726e-07 C 16.82789039611816 4.104614390598726e-07 20.16311073303223 1.381460428237915 22.67168045043945 3.889910459518433 C 25.18020057678223 6.39831018447876 26.56170082092285 9.733250617980957 26.56170082092285 13.28040027618408 C 26.56170082092285 16.82793998718262 25.18020057678223 20.16316032409668 22.67168045043945 22.67168045043945 C 20.16316032409668 25.18020057678223 16.82793998718262 26.56170082092285 13.28040027618408 26.56170082092285 Z M 13.28040027618408 1.664100408554077 C 6.875150203704834 1.664100408554077 1.664100408554077 6.875150203704834 1.664100408554077 13.28040027618408 C 1.664100408554077 19.68614959716797 6.875150203704834 24.8976001739502 13.28040027618408 24.8976001739502 C 19.68614959716797 24.8976001739502 24.8976001739502 19.68614959716797 24.8976001739502 13.28040027618408 C 24.8976001739502 6.875150203704834 19.68614959716797 1.664100408554077 13.28040027618408 1.664100408554077 Z" stroke="none" fill="#fff"/>
    </g>
  </g>
</svg>
