<svg xmlns="http://www.w3.org/2000/svg" width="38.275" height="38.275" viewBox="0 0 38.275 38.275">
  <g id="Group_6859" data-name="Group 6859" transform="translate(-178.044 -160.5)">
    <g id="Group_6858" data-name="Group 6858">
      <g id="Group_6828" data-name="Group 6828" transform="translate(97.044 134.5)">
        <g id="Group_6853" data-name="Group 6853">
          <g id="Group_6852" data-name="Group 6852">
            <g id="Group_4225" data-name="Group 4225" transform="translate(81 26)">
              <path id="Rectangle_227" data-name="Rectangle 227" d="M19.138,1.5A17.638,17.638,0,0,0,6.666,31.609,17.638,17.638,0,1,0,31.609,6.666,17.522,17.522,0,0,0,19.138,1.5m0-1.5h0a19.138,19.138,0,1,1,0,38.275h0A19.138,19.138,0,0,1,19.138,0Z" transform="translate(0 0)" fill="#dedede"/>
            </g>
          </g>
          <path id="Polygon_43" data-name="Polygon 43" d="M9.239,5.117l-4.893,8.51h9.786L9.239,5.117m0-3.1a1.535,1.535,0,0,1,1.344.777l6.233,10.839a1.55,1.55,0,0,1-1.344,2.322H3.006a1.55,1.55,0,0,1-1.344-2.322L7.9,2.79A1.535,1.535,0,0,1,9.239,2.012Z" transform="translate(110.32 35.897) rotate(90)" fill="#fff"/>
        </g>
      </g>
    </g>
  </g>
</svg>
