<svg xmlns="http://www.w3.org/2000/svg" width="103" height="53" viewBox="0 0 103 53">
  <g id="A-1" transform="translate(2213.879 13894)">
    <g id="Rectangle_6055" data-name="Rectangle 6055" transform="translate(-2213.879 -13894)" fill="#fff" stroke="#707070" stroke-width="1">
      <rect width="103" height="53" rx="4" stroke="none"/>
      <rect x="0.5" y="0.5" width="102" height="52" rx="3.5" fill="none"/>
    </g>
    <path id="apple" d="M16.775,3.245A7.982,7.982,0,0,1,22.631,0,7.963,7.963,0,0,1,20.7,5.961C18.1,9.085,15.15,8.573,15.15,8.573A6.925,6.925,0,0,1,16.775,3.245ZM15.462,10.7c1.261,0,3.6-1.733,6.645-1.733a8.324,8.324,0,0,1,7.3,3.73,8.1,8.1,0,0,0-4.033,7.066,8.3,8.3,0,0,0,5.024,7.59s-3.512,9.885-8.256,9.885c-2.179,0-3.873-1.468-6.168-1.468-2.34,0-4.661,1.523-6.173,1.523-4.332,0-9.8-9.377-9.8-16.915C0,12.962,4.632,9.072,8.977,9.072c2.825,0,5.016,1.629,6.485,1.629Z" transform="translate(-2177.879 -13887)" fill="#2d2d2d"/>
  </g>
</svg>
