<svg xmlns="http://www.w3.org/2000/svg" xmlns:xlink="http://www.w3.org/1999/xlink" width="103" height="53" viewBox="0 0 103 53">
  <defs>
    <clipPath id="clip-path">
      <path id="Path_2957" data-name="Path 2957" d="M-335.093,299.576h-16.259v6.741h9.359c-.872,4.283-4.521,6.741-9.359,6.741a10.29,10.29,0,0,1-10.31-10.31,10.29,10.29,0,0,1,10.31-10.311,10.087,10.087,0,0,1,6.424,2.3l5.076-5.076a17.369,17.369,0,0,0-11.5-4.362A17.4,17.4,0,0,0-368.8,302.749,17.4,17.4,0,0,0-351.351,320.2c8.724,0,16.655-6.345,16.655-17.449A14.476,14.476,0,0,0-335.093,299.576Z" transform="translate(368.8 -285.3)"/>
    </clipPath>
  </defs>
  <g id="G-1" transform="translate(2448.879 13894)">
    <g id="Rectangle_6053" data-name="Rectangle 6053" transform="translate(-2448.879 -13894)" fill="#fff" stroke="#707070" stroke-width="1">
      <rect width="103" height="53" rx="4" stroke="none"/>
      <rect x="0.5" y="0.5" width="102" height="52" rx="3.5" fill="none"/>
    </g>
    <g id="google-g-2015" transform="translate(-2414.43 -13884.604)">
      <g id="Group_5045" data-name="Group 5045" transform="translate(0 0)">
        <g id="Group_5039" data-name="Group 5039" clip-path="url(#clip-path)">
          <path id="Path_2956" data-name="Path 2956" d="M-370.8,314.921V294.3l13.483,10.31Z" transform="translate(369.214 -287.162)" fill="#fbbc05"/>
        </g>
        <g id="Group_5040" data-name="Group 5040" clip-path="url(#clip-path)">
          <path id="Path_2958" data-name="Path 2958" d="M-370.8,292.024l13.483,10.311,5.552-4.838,19.035-3.093V283.3H-370.8Z" transform="translate(369.214 -284.886)" fill="#ea4335"/>
        </g>
        <g id="Group_5042" data-name="Group 5042">
          <g id="Group_5041" data-name="Group 5041" clip-path="url(#clip-path)">
            <path id="Path_2960" data-name="Path 2960" d="M-370.8,312.645l23.793-18.242,6.266.793,8.01-11.9v38.07H-370.8Z" transform="translate(369.214 -284.886)" fill="#34a853"/>
          </g>
        </g>
        <g id="Group_5044" data-name="Group 5044">
          <g id="Group_5043" data-name="Group 5043" clip-path="url(#clip-path)">
            <path id="Path_2962" data-name="Path 2962" d="M-330.041,323.645l-24.587-19.035-3.172-2.379,27.759-7.931Z" transform="translate(366.524 -287.162)" fill="#4285f4"/>
          </g>
        </g>
      </g>
    </g>
  </g>
</svg>
