<svg xmlns="http://www.w3.org/2000/svg" width="21.839" height="22.426" viewBox="0 0 21.839 22.426">
  <path id="settings-sharp" d="M13.17,9.141a3.9,3.9,0,1,0,3.9,3.9,3.9,3.9,0,0,0-3.9-3.9Zm8.42,3.9a8.07,8.07,0,0,1-.08,1.089l2.374,1.858a.565.565,0,0,1,.128.72l-2.246,3.877a.567.567,0,0,1-.689.241L18.287,19.7a8.607,8.607,0,0,1-1.893,1.105l-.417,2.963a.582.582,0,0,1-.561.48H10.925a.585.585,0,0,1-.561-.465l-.417-2.963A8.254,8.254,0,0,1,8.054,19.72L5.263,20.841a.567.567,0,0,1-.689-.24L2.329,16.725A.565.565,0,0,1,2.457,16l2.374-1.858a8.511,8.511,0,0,1-.08-1.106,8.07,8.07,0,0,1,.08-1.089L2.456,10.093a.565.565,0,0,1-.128-.72L4.574,5.5a.567.567,0,0,1,.689-.241L8.054,6.377A8.607,8.607,0,0,1,9.946,5.272l.417-2.963a.582.582,0,0,1,.561-.48h4.491a.585.585,0,0,1,.561.465l.417,2.963a8.254,8.254,0,0,1,1.9,1.106l2.789-1.121a.567.567,0,0,1,.689.24l2.246,3.877a.565.565,0,0,1-.128.72l-2.374,1.858a8.511,8.511,0,0,1,.08,1.1Z" transform="translate(-2.251 -1.828)" fill="#dedede"/>
</svg>
