<svg xmlns="http://www.w3.org/2000/svg" width="18.12" height="18.119" viewBox="0 0 18.12 18.119">
  <g id="Group_5446" data-name="Group 5446" transform="translate(-482 -487)">
    <g id="Group_5281" data-name="Group 5281" transform="translate(-759 177.001)">
      <path id="Union_191" data-name="Union 191" d="M9.061,0A9.06,9.06,0,1,1,0,9.06,9.061,9.061,0,0,1,9.061,0Z" transform="translate(1240.999 310)" fill="#fb0000"/>
    </g>
    <path id="Union_396" data-name="Union 396" d="M627.408,7554.307v-5.547a.825.825,0,0,1,1.629,0v5.547a.825.825,0,0,1-1.629,0Zm-.408-9.038a1.223,1.223,0,1,1,1.222,1.269A1.246,1.246,0,0,1,627,7545.269Z" transform="translate(1119.282 8045.559) rotate(180)" fill="#fff"/>
  </g>
</svg>
