<svg width="36" height="35" viewBox="0 0 36 35" fill="none" xmlns="http://www.w3.org/2000/svg">
<path d="M13.7692 6.20584L15.7596 3.34545C15.9466 3.07679 16.2531 2.91663 16.5804 2.91663H19.6907C20.0168 2.91663 20.3224 3.07561 20.5096 3.34262L22.4807 6.15459M13.7692 6.20584C13.2634 6.92749 12.4226 7.28111 11.5301 7.21806M13.7692 6.20584C13.2609 6.92577 12.4226 7.28404 11.5301 7.21806M11.5301 7.21806L8.01601 6.99744C7.69517 6.9773 7.3842 7.11264 7.18028 7.36117L5.20917 9.76347C4.99297 10.027 4.92587 10.3824 5.03113 10.7066L6.065 13.8906M6.065 13.8906C6.19468 14.3111 6.21128 14.7616 6.11847 15.187M6.065 13.8906C6.19652 14.3104 6.2125 14.7599 6.11785 15.1914M6.11847 15.187C6.02443 15.6075 5.82284 16.0044 5.52352 16.3259M6.11847 15.187L6.11785 15.1914M5.52352 16.3259L3.18865 18.8371C2.96025 19.0827 2.87022 19.4265 2.94891 19.7526L3.65126 22.6631C3.72968 22.9881 3.96533 23.2524 4.27923 23.3675L7.48721 24.5432C7.90269 24.704 8.26163 24.9654 8.53329 25.2945M5.52352 16.3259C5.82468 16.0071 6.02443 15.6114 6.11785 15.1914M8.53329 25.2945C8.8031 25.6247 8.98687 26.0232 9.05817 26.4546M8.53329 25.2945C8.80556 25.6247 8.98995 26.0221 9.05817 26.4546M8.53329 25.2945L8.52899 25.2898C8.51116 25.2682 8.49211 25.2457 8.47367 25.2247M9.05817 26.4546L9.60421 29.8088C9.65748 30.136 9.86943 30.4155 10.1701 30.5551L12.9769 31.8583C13.268 31.9934 13.6062 31.9807 13.8863 31.824L16.8816 30.1482M16.8816 30.1482C17.2682 29.931 17.6996 29.8222 18.1311 29.8216M16.8816 30.1482C17.0346 30.0611 17.195 29.9916 17.3598 29.9394C17.6099 29.8602 17.8705 29.8211 18.1311 29.8216M18.1311 29.8216C18.3554 29.8221 18.5798 29.8518 18.7986 29.9104C19.002 29.9648 19.1999 30.0443 19.3874 30.1482M18.1311 29.8216C18.5644 29.821 18.9983 29.9299 19.3874 30.1482M19.3874 30.1482L22.5143 31.8409C22.7956 31.9932 23.1327 32.0017 23.4213 31.8639L26.2142 30.53C26.5138 30.3869 26.7228 30.1044 26.7721 29.7761L27.2624 26.5095M27.2624 26.5095C27.3307 26.0756 27.512 25.6742 27.7812 25.3411M27.2624 26.5095C27.3282 26.0747 27.5107 25.6738 27.7812 25.3411M27.7812 25.3411C28.0485 25.0115 28.4032 24.7489 28.8162 24.5865M27.7812 25.3411C28.0479 25.0102 28.4013 24.7468 28.8162 24.5865M28.8162 24.5865L32.0503 23.319C32.3583 23.1983 32.5867 22.9331 32.6603 22.6106L33.3305 19.6764C33.404 19.3548 33.3141 19.0176 33.0903 18.7753L30.7461 16.237M30.7461 16.237C30.4412 15.9144 30.2286 15.5291 30.1253 15.1196M30.7461 16.237C30.6029 16.0863 30.4799 15.9216 30.3798 15.747C30.2654 15.5487 30.18 15.3376 30.1253 15.1196M30.1253 15.1196C30.0239 14.713 30.03 14.2821 30.1585 13.8651L31.1752 10.6061C31.2756 10.2843 31.2071 9.93361 30.993 9.67322L29.0628 7.32547C28.8565 7.07458 28.5412 6.9395 28.2173 6.96323L24.7382 7.21806M24.7382 7.21806C24.2945 7.2494 23.8581 7.16486 23.4696 6.98302M24.7382 7.21806C24.2938 7.2512 23.8581 7.16599 23.4696 6.98302M23.4696 6.98302C23.0788 6.79885 22.7358 6.51565 22.4807 6.15459M23.4696 6.98302C23.0781 6.79953 22.7346 6.51707 22.4807 6.15459M6.11785 15.1914L6.11908 15.185M23.0732 17.5154C23.0732 20.2352 20.8188 22.4399 18.0383 22.4399C15.2578 22.4399 13.0034 20.2352 13.0034 17.5154C13.0034 14.7957 15.2578 12.591 18.0383 12.591C20.8188 12.591 23.0732 14.7957 23.0732 17.5154Z" stroke="white" stroke-width="4"/>
</svg>
