<svg xmlns="http://www.w3.org/2000/svg" width="10.103" height="20" viewBox="0 0 10.103 20">
  <g id="facebook" transform="translate(-76.703)">
    <path id="XMLID_835_" d="M77.026,10.652h2.192v9.025A.323.323,0,0,0,79.54,20h3.717a.323.323,0,0,0,.323-.323V10.695H86.1a.323.323,0,0,0,.32-.286L86.8,7.086a.323.323,0,0,0-.32-.359h-2.9V4.644c0-.628.338-.946,1-.946h1.9a.323.323,0,0,0,.323-.323V.325A.323.323,0,0,0,86.483,0H83.867c-.018,0-.059,0-.12,0A5.013,5.013,0,0,0,80.47,1.236a3.437,3.437,0,0,0-1.143,3.055V6.727h-2.3a.323.323,0,0,0-.323.323v3.28A.323.323,0,0,0,77.026,10.652Z" transform="translate(0)" fill="#fff"/>
  </g>
</svg>
