<svg id="session-share" xmlns="http://www.w3.org/2000/svg" width="18.12" height="18.825" viewBox="0 0 18.12 18.825">
  <path id="share-line" d="M15.956,13.948a2.742,2.742,0,0,0-1.973.848L7.3,11.457a2.443,2.443,0,0,0,0-1.532l6.692-3.4a2.8,2.8,0,1,0-.586-.93L6.781,8.962a2.737,2.737,0,1,0,0,3.464l6.61,3.322a2.7,2.7,0,0,0-.17.936,2.74,2.74,0,1,0,2.74-2.736ZM15.956,3a1.642,1.642,0,1,1-1.644,1.642A1.643,1.643,0,0,1,15.956,3ZM4.7,12.306a1.642,1.642,0,1,1,1.644-1.642A1.643,1.643,0,0,1,4.7,12.306Zm11.252,6.02A1.642,1.642,0,1,1,17.6,16.684,1.643,1.643,0,0,1,15.956,18.326Z" transform="translate(-1.319 -1.195)" fill="#bbb"/>
  <path id="share-line_-_Outline" data-name="share-line - Outline" d="M15.961,20.02a3.342,3.342,0,0,1-3.34-3.336,3.3,3.3,0,0,1,.06-.621l-5.773-2.9a3.337,3.337,0,1,1,0-4.937l5.786-2.939A3.408,3.408,0,1,1,16.03,8,3.427,3.427,0,0,1,13.9,7.249l-5.9,3a3.081,3.081,0,0,1,0,.884l5.892,2.944a3.362,3.362,0,0,1,2.07-.728h.008a3.336,3.336,0,1,1,0,6.673Zm-.005-4.378A1.042,1.042,0,1,0,17,16.684,1.044,1.044,0,0,0,15.956,15.642ZM4.7,9.622a1.042,1.042,0,1,0,1.044,1.042A1.044,1.044,0,0,0,4.7,9.622ZM15.956,2.4a2.241,2.241,0,0,1,1.905,3.426,2.2,2.2,0,0,0-1.833-3.433,2.221,2.221,0,0,0-.243.013Q15.869,2.4,15.956,2.4Zm0,1.2A1.042,1.042,0,1,0,17,4.644,1.044,1.044,0,0,0,15.956,3.6Z" transform="translate(-1.319 -1.195)" fill="#bbb"/>
</svg>
