<svg id="Component_65_32" data-name="Component_65" xmlns="http://www.w3.org/2000/svg" width="38.275" height="38.275" viewBox="0 0 38.275 38.275">
  <g id="Group_4225" data-name="Group 4225" transform="translate(0 0)">
    <path id="Rectangle_227" data-name="Rectangle 227" d="M19.138,1.5A17.638,17.638,0,0,0,6.666,31.609,17.638,17.638,0,1,0,31.609,6.666,17.522,17.522,0,0,0,19.138,1.5m0-1.5h0a19.138,19.138,0,1,1,0,38.275h0A19.138,19.138,0,0,1,19.138,0Z" transform="translate(0 0)" fill="#646464"/>
  </g>
  <path id="Union_154" data-name="Union 154" d="M14271.181,22308.457a3.414,3.414,0,0,1,.1-.818l-6.489-3.3a3.265,3.265,0,0,1-2.347.99,3.218,3.218,0,0,1-1.1-.2,3.349,3.349,0,0,1,0-6.283,3.218,3.218,0,0,1,1.1-.2,3.265,3.265,0,0,1,2.347.99l6.507-3.348a3.42,3.42,0,0,1,1.747-3.937,3.339,3.339,0,0,1,4.351,1.238,3.435,3.435,0,0,1-.784,4.5,3.3,3.3,0,0,1-2.066.717,3.354,3.354,0,0,1-2.234-.857l-6.607,3.4a3.132,3.132,0,0,1,0,1.25l6.6,3.342a3.27,3.27,0,0,1,2.167-.834h.006a3.338,3.338,0,1,1-3.293,3.338Zm1.921,0a1.369,1.369,0,1,0,1.366-1.389A1.38,1.38,0,0,0,14273.1,22308.457Zm-11.978-6.5a1.372,1.372,0,1,0,1.372-1.389A1.381,1.381,0,0,0,14261.124,22301.955Zm11.978-6.494a1.369,1.369,0,1,0,1.366-1.389A1.38,1.38,0,0,0,14273.1,22295.461Z" transform="translate(-14250.896 -22282.758)" fill="#fff"/>
</svg>
