<svg xmlns="http://www.w3.org/2000/svg" width="20.343" height="20.314" viewBox="0 0 20.343 20.314">
  <path id="pencil-line" d="M20.488,5.562l-3.38-3.4a1.192,1.192,0,0,0-1.681,0L3.444,14.13,2.35,18.852A1.186,1.186,0,0,0,3.5,20.291a1.232,1.232,0,0,0,.248,0L8.523,19.2,20.488,7.243A1.192,1.192,0,0,0,20.488,5.562ZM7.947,18.161,3.473,19.1l1.019-4.388,8.965-8.931,3.455,3.455ZM17.684,8.4,14.229,4.946l2-1.992,3.4,3.455Z" transform="matrix(0.995, -0.105, 0.105, 0.995, -2.5, 0.37)" fill="#2d2d2d"/>
</svg>
