<svg id="Component_81_7" data-name="Component 81 – 7" xmlns="http://www.w3.org/2000/svg" width="42.002" height="33.001" viewBox="0 0 42.002 33.001">
  <path id="Union_138" data-name="Union 138" d="M7128,14450a4,4,0,0,1-4-4v-25a4,4,0,0,1,4-4h34a4,4,0,0,1,4,4v25a4,4,0,0,1-4,4Zm-1-29v25a1,1,0,0,0,1,1h34a1,1,0,0,0,1-1v-25a1,1,0,0,0-1-1h-34A1,1,0,0,0,7127,14421Zm7.721,20.109a1.239,1.239,0,0,1,0-2.47h13.708a1.239,1.239,0,0,1,0,2.47Zm0-6.173a1.239,1.239,0,0,1,0-2.47h20.558a1.239,1.239,0,0,1,0,2.47Zm0-6.172a1.236,1.236,0,0,1,0-2.466h20.558a1.236,1.236,0,0,1,0,2.466Z" transform="translate(-7123.999 -14416.999)" fill="#f2f2f2"/>
</svg>
