<svg xmlns="http://www.w3.org/2000/svg" width="39.459" height="34.131" viewBox="0 0 39.459 34.131">
  <path id="Union_195" data-name="Union 195" d="M-11942,12463.13a3,3,0,0,1-2.578-4.532l16.725-28.132a2.979,2.979,0,0,1,2.578-1.467,2.979,2.979,0,0,1,2.58,1.467l16.725,28.132a3,3,0,0,1-2.577,4.532Zm15.867-31.641-16.728,28.128a.991.991,0,0,0-.01,1.008.987.987,0,0,0,.87.5h33.452a.985.985,0,0,0,.869-.5.993.993,0,0,0-.01-1.008l-16.728-28.128a.982.982,0,0,0-.859-.488A.982.982,0,0,0-11926.128,12431.489Zm.01,24.641v-9.242h1.676v9.242Zm-.11-11.7v-1.849h1.915v1.849Z" transform="translate(11944.999 -12428.999)" fill="#fff"/>
</svg>
