<svg xmlns="http://www.w3.org/2000/svg" width="46.166" height="46.167" viewBox="0 0 46.166 46.167">
  <g id="tick-out" transform="translate(-446 -168)">
    <g id="Group_6842" data-name="Group 6842" transform="translate(445.652 168)">
      <g id="Group_4317" data-name="Group 4317" transform="translate(0 0)">
        <path id="Ellipse_205" data-name="Ellipse 205" d="M23.083,1.612a21.477,21.477,0,0,0-8.357,41.256A21.477,21.477,0,0,0,31.44,3.3a21.335,21.335,0,0,0-8.357-1.687m0-1.612A23.083,23.083,0,1,1,0,23.083,23.083,23.083,0,0,1,23.083,0Z" transform="translate(0.348 0)" fill="#fff"/>
      </g>
    </g>
    <path id="Union_538" data-name="Union 538" d="M-7465.3,18074.8a4.655,4.655,0,0,1-.977-1.016l-2.362-3.121a1.791,1.791,0,0,1,.3-2.459,1.675,1.675,0,0,1,1.048-.365,1.659,1.659,0,0,1,1.339.672l2.466,3.262a.75.75,0,0,0,.44.32,52.541,52.541,0,0,0,6.1-4.479c2.375-1.871,4.588-3.693,5.215-4.2l.026-.021a1.668,1.668,0,0,1,1.061-.385,1.689,1.689,0,0,1,1.327.65,1.814,1.814,0,0,1,.369,1.289,1.748,1.748,0,0,1-.628,1.176l-.006.008c-.014.006-.053.043-.11.086-2.4,1.969-4.246,3.441-5.372,4.32-1.65,1.3-3.028,2.355-4.1,3.133-2.083,1.512-2.641,1.73-3.066,1.832a3.675,3.675,0,0,1-.809.092A3.7,3.7,0,0,1-7465.3,18074.8Z" transform="translate(7928 -17878.002)" fill="#f2f2f2"/>
  </g>
</svg>
