<svg xmlns="http://www.w3.org/2000/svg" width="23.121" height="23.119" viewBox="0 0 23.121 23.119">
  <g id="Group_5281" data-name="Group 5281" transform="translate(-1240.999 -310)">
    <path id="Union_191" data-name="Union 191" d="M-14917.44,18063a11.56,11.56,0,0,1,11.561,11.561,11.56,11.56,0,0,1-11.561,11.559,11.56,11.56,0,0,1-11.561-11.559A11.56,11.56,0,0,1-14917.44,18063Z" transform="translate(16170 -17753)" fill="#0ba400"/>
    <path id="Union_194" data-name="Union 194" d="M-7466.409,18071.045a3.225,3.225,0,0,1-.685-.693l-1.655-2.129a1.2,1.2,0,0,1,.208-1.678,1.205,1.205,0,0,1,.735-.248,1.179,1.179,0,0,1,.939.457l1.728,2.227a.533.533,0,0,0,.308.219,36.782,36.782,0,0,0,4.277-3.057c1.665-1.275,3.216-2.518,3.656-2.867l.018-.014a1.19,1.19,0,0,1,.744-.264,1.192,1.192,0,0,1,.93.445,1.212,1.212,0,0,1,.259.879,1.189,1.189,0,0,1-.44.8l0,.006c-.009,0-.037.027-.077.059-1.683,1.342-2.976,2.346-3.765,2.947-1.156.885-2.123,1.605-2.875,2.137a6.7,6.7,0,0,1-2.149,1.248,2.576,2.576,0,0,1-.567.063A2.629,2.629,0,0,1-7466.409,18071.045Z" transform="translate(8714.53 -17745.73)" fill="#f2f2f2"/>
  </g>
</svg>
