<svg width="35" height="35" viewBox="0 0 35 35" fill="none" xmlns="http://www.w3.org/2000/svg">
<path d="M18.1271 5.97916C17.8902 5.87671 17.6305 5.83892 17.3743 5.86966C17.1181 5.90041 16.8746 5.99858 16.6687 6.15416L9.69791 11.6667H4.37499C3.98822 11.6667 3.61728 11.8203 3.34379 12.0938C3.0703 12.3673 2.91666 12.7382 2.91666 13.125V21.875C2.91666 22.2618 3.0703 22.6327 3.34379 22.9062C3.61728 23.1797 3.98822 23.3333 4.37499 23.3333H9.69791L16.5958 28.8458C16.8524 29.0517 17.171 29.1648 17.5 29.1667C17.7178 29.1703 17.9332 29.1202 18.1271 29.0208C18.3752 28.9026 18.585 28.7167 18.732 28.4845C18.8791 28.2523 18.9575 27.9832 18.9583 27.7083V7.29167C18.9575 7.01679 18.8791 6.74773 18.732 6.51551C18.585 6.28329 18.3752 6.09736 18.1271 5.97916ZM16.0417 24.675L11.1125 20.7375C10.8559 20.5316 10.5373 20.4186 10.2083 20.4167H5.83332V14.5833H10.2083C10.5373 14.5814 10.8559 14.4684 11.1125 14.2625L16.0417 10.325V24.675ZM28.6708 9.24583C28.3962 8.97122 28.0238 8.81695 27.6354 8.81695C27.2471 8.81695 26.8746 8.97122 26.6 9.24583C26.3254 9.52044 26.1711 9.89289 26.1711 10.2812C26.1711 10.6696 26.3254 11.0421 26.6 11.3167C27.4587 12.1741 28.1297 13.2007 28.5704 14.3314C29.011 15.4621 29.2117 16.6721 29.1595 17.8844C29.1074 19.0968 28.8037 20.2851 28.2677 21.3738C27.7316 22.4625 26.975 23.4278 26.0458 24.2083C25.8202 24.4013 25.6588 24.6585 25.5832 24.9456C25.5077 25.2327 25.5215 25.5361 25.623 25.8151C25.7245 26.0941 25.9087 26.3355 26.151 26.5071C26.3934 26.6786 26.6823 26.7721 26.9792 26.775C27.3199 26.7757 27.6501 26.657 27.9125 26.4396C29.1534 25.4002 30.1645 24.114 30.8814 22.6627C31.5984 21.2114 32.0054 19.6268 32.0768 18.0097C32.1481 16.3925 31.8821 14.7782 31.2957 13.2694C30.7094 11.7607 29.8155 10.3904 28.6708 9.24583ZM24.5437 13.3729C24.4078 13.2369 24.2463 13.1291 24.0687 13.0555C23.891 12.9819 23.7006 12.944 23.5083 12.944C23.316 12.944 23.1256 12.9819 22.948 13.0555C22.7703 13.1291 22.6089 13.2369 22.4729 13.3729C22.3369 13.5089 22.2291 13.6703 22.1555 13.848C22.0819 14.0256 22.044 14.216 22.044 14.4083C22.044 14.6006 22.0819 14.791 22.1555 14.9687C22.2291 15.1464 22.3369 15.3078 22.4729 15.4437C23.0206 15.9882 23.3301 16.7277 23.3333 17.5C23.3337 17.9249 23.2412 18.3447 23.0623 18.7301C22.8835 19.1155 22.6226 19.4572 22.2979 19.7312C22.1502 19.8537 22.0282 20.004 21.9387 20.1737C21.8492 20.3434 21.7941 20.529 21.7765 20.72C21.7589 20.911 21.7791 21.1037 21.8361 21.2868C21.893 21.47 21.9855 21.6401 22.1083 21.7875C22.2318 21.9341 22.3829 22.0549 22.5531 22.1431C22.7233 22.2312 22.9092 22.285 23.1002 22.3012C23.2911 22.3175 23.4835 22.2959 23.6661 22.2378C23.8487 22.1797 24.0181 22.0861 24.1646 21.9625C24.8166 21.4158 25.3412 20.7331 25.7014 19.9622C26.0617 19.1913 26.2489 18.3509 26.25 17.5C26.2418 15.9543 25.6294 14.4732 24.5437 13.3729Z" fill="white"/>
</svg>
