<svg xmlns="http://www.w3.org/2000/svg" width="18.002" height="18.002" viewBox="0 0 18.002 18.002">
  <path id="Union_197" data-name="Union 197" d="M22074.084,17653.916l-5.584-5.584-5.586,5.584a2,2,0,0,1-2.832,0,2,2,0,0,1,0-2.82l5.592-5.59-5.586-5.586a2,2,0,1,1,2.826-2.832l5.588,5.588,5.588-5.588a1.977,1.977,0,0,1,1.412-.586,2,2,0,0,1,1.414,3.418l-5.586,5.584,5.586,5.586a2,2,0,1,1-2.832,2.826Zm1.418-1.412-5.586-5.588Zm-8.412-8.414-5.588-5.588Z" transform="translate(-22059.5 -17636.502)" fill="#fff"/>
</svg>
