<svg xmlns="http://www.w3.org/2000/svg" width="15.762" height="16.793" viewBox="0 0 15.762 16.793">
  <path id="Union_154" data-name="Union 154" d="M14269.256,22305.961a2.711,2.711,0,0,1,.086-.689l-5.451-2.807a2.723,2.723,0,0,1-1.973.84,2.681,2.681,0,0,1-.926-.164,2.852,2.852,0,0,1,0-5.332,2.681,2.681,0,0,1,.926-.164,2.723,2.723,0,0,1,1.973.84l5.465-2.844a2.932,2.932,0,0,1,.1-1.8,2.863,2.863,0,0,1,1.373-1.539,2.785,2.785,0,0,1,3.654,1.047,2.943,2.943,0,0,1,.393,2.041,2.893,2.893,0,0,1-1.051,1.783,2.757,2.757,0,0,1-1.734.609,2.8,2.8,0,0,1-1.879-.734l-5.551,2.891a2.621,2.621,0,0,1,0,1.061l5.541,2.838a2.738,2.738,0,0,1,1.822-.711h.006a2.833,2.833,0,1,1-2.77,2.832Zm1.611,0a1.152,1.152,0,1,0,1.152-1.178A1.168,1.168,0,0,0,14270.867,22305.961Zm-10.059-5.514a1.153,1.153,0,1,0,1.152-1.178A1.168,1.168,0,0,0,14260.809,22300.447Zm10.059-5.514a1.152,1.152,0,1,0,1.152-1.178A1.168,1.168,0,0,0,14270.867,22294.934Z" transform="translate(-14259.152 -22292)" fill="#fff"/>
</svg>
