<svg xmlns="http://www.w3.org/2000/svg" width="36" height="28" viewBox="0 0 36 28">
  <path id="All_Shows" data-name="All Shows" d="M2.44,28A2.413,2.413,0,0,1,0,25.615V10.722A2.411,2.411,0,0,1,2.44,8.339h7.931V2.381A2.415,2.415,0,0,1,12.812,0H33.559A2.415,2.415,0,0,1,36,2.381V17.275a2.416,2.416,0,0,1-2.441,2.383H25.625v5.957A2.414,2.414,0,0,1,23.185,28ZM1.829,10.722V25.615a.6.6,0,0,0,.611.6H23.185a.6.6,0,0,0,.611-.6V10.722a.606.606,0,0,0-.611-.6H2.44A.606.606,0,0,0,1.829,10.722Zm31.73,7.15a.6.6,0,0,0,.609-.6V2.381a.6.6,0,0,0-.609-.6H12.812a.6.6,0,0,0-.609.6V8.339H23.185a2.412,2.412,0,0,1,2.441,2.383v7.15Z" fill="#f2f2f2"/>
</svg>
