<svg xmlns="http://www.w3.org/2000/svg" width="25" height="19" viewBox="0 0 25 19">
  <path id="Union_404" data-name="Union 404" d="M3.125,19A3.146,3.146,0,0,1,0,15.833V3.167A3.146,3.146,0,0,1,3.125,0h18.75A3.146,3.146,0,0,1,25,3.167V15.833A3.146,3.146,0,0,1,21.875,19ZM1.563,15.833a1.573,1.573,0,0,0,1.563,1.583h18.75a1.573,1.573,0,0,0,1.563-1.583V7.917H1.563Zm0-12.667V4.75H23.438V3.167a1.573,1.573,0,0,0-1.562-1.583H3.125A1.573,1.573,0,0,0,1.563,3.167Zm7.465,9.5a2.084,2.084,0,1,1,2.084,2.111A2.1,2.1,0,0,1,9.028,12.667Zm-5.555,0a2.083,2.083,0,1,1,2.083,2.111A2.1,2.1,0,0,1,3.472,12.667Z" fill="#434343"/>
</svg>
