<svg xmlns="http://www.w3.org/2000/svg" width="24.757" height="14.811" viewBox="0 0 24.757 14.811">
  <path id="Union_469" data-name="Union 469" d="M9.538,14.41l-.473-.13,0,.006-.925-.377L7.217,13.5l-.2-.1A21.847,21.847,0,0,1,.346,7.838L0,7.393l.331-.427C.886,6.253,5.936,0,12.378,0A10.624,10.624,0,0,1,15.22.4l.474.13,0-.006,1.81.745.235.12a21.665,21.665,0,0,1,6.667,5.58l.346.446-.332.428c-.555.712-5.606,6.965-12.047,6.965A10.568,10.568,0,0,1,9.538,14.41Zm-7.2-7.393-.34.378.343.377A22.021,22.021,0,0,0,6.4,11.277a11.133,11.133,0,0,0,2.093,1.2,14.477,14.477,0,0,0,1.389.453l-.009.015.822.181a7.989,7.989,0,0,0,1.681.174c4.587,0,8.553-3.865,10.045-5.526l.34-.379-.342-.377a21.95,21.95,0,0,0-4.3-3.664,2.148,2.148,0,0,0-.464-.36,10.633,10.633,0,0,0-3.887-1.382,8.208,8.208,0,0,0-1.394-.118C7.791,1.489,3.825,5.354,2.333,7.016ZM8.88,7.4a3.584,3.584,0,0,1,3.5-3.658,3.587,3.587,0,0,1,3.5,3.658,3.589,3.589,0,0,1-3.5,3.663A3.586,3.586,0,0,1,8.88,7.4Zm1.388,0a2.112,2.112,0,1,0,4.218,0,2.112,2.112,0,1,0-4.218,0Z" fill="#fff"/>
</svg>
