<svg xmlns="http://www.w3.org/2000/svg" width="24.728" height="23.234" viewBox="0 0 24.728 23.234">
  <path id="Union_183" data-name="Union 183" d="M14440.92,20743.941l-3.121-2.947v.6a2.828,2.828,0,0,1-1.5.547,1.446,1.446,0,0,1-.824-.252l-7.452-4.857h-.125v-5.393l-1.977-1.867v7.26h-5.941a2.5,2.5,0,0,1-1.406-.379,1.079,1.079,0,0,1-.571-.9v-7.7a1.074,1.074,0,0,1,.571-.9,2.469,2.469,0,0,1,1.406-.383h2.766l-4.466-4.221a.846.846,0,0,1-.28-.684.9.9,0,0,1,.386-.664,1.15,1.15,0,0,1,1.425.086l22.634,21.389a.884.884,0,0,1,.28.688.873.873,0,0,1-.384.658,1.126,1.126,0,0,1-.66.207A1.109,1.109,0,0,1,14440.92,20743.941Zm-3.124-8.312-9.568-8.99,7.25-4.725a1.458,1.458,0,0,1,.8-.24,2.877,2.877,0,0,1,1.517.557v13.4Z" transform="translate(-14418 -20720.998)" fill="#fff"/>
</svg>
