<svg xmlns="http://www.w3.org/2000/svg" xmlns:xlink="http://www.w3.org/1999/xlink" width="92" height="92" viewBox="0 0 92 92">
  <defs>
    <linearGradient id="linear-gradient" x1="0.5" x2="1.24" y2="4.437" gradientUnits="objectBoundingBox">
      <stop offset="0" stop-color="#f68b1f"/>
      <stop offset="0.494" stop-color="#ed2124"/>
      <stop offset="1" stop-color="#de0084" stop-opacity="0.949"/>
    </linearGradient>
    <linearGradient id="linear-gradient-2" x2="0.5" y2="1" xlink:href="#linear-gradient"/>
  </defs>
  <g id="vote" transform="translate(-2.549 0.5)">
    <g id="noun-polling-1634708" transform="translate(25.93 21.084)" style="isolation: isolate">
      <path id="Union_10" data-name="Union 10" d="M40.374,54.541H31.958a1.534,1.534,0,0,1-1.539-1.535,5.871,5.871,0,0,0-1.3-3.711,19.431,19.431,0,0,1-2.2-4.365c-.328-.744-.632-1.566-.932-2.365a12.746,12.746,0,0,0-.664-1.352h0c-1.016-1.9-2.55-4.754-.5-6.486a3.21,3.21,0,0,1,4.481.334l.019.018V25.973a3.133,3.133,0,0,1,5.356-2.23,3.165,3.165,0,0,1,.908,2.23v7.2a3.186,3.186,0,0,1,2.367,1.393,3.243,3.243,0,0,1,2.741,1.166,3.032,3.032,0,0,1,.416-.029A3.151,3.151,0,0,1,44.3,38.783v3.85a1.208,1.208,0,0,1,0,.133v3.068A11.366,11.366,0,0,1,42.723,51a6.624,6.624,0,0,0-.8,2.008,1.543,1.543,0,0,1-1.54,1.535ZM25.432,28.959a4.465,4.465,0,0,1-.612-2.246V21.146A4.463,4.463,0,0,1,29.273,16.7H34.84a4.454,4.454,0,0,1,4.449,4.449v5.566a4.437,4.437,0,0,1-1.479,3.3V25.973a5.359,5.359,0,1,0-10.718,0v4.613A4.384,4.384,0,0,1,25.432,28.959ZM2.924,29.5A2.561,2.561,0,0,1,.86,28.186,5.862,5.862,0,0,1,0,25.043V22.816a5.884,5.884,0,0,1,.86-3.145,2.556,2.556,0,0,1,2.063-1.3h15.35a2.554,2.554,0,0,1,2.068,1.3,5.84,5.84,0,0,1,.856,3.145v2.227a5.818,5.818,0,0,1-.856,3.143A2.559,2.559,0,0,1,18.273,29.5ZM11.3,23.93c0,.617.323,1.113.73,1.113H15.35c.407,0,.735-.5.735-1.113s-.328-1.113-.735-1.113H12.033C11.626,22.816,11.3,23.316,11.3,23.93Zm-6.185,0c0,.617.327,1.113.729,1.113H9.17c.4,0,.729-.5.729-1.113s-.327-1.113-.729-1.113H5.848C5.445,22.816,5.118,23.316,5.118,23.93Zm24.155-9.461a4.783,4.783,0,0,1-4.454-4.453V4.449A4.452,4.452,0,0,1,29.273,0H34.84a4.781,4.781,0,0,1,4.449,4.451v5.566a4.451,4.451,0,0,1-4.449,4.453ZM2.924,12.8a2.565,2.565,0,0,1-2.063-1.3A5.884,5.884,0,0,1,0,8.35V6.125a5.905,5.905,0,0,1,.86-3.15,2.565,2.565,0,0,1,2.063-1.3h15.35a2.563,2.563,0,0,1,2.068,1.3,5.86,5.86,0,0,1,.856,3.15V8.35a5.84,5.84,0,0,1-.856,3.145,2.563,2.563,0,0,1-2.068,1.3ZM11.3,7.232c0,.617.323,1.117.73,1.117H15.35c.407,0,.735-.5.735-1.117s-.328-1.107-.735-1.107H12.033C11.626,6.125,11.3,6.619,11.3,7.232Zm-6.185,0c0,.617.327,1.117.729,1.117H9.17c.4,0,.729-.5.729-1.117S9.572,6.125,9.17,6.125H5.848C5.445,6.125,5.118,6.619,5.118,7.232Z" transform="translate(0 0)" fill="url(#linear-gradient)"/>
    </g>
    <path id="Subtraction_10" data-name="Subtraction 10" d="M46,92a46.012,46.012,0,0,1-17.9-88.385A46.012,46.012,0,0,1,63.9,88.385,45.714,45.714,0,0,1,46,92ZM46,2.875A43.137,43.137,0,0,0,29.213,85.736,43.136,43.136,0,0,0,62.786,6.264,42.856,42.856,0,0,0,46,2.875Z" transform="translate(2.549 -0.5)" fill="url(#linear-gradient-2)"/>
  </g>
</svg>
