<svg width="468" height="309" viewBox="0 0 468 309" fill="none" xmlns="http://www.w3.org/2000/svg">
<g clip-path="url(#clip0_2804_11653)">
<path d="M42.8806 309C20.3173 309 -1.00592 291.593 0.0367263 269.08C4.11312 180.991 61.3674 196.27 136.191 111.776C234.282 1.00809 312.358 79.459 355.422 139.827C381.125 175.857 449.002 188.416 466.244 256.232C473.989 286.701 454.965 309 432.404 309H42.8806Z" fill="#7F7F7F"/>
<path d="M452.349 265.795H360.401C355.358 252.181 370.511 245.468 375.328 254.29C372.455 249.028 371.692 242.358 377.659 238.064C383.915 234.66 391.446 238.551 392.599 244.708C391.065 236.51 398.371 228.34 406.501 226.483C427.366 221.719 432.021 243.069 430.13 246.426C435.642 236.645 458.43 248.716 452.349 265.795Z" fill="#D7E8F4"/>
<path d="M59.5862 263.527C52.5059 261.335 45.6366 258.471 39.3771 250.454C38.0925 248.811 36.8853 246.707 37.5887 244.741C38.1187 243.261 39.6514 242.314 41.2085 242.071C41.7882 241.987 42.3758 241.97 42.9593 242.023C42.9593 242.023 42.9653 242.023 42.9665 242.023C43.8638 242.115 44.7508 242.289 45.6163 242.542L45.8637 242.612C49.9952 243.785 53.9308 245.561 57.5433 247.882C57.8706 248.091 58.2592 248.183 58.6457 248.143C59.0321 248.103 59.3937 247.934 59.6715 247.662C59.9493 247.391 60.127 247.034 60.1756 246.649C60.2242 246.264 60.1408 245.874 59.9391 245.542C59.5704 244.941 59.1416 244.379 58.6592 243.865C57.9474 243.122 57.1678 242.446 56.3307 241.847C55.2171 241.036 54.0296 240.313 52.8671 239.571C48.5464 236.823 44.453 233.733 40.626 230.332C37.8945 227.901 35.2232 225.204 33.9249 221.787C33.3287 220.216 33.0575 218.404 33.7687 216.882C34.9431 214.381 38.2683 213.681 40.9879 214.202C45.7534 215.114 49.561 218.603 52.9369 222.081C55.7387 224.971 58.8732 228.171 62.896 228.349C63.5816 228.413 64.271 228.275 64.8787 227.951C66.0263 227.257 66.3208 225.649 65.9124 224.372C65.403 223.129 64.6288 222.011 63.6435 221.097C58.3343 215.407 53.1092 209.489 49.6617 202.519C46.2142 195.548 44.6869 187.317 47.0828 179.915C47.7187 177.718 48.8879 175.712 50.4868 174.074C51.2928 173.264 52.2678 172.642 53.3421 172.252C54.4164 171.862 55.5637 171.714 56.7021 171.817C59.7817 172.222 62.1001 174.818 63.6608 177.498C69.0261 186.695 68.6958 197.963 70.2058 208.497C70.6291 211.446 71.2443 214.471 73.0017 216.899C73.1639 217.132 73.3743 217.328 73.6187 217.474C75.0661 218.311 76.3645 216.623 76.9088 215.191C79.0549 209.524 79.5914 203.043 83.4305 198.353C84.8959 196.567 86.9704 195.078 89.281 195.09C92.1038 195.109 94.5205 197.464 95.3438 200.161C96.167 202.859 95.6746 205.788 94.7923 208.466C93.1542 213.432 90.2182 217.892 86.7588 221.814C84.934 223.884 82.872 225.976 82.3247 228.677C82.1575 229.595 82.2278 230.541 82.529 231.424C82.8302 232.307 83.3523 233.099 84.0458 233.724C84.37 234.006 84.7476 234.22 85.1562 234.354C85.5647 234.487 85.996 234.537 86.4244 234.501C87.3442 234.348 88.221 234.002 88.9967 233.485C89.3359 233.292 89.6763 233.097 90.0185 232.905C91.3669 232.138 92.716 231.37 94.0657 230.601C97.4958 228.646 101.637 226.649 105.213 228.332C106.097 228.783 106.873 229.417 107.49 230.192C108.107 230.967 108.55 231.866 108.79 232.827C109.293 234.589 109.293 236.456 108.79 238.217C107.726 241.882 101.017 252.081 98.2505 254.711C95.0201 257.776 83.8163 271.027 59.5862 263.527Z" fill="#929292"/>
<path d="M375.507 263.527C382.588 261.335 389.456 258.471 395.716 250.454C397.001 248.811 398.208 246.707 397.504 244.741C396.975 243.261 395.442 242.313 393.885 242.071C393.305 241.987 392.717 241.97 392.134 242.023H392.127C391.23 242.115 390.342 242.289 389.477 242.542L389.229 242.612C385.098 243.785 381.162 245.561 377.55 247.882C377.222 248.09 376.834 248.181 376.448 248.141C376.062 248.101 375.7 247.932 375.423 247.661C375.145 247.39 374.968 247.033 374.919 246.648C374.87 246.264 374.953 245.874 375.154 245.542C375.523 244.941 375.952 244.379 376.434 243.865C377.146 243.121 377.925 242.446 378.763 241.847C379.876 241.036 381.064 240.313 382.226 239.571C386.547 236.823 390.64 233.733 394.467 230.332C397.198 227.901 399.87 225.204 401.168 221.787C401.764 220.216 402.036 218.404 401.324 216.882C400.151 214.381 396.825 213.681 394.105 214.202C389.34 215.114 385.533 218.603 382.157 222.081C379.355 224.971 376.22 228.171 372.198 228.349C371.512 228.413 370.823 228.275 370.215 227.951C369.067 227.257 368.772 225.649 369.181 224.372C369.69 223.128 370.464 222.011 371.45 221.097C376.759 215.407 381.984 209.489 385.431 202.519C388.879 195.548 390.406 187.317 388.011 179.915C387.374 177.718 386.205 175.712 384.606 174.074C383.8 173.264 382.825 172.642 381.751 172.252C380.677 171.862 379.529 171.714 378.391 171.817C375.312 172.222 372.993 174.818 371.433 177.498C366.067 186.695 366.398 197.963 364.887 208.497C364.464 211.446 363.849 214.471 362.091 216.899C361.929 217.132 361.719 217.328 361.474 217.474C360.027 218.311 358.728 216.623 358.185 215.191C356.039 209.524 355.502 203.043 351.662 198.353C350.198 196.567 348.123 195.078 345.812 195.09C342.99 195.109 340.573 197.464 339.749 200.161C338.925 202.859 339.418 205.788 340.301 208.466C341.939 213.432 344.875 217.892 348.335 221.814C350.159 223.884 352.221 225.976 352.768 228.677C352.936 229.595 352.866 230.541 352.565 231.424C352.264 232.307 351.741 233.099 351.048 233.724C350.723 234.006 350.346 234.22 349.937 234.354C349.528 234.487 349.097 234.537 348.669 234.501C347.749 234.348 346.872 234.002 346.096 233.485C345.757 233.292 345.417 233.097 345.075 232.905C343.726 232.138 342.377 231.37 341.027 230.601C337.597 228.646 333.456 226.649 329.88 228.332C328.997 228.783 328.22 229.417 327.604 230.192C326.987 230.968 326.543 231.866 326.303 232.827C325.8 234.589 325.8 236.456 326.303 238.217C327.367 241.882 334.075 252.081 336.842 254.711C340.074 257.776 351.28 271.027 375.507 263.527Z" fill="#929292"/>
<path d="M149.188 120.857H137.465V196.658H149.188V120.857Z" fill="#C5C5C5"/>
<path d="M149.188 120.857H140.793V196.658H149.188V120.857Z" fill="#929292"/>
<path d="M257.829 120.857H246.105V196.658H257.829V120.857Z" fill="#C5C5C5"/>
<path d="M257.828 120.857H249.434V196.658H257.828V120.857Z" fill="#929292"/>
<path d="M132.485 196.658H120.762V265.794H132.485V196.658Z" fill="#C5C5C5"/>
<path d="M132.485 196.658H124.09V265.794H132.485V196.658Z" fill="#929292"/>
<path d="M274.415 196.658H262.691V265.794H274.415V196.658Z" fill="#C5C5C5"/>
<path d="M274.414 196.658H266.02V265.794H274.414V196.658Z" fill="#929292"/>
<path d="M171.087 196.658H159.363V265.794H171.087V196.658Z" fill="#C5C5C5"/>
<path d="M171.086 196.658H162.691V265.794H171.086V196.658Z" fill="#929292"/>
<path d="M309.689 196.658H297.965V265.794H309.689V196.658Z" fill="#C5C5C5"/>
<path d="M309.688 196.658H301.293V265.794H309.688V196.658Z" fill="#929292"/>
<path d="M276.223 125.551H115.738V136.48H276.223V125.551Z" fill="#C5C5C5"/>
<path d="M276.223 147.806H115.738V158.736H276.223V147.806Z" fill="#C5C5C5"/>
<path d="M276.223 170.062H115.738V180.991H276.223V170.062Z" fill="#C5C5C5"/>
<path d="M279.552 125.551H119.066V136.48H279.552V125.551Z" fill="#929292"/>
<path d="M279.552 147.806H119.066V158.736H279.552V147.806Z" fill="#929292"/>
<path d="M279.552 170.062H119.066V180.991H279.552V170.062Z" fill="#929292"/>
<path d="M156.641 192.95H115.738V200.366H156.641V192.95Z" fill="#C5C5C5"/>
<path d="M315.621 192.95H156.641V200.366H315.621V192.95Z" fill="#929292"/>
<path d="M241.379 17.7046C242.359 8.90499 246.501 3.88175 251.581 1.4654C256.593 -0.916407 271.495 -1.71253 275.72 9.67193C278.477 17.1002 276.748 19.4254 276.405 30.7444C276.063 42.0634 279.847 43.7163 282.176 57.7696C284.002 68.7938 265.811 72.3147 250.712 69.9818C235.613 67.6488 226.415 63.1287 226.71 53.3924C227.133 39.419 239.456 34.9531 241.379 17.7046Z" fill="#0F1011"/>
<path d="M247.445 43.103C247.445 43.103 252.299 41.1916 252.68 28.6175L262.342 27.9267C262.342 27.9267 260.02 38.9783 264.408 43.0631L247.445 43.103Z" fill="#E98862"/>
<g opacity="0.15">
<path d="M262.732 40.511L255.547 33.6192L261.729 34.2492C261.67 36.3807 262.01 38.5043 262.732 40.511Z" fill="black"/>
</g>
<path d="M247.856 23.1822C248.086 27.0365 249.747 30.848 252.948 32.4444C256.425 34.2959 260.302 35.2696 264.241 35.2806C274.698 35.5968 275.299 11.8346 270.895 6.71135C266.491 1.58807 251.728 2.85817 249.111 10.3073C247.757 14.1593 247.637 19.5142 247.856 23.1822Z" fill="#E98862"/>
<path d="M263.102 21.9418C263.579 21.9418 263.966 21.5555 263.966 21.079C263.966 20.6025 263.579 20.2162 263.102 20.2162C262.625 20.2162 262.238 20.6025 262.238 21.079C262.238 21.5555 262.625 21.9418 263.102 21.9418Z" fill="#0F1011"/>
<path d="M269.934 22.1484C270.411 22.1484 270.798 21.7621 270.798 21.2856C270.798 20.8091 270.411 20.4228 269.934 20.4228C269.457 20.4228 269.07 20.8091 269.07 21.2856C269.07 21.7621 269.457 22.1484 269.934 22.1484Z" fill="#0F1011"/>
<path d="M271.673 19.6279C271.656 19.6278 271.639 19.6268 271.622 19.6249L269.352 19.3409C269.245 19.3275 269.148 19.2722 269.081 19.1872C269.015 19.1022 268.986 18.9945 268.999 18.8878C269.013 18.781 269.068 18.6839 269.153 18.6179C269.238 18.552 269.346 18.5224 269.453 18.5358L271.723 18.8205C271.825 18.834 271.918 18.8856 271.983 18.9649C272.048 19.0441 272.081 19.1451 272.075 19.2475C272.068 19.3499 272.023 19.4461 271.949 19.5167C271.874 19.5872 271.776 19.627 271.673 19.6279Z" fill="#0F1011"/>
<path d="M261.469 19.32C261.365 19.3201 261.266 19.2808 261.19 19.21C261.115 19.1393 261.07 19.0424 261.063 18.9393C261.057 18.8362 261.09 18.7345 261.156 18.6551C261.223 18.5757 261.317 18.5245 261.419 18.512L263.722 18.225C263.829 18.2139 263.935 18.2444 264.02 18.3102C264.104 18.3759 264.16 18.4717 264.175 18.5775C264.188 18.6841 264.158 18.7915 264.092 18.8763C264.026 18.961 263.929 19.0161 263.822 19.0295L261.52 19.3171C261.503 19.319 261.486 19.32 261.469 19.32Z" fill="#0F1011"/>
<path d="M262.738 27.8761C262.738 27.8761 265.869 28.5662 268.177 28.0404C268.177 28.0404 267.925 30.1245 265.395 30.0465C262.864 29.9685 262.738 27.8761 262.738 27.8761Z" fill="white"/>
<path d="M255.931 14.1718C253.625 31.2017 251.172 37.6243 251.172 37.6243C251.172 37.6243 244.277 26.8817 244.317 16.3982C244.355 6.57022 252.164 1.64225 257.125 1.10516C275.979 -0.93546 275.623 12.5766 275.623 12.5766C273.883 16.9889 253.524 17.3807 253.524 17.3807" fill="#0F1011"/>
<path d="M258.349 24.2873C258.312 25.2519 257.895 26.1628 257.189 26.8216C256.483 27.4804 255.544 27.8337 254.579 27.8045C253.613 27.7753 252.697 27.3659 252.032 26.6656C251.367 25.9653 251.006 25.0308 251.028 24.0658C251.035 23.5832 251.138 23.1068 251.333 22.6651C251.528 22.2233 251.809 21.8252 252.161 21.4944C252.513 21.1636 252.928 20.9069 253.381 20.7396C253.834 20.5723 254.317 20.4978 254.799 20.5205C257.402 20.7277 258.41 22.2699 258.349 24.2873Z" fill="#E98862"/>
<g opacity="0.15">
<path d="M266.372 26.2624C266.301 26.254 266.236 26.2205 266.188 26.168C266.14 26.1155 266.112 26.0476 266.11 25.9765C266.107 25.9053 266.131 25.8357 266.175 25.7803C266.22 25.7248 266.283 25.6872 266.353 25.6741L268.159 25.3353L267.245 22.4813C267.227 22.4077 267.237 22.3299 267.274 22.2638C267.312 22.1976 267.373 22.1481 267.445 22.1253C267.517 22.1025 267.596 22.1082 267.664 22.1411C267.732 22.1741 267.786 22.2319 267.813 22.3027L268.831 25.477C268.844 25.5172 268.848 25.5597 268.843 25.6017C268.839 25.6436 268.825 25.6841 268.803 25.7204C268.782 25.7566 268.752 25.7879 268.718 25.812C268.683 25.8362 268.644 25.8527 268.602 25.8605L266.465 26.2624C266.434 26.2673 266.403 26.2673 266.372 26.2624Z" fill="black"/>
</g>
<path d="M232.633 117.14L232.407 117.338L233.38 113.966L226.047 114.272C226.047 114.272 217.992 124.417 221.483 132.583C221.572 132.791 221.721 132.968 221.912 133.089C222.103 133.211 222.327 133.272 222.553 133.265C222.779 133.258 222.998 133.182 223.181 133.049C223.364 132.916 223.502 132.73 223.578 132.517C224.717 129.295 226.933 123.637 229.074 121.627C229.095 122.964 229.232 124.791 229.829 124.794C231.398 124.807 232.141 118.845 232.633 117.14Z" fill="#E98862"/>
<path d="M265.311 47.1084L222.668 113.443L233.605 120.458L276.249 54.1234L265.311 47.1084Z" fill="#367CFF"/>
<path d="M289.872 114.129L290.17 114.188L287.637 111.755L294.135 108.353C294.135 108.353 306.193 113.106 307.265 121.921C307.292 122.145 307.251 122.373 307.146 122.574C307.042 122.775 306.879 122.94 306.68 123.047C306.48 123.154 306.252 123.198 306.027 123.174C305.802 123.15 305.589 123.059 305.417 122.912C302.816 120.692 298.061 116.903 295.2 116.233C295.852 117.401 296.649 119.051 296.135 119.353C294.784 120.145 291.154 115.359 289.872 114.129Z" fill="#E98862"/>
<path d="M313.772 282.954L301.34 281.477C301.9 276.778 302.532 271.132 302.575 270.207C302.575 270.266 302.575 270.315 302.575 270.353H315.094C315.092 270.728 315.092 271.868 313.772 282.954Z" fill="#E98862"/>
<path d="M186.405 275.889L175.43 269.875C175.43 269.875 181.649 258.555 182.196 257.549L193.191 263.529C192.642 264.536 186.405 275.889 186.405 275.889Z" fill="#E98862"/>
<path d="M284.21 197.316C288.352 224.578 293.126 253.077 296.443 280.347L318.287 277.289C313.603 249.074 310.21 219.284 305.989 190.968C297.073 165.101 274.654 107.939 274.654 107.939L229.301 105.144C229.301 105.144 220.499 173.057 217.15 194.742L175.406 263.147L194.057 274.909L239.393 205.628C240.214 204.36 240.78 202.944 241.058 201.459C241.16 200.932 244.244 184.045 244.331 183.61C247.371 167.785 255.139 134.414 255.139 134.414C264.833 155.336 275.994 176.188 284.21 197.316Z" fill="#262626"/>
<path d="M197.456 287.406C197.752 287.566 198.079 287.663 198.414 287.691C198.75 287.719 199.088 287.677 199.407 287.569C199.726 287.461 200.019 287.288 200.268 287.061C200.517 286.834 200.716 286.559 200.854 286.251C201.044 285.826 201.11 285.355 201.041 284.894C200.973 284.433 200.774 284.001 200.468 283.649L190.005 272.407C189.802 272.19 189.554 272.02 189.279 271.908C189.004 271.795 188.708 271.744 188.411 271.756C185.986 272.019 183.541 271.497 181.436 270.268C179.833 269.242 178.551 267.788 177.736 266.071C177.67 265.909 177.56 265.769 177.418 265.668C177.275 265.566 177.107 265.507 176.932 265.498C176.758 265.488 176.584 265.528 176.431 265.613C176.279 265.699 176.154 265.826 176.07 265.979L172.663 272.231C172.562 272.416 172.499 272.618 172.477 272.827C172.456 273.036 172.475 273.247 172.535 273.448C172.595 273.649 172.694 273.837 172.826 274C172.959 274.163 173.122 274.298 173.307 274.398L197.456 287.406Z" fill="#C1D8ED"/>
<path d="M329.028 289.285C329.365 289.284 329.697 289.213 330.005 289.077C330.313 288.941 330.59 288.744 330.818 288.496C331.046 288.249 331.221 287.957 331.331 287.639C331.441 287.321 331.484 286.984 331.458 286.649C331.422 286.184 331.253 285.74 330.972 285.367C330.691 284.995 330.31 284.711 329.873 284.548L315.302 279.673C315.02 279.579 314.72 279.548 314.425 279.581C314.129 279.614 313.845 279.71 313.59 279.863C311.586 281.251 309.19 281.961 306.753 281.888C304.855 281.753 303.033 281.088 301.495 279.969C301.36 279.858 301.196 279.788 301.022 279.767C300.849 279.746 300.673 279.774 300.515 279.849C300.357 279.924 300.224 280.042 300.13 280.19C300.037 280.338 299.988 280.509 299.988 280.683V287.8C299.988 288.01 300.03 288.218 300.11 288.412C300.191 288.606 300.309 288.782 300.458 288.93C300.607 289.078 300.784 289.195 300.978 289.275C301.173 289.355 301.381 289.396 301.591 289.395L329.028 289.285Z" fill="#C1D8ED"/>
<path d="M297.718 107.246L276.917 85.9202C276.949 84.6728 277.006 83.3598 277.099 81.9569C278.188 65.4736 288.091 43.4942 268.387 41.5703C268.013 41.5322 267.413 41.4876 266.639 41.4334C266.306 44.6953 246.032 43.5806 245.785 40.2216C240.059 39.9162 235.266 41.4125 232.398 43.9843C222.513 52.8393 233.149 69.4232 232.468 81.9093C231.787 94.3953 225.828 99.6883 225.895 106.12C226.001 116.228 275.136 116.515 277.944 110.924C278.638 109.558 278.948 108.029 278.842 106.5L288.408 116.306L297.718 107.246Z" fill="#367CFF"/>
<path d="M266.639 41.4334C266.306 44.6953 264.264 49.4083 258.75 49.472C251.402 49.5554 246.032 43.577 245.785 40.221H245.803C253.012 40.6146 262.44 41.1392 266.639 41.4334Z" fill="#E98862"/>
</g>
<defs>
<clipPath id="clip0_2804_11653">
<rect width="468" height="309" fill="white"/>
</clipPath>
</defs>
</svg>
