<svg xmlns="http://www.w3.org/2000/svg" width="28" height="20" viewBox="0 0 28 20">
  <path id="Path_418" data-name="Path 418" d="M575.984,89.744q-.015-.844-.132-2.133a19.368,19.368,0,0,0-.336-2.3,3.633,3.633,0,0,0-1.086-1.922,3.331,3.331,0,0,0-1.946-.906,140.944,140.944,0,0,0-20.968,0,3.294,3.294,0,0,0-1.938.906,3.654,3.654,0,0,0-1.078,1.922,17.279,17.279,0,0,0-.352,2.3q-.117,1.289-.133,2.133T548,92.088q0,1.5.016,2.344t.133,2.133a19.351,19.351,0,0,0,.336,2.3,3.631,3.631,0,0,0,1.086,1.922,3.332,3.332,0,0,0,1.946.906,102.393,102.393,0,0,0,10.484.391,102.4,102.4,0,0,0,10.484-.391,3.3,3.3,0,0,0,1.938-.906,3.654,3.654,0,0,0,1.078-1.922,17.3,17.3,0,0,0,.352-2.3q.117-1.289.132-2.133T576,92.088Q576,90.588,575.984,89.744Zm-8.453,3.188-8,5a.891.891,0,0,1-.531.156,1.082,1.082,0,0,1-.484-.125.93.93,0,0,1-.515-.875v-10a.931.931,0,0,1,.515-.875.941.941,0,0,1,1.016.031l8,5a.994.994,0,0,1,0,1.687Z" transform="translate(-548 -82.088)" fill="#fff"/>
</svg>
