<svg width="65" height="65" viewBox="0 0 65 65" fill="none" xmlns="http://www.w3.org/2000/svg">
<path d="M35.5654 50.0895C35.5654 51.2009 34.3004 51.8391 33.4065 51.1786L19.1922 40.6763C19.1456 40.6419 19.0892 40.6233 19.0313 40.6233H9.47917C8.73128 40.6233 8.125 40.017 8.125 39.2691V25.7274C8.125 24.9796 8.73128 24.3733 9.47917 24.3733H19.0351C19.0931 24.3733 19.1495 24.3547 19.1961 24.3203L33.4065 13.8199C34.3004 13.1594 35.5654 13.7975 35.5654 14.909L35.5654 50.0895Z" fill="white"/>
<path d="M55.8779 18.9584C56.6258 18.9584 57.2321 19.5647 57.2321 20.3126V44.6876C57.2321 45.4354 56.6258 46.0417 55.8779 46.0417H53.1696C52.4217 46.0417 51.8154 45.4354 51.8154 44.6876V20.3126C51.8154 19.5647 52.4217 18.9584 53.1696 18.9584H55.8779Z" fill="white"/>
<path d="M45.0446 24.3751C45.7924 24.3751 46.3987 24.9813 46.3987 25.7292L46.3987 39.2709C46.3987 40.0188 45.7924 40.6251 45.0446 40.6251H42.3362C41.5883 40.6251 40.9821 40.0188 40.9821 39.2709V25.7292C40.9821 24.9813 41.5883 24.3751 42.3362 24.3751H45.0446Z" fill="white"/>
</svg>
