<svg width="45" height="45" viewBox="0 0 45 45" fill="none" xmlns="http://www.w3.org/2000/svg">
<path d="M19.9687 35.8313V9.16875C19.9687 6.6375 18.9 5.625 16.2 5.625H9.39375C6.69375 5.625 5.625 6.6375 5.625 9.16875V35.8313C5.625 38.3625 6.69375 39.375 9.39375 39.375H16.2C18.9 39.375 19.9687 38.3625 19.9687 35.8313Z" stroke="white" stroke-width="2" stroke-linecap="round" stroke-linejoin="round"/>
<path d="M39.375 35.8313V9.16875C39.375 6.6375 38.3062 5.625 35.6062 5.625H28.8C26.1187 5.625 25.0312 6.6375 25.0312 9.16875V35.8313C25.0312 38.3625 26.1 39.375 28.8 39.375H35.6062C38.3062 39.375 39.375 38.3625 39.375 35.8313Z" stroke="white" stroke-width="2" stroke-linecap="round" stroke-linejoin="round"/>
</svg>
