<svg width="45" height="45" viewBox="0 0 45 45" fill="none" xmlns="http://www.w3.org/2000/svg">
<path d="M17.8876 29.85V19.8375L15.0751 22.9687" stroke="white" stroke-width="2" stroke-linecap="round" stroke-linejoin="round"/>
<path d="M18.7875 8.3812L22.5 3.75" stroke="white" stroke-width="2" stroke-linecap="round" stroke-linejoin="round"/>
<path d="M9.20621 14.625C7.12496 17.4 5.83118 20.8313 5.83118 24.5813C5.83118 33.7875 13.2937 41.25 22.5 41.25C31.7062 41.25 39.1687 33.7875 39.1687 24.5813C39.1687 15.375 31.7062 7.91248 22.5 7.91248C21.225 7.91248 19.9874 8.08132 18.7874 8.36257" stroke="white" stroke-width="2" stroke-linecap="round" stroke-linejoin="round"/>
<path d="M26.25 19.8375C28.3125 19.8375 30 21.525 30 23.5875V26.1187C30 28.1812 28.3125 29.8687 26.25 29.8687C24.1875 29.8687 22.5 28.1812 22.5 26.1187V23.5875C22.5 21.5063 24.1875 19.8375 26.25 19.8375Z" stroke="white" stroke-width="2" stroke-linecap="round" stroke-linejoin="round"/>
</svg>
