<svg width="65" height="65" viewBox="0 0 65 65" fill="none" xmlns="http://www.w3.org/2000/svg">
<path d="M35.5654 50.0894C35.5654 51.2008 34.3004 51.839 33.4065 51.1785L19.1922 40.6762C19.1456 40.6417 19.0892 40.6232 19.0313 40.6232H9.47917C8.73128 40.6232 8.125 40.0169 8.125 39.269V25.7273C8.125 24.9794 8.73128 24.3732 9.47917 24.3732H19.0351C19.0931 24.3732 19.1495 24.3546 19.1961 24.3201L33.4065 13.8198C34.3004 13.1592 35.5654 13.7974 35.5654 14.9088L35.5654 50.0894Z" fill="white"/>
<path d="M58.6262 27.7106C59.155 27.1818 59.155 26.3244 58.6262 25.7956L56.7111 23.8805C56.1822 23.3516 55.3248 23.3516 54.796 23.8805L50.1991 28.4774C50.0933 28.5831 49.9218 28.5831 49.8161 28.4774L45.2196 23.8809C44.6908 23.352 43.8333 23.352 43.3045 23.8809L41.3894 25.796C40.8606 26.3248 40.8606 27.1822 41.3894 27.711L45.9859 32.3075C46.0917 32.4133 46.0917 32.5848 45.9859 32.6906L41.3904 37.286C40.8616 37.8149 40.8616 38.6723 41.3904 39.2011L43.3055 41.1162C43.8344 41.645 44.6918 41.645 45.2206 41.1162L49.8161 36.5207C49.9218 36.415 50.0933 36.415 50.1991 36.5207L54.795 41.1166C55.3238 41.6454 56.1812 41.6454 56.7101 41.1166L58.6251 39.2015C59.154 38.6727 59.154 37.8153 58.6251 37.2864L54.0293 32.6906C53.9235 32.5848 53.9235 32.4133 54.0293 32.3075L58.6262 27.7106Z" fill="white"/>
</svg>
