<svg width="40" height="40" viewBox="0 0 40 40" fill="none" xmlns="http://www.w3.org/2000/svg">
<path d="M23.3 7.44993L20 3.33331" stroke="white" stroke-width="2" stroke-linecap="round" stroke-linejoin="round"/>
<path d="M31.8167 13C33.6667 15.4666 34.8167 18.5166 34.8167 21.85C34.8167 30.0333 28.1834 36.6666 20 36.6666C11.8167 36.6666 5.18335 30.0333 5.18335 21.85C5.18335 13.6666 11.8167 7.03326 20 7.03326C21.1334 7.03326 22.2334 7.18335 23.3001 7.43335" stroke="white" stroke-width="2" stroke-linecap="round" stroke-linejoin="round"/>
<path d="M15.9 26.5333V17.6334L13.4 20.4167" stroke="white" stroke-width="2" stroke-linecap="round" stroke-linejoin="round"/>
<path d="M23.3333 17.6334C25.1667 17.6334 26.6667 19.1334 26.6667 20.9667V23.2167C26.6667 25.05 25.1667 26.55 23.3333 26.55C21.5 26.55 20 25.05 20 23.2167V20.9667C20 19.1167 21.5 17.6334 23.3333 17.6334Z" stroke="white" stroke-width="2" stroke-linecap="round" stroke-linejoin="round"/>
</svg>
