<svg width="40" height="40" viewBox="0 0 40 40" fill="none" xmlns="http://www.w3.org/2000/svg">
<path d="M24.9999 13.95V12.35C24.9999 7.38331 21.5499 5.48331 17.3499 8.11664L12.4833 11.1666C11.9499 11.4833 11.3333 11.6666 10.7166 11.6666H8.33325C4.99992 11.6666 3.33325 13.3333 3.33325 16.6666V23.3333C3.33325 26.6666 4.99992 28.3333 8.33325 28.3333H11.6666" stroke="white" stroke-width="2" stroke-linecap="round" stroke-linejoin="round"/>
<path d="M17.3501 31.8833C21.5501 34.5166 25.0001 32.6 25.0001 27.65V21.5833" stroke="white" stroke-width="2" stroke-linecap="round" stroke-linejoin="round"/>
<path d="M31.35 15.7C32.85 19.2833 32.4 23.4667 30 26.6667" stroke="white" stroke-width="2" stroke-linecap="round" stroke-linejoin="round"/>
<path d="M35.25 13C37.7 18.8167 36.9667 25.6167 33.05 30.8333" stroke="white" stroke-width="2" stroke-linecap="round" stroke-linejoin="round"/>
<path d="M36.6666 3.33331L3.33325 36.6666" stroke="white" stroke-width="2" stroke-linecap="round" stroke-linejoin="round"/>
</svg>
