<svg width="40" height="40" viewBox="0 0 40 40" fill="none" xmlns="http://www.w3.org/2000/svg">
<path d="M17.75 31.85V8.15C17.75 5.9 16.8 5 14.4 5H8.35C5.95 5 5 5.9 5 8.15V31.85C5 34.1 5.95 35 8.35 35H14.4C16.8 35 17.75 34.1 17.75 31.85Z" stroke="white" stroke-width="2" stroke-linecap="round" stroke-linejoin="round"/>
<path d="M35 31.85V8.15C35 5.9 34.05 5 31.65 5H25.6C23.2167 5 22.25 5.9 22.25 8.15V31.85C22.25 34.1 23.2 35 25.6 35H31.65C34.05 35 35 34.1 35 31.85Z" stroke="white" stroke-width="2" stroke-linecap="round" stroke-linejoin="round"/>
</svg>
