<svg width="45" height="45" viewBox="0 0 45 45" fill="none" xmlns="http://www.w3.org/2000/svg">
<path d="M22.5 21.5625C21.9822 21.5625 21.5625 21.9822 21.5625 22.5V28.125C21.5625 28.6428 21.9822 29.0625 22.5 29.0625H30C30.5178 29.0625 30.9375 28.6428 30.9375 28.125V22.5C30.9375 21.9822 30.5178 21.5625 30 21.5625H22.5Z" fill="white"/>
<path fill-rule="evenodd" clip-rule="evenodd" d="M7.5 10.3125C7.5 9.79473 7.91973 9.375 8.4375 9.375H36.5625C37.0803 9.375 37.5 9.79473 37.5 10.3125V34.6875C37.5 35.2053 37.0803 35.625 36.5625 35.625H8.4375C7.91973 35.625 7.5 35.2053 7.5 34.6875V10.3125ZM11.25 14.0625C11.25 13.5447 11.6697 13.125 12.1875 13.125H32.8125C33.3303 13.125 33.75 13.5447 33.75 14.0625V30.9375C33.75 31.4553 33.3303 31.875 32.8125 31.875H12.1875C11.6697 31.875 11.25 31.4553 11.25 30.9375V14.0625Z" fill="white"/>
</svg>
