<svg width="40" height="40" viewBox="0 0 40 40" fill="none" xmlns="http://www.w3.org/2000/svg">
<path d="M20 25C22.7614 25 25 22.7614 25 20C25 17.2386 22.7614 15 20 15C17.2386 15 15 17.2386 15 20C15 22.7614 17.2386 25 20 25Z" stroke="white" stroke-width="2" stroke-miterlimit="10" stroke-linecap="round" stroke-linejoin="round"/>
<path d="M3.33337 21.4667V18.5333C3.33337 16.8 4.75004 15.3667 6.50004 15.3667C9.51671 15.3667 10.75 13.2333 9.23337 10.6167C8.36671 9.11666 8.88337 7.16666 10.4 6.3L13.2834 4.65C14.6 3.86666 16.3 4.33333 17.0834 5.65L17.2667 5.96666C18.7667 8.58333 21.2334 8.58333 22.75 5.96666L22.9334 5.65C23.7167 4.33333 25.4167 3.86666 26.7334 4.65L29.6167 6.3C31.1334 7.16666 31.65 9.11666 30.7834 10.6167C29.2667 13.2333 30.5 15.3667 33.5167 15.3667C35.25 15.3667 36.6834 16.7833 36.6834 18.5333V21.4667C36.6834 23.2 35.2667 24.6333 33.5167 24.6333C30.5 24.6333 29.2667 26.7667 30.7834 29.3833C31.65 30.9 31.1334 32.8333 29.6167 33.7L26.7334 35.35C25.4167 36.1333 23.7167 35.6667 22.9334 34.35L22.75 34.0333C21.25 31.4167 18.7834 31.4167 17.2667 34.0333L17.0834 34.35C16.3 35.6667 14.6 36.1333 13.2834 35.35L10.4 33.7C8.88337 32.8333 8.36671 30.8833 9.23337 29.3833C10.75 26.7667 9.51671 24.6333 6.50004 24.6333C4.75004 24.6333 3.33337 23.2 3.33337 21.4667Z" stroke="white" stroke-width="2" stroke-miterlimit="10" stroke-linecap="round" stroke-linejoin="round"/>
</svg>
